G04 #@! TF.FileFunction,Copper,L1,Top,Signal*
%FSLAX46Y46*%
G04 Gerber Fmt 4.6, Leading zero omitted, Abs format (unit mm)*
G04 Created by KiCad (PCBNEW 4.0.7) date Tue Mar  6 11:31:25 2018*
%MOMM*%
%LPD*%
G01*
G04 APERTURE LIST*
%ADD10C,0.150000*%
%ADD11R,3.500000X3.500000*%
%ADD12R,2.000000X1.600000*%
%ADD13R,2.500000X1.800000*%
%ADD14R,1.750000X1.750000*%
%ADD15C,1.750000*%
%ADD16R,2.000000X1.700000*%
%ADD17R,1.100000X4.600000*%
%ADD18R,10.800000X9.400000*%
%ADD19R,5.250000X4.550000*%
%ADD20R,1.778000X1.778000*%
%ADD21C,1.778000*%
%ADD22C,0.800000*%
%ADD23C,0.600000*%
%ADD24C,0.500000*%
%ADD25C,0.250000*%
%ADD26C,0.254000*%
G04 APERTURE END LIST*
D10*
D11*
X71120000Y86360000D03*
X71120000Y92360000D03*
X66420000Y89360000D03*
D12*
X84550000Y97790000D03*
X80550000Y97790000D03*
X84550000Y90170000D03*
X80550000Y90170000D03*
D13*
X84550000Y93980000D03*
X80550000Y93980000D03*
D14*
X88265000Y5080000D03*
D15*
X90765000Y5080000D03*
X93265000Y5080000D03*
X95765000Y5080000D03*
D14*
X88265000Y13970000D03*
D15*
X90765000Y13970000D03*
X93265000Y13970000D03*
X95765000Y13970000D03*
D14*
X88265000Y22860000D03*
D15*
X90765000Y22860000D03*
X93265000Y22860000D03*
X95765000Y22860000D03*
D14*
X88265000Y31750000D03*
D15*
X90765000Y31750000D03*
X93265000Y31750000D03*
X95765000Y31750000D03*
D14*
X69850000Y54610000D03*
D15*
X72350000Y54610000D03*
X74850000Y54610000D03*
X77350000Y54610000D03*
D14*
X69850000Y63500000D03*
D15*
X72350000Y63500000D03*
X74850000Y63500000D03*
X77350000Y63500000D03*
D14*
X69850000Y72390000D03*
D15*
X72350000Y72390000D03*
X74850000Y72390000D03*
X77350000Y72390000D03*
D14*
X69850000Y5080000D03*
D15*
X72350000Y5080000D03*
X74850000Y5080000D03*
X77350000Y5080000D03*
D14*
X69850000Y13970000D03*
D15*
X72350000Y13970000D03*
X74850000Y13970000D03*
X77350000Y13970000D03*
D14*
X69850000Y22860000D03*
D15*
X72350000Y22860000D03*
X74850000Y22860000D03*
X77350000Y22860000D03*
D14*
X69850000Y31750000D03*
D15*
X72350000Y31750000D03*
X74850000Y31750000D03*
X77350000Y31750000D03*
D14*
X88265000Y72390000D03*
D15*
X90765000Y72390000D03*
X93265000Y72390000D03*
X95765000Y72390000D03*
D14*
X88265000Y63500000D03*
D15*
X90765000Y63500000D03*
X93265000Y63500000D03*
X95765000Y63500000D03*
D14*
X88265000Y54610000D03*
D15*
X90765000Y54610000D03*
X93265000Y54610000D03*
X95765000Y54610000D03*
D14*
X88265000Y45720000D03*
D15*
X90765000Y45720000D03*
X93265000Y45720000D03*
X95765000Y45720000D03*
D16*
X80550000Y83820000D03*
X84550000Y83820000D03*
X80550000Y86995000D03*
X84550000Y86995000D03*
D17*
X90805000Y84830000D03*
X95885000Y84830000D03*
D18*
X93345000Y93980000D03*
D19*
X96120000Y96405000D03*
X90570000Y91555000D03*
X90570000Y96405000D03*
X96120000Y91555000D03*
D20*
X5080000Y64770000D03*
D21*
X5080000Y62230000D03*
X5080000Y59690000D03*
X5080000Y57150000D03*
X5080000Y54610000D03*
X5080000Y52070000D03*
X5080000Y49530000D03*
X5080000Y46990000D03*
X5080000Y44450000D03*
X5080000Y41910000D03*
X5080000Y39370000D03*
X5080000Y36830000D03*
X5080000Y34290000D03*
X5080000Y31750000D03*
X5080000Y29210000D03*
X5080000Y26670000D03*
X5080000Y24130000D03*
X5080000Y21590000D03*
X5080000Y19050000D03*
X5080000Y16510000D03*
X5080000Y13970000D03*
X5080000Y11430000D03*
X5080000Y8890000D03*
X5080000Y6350000D03*
X5080000Y3810000D03*
X7620000Y64770000D03*
X7620000Y62230000D03*
X7620000Y59690000D03*
X7620000Y57150000D03*
X7620000Y54610000D03*
X7620000Y52070000D03*
X7620000Y49530000D03*
X7620000Y46990000D03*
X7620000Y44450000D03*
X7620000Y41910000D03*
X7620000Y39370000D03*
X7620000Y36830000D03*
X7620000Y34290000D03*
X7620000Y31750000D03*
X7620000Y29210000D03*
X7620000Y26670000D03*
X7620000Y24130000D03*
X7620000Y21590000D03*
X7620000Y19050000D03*
X7620000Y16510000D03*
X7620000Y13970000D03*
X7620000Y11430000D03*
X7620000Y8890000D03*
X7620000Y6350000D03*
X7620000Y3810000D03*
D20*
X55880000Y64770000D03*
D21*
X55880000Y62230000D03*
X55880000Y59690000D03*
X55880000Y57150000D03*
X55880000Y54610000D03*
X55880000Y52070000D03*
X55880000Y49530000D03*
X55880000Y46990000D03*
X55880000Y44450000D03*
X55880000Y41910000D03*
X55880000Y39370000D03*
X55880000Y36830000D03*
X55880000Y34290000D03*
X55880000Y31750000D03*
X55880000Y29210000D03*
X55880000Y26670000D03*
X55880000Y24130000D03*
X55880000Y21590000D03*
X55880000Y19050000D03*
X55880000Y16510000D03*
X55880000Y13970000D03*
X55880000Y11430000D03*
X55880000Y8890000D03*
X55880000Y6350000D03*
X55880000Y3810000D03*
X58420000Y64770000D03*
X58420000Y62230000D03*
X58420000Y59690000D03*
X58420000Y57150000D03*
X58420000Y54610000D03*
X58420000Y52070000D03*
X58420000Y49530000D03*
X58420000Y46990000D03*
X58420000Y44450000D03*
X58420000Y41910000D03*
X58420000Y39370000D03*
X58420000Y36830000D03*
X58420000Y34290000D03*
X58420000Y31750000D03*
X58420000Y29210000D03*
X58420000Y26670000D03*
X58420000Y24130000D03*
X58420000Y21590000D03*
X58420000Y19050000D03*
X58420000Y16510000D03*
X58420000Y13970000D03*
X58420000Y11430000D03*
X58420000Y8890000D03*
X58420000Y6350000D03*
X58420000Y3810000D03*
D20*
X5080000Y95250000D03*
D21*
X5080000Y92710000D03*
D20*
X58420000Y95250000D03*
D21*
X58420000Y92710000D03*
D22*
X92710000Y85725000D03*
X93980000Y85725000D03*
D23*
X82550000Y83820000D03*
X82550000Y86995000D03*
D24*
X90805000Y84830000D02*
X91815000Y84830000D01*
X91815000Y84830000D02*
X92710000Y85725000D01*
X86995000Y87590000D02*
X89755000Y84830000D01*
X84550000Y93980000D02*
X84900000Y93980000D01*
X84900000Y93980000D02*
X86995000Y91885000D01*
X86995000Y91885000D02*
X86995000Y87590000D01*
X89755000Y84830000D02*
X90805000Y84830000D01*
X84550000Y97790000D02*
X84550000Y93980000D01*
X86995000Y96855000D02*
X86995000Y97155000D01*
X90570000Y96405000D02*
X87445000Y96405000D01*
X87445000Y96405000D02*
X86995000Y96855000D01*
D25*
X80550000Y97790000D02*
X80550000Y98840000D01*
D24*
X69215000Y82550000D02*
X72730000Y82550000D01*
X72730000Y82550000D02*
X80350000Y90170000D01*
X80350000Y90170000D02*
X80550000Y90170000D01*
X66420000Y85345000D02*
X69215000Y82550000D01*
X66420000Y89360000D02*
X66420000Y85345000D01*
X91440000Y92305000D02*
X91790000Y92305000D01*
X91790000Y92305000D02*
X96640000Y97155000D01*
X96640000Y97155000D02*
X96990000Y97155000D01*
X91440000Y97155000D02*
X91790000Y97155000D01*
X91790000Y97155000D02*
X96640000Y92305000D01*
X96640000Y92305000D02*
X96990000Y92305000D01*
X96990000Y92305000D02*
X96990000Y97155000D01*
X96990000Y92305000D02*
X91440000Y92305000D01*
X91440000Y92305000D02*
X91440000Y97155000D01*
X96990000Y97155000D02*
X91440000Y97155000D01*
X71120000Y92360000D02*
X71120000Y94610000D01*
X74300000Y97790000D02*
X80550000Y97790000D01*
X71120000Y94610000D02*
X74300000Y97790000D01*
X66420000Y89360000D02*
X66420000Y91610000D01*
X66420000Y91610000D02*
X67170000Y92360000D01*
X67170000Y92360000D02*
X71120000Y92360000D01*
X94500000Y80645000D02*
X95885000Y82030000D01*
X84550000Y80645000D02*
X94500000Y80645000D01*
X74330000Y78140000D02*
X76835000Y80645000D01*
X84550000Y83820000D02*
X84550000Y80645000D01*
X84550000Y80645000D02*
X84550000Y76105000D01*
X76835000Y80645000D02*
X84550000Y80645000D01*
X95885000Y82030000D02*
X95885000Y84830000D01*
X88265000Y72390000D02*
X84550000Y76105000D01*
X74225000Y78140000D02*
X74330000Y78140000D01*
X95885000Y84830000D02*
X94875000Y84830000D01*
X94875000Y84830000D02*
X93980000Y85725000D01*
X95885000Y82030000D02*
X95885000Y81915000D01*
X99060000Y78740000D02*
X99060000Y3175000D01*
X95885000Y81915000D02*
X99060000Y78740000D01*
X95885000Y83080000D02*
X95885000Y84830000D01*
X55880000Y62230000D02*
X53340000Y59690000D01*
X53340000Y59690000D02*
X53340000Y3175000D01*
X53340000Y3175000D02*
X55245000Y1270000D01*
X55245000Y1270000D02*
X97155000Y1270000D01*
X97155000Y1270000D02*
X99060000Y3175000D01*
X55880000Y62230000D02*
X58420000Y62230000D01*
X84550000Y90170000D02*
X84550000Y83820000D01*
X84550000Y86995000D02*
X84550000Y83820000D01*
X83925000Y10795000D02*
X88265000Y6455000D01*
X88265000Y6455000D02*
X88265000Y5080000D01*
X69850000Y13970000D02*
X69850000Y10795000D01*
X69850000Y10795000D02*
X69850000Y5080000D01*
X83925000Y10795000D02*
X69850000Y10795000D01*
X69850000Y22860000D02*
X69850000Y13970000D01*
X69850000Y31750000D02*
X69850000Y22860000D01*
X69850000Y63500000D02*
X69850000Y54610000D01*
X69850000Y72390000D02*
X69850000Y63500000D01*
X88265000Y54610000D02*
X88265000Y45720000D01*
X88265000Y63500000D02*
X88265000Y54610000D01*
X74225000Y78140000D02*
X69850000Y73765000D01*
X69850000Y73765000D02*
X69850000Y72390000D01*
X88265000Y72390000D02*
X88265000Y63500000D01*
X80550000Y93980000D02*
X78740000Y93980000D01*
X78740000Y93980000D02*
X71120000Y86360000D01*
D25*
X7620000Y41910000D02*
X26035000Y41910000D01*
X61595000Y42545000D02*
X64135000Y40005000D01*
X78105000Y40005000D02*
X81240000Y36870000D01*
X26035000Y41910000D02*
X51435000Y67310000D01*
X51435000Y67310000D02*
X60325000Y67310000D01*
X61595000Y66040000D02*
X61595000Y42545000D01*
X81240000Y36870000D02*
X81240000Y14605000D01*
X60325000Y67310000D02*
X61595000Y66040000D01*
X64135000Y40005000D02*
X78105000Y40005000D01*
X81240000Y14605000D02*
X90765000Y5080000D01*
X5080000Y41910000D02*
X6350000Y43180000D01*
X6350000Y43180000D02*
X26035000Y43180000D01*
X26035000Y43180000D02*
X50800000Y67945000D01*
X81915000Y16430000D02*
X93265000Y5080000D01*
X50800000Y67945000D02*
X60960000Y67945000D01*
X60960000Y67945000D02*
X62230000Y66675000D01*
X62230000Y66675000D02*
X62230000Y43180000D01*
X62230000Y43180000D02*
X64770000Y40640000D01*
X64770000Y40640000D02*
X78740000Y40640000D01*
X78740000Y40640000D02*
X81915000Y37465000D01*
X81915000Y37465000D02*
X81915000Y16430000D01*
X62865000Y43815000D02*
X62865000Y67310000D01*
X7620000Y44450000D02*
X26035000Y44450000D01*
X26035000Y44450000D02*
X50165000Y68580000D01*
X50165000Y68580000D02*
X61595000Y68580000D01*
X61595000Y68580000D02*
X62865000Y67310000D01*
X90765000Y13970000D02*
X82550000Y22185000D01*
X65405000Y41275000D02*
X62865000Y43815000D01*
X82550000Y22185000D02*
X82550000Y38100000D01*
X82550000Y38100000D02*
X79375000Y41275000D01*
X79375000Y41275000D02*
X65405000Y41275000D01*
X6405999Y45775999D02*
X26090999Y45775999D01*
X63500000Y67945000D02*
X63500000Y44450000D01*
X5080000Y44450000D02*
X6405999Y45775999D01*
X26090999Y45775999D02*
X49530000Y69215000D01*
X49530000Y69215000D02*
X62230000Y69215000D01*
X62230000Y69215000D02*
X63500000Y67945000D01*
X83185000Y38735000D02*
X83185000Y24050000D01*
X63500000Y44450000D02*
X66040000Y41910000D01*
X66040000Y41910000D02*
X80010000Y41910000D01*
X80010000Y41910000D02*
X83185000Y38735000D01*
X83185000Y24050000D02*
X93265000Y13970000D01*
X64135000Y45085000D02*
X64135000Y68580000D01*
X62865000Y69850000D02*
X64135000Y68580000D01*
X48895000Y69850000D02*
X62865000Y69850000D01*
X48895000Y69850000D02*
X26035000Y46990000D01*
X7620000Y46990000D02*
X26035000Y46990000D01*
X90765000Y22860000D02*
X83820000Y29805000D01*
X83820000Y29805000D02*
X83820000Y39370000D01*
X83820000Y39370000D02*
X80645000Y42545000D01*
X80645000Y42545000D02*
X66675000Y42545000D01*
X66675000Y42545000D02*
X64135000Y45085000D01*
X64770000Y45720000D02*
X64770000Y69215000D01*
X63500000Y70485000D02*
X64770000Y69215000D01*
X48260000Y70485000D02*
X63500000Y70485000D01*
X48260000Y70485000D02*
X26035000Y48260000D01*
X26035000Y48260000D02*
X6350000Y48260000D01*
X6350000Y48260000D02*
X5080000Y46990000D01*
X93265000Y22860000D02*
X84455000Y31670000D01*
X84455000Y40005000D02*
X81280000Y43180000D01*
X84455000Y31670000D02*
X84455000Y40005000D01*
X81280000Y43180000D02*
X67310000Y43180000D01*
X67310000Y43180000D02*
X64770000Y45720000D01*
X65405000Y69850000D02*
X65405000Y46355000D01*
X7620000Y54610000D02*
X31115000Y54610000D01*
X31115000Y54610000D02*
X47625000Y71120000D01*
X47625000Y71120000D02*
X64135000Y71120000D01*
X64135000Y71120000D02*
X65405000Y69850000D01*
X65405000Y46355000D02*
X67945000Y43815000D01*
X67945000Y43815000D02*
X81915000Y43815000D01*
X81915000Y43815000D02*
X90765000Y34965000D01*
X90765000Y34965000D02*
X90765000Y31750000D01*
X5080000Y54610000D02*
X6350000Y55880000D01*
X93265000Y33735000D02*
X93265000Y31750000D01*
X6350000Y55880000D02*
X31115000Y55880000D01*
X31115000Y55880000D02*
X46990000Y71755000D01*
X64770000Y71755000D02*
X66040000Y70485000D01*
X46990000Y71755000D02*
X64770000Y71755000D01*
X66040000Y70485000D02*
X66040000Y46990000D01*
X68580000Y44450000D02*
X82550000Y44450000D01*
X66040000Y46990000D02*
X68580000Y44450000D01*
X82550000Y44450000D02*
X93265000Y33735000D01*
X58420000Y41910000D02*
X64135000Y36195000D01*
X64135000Y36195000D02*
X64135000Y6350000D01*
X90765000Y44482564D02*
X90765000Y45720000D01*
X64135000Y6350000D02*
X67945000Y2540000D01*
X67945000Y2540000D02*
X95885000Y2540000D01*
X95885000Y2540000D02*
X97790000Y4445000D01*
X97790000Y4445000D02*
X97790000Y37457564D01*
X97790000Y37457564D02*
X90765000Y44482564D01*
X90765000Y72390000D02*
X90765000Y63500000D01*
X90765000Y63500000D02*
X90765000Y54610000D01*
X90765000Y54610000D02*
X90765000Y45720000D01*
X82550000Y83820000D02*
X80550000Y83820000D01*
X93265000Y45720000D02*
X93265000Y44482564D01*
X98425000Y3810000D02*
X96520000Y1905000D01*
X93265000Y44482564D02*
X98425000Y39322564D01*
X98425000Y39322564D02*
X98425000Y3810000D01*
X96520000Y1905000D02*
X67310000Y1905000D01*
X67310000Y1905000D02*
X63500000Y5715000D01*
X63500000Y5715000D02*
X63500000Y35560000D01*
X63500000Y35560000D02*
X60960000Y38100000D01*
X60960000Y38100000D02*
X57150000Y38100000D01*
X57150000Y38100000D02*
X55880000Y36830000D01*
X82550000Y86995000D02*
X80550000Y86995000D01*
X93265000Y72390000D02*
X93265000Y63500000D01*
X93265000Y63500000D02*
X93265000Y54610000D01*
X93265000Y54610000D02*
X93265000Y45720000D01*
D26*
G36*
X99620000Y79431579D02*
X96926720Y82124860D01*
X97031431Y82278110D01*
X97082440Y82530000D01*
X97082440Y87130000D01*
X97038162Y87365317D01*
X96899090Y87581441D01*
X96686890Y87726431D01*
X96435000Y87777440D01*
X95335000Y87777440D01*
X95099683Y87733162D01*
X94883559Y87594090D01*
X94738569Y87381890D01*
X94687560Y87130000D01*
X94687560Y86481195D01*
X94567046Y86601919D01*
X94186777Y86759820D01*
X93775029Y86760179D01*
X93394485Y86602942D01*
X93345169Y86553712D01*
X93297046Y86601919D01*
X92916777Y86759820D01*
X92505029Y86760179D01*
X92124485Y86602942D01*
X92002440Y86481110D01*
X92002440Y87130000D01*
X91958162Y87365317D01*
X91819090Y87581441D01*
X91606890Y87726431D01*
X91355000Y87777440D01*
X90255000Y87777440D01*
X90019683Y87733162D01*
X89803559Y87594090D01*
X89658569Y87381890D01*
X89607560Y87130000D01*
X89607560Y86229019D01*
X87880000Y87956580D01*
X87880000Y88645000D01*
X93321310Y88645000D01*
X93345000Y88654813D01*
X93368690Y88645000D01*
X98871310Y88645000D01*
X99104699Y88741673D01*
X99283327Y88920302D01*
X99380000Y89153691D01*
X99380000Y93956309D01*
X99370187Y93980000D01*
X99380000Y94003691D01*
X99380000Y98806309D01*
X99283327Y99039698D01*
X99104699Y99218327D01*
X98871310Y99315000D01*
X93368690Y99315000D01*
X93345000Y99305187D01*
X93321310Y99315000D01*
X87818690Y99315000D01*
X87585301Y99218327D01*
X87406673Y99039698D01*
X87310000Y98806309D01*
X87310000Y94003691D01*
X87319813Y93980000D01*
X87310000Y93956309D01*
X87310000Y92821579D01*
X86447440Y93684140D01*
X86447440Y94880000D01*
X86403162Y95115317D01*
X86264090Y95331441D01*
X86051890Y95476431D01*
X85800000Y95527440D01*
X85435000Y95527440D01*
X85435000Y96342560D01*
X85550000Y96342560D01*
X85785317Y96386838D01*
X86001441Y96525910D01*
X86146431Y96738110D01*
X86197440Y96990000D01*
X86197440Y98590000D01*
X86153162Y98825317D01*
X86014090Y99041441D01*
X85801890Y99186431D01*
X85550000Y99237440D01*
X83550000Y99237440D01*
X83314683Y99193162D01*
X83098559Y99054090D01*
X82953569Y98841890D01*
X82902560Y98590000D01*
X82902560Y96990000D01*
X82946838Y96754683D01*
X83085910Y96538559D01*
X83298110Y96393569D01*
X83550000Y96342560D01*
X83665000Y96342560D01*
X83665000Y95527440D01*
X83300000Y95527440D01*
X83064683Y95483162D01*
X82848559Y95344090D01*
X82703569Y95131890D01*
X82652560Y94880000D01*
X82652560Y93080000D01*
X82696838Y92844683D01*
X82835910Y92628559D01*
X83048110Y92483569D01*
X83300000Y92432560D01*
X85195860Y92432560D01*
X86110000Y91518421D01*
X86110000Y91272393D01*
X86014090Y91421441D01*
X85801890Y91566431D01*
X85550000Y91617440D01*
X83550000Y91617440D01*
X83314683Y91573162D01*
X83098559Y91434090D01*
X82953569Y91221890D01*
X82902560Y90970000D01*
X82902560Y89370000D01*
X82946838Y89134683D01*
X83085910Y88918559D01*
X83298110Y88773569D01*
X83550000Y88722560D01*
X83665000Y88722560D01*
X83665000Y88492440D01*
X83550000Y88492440D01*
X83314683Y88448162D01*
X83098559Y88309090D01*
X82953569Y88096890D01*
X82905550Y87859766D01*
X82736799Y87929838D01*
X82364833Y87930162D01*
X82194647Y87859843D01*
X82153162Y88080317D01*
X82014090Y88296441D01*
X81801890Y88441431D01*
X81550000Y88492440D01*
X79550000Y88492440D01*
X79314683Y88448162D01*
X79098559Y88309090D01*
X78953569Y88096890D01*
X78902560Y87845000D01*
X78902560Y86145000D01*
X78946838Y85909683D01*
X79085910Y85693559D01*
X79298110Y85548569D01*
X79550000Y85497560D01*
X81550000Y85497560D01*
X81785317Y85541838D01*
X82001441Y85680910D01*
X82146431Y85893110D01*
X82194450Y86130234D01*
X82363201Y86060162D01*
X82735167Y86059838D01*
X82905353Y86130157D01*
X82946838Y85909683D01*
X83085910Y85693559D01*
X83298110Y85548569D01*
X83550000Y85497560D01*
X83665000Y85497560D01*
X83665000Y85317440D01*
X83550000Y85317440D01*
X83314683Y85273162D01*
X83098559Y85134090D01*
X82953569Y84921890D01*
X82905550Y84684766D01*
X82736799Y84754838D01*
X82364833Y84755162D01*
X82194647Y84684843D01*
X82153162Y84905317D01*
X82014090Y85121441D01*
X81801890Y85266431D01*
X81550000Y85317440D01*
X79550000Y85317440D01*
X79314683Y85273162D01*
X79098559Y85134090D01*
X78953569Y84921890D01*
X78902560Y84670000D01*
X78902560Y82970000D01*
X78946838Y82734683D01*
X79085910Y82518559D01*
X79298110Y82373569D01*
X79550000Y82322560D01*
X81550000Y82322560D01*
X81785317Y82366838D01*
X82001441Y82505910D01*
X82146431Y82718110D01*
X82194450Y82955234D01*
X82363201Y82885162D01*
X82735167Y82884838D01*
X82905353Y82955157D01*
X82946838Y82734683D01*
X83085910Y82518559D01*
X83298110Y82373569D01*
X83550000Y82322560D01*
X83665000Y82322560D01*
X83665000Y81530000D01*
X76835005Y81530000D01*
X76835000Y81530001D01*
X76552516Y81473810D01*
X76496325Y81462633D01*
X76209210Y81270790D01*
X76209208Y81270787D01*
X73898469Y78960049D01*
X73886325Y78957633D01*
X73599210Y78765790D01*
X73599208Y78765787D01*
X69224210Y74390790D01*
X69032367Y74103675D01*
X69032367Y74103674D01*
X68994327Y73912440D01*
X68975000Y73912440D01*
X68739683Y73868162D01*
X68523559Y73729090D01*
X68378569Y73516890D01*
X68327560Y73265000D01*
X68327560Y71515000D01*
X68371838Y71279683D01*
X68510910Y71063559D01*
X68723110Y70918569D01*
X68965000Y70869585D01*
X68965000Y65020558D01*
X68739683Y64978162D01*
X68523559Y64839090D01*
X68378569Y64626890D01*
X68327560Y64375000D01*
X68327560Y62625000D01*
X68371838Y62389683D01*
X68510910Y62173559D01*
X68723110Y62028569D01*
X68965000Y61979585D01*
X68965000Y56130558D01*
X68739683Y56088162D01*
X68523559Y55949090D01*
X68378569Y55736890D01*
X68327560Y55485000D01*
X68327560Y53735000D01*
X68371838Y53499683D01*
X68510910Y53283559D01*
X68723110Y53138569D01*
X68975000Y53087560D01*
X70725000Y53087560D01*
X70960317Y53131838D01*
X71176441Y53270910D01*
X71321431Y53483110D01*
X71324786Y53499676D01*
X71493537Y53330630D01*
X72048325Y53100262D01*
X72649040Y53099738D01*
X73204229Y53329138D01*
X73600318Y53724536D01*
X73993537Y53330630D01*
X74548325Y53100262D01*
X75149040Y53099738D01*
X75704229Y53329138D01*
X75923413Y53547940D01*
X76467545Y53547940D01*
X76550884Y53294047D01*
X77115306Y53088410D01*
X77715458Y53114421D01*
X78149116Y53294047D01*
X78232455Y53547940D01*
X77350000Y54430395D01*
X76467545Y53547940D01*
X75923413Y53547940D01*
X76129370Y53753537D01*
X76138892Y53776469D01*
X76287940Y53727545D01*
X77170395Y54610000D01*
X77529605Y54610000D01*
X78412060Y53727545D01*
X78665953Y53810884D01*
X78871590Y54375306D01*
X78845579Y54975458D01*
X78665953Y55409116D01*
X78412060Y55492455D01*
X77529605Y54610000D01*
X77170395Y54610000D01*
X76287940Y55492455D01*
X76139352Y55443682D01*
X76130862Y55464229D01*
X75923394Y55672060D01*
X76467545Y55672060D01*
X77350000Y54789605D01*
X78232455Y55672060D01*
X78149116Y55925953D01*
X77584694Y56131590D01*
X76984542Y56105579D01*
X76550884Y55925953D01*
X76467545Y55672060D01*
X75923394Y55672060D01*
X75706463Y55889370D01*
X75151675Y56119738D01*
X74550960Y56120262D01*
X73995771Y55890862D01*
X73599682Y55495464D01*
X73206463Y55889370D01*
X72651675Y56119738D01*
X72050960Y56120262D01*
X71495771Y55890862D01*
X71326897Y55722283D01*
X71189090Y55936441D01*
X70976890Y56081431D01*
X70735000Y56130415D01*
X70735000Y61979442D01*
X70960317Y62021838D01*
X71176441Y62160910D01*
X71321431Y62373110D01*
X71324786Y62389676D01*
X71493537Y62220630D01*
X72048325Y61990262D01*
X72649040Y61989738D01*
X73204229Y62219138D01*
X73600318Y62614536D01*
X73993537Y62220630D01*
X74548325Y61990262D01*
X75149040Y61989738D01*
X75704229Y62219138D01*
X75923413Y62437940D01*
X76467545Y62437940D01*
X76550884Y62184047D01*
X77115306Y61978410D01*
X77715458Y62004421D01*
X78149116Y62184047D01*
X78232455Y62437940D01*
X77350000Y63320395D01*
X76467545Y62437940D01*
X75923413Y62437940D01*
X76129370Y62643537D01*
X76138892Y62666469D01*
X76287940Y62617545D01*
X77170395Y63500000D01*
X77529605Y63500000D01*
X78412060Y62617545D01*
X78665953Y62700884D01*
X78871590Y63265306D01*
X78845579Y63865458D01*
X78665953Y64299116D01*
X78412060Y64382455D01*
X77529605Y63500000D01*
X77170395Y63500000D01*
X76287940Y64382455D01*
X76139352Y64333682D01*
X76130862Y64354229D01*
X75923394Y64562060D01*
X76467545Y64562060D01*
X77350000Y63679605D01*
X78232455Y64562060D01*
X78149116Y64815953D01*
X77584694Y65021590D01*
X76984542Y64995579D01*
X76550884Y64815953D01*
X76467545Y64562060D01*
X75923394Y64562060D01*
X75706463Y64779370D01*
X75151675Y65009738D01*
X74550960Y65010262D01*
X73995771Y64780862D01*
X73599682Y64385464D01*
X73206463Y64779370D01*
X72651675Y65009738D01*
X72050960Y65010262D01*
X71495771Y64780862D01*
X71326897Y64612283D01*
X71189090Y64826441D01*
X70976890Y64971431D01*
X70735000Y65020415D01*
X70735000Y70869442D01*
X70960317Y70911838D01*
X71176441Y71050910D01*
X71321431Y71263110D01*
X71324786Y71279676D01*
X71493537Y71110630D01*
X72048325Y70880262D01*
X72649040Y70879738D01*
X73204229Y71109138D01*
X73600318Y71504536D01*
X73993537Y71110630D01*
X74548325Y70880262D01*
X75149040Y70879738D01*
X75704229Y71109138D01*
X75923413Y71327940D01*
X76467545Y71327940D01*
X76550884Y71074047D01*
X77115306Y70868410D01*
X77715458Y70894421D01*
X78149116Y71074047D01*
X78232455Y71327940D01*
X77350000Y72210395D01*
X76467545Y71327940D01*
X75923413Y71327940D01*
X76129370Y71533537D01*
X76138892Y71556469D01*
X76287940Y71507545D01*
X77170395Y72390000D01*
X77529605Y72390000D01*
X78412060Y71507545D01*
X78665953Y71590884D01*
X78871590Y72155306D01*
X78845579Y72755458D01*
X78665953Y73189116D01*
X78412060Y73272455D01*
X77529605Y72390000D01*
X77170395Y72390000D01*
X76287940Y73272455D01*
X76139352Y73223682D01*
X76130862Y73244229D01*
X75923394Y73452060D01*
X76467545Y73452060D01*
X77350000Y72569605D01*
X78232455Y73452060D01*
X78149116Y73705953D01*
X77584694Y73911590D01*
X76984542Y73885579D01*
X76550884Y73705953D01*
X76467545Y73452060D01*
X75923394Y73452060D01*
X75706463Y73669370D01*
X75151675Y73899738D01*
X74550960Y73900262D01*
X73995771Y73670862D01*
X73599682Y73275464D01*
X73206463Y73669370D01*
X72651675Y73899738D01*
X72050960Y73900262D01*
X71495771Y73670862D01*
X71326897Y73502283D01*
X71189090Y73716441D01*
X71108254Y73771674D01*
X74656530Y77319951D01*
X74668675Y77322367D01*
X74955790Y77514210D01*
X77201579Y79760000D01*
X83665000Y79760000D01*
X83665000Y76105005D01*
X83664999Y76105000D01*
X83721190Y75822516D01*
X83732367Y75766325D01*
X83924210Y75479210D01*
X86742560Y72660861D01*
X86742560Y71515000D01*
X86786838Y71279683D01*
X86925910Y71063559D01*
X87138110Y70918569D01*
X87380000Y70869585D01*
X87380000Y65020558D01*
X87154683Y64978162D01*
X86938559Y64839090D01*
X86793569Y64626890D01*
X86742560Y64375000D01*
X86742560Y62625000D01*
X86786838Y62389683D01*
X86925910Y62173559D01*
X87138110Y62028569D01*
X87380000Y61979585D01*
X87380000Y56130558D01*
X87154683Y56088162D01*
X86938559Y55949090D01*
X86793569Y55736890D01*
X86742560Y55485000D01*
X86742560Y53735000D01*
X86786838Y53499683D01*
X86925910Y53283559D01*
X87138110Y53138569D01*
X87380000Y53089585D01*
X87380000Y47240558D01*
X87154683Y47198162D01*
X86938559Y47059090D01*
X86793569Y46846890D01*
X86742560Y46595000D01*
X86742560Y44845000D01*
X86786838Y44609683D01*
X86925910Y44393559D01*
X87138110Y44248569D01*
X87390000Y44197560D01*
X89140000Y44197560D01*
X89375317Y44241838D01*
X89591441Y44380910D01*
X89736431Y44593110D01*
X89739786Y44609676D01*
X89908537Y44440630D01*
X90022777Y44393193D01*
X90062852Y44191725D01*
X90227599Y43945163D01*
X97030000Y37142762D01*
X97030000Y32565841D01*
X96827060Y32632455D01*
X95944605Y31750000D01*
X96827060Y30867545D01*
X97030000Y30934159D01*
X97030000Y23675841D01*
X96827060Y23742455D01*
X95944605Y22860000D01*
X96827060Y21977545D01*
X97030000Y22044159D01*
X97030000Y14785841D01*
X96827060Y14852455D01*
X95944605Y13970000D01*
X96827060Y13087545D01*
X97030000Y13154159D01*
X97030000Y5895841D01*
X96827060Y5962455D01*
X95944605Y5080000D01*
X95958748Y5065857D01*
X95779143Y4886252D01*
X95765000Y4900395D01*
X94882545Y4017940D01*
X94965884Y3764047D01*
X95530306Y3558410D01*
X95842122Y3571924D01*
X95570198Y3300000D01*
X68259802Y3300000D01*
X64895000Y6664802D01*
X64895000Y36195000D01*
X64837148Y36485839D01*
X64810629Y36525528D01*
X64672402Y36732401D01*
X59901350Y41503453D01*
X59943735Y41605528D01*
X59944264Y42211812D01*
X59712738Y42772149D01*
X59305263Y43180336D01*
X59711231Y43585596D01*
X59943735Y44145528D01*
X59944264Y44751812D01*
X59712738Y45312149D01*
X59305263Y45720336D01*
X59711231Y46125596D01*
X59943735Y46685528D01*
X59944264Y47291812D01*
X59712738Y47852149D01*
X59305263Y48260336D01*
X59711231Y48665596D01*
X59943735Y49225528D01*
X59944264Y49831812D01*
X59712738Y50392149D01*
X59305263Y50800336D01*
X59711231Y51205596D01*
X59943735Y51765528D01*
X59944264Y52371812D01*
X59712738Y52932149D01*
X59305263Y53340336D01*
X59711231Y53745596D01*
X59943735Y54305528D01*
X59944264Y54911812D01*
X59712738Y55472149D01*
X59305263Y55880336D01*
X59711231Y56285596D01*
X59943735Y56845528D01*
X59944264Y57451812D01*
X59712738Y58012149D01*
X59305263Y58420336D01*
X59711231Y58825596D01*
X59943735Y59385528D01*
X59944264Y59991812D01*
X59712738Y60552149D01*
X59305263Y60960336D01*
X59711231Y61365596D01*
X59943735Y61925528D01*
X59944264Y62531812D01*
X59712738Y63092149D01*
X59284404Y63521231D01*
X59257494Y63532405D01*
X59312591Y63697804D01*
X58420000Y64590395D01*
X58405858Y64576252D01*
X58226253Y64755857D01*
X58240395Y64770000D01*
X58599605Y64770000D01*
X59492196Y63877409D01*
X59747539Y63962467D01*
X59955516Y64531965D01*
X59929723Y65137700D01*
X59747539Y65577533D01*
X59492196Y65662591D01*
X58599605Y64770000D01*
X58240395Y64770000D01*
X58226253Y64784142D01*
X58405858Y64963747D01*
X58420000Y64949605D01*
X59312591Y65842196D01*
X59227533Y66097539D01*
X58658035Y66305516D01*
X58052300Y66279723D01*
X57612467Y66097539D01*
X57527410Y65842198D01*
X57412820Y65956788D01*
X57356359Y65900327D01*
X57307327Y66018699D01*
X57128698Y66197327D01*
X56895309Y66294000D01*
X56165750Y66294000D01*
X56007000Y66135250D01*
X56007000Y64897000D01*
X56027000Y64897000D01*
X56027000Y64643000D01*
X56007000Y64643000D01*
X56007000Y64623000D01*
X55753000Y64623000D01*
X55753000Y64643000D01*
X54514750Y64643000D01*
X54356000Y64484250D01*
X54356000Y63754690D01*
X54452673Y63521301D01*
X54631302Y63342673D01*
X54777011Y63282318D01*
X54588769Y63094404D01*
X54356265Y62534472D01*
X54355761Y61957341D01*
X52714210Y60315790D01*
X52522367Y60028675D01*
X52511190Y59972484D01*
X52454999Y59690000D01*
X52455000Y59689995D01*
X52455000Y3175005D01*
X52454999Y3175000D01*
X52479864Y3050000D01*
X52522367Y2836325D01*
X52636842Y2665000D01*
X52714210Y2549210D01*
X54553421Y710000D01*
X710000Y710000D01*
X710000Y2737804D01*
X4187409Y2737804D01*
X4272467Y2482461D01*
X4841965Y2274484D01*
X5447700Y2300277D01*
X5887533Y2482461D01*
X5972591Y2737804D01*
X6727409Y2737804D01*
X6812467Y2482461D01*
X7381965Y2274484D01*
X7987700Y2300277D01*
X8427533Y2482461D01*
X8512591Y2737804D01*
X7620000Y3630395D01*
X6727409Y2737804D01*
X5972591Y2737804D01*
X5080000Y3630395D01*
X4187409Y2737804D01*
X710000Y2737804D01*
X710000Y4048035D01*
X3544484Y4048035D01*
X3570277Y3442300D01*
X3752461Y3002467D01*
X4007804Y2917409D01*
X4900395Y3810000D01*
X5259605Y3810000D01*
X6152196Y2917409D01*
X6350000Y2983300D01*
X6547804Y2917409D01*
X7440395Y3810000D01*
X7799605Y3810000D01*
X8692196Y2917409D01*
X8947539Y3002467D01*
X9155516Y3571965D01*
X9129723Y4177700D01*
X8947539Y4617533D01*
X8692196Y4702591D01*
X7799605Y3810000D01*
X7440395Y3810000D01*
X6547804Y4702591D01*
X6350000Y4636700D01*
X6152196Y4702591D01*
X5259605Y3810000D01*
X4900395Y3810000D01*
X4007804Y4702591D01*
X3752461Y4617533D01*
X3544484Y4048035D01*
X710000Y4048035D01*
X710000Y37068035D01*
X3544484Y37068035D01*
X3570277Y36462300D01*
X3752461Y36022467D01*
X4007804Y35937409D01*
X4900395Y36830000D01*
X4007804Y37722591D01*
X3752461Y37637533D01*
X3544484Y37068035D01*
X710000Y37068035D01*
X710000Y59928035D01*
X3544484Y59928035D01*
X3570277Y59322300D01*
X3752461Y58882467D01*
X4007804Y58797409D01*
X4900395Y59690000D01*
X4007804Y60582591D01*
X3752461Y60497533D01*
X3544484Y59928035D01*
X710000Y59928035D01*
X710000Y61928188D01*
X3555736Y61928188D01*
X3787262Y61367851D01*
X4215596Y60938769D01*
X4242506Y60927595D01*
X4187409Y60762196D01*
X5080000Y59869605D01*
X5972591Y60762196D01*
X5917647Y60927138D01*
X5942149Y60937262D01*
X6350336Y61344737D01*
X6734737Y60959664D01*
X6328769Y60554404D01*
X6317595Y60527494D01*
X6152196Y60582591D01*
X5259605Y59690000D01*
X6152196Y58797409D01*
X6317138Y58852353D01*
X6327262Y58827851D01*
X6734737Y58419664D01*
X6349664Y58035263D01*
X5944404Y58441231D01*
X5917494Y58452405D01*
X5972591Y58617804D01*
X5080000Y59510395D01*
X4187409Y58617804D01*
X4242353Y58452862D01*
X4217851Y58442738D01*
X3788769Y58014404D01*
X3556265Y57454472D01*
X3555736Y56848188D01*
X3787262Y56287851D01*
X4194737Y55879664D01*
X3788769Y55474404D01*
X3556265Y54914472D01*
X3555736Y54308188D01*
X3787262Y53747851D01*
X4194737Y53339664D01*
X3788769Y52934404D01*
X3556265Y52374472D01*
X3555736Y51768188D01*
X3787262Y51207851D01*
X4194737Y50799664D01*
X3788769Y50394404D01*
X3556265Y49834472D01*
X3555736Y49228188D01*
X3787262Y48667851D01*
X4194737Y48259664D01*
X3788769Y47854404D01*
X3556265Y47294472D01*
X3555736Y46688188D01*
X3787262Y46127851D01*
X4194737Y45719664D01*
X3788769Y45314404D01*
X3556265Y44754472D01*
X3555736Y44148188D01*
X3787262Y43587851D01*
X4194737Y43179664D01*
X3788769Y42774404D01*
X3556265Y42214472D01*
X3555736Y41608188D01*
X3787262Y41047851D01*
X4194737Y40639664D01*
X3788769Y40234404D01*
X3556265Y39674472D01*
X3555736Y39068188D01*
X3787262Y38507851D01*
X4215596Y38078769D01*
X4242506Y38067595D01*
X4187409Y37902196D01*
X5080000Y37009605D01*
X5972591Y37902196D01*
X5917647Y38067138D01*
X5942149Y38077262D01*
X6350336Y38484737D01*
X6734737Y38099664D01*
X6328769Y37694404D01*
X6317595Y37667494D01*
X6152196Y37722591D01*
X5259605Y36830000D01*
X6152196Y35937409D01*
X6317138Y35992353D01*
X6327262Y35967851D01*
X6734737Y35559664D01*
X6349664Y35175263D01*
X5944404Y35581231D01*
X5917494Y35592405D01*
X5972591Y35757804D01*
X5080000Y36650395D01*
X4187409Y35757804D01*
X4242353Y35592862D01*
X4217851Y35582738D01*
X3788769Y35154404D01*
X3556265Y34594472D01*
X3555736Y33988188D01*
X3787262Y33427851D01*
X4194737Y33019664D01*
X3788769Y32614404D01*
X3556265Y32054472D01*
X3555736Y31448188D01*
X3787262Y30887851D01*
X4194737Y30479664D01*
X3788769Y30074404D01*
X3556265Y29514472D01*
X3555736Y28908188D01*
X3787262Y28347851D01*
X4194737Y27939664D01*
X3788769Y27534404D01*
X3556265Y26974472D01*
X3555736Y26368188D01*
X3787262Y25807851D01*
X4194737Y25399664D01*
X3788769Y24994404D01*
X3556265Y24434472D01*
X3555736Y23828188D01*
X3787262Y23267851D01*
X4194737Y22859664D01*
X3788769Y22454404D01*
X3556265Y21894472D01*
X3555736Y21288188D01*
X3787262Y20727851D01*
X4194737Y20319664D01*
X3788769Y19914404D01*
X3556265Y19354472D01*
X3555736Y18748188D01*
X3787262Y18187851D01*
X4194737Y17779664D01*
X3788769Y17374404D01*
X3556265Y16814472D01*
X3555736Y16208188D01*
X3787262Y15647851D01*
X4194737Y15239664D01*
X3788769Y14834404D01*
X3556265Y14274472D01*
X3555736Y13668188D01*
X3787262Y13107851D01*
X4194737Y12699664D01*
X3788769Y12294404D01*
X3556265Y11734472D01*
X3555736Y11128188D01*
X3787262Y10567851D01*
X4194737Y10159664D01*
X3788769Y9754404D01*
X3556265Y9194472D01*
X3555736Y8588188D01*
X3787262Y8027851D01*
X4194737Y7619664D01*
X3788769Y7214404D01*
X3556265Y6654472D01*
X3555736Y6048188D01*
X3787262Y5487851D01*
X4215596Y5058769D01*
X4242506Y5047595D01*
X4187409Y4882196D01*
X5080000Y3989605D01*
X5972591Y4882196D01*
X5917647Y5047138D01*
X5942149Y5057262D01*
X6350336Y5464737D01*
X6755596Y5058769D01*
X6782506Y5047595D01*
X6727409Y4882196D01*
X7620000Y3989605D01*
X8512591Y4882196D01*
X8457647Y5047138D01*
X8482149Y5057262D01*
X8911231Y5485596D01*
X9143735Y6045528D01*
X9144264Y6651812D01*
X8912738Y7212149D01*
X8505263Y7620336D01*
X8911231Y8025596D01*
X9143735Y8585528D01*
X9144264Y9191812D01*
X8912738Y9752149D01*
X8505263Y10160336D01*
X8911231Y10565596D01*
X9143735Y11125528D01*
X9144264Y11731812D01*
X8912738Y12292149D01*
X8505263Y12700336D01*
X8911231Y13105596D01*
X9143735Y13665528D01*
X9144264Y14271812D01*
X8912738Y14832149D01*
X8505263Y15240336D01*
X8911231Y15645596D01*
X9143735Y16205528D01*
X9144264Y16811812D01*
X8912738Y17372149D01*
X8505263Y17780336D01*
X8911231Y18185596D01*
X9143735Y18745528D01*
X9144264Y19351812D01*
X8912738Y19912149D01*
X8505263Y20320336D01*
X8911231Y20725596D01*
X9143735Y21285528D01*
X9144264Y21891812D01*
X8912738Y22452149D01*
X8505263Y22860336D01*
X8911231Y23265596D01*
X9143735Y23825528D01*
X9144264Y24431812D01*
X8912738Y24992149D01*
X8505263Y25400336D01*
X8911231Y25805596D01*
X9143735Y26365528D01*
X9144264Y26971812D01*
X8912738Y27532149D01*
X8505263Y27940336D01*
X8911231Y28345596D01*
X9143735Y28905528D01*
X9144264Y29511812D01*
X8912738Y30072149D01*
X8505263Y30480336D01*
X8911231Y30885596D01*
X9143735Y31445528D01*
X9144264Y32051812D01*
X8912738Y32612149D01*
X8505263Y33020336D01*
X8911231Y33425596D01*
X9143735Y33985528D01*
X9144264Y34591812D01*
X8912738Y35152149D01*
X8505263Y35560336D01*
X8911231Y35965596D01*
X9143735Y36525528D01*
X9144264Y37131812D01*
X8912738Y37692149D01*
X8505263Y38100336D01*
X8911231Y38505596D01*
X9143735Y39065528D01*
X9144264Y39671812D01*
X8912738Y40232149D01*
X8505263Y40640336D01*
X8911231Y41045596D01*
X8954583Y41150000D01*
X26035000Y41150000D01*
X26325839Y41207852D01*
X26572401Y41372599D01*
X50985112Y65785310D01*
X54356000Y65785310D01*
X54356000Y65055750D01*
X54514750Y64897000D01*
X55753000Y64897000D01*
X55753000Y66135250D01*
X55594250Y66294000D01*
X54864691Y66294000D01*
X54631302Y66197327D01*
X54452673Y66018699D01*
X54356000Y65785310D01*
X50985112Y65785310D01*
X51749802Y66550000D01*
X60010198Y66550000D01*
X60835000Y65725198D01*
X60835000Y42545000D01*
X60892852Y42254161D01*
X61057599Y42007599D01*
X63597599Y39467599D01*
X63844160Y39302852D01*
X63892414Y39293254D01*
X64135000Y39245000D01*
X77790198Y39245000D01*
X80480000Y36555198D01*
X80480000Y14605000D01*
X80537852Y14314161D01*
X80702599Y14067599D01*
X83090198Y11680000D01*
X70735000Y11680000D01*
X70735000Y12449442D01*
X70960317Y12491838D01*
X71176441Y12630910D01*
X71321431Y12843110D01*
X71324786Y12859676D01*
X71493537Y12690630D01*
X72048325Y12460262D01*
X72649040Y12459738D01*
X73204229Y12689138D01*
X73600318Y13084536D01*
X73993537Y12690630D01*
X74548325Y12460262D01*
X75149040Y12459738D01*
X75704229Y12689138D01*
X75923413Y12907940D01*
X76467545Y12907940D01*
X76550884Y12654047D01*
X77115306Y12448410D01*
X77715458Y12474421D01*
X78149116Y12654047D01*
X78232455Y12907940D01*
X77350000Y13790395D01*
X76467545Y12907940D01*
X75923413Y12907940D01*
X76129370Y13113537D01*
X76138892Y13136469D01*
X76287940Y13087545D01*
X77170395Y13970000D01*
X77529605Y13970000D01*
X78412060Y13087545D01*
X78665953Y13170884D01*
X78871590Y13735306D01*
X78845579Y14335458D01*
X78665953Y14769116D01*
X78412060Y14852455D01*
X77529605Y13970000D01*
X77170395Y13970000D01*
X76287940Y14852455D01*
X76139352Y14803682D01*
X76130862Y14824229D01*
X75923394Y15032060D01*
X76467545Y15032060D01*
X77350000Y14149605D01*
X78232455Y15032060D01*
X78149116Y15285953D01*
X77584694Y15491590D01*
X76984542Y15465579D01*
X76550884Y15285953D01*
X76467545Y15032060D01*
X75923394Y15032060D01*
X75706463Y15249370D01*
X75151675Y15479738D01*
X74550960Y15480262D01*
X73995771Y15250862D01*
X73599682Y14855464D01*
X73206463Y15249370D01*
X72651675Y15479738D01*
X72050960Y15480262D01*
X71495771Y15250862D01*
X71326897Y15082283D01*
X71189090Y15296441D01*
X70976890Y15441431D01*
X70735000Y15490415D01*
X70735000Y21339442D01*
X70960317Y21381838D01*
X71176441Y21520910D01*
X71321431Y21733110D01*
X71324786Y21749676D01*
X71493537Y21580630D01*
X72048325Y21350262D01*
X72649040Y21349738D01*
X73204229Y21579138D01*
X73600318Y21974536D01*
X73993537Y21580630D01*
X74548325Y21350262D01*
X75149040Y21349738D01*
X75704229Y21579138D01*
X75923413Y21797940D01*
X76467545Y21797940D01*
X76550884Y21544047D01*
X77115306Y21338410D01*
X77715458Y21364421D01*
X78149116Y21544047D01*
X78232455Y21797940D01*
X77350000Y22680395D01*
X76467545Y21797940D01*
X75923413Y21797940D01*
X76129370Y22003537D01*
X76138892Y22026469D01*
X76287940Y21977545D01*
X77170395Y22860000D01*
X77529605Y22860000D01*
X78412060Y21977545D01*
X78665953Y22060884D01*
X78871590Y22625306D01*
X78845579Y23225458D01*
X78665953Y23659116D01*
X78412060Y23742455D01*
X77529605Y22860000D01*
X77170395Y22860000D01*
X76287940Y23742455D01*
X76139352Y23693682D01*
X76130862Y23714229D01*
X75923394Y23922060D01*
X76467545Y23922060D01*
X77350000Y23039605D01*
X78232455Y23922060D01*
X78149116Y24175953D01*
X77584694Y24381590D01*
X76984542Y24355579D01*
X76550884Y24175953D01*
X76467545Y23922060D01*
X75923394Y23922060D01*
X75706463Y24139370D01*
X75151675Y24369738D01*
X74550960Y24370262D01*
X73995771Y24140862D01*
X73599682Y23745464D01*
X73206463Y24139370D01*
X72651675Y24369738D01*
X72050960Y24370262D01*
X71495771Y24140862D01*
X71326897Y23972283D01*
X71189090Y24186441D01*
X70976890Y24331431D01*
X70735000Y24380415D01*
X70735000Y30229442D01*
X70960317Y30271838D01*
X71176441Y30410910D01*
X71321431Y30623110D01*
X71324786Y30639676D01*
X71493537Y30470630D01*
X72048325Y30240262D01*
X72649040Y30239738D01*
X73204229Y30469138D01*
X73600318Y30864536D01*
X73993537Y30470630D01*
X74548325Y30240262D01*
X75149040Y30239738D01*
X75704229Y30469138D01*
X75923413Y30687940D01*
X76467545Y30687940D01*
X76550884Y30434047D01*
X77115306Y30228410D01*
X77715458Y30254421D01*
X78149116Y30434047D01*
X78232455Y30687940D01*
X77350000Y31570395D01*
X76467545Y30687940D01*
X75923413Y30687940D01*
X76129370Y30893537D01*
X76138892Y30916469D01*
X76287940Y30867545D01*
X77170395Y31750000D01*
X77529605Y31750000D01*
X78412060Y30867545D01*
X78665953Y30950884D01*
X78871590Y31515306D01*
X78845579Y32115458D01*
X78665953Y32549116D01*
X78412060Y32632455D01*
X77529605Y31750000D01*
X77170395Y31750000D01*
X76287940Y32632455D01*
X76139352Y32583682D01*
X76130862Y32604229D01*
X75923394Y32812060D01*
X76467545Y32812060D01*
X77350000Y31929605D01*
X78232455Y32812060D01*
X78149116Y33065953D01*
X77584694Y33271590D01*
X76984542Y33245579D01*
X76550884Y33065953D01*
X76467545Y32812060D01*
X75923394Y32812060D01*
X75706463Y33029370D01*
X75151675Y33259738D01*
X74550960Y33260262D01*
X73995771Y33030862D01*
X73599682Y32635464D01*
X73206463Y33029370D01*
X72651675Y33259738D01*
X72050960Y33260262D01*
X71495771Y33030862D01*
X71326897Y32862283D01*
X71189090Y33076441D01*
X70976890Y33221431D01*
X70725000Y33272440D01*
X68975000Y33272440D01*
X68739683Y33228162D01*
X68523559Y33089090D01*
X68378569Y32876890D01*
X68327560Y32625000D01*
X68327560Y30875000D01*
X68371838Y30639683D01*
X68510910Y30423559D01*
X68723110Y30278569D01*
X68965000Y30229585D01*
X68965000Y24380558D01*
X68739683Y24338162D01*
X68523559Y24199090D01*
X68378569Y23986890D01*
X68327560Y23735000D01*
X68327560Y21985000D01*
X68371838Y21749683D01*
X68510910Y21533559D01*
X68723110Y21388569D01*
X68965000Y21339585D01*
X68965000Y15490558D01*
X68739683Y15448162D01*
X68523559Y15309090D01*
X68378569Y15096890D01*
X68327560Y14845000D01*
X68327560Y13095000D01*
X68371838Y12859683D01*
X68510910Y12643559D01*
X68723110Y12498569D01*
X68965000Y12449585D01*
X68965000Y6600558D01*
X68739683Y6558162D01*
X68523559Y6419090D01*
X68378569Y6206890D01*
X68327560Y5955000D01*
X68327560Y4205000D01*
X68371838Y3969683D01*
X68510910Y3753559D01*
X68723110Y3608569D01*
X68975000Y3557560D01*
X70725000Y3557560D01*
X70960317Y3601838D01*
X71176441Y3740910D01*
X71321431Y3953110D01*
X71324786Y3969676D01*
X71493537Y3800630D01*
X72048325Y3570262D01*
X72649040Y3569738D01*
X73204229Y3799138D01*
X73600318Y4194536D01*
X73993537Y3800630D01*
X74548325Y3570262D01*
X75149040Y3569738D01*
X75704229Y3799138D01*
X75923413Y4017940D01*
X76467545Y4017940D01*
X76550884Y3764047D01*
X77115306Y3558410D01*
X77715458Y3584421D01*
X78149116Y3764047D01*
X78232455Y4017940D01*
X77350000Y4900395D01*
X76467545Y4017940D01*
X75923413Y4017940D01*
X76129370Y4223537D01*
X76138892Y4246469D01*
X76287940Y4197545D01*
X77170395Y5080000D01*
X77529605Y5080000D01*
X78412060Y4197545D01*
X78665953Y4280884D01*
X78871590Y4845306D01*
X78845579Y5445458D01*
X78665953Y5879116D01*
X78412060Y5962455D01*
X77529605Y5080000D01*
X77170395Y5080000D01*
X76287940Y5962455D01*
X76139352Y5913682D01*
X76130862Y5934229D01*
X75923394Y6142060D01*
X76467545Y6142060D01*
X77350000Y5259605D01*
X78232455Y6142060D01*
X78149116Y6395953D01*
X77584694Y6601590D01*
X76984542Y6575579D01*
X76550884Y6395953D01*
X76467545Y6142060D01*
X75923394Y6142060D01*
X75706463Y6359370D01*
X75151675Y6589738D01*
X74550960Y6590262D01*
X73995771Y6360862D01*
X73599682Y5965464D01*
X73206463Y6359370D01*
X72651675Y6589738D01*
X72050960Y6590262D01*
X71495771Y6360862D01*
X71326897Y6192283D01*
X71189090Y6406441D01*
X70976890Y6551431D01*
X70735000Y6600415D01*
X70735000Y9910000D01*
X83558420Y9910000D01*
X87005960Y6462461D01*
X86938559Y6419090D01*
X86793569Y6206890D01*
X86742560Y5955000D01*
X86742560Y4205000D01*
X86786838Y3969683D01*
X86925910Y3753559D01*
X87138110Y3608569D01*
X87390000Y3557560D01*
X89140000Y3557560D01*
X89375317Y3601838D01*
X89591441Y3740910D01*
X89736431Y3953110D01*
X89739786Y3969676D01*
X89908537Y3800630D01*
X90463325Y3570262D01*
X91064040Y3569738D01*
X91619229Y3799138D01*
X92015318Y4194536D01*
X92408537Y3800630D01*
X92963325Y3570262D01*
X93564040Y3569738D01*
X94119229Y3799138D01*
X94544370Y4223537D01*
X94553892Y4246469D01*
X94702940Y4197545D01*
X95585395Y5080000D01*
X94702940Y5962455D01*
X94554352Y5913682D01*
X94545862Y5934229D01*
X94338394Y6142060D01*
X94882545Y6142060D01*
X95765000Y5259605D01*
X96647455Y6142060D01*
X96564116Y6395953D01*
X95999694Y6601590D01*
X95399542Y6575579D01*
X94965884Y6395953D01*
X94882545Y6142060D01*
X94338394Y6142060D01*
X94121463Y6359370D01*
X93566675Y6589738D01*
X92965960Y6590262D01*
X92869427Y6550375D01*
X82675000Y16744802D01*
X82675000Y20985198D01*
X88167758Y15492440D01*
X87390000Y15492440D01*
X87154683Y15448162D01*
X86938559Y15309090D01*
X86793569Y15096890D01*
X86742560Y14845000D01*
X86742560Y13095000D01*
X86786838Y12859683D01*
X86925910Y12643559D01*
X87138110Y12498569D01*
X87390000Y12447560D01*
X89140000Y12447560D01*
X89375317Y12491838D01*
X89591441Y12630910D01*
X89736431Y12843110D01*
X89739786Y12859676D01*
X89908537Y12690630D01*
X90463325Y12460262D01*
X91064040Y12459738D01*
X91619229Y12689138D01*
X92015318Y13084536D01*
X92408537Y12690630D01*
X92963325Y12460262D01*
X93564040Y12459738D01*
X94119229Y12689138D01*
X94338413Y12907940D01*
X94882545Y12907940D01*
X94965884Y12654047D01*
X95530306Y12448410D01*
X96130458Y12474421D01*
X96564116Y12654047D01*
X96647455Y12907940D01*
X95765000Y13790395D01*
X94882545Y12907940D01*
X94338413Y12907940D01*
X94544370Y13113537D01*
X94553892Y13136469D01*
X94702940Y13087545D01*
X95585395Y13970000D01*
X94702940Y14852455D01*
X94554352Y14803682D01*
X94545862Y14824229D01*
X94338394Y15032060D01*
X94882545Y15032060D01*
X95765000Y14149605D01*
X96647455Y15032060D01*
X96564116Y15285953D01*
X95999694Y15491590D01*
X95399542Y15465579D01*
X94965884Y15285953D01*
X94882545Y15032060D01*
X94338394Y15032060D01*
X94121463Y15249370D01*
X93566675Y15479738D01*
X92965960Y15480262D01*
X92869427Y15440375D01*
X83945000Y24364802D01*
X83945000Y28605198D01*
X88167758Y24382440D01*
X87390000Y24382440D01*
X87154683Y24338162D01*
X86938559Y24199090D01*
X86793569Y23986890D01*
X86742560Y23735000D01*
X86742560Y21985000D01*
X86786838Y21749683D01*
X86925910Y21533559D01*
X87138110Y21388569D01*
X87390000Y21337560D01*
X89140000Y21337560D01*
X89375317Y21381838D01*
X89591441Y21520910D01*
X89736431Y21733110D01*
X89739786Y21749676D01*
X89908537Y21580630D01*
X90463325Y21350262D01*
X91064040Y21349738D01*
X91619229Y21579138D01*
X92015318Y21974536D01*
X92408537Y21580630D01*
X92963325Y21350262D01*
X93564040Y21349738D01*
X94119229Y21579138D01*
X94338413Y21797940D01*
X94882545Y21797940D01*
X94965884Y21544047D01*
X95530306Y21338410D01*
X96130458Y21364421D01*
X96564116Y21544047D01*
X96647455Y21797940D01*
X95765000Y22680395D01*
X94882545Y21797940D01*
X94338413Y21797940D01*
X94544370Y22003537D01*
X94553892Y22026469D01*
X94702940Y21977545D01*
X95585395Y22860000D01*
X94702940Y23742455D01*
X94554352Y23693682D01*
X94545862Y23714229D01*
X94338394Y23922060D01*
X94882545Y23922060D01*
X95765000Y23039605D01*
X96647455Y23922060D01*
X96564116Y24175953D01*
X95999694Y24381590D01*
X95399542Y24355579D01*
X94965884Y24175953D01*
X94882545Y23922060D01*
X94338394Y23922060D01*
X94121463Y24139370D01*
X93566675Y24369738D01*
X92965960Y24370262D01*
X92869427Y24330375D01*
X85215000Y31984802D01*
X85215000Y39440198D01*
X90005000Y34650198D01*
X90005000Y33069797D01*
X89910771Y33030862D01*
X89741897Y32862283D01*
X89604090Y33076441D01*
X89391890Y33221431D01*
X89140000Y33272440D01*
X87390000Y33272440D01*
X87154683Y33228162D01*
X86938559Y33089090D01*
X86793569Y32876890D01*
X86742560Y32625000D01*
X86742560Y30875000D01*
X86786838Y30639683D01*
X86925910Y30423559D01*
X87138110Y30278569D01*
X87390000Y30227560D01*
X89140000Y30227560D01*
X89375317Y30271838D01*
X89591441Y30410910D01*
X89736431Y30623110D01*
X89739786Y30639676D01*
X89908537Y30470630D01*
X90463325Y30240262D01*
X91064040Y30239738D01*
X91619229Y30469138D01*
X92015318Y30864536D01*
X92408537Y30470630D01*
X92963325Y30240262D01*
X93564040Y30239738D01*
X94119229Y30469138D01*
X94338413Y30687940D01*
X94882545Y30687940D01*
X94965884Y30434047D01*
X95530306Y30228410D01*
X96130458Y30254421D01*
X96564116Y30434047D01*
X96647455Y30687940D01*
X95765000Y31570395D01*
X94882545Y30687940D01*
X94338413Y30687940D01*
X94544370Y30893537D01*
X94553892Y30916469D01*
X94702940Y30867545D01*
X95585395Y31750000D01*
X94702940Y32632455D01*
X94554352Y32583682D01*
X94545862Y32604229D01*
X94338394Y32812060D01*
X94882545Y32812060D01*
X95765000Y31929605D01*
X96647455Y32812060D01*
X96564116Y33065953D01*
X95999694Y33271590D01*
X95399542Y33245579D01*
X94965884Y33065953D01*
X94882545Y32812060D01*
X94338394Y32812060D01*
X94121463Y33029370D01*
X94025000Y33069425D01*
X94025000Y33735000D01*
X93967148Y34025840D01*
X93802401Y34272401D01*
X83087401Y44987401D01*
X82840839Y45152148D01*
X82550000Y45210000D01*
X68894802Y45210000D01*
X66800000Y47304802D01*
X66800000Y70485000D01*
X66742148Y70775839D01*
X66742148Y70775840D01*
X66577401Y71022401D01*
X65307401Y72292401D01*
X65060839Y72457148D01*
X64770000Y72515000D01*
X46990000Y72515000D01*
X46699160Y72457148D01*
X46452599Y72292401D01*
X30800198Y56640000D01*
X9058392Y56640000D01*
X9143735Y56845528D01*
X9144264Y57451812D01*
X8912738Y58012149D01*
X8505263Y58420336D01*
X8911231Y58825596D01*
X9143735Y59385528D01*
X9144264Y59991812D01*
X8912738Y60552149D01*
X8505263Y60960336D01*
X8911231Y61365596D01*
X9143735Y61925528D01*
X9144264Y62531812D01*
X8912738Y63092149D01*
X8484404Y63521231D01*
X8457494Y63532405D01*
X8512591Y63697804D01*
X7620000Y64590395D01*
X7605858Y64576252D01*
X7426253Y64755857D01*
X7440395Y64770000D01*
X7799605Y64770000D01*
X8692196Y63877409D01*
X8947539Y63962467D01*
X9155516Y64531965D01*
X9129723Y65137700D01*
X8947539Y65577533D01*
X8692196Y65662591D01*
X7799605Y64770000D01*
X7440395Y64770000D01*
X7426253Y64784142D01*
X7605858Y64963747D01*
X7620000Y64949605D01*
X8512591Y65842196D01*
X8427533Y66097539D01*
X7858035Y66305516D01*
X7252300Y66279723D01*
X6812467Y66097539D01*
X6727410Y65842198D01*
X6612820Y65956788D01*
X6556359Y65900327D01*
X6507327Y66018699D01*
X6328698Y66197327D01*
X6095309Y66294000D01*
X5365750Y66294000D01*
X5207000Y66135250D01*
X5207000Y64897000D01*
X5227000Y64897000D01*
X5227000Y64643000D01*
X5207000Y64643000D01*
X5207000Y64623000D01*
X4953000Y64623000D01*
X4953000Y64643000D01*
X3714750Y64643000D01*
X3556000Y64484250D01*
X3556000Y63754690D01*
X3652673Y63521301D01*
X3831302Y63342673D01*
X3977011Y63282318D01*
X3788769Y63094404D01*
X3556265Y62534472D01*
X3555736Y61928188D01*
X710000Y61928188D01*
X710000Y65785310D01*
X3556000Y65785310D01*
X3556000Y65055750D01*
X3714750Y64897000D01*
X4953000Y64897000D01*
X4953000Y66135250D01*
X4794250Y66294000D01*
X4064691Y66294000D01*
X3831302Y66197327D01*
X3652673Y66018699D01*
X3556000Y65785310D01*
X710000Y65785310D01*
X710000Y89074250D01*
X64035000Y89074250D01*
X64035000Y87483691D01*
X64131673Y87250302D01*
X64310301Y87071673D01*
X64543690Y86975000D01*
X66134250Y86975000D01*
X66293000Y87133750D01*
X66293000Y89233000D01*
X66547000Y89233000D01*
X66547000Y87133750D01*
X66705750Y86975000D01*
X68296310Y86975000D01*
X68529699Y87071673D01*
X68708327Y87250302D01*
X68722560Y87284663D01*
X68722560Y84610000D01*
X68766838Y84374683D01*
X68905910Y84158559D01*
X69118110Y84013569D01*
X69370000Y83962560D01*
X72870000Y83962560D01*
X73105317Y84006838D01*
X73321441Y84145910D01*
X73466431Y84358110D01*
X73517440Y84610000D01*
X73517440Y87505860D01*
X75895829Y89884250D01*
X78915000Y89884250D01*
X78915000Y89243690D01*
X79011673Y89010301D01*
X79190302Y88831673D01*
X79423691Y88735000D01*
X80264250Y88735000D01*
X80423000Y88893750D01*
X80423000Y90043000D01*
X80677000Y90043000D01*
X80677000Y88893750D01*
X80835750Y88735000D01*
X81676309Y88735000D01*
X81909698Y88831673D01*
X82088327Y89010301D01*
X82185000Y89243690D01*
X82185000Y89884250D01*
X82026250Y90043000D01*
X80677000Y90043000D01*
X80423000Y90043000D01*
X79073750Y90043000D01*
X78915000Y89884250D01*
X75895829Y89884250D01*
X77107889Y91096310D01*
X78915000Y91096310D01*
X78915000Y90455750D01*
X79073750Y90297000D01*
X80423000Y90297000D01*
X80423000Y91446250D01*
X80677000Y91446250D01*
X80677000Y90297000D01*
X82026250Y90297000D01*
X82185000Y90455750D01*
X82185000Y91096310D01*
X82088327Y91329699D01*
X81909698Y91508327D01*
X81676309Y91605000D01*
X80835750Y91605000D01*
X80677000Y91446250D01*
X80423000Y91446250D01*
X80264250Y91605000D01*
X79423691Y91605000D01*
X79190302Y91508327D01*
X79011673Y91329699D01*
X78915000Y91096310D01*
X77107889Y91096310D01*
X78759258Y92747679D01*
X78835910Y92628559D01*
X79048110Y92483569D01*
X79300000Y92432560D01*
X81800000Y92432560D01*
X82035317Y92476838D01*
X82251441Y92615910D01*
X82396431Y92828110D01*
X82447440Y93080000D01*
X82447440Y94880000D01*
X82403162Y95115317D01*
X82264090Y95331441D01*
X82051890Y95476431D01*
X81800000Y95527440D01*
X79300000Y95527440D01*
X79064683Y95483162D01*
X78848559Y95344090D01*
X78703569Y95131890D01*
X78652560Y94880000D01*
X78652560Y94847607D01*
X78401325Y94797633D01*
X78114210Y94605790D01*
X78114208Y94605787D01*
X72265860Y88757440D01*
X69370000Y88757440D01*
X69134683Y88713162D01*
X68918559Y88574090D01*
X68805000Y88407891D01*
X68805000Y89074250D01*
X68646250Y89233000D01*
X66547000Y89233000D01*
X66293000Y89233000D01*
X64193750Y89233000D01*
X64035000Y89074250D01*
X710000Y89074250D01*
X710000Y91637804D01*
X4187409Y91637804D01*
X4272467Y91382461D01*
X4841965Y91174484D01*
X5447700Y91200277D01*
X5887533Y91382461D01*
X5972591Y91637804D01*
X57527409Y91637804D01*
X57612467Y91382461D01*
X58181965Y91174484D01*
X58787700Y91200277D01*
X58874689Y91236309D01*
X64035000Y91236309D01*
X64035000Y89645750D01*
X64193750Y89487000D01*
X66293000Y89487000D01*
X66293000Y91586250D01*
X66547000Y91586250D01*
X66547000Y89487000D01*
X68646250Y89487000D01*
X68805000Y89645750D01*
X68805000Y90314696D01*
X68831673Y90250302D01*
X69010301Y90071673D01*
X69243690Y89975000D01*
X70834250Y89975000D01*
X70993000Y90133750D01*
X70993000Y92233000D01*
X71247000Y92233000D01*
X71247000Y90133750D01*
X71405750Y89975000D01*
X72996310Y89975000D01*
X73229699Y90071673D01*
X73408327Y90250302D01*
X73505000Y90483691D01*
X73505000Y92074250D01*
X73346250Y92233000D01*
X71247000Y92233000D01*
X70993000Y92233000D01*
X68893750Y92233000D01*
X68735000Y92074250D01*
X68735000Y91405304D01*
X68708327Y91469698D01*
X68529699Y91648327D01*
X68296310Y91745000D01*
X66705750Y91745000D01*
X66547000Y91586250D01*
X66293000Y91586250D01*
X66134250Y91745000D01*
X64543690Y91745000D01*
X64310301Y91648327D01*
X64131673Y91469698D01*
X64035000Y91236309D01*
X58874689Y91236309D01*
X59227533Y91382461D01*
X59312591Y91637804D01*
X58420000Y92530395D01*
X57527409Y91637804D01*
X5972591Y91637804D01*
X5080000Y92530395D01*
X4187409Y91637804D01*
X710000Y91637804D01*
X710000Y92948035D01*
X3544484Y92948035D01*
X3570277Y92342300D01*
X3752461Y91902467D01*
X4007804Y91817409D01*
X4900395Y92710000D01*
X4886253Y92724142D01*
X5065858Y92903747D01*
X5080000Y92889605D01*
X5094143Y92903747D01*
X5273748Y92724142D01*
X5259605Y92710000D01*
X6152196Y91817409D01*
X6407539Y91902467D01*
X6615516Y92471965D01*
X6595245Y92948035D01*
X56884484Y92948035D01*
X56910277Y92342300D01*
X57092461Y91902467D01*
X57347804Y91817409D01*
X58240395Y92710000D01*
X58226253Y92724142D01*
X58405858Y92903747D01*
X58420000Y92889605D01*
X58434143Y92903747D01*
X58613748Y92724142D01*
X58599605Y92710000D01*
X59492196Y91817409D01*
X59747539Y91902467D01*
X59955516Y92471965D01*
X59929723Y93077700D01*
X59747539Y93517533D01*
X59492198Y93602590D01*
X59606788Y93717180D01*
X59550326Y93773642D01*
X59668698Y93822673D01*
X59847327Y94001301D01*
X59944000Y94234690D01*
X59944000Y94236309D01*
X68735000Y94236309D01*
X68735000Y92645750D01*
X68893750Y92487000D01*
X70993000Y92487000D01*
X70993000Y94586250D01*
X71247000Y94586250D01*
X71247000Y92487000D01*
X73346250Y92487000D01*
X73505000Y92645750D01*
X73505000Y94236309D01*
X73408327Y94469698D01*
X73229699Y94648327D01*
X72996310Y94745000D01*
X71405750Y94745000D01*
X71247000Y94586250D01*
X70993000Y94586250D01*
X70834250Y94745000D01*
X69243690Y94745000D01*
X69010301Y94648327D01*
X68831673Y94469698D01*
X68735000Y94236309D01*
X59944000Y94236309D01*
X59944000Y94964250D01*
X59785250Y95123000D01*
X58547000Y95123000D01*
X58547000Y95103000D01*
X58293000Y95103000D01*
X58293000Y95123000D01*
X57054750Y95123000D01*
X56896000Y94964250D01*
X56896000Y94234690D01*
X56992673Y94001301D01*
X57171302Y93822673D01*
X57289674Y93773642D01*
X57233212Y93717180D01*
X57347802Y93602590D01*
X57092461Y93517533D01*
X56884484Y92948035D01*
X6595245Y92948035D01*
X6589723Y93077700D01*
X6407539Y93517533D01*
X6152198Y93602590D01*
X6266788Y93717180D01*
X6210326Y93773642D01*
X6328698Y93822673D01*
X6507327Y94001301D01*
X6604000Y94234690D01*
X6604000Y94964250D01*
X6445250Y95123000D01*
X5207000Y95123000D01*
X5207000Y95103000D01*
X4953000Y95103000D01*
X4953000Y95123000D01*
X3714750Y95123000D01*
X3556000Y94964250D01*
X3556000Y94234690D01*
X3652673Y94001301D01*
X3831302Y93822673D01*
X3949674Y93773642D01*
X3893212Y93717180D01*
X4007802Y93602590D01*
X3752461Y93517533D01*
X3544484Y92948035D01*
X710000Y92948035D01*
X710000Y96265310D01*
X3556000Y96265310D01*
X3556000Y95535750D01*
X3714750Y95377000D01*
X4953000Y95377000D01*
X4953000Y96615250D01*
X5207000Y96615250D01*
X5207000Y95377000D01*
X6445250Y95377000D01*
X6604000Y95535750D01*
X6604000Y96265310D01*
X56896000Y96265310D01*
X56896000Y95535750D01*
X57054750Y95377000D01*
X58293000Y95377000D01*
X58293000Y96615250D01*
X58547000Y96615250D01*
X58547000Y95377000D01*
X59785250Y95377000D01*
X59944000Y95535750D01*
X59944000Y96265310D01*
X59847327Y96498699D01*
X59668698Y96677327D01*
X59435309Y96774000D01*
X58705750Y96774000D01*
X58547000Y96615250D01*
X58293000Y96615250D01*
X58134250Y96774000D01*
X57404691Y96774000D01*
X57171302Y96677327D01*
X56992673Y96498699D01*
X56896000Y96265310D01*
X6604000Y96265310D01*
X6507327Y96498699D01*
X6328698Y96677327D01*
X6095309Y96774000D01*
X5365750Y96774000D01*
X5207000Y96615250D01*
X4953000Y96615250D01*
X4794250Y96774000D01*
X4064691Y96774000D01*
X3831302Y96677327D01*
X3652673Y96498699D01*
X3556000Y96265310D01*
X710000Y96265310D01*
X710000Y97504250D01*
X78915000Y97504250D01*
X78915000Y96863690D01*
X79011673Y96630301D01*
X79190302Y96451673D01*
X79423691Y96355000D01*
X80264250Y96355000D01*
X80423000Y96513750D01*
X80423000Y97663000D01*
X80677000Y97663000D01*
X80677000Y96513750D01*
X80835750Y96355000D01*
X81676309Y96355000D01*
X81909698Y96451673D01*
X82088327Y96630301D01*
X82185000Y96863690D01*
X82185000Y97504250D01*
X82026250Y97663000D01*
X80677000Y97663000D01*
X80423000Y97663000D01*
X79073750Y97663000D01*
X78915000Y97504250D01*
X710000Y97504250D01*
X710000Y98716310D01*
X78915000Y98716310D01*
X78915000Y98075750D01*
X79073750Y97917000D01*
X80423000Y97917000D01*
X80423000Y99066250D01*
X80677000Y99066250D01*
X80677000Y97917000D01*
X82026250Y97917000D01*
X82185000Y98075750D01*
X82185000Y98716310D01*
X82088327Y98949699D01*
X81909698Y99128327D01*
X81676309Y99225000D01*
X80835750Y99225000D01*
X80677000Y99066250D01*
X80423000Y99066250D01*
X80264250Y99225000D01*
X79423691Y99225000D01*
X79190302Y99128327D01*
X79011673Y98949699D01*
X78915000Y98716310D01*
X710000Y98716310D01*
X710000Y99620000D01*
X99620000Y99620000D01*
X99620000Y79431579D01*
X99620000Y79431579D01*
G37*
X99620000Y79431579D02*
X96926720Y82124860D01*
X97031431Y82278110D01*
X97082440Y82530000D01*
X97082440Y87130000D01*
X97038162Y87365317D01*
X96899090Y87581441D01*
X96686890Y87726431D01*
X96435000Y87777440D01*
X95335000Y87777440D01*
X95099683Y87733162D01*
X94883559Y87594090D01*
X94738569Y87381890D01*
X94687560Y87130000D01*
X94687560Y86481195D01*
X94567046Y86601919D01*
X94186777Y86759820D01*
X93775029Y86760179D01*
X93394485Y86602942D01*
X93345169Y86553712D01*
X93297046Y86601919D01*
X92916777Y86759820D01*
X92505029Y86760179D01*
X92124485Y86602942D01*
X92002440Y86481110D01*
X92002440Y87130000D01*
X91958162Y87365317D01*
X91819090Y87581441D01*
X91606890Y87726431D01*
X91355000Y87777440D01*
X90255000Y87777440D01*
X90019683Y87733162D01*
X89803559Y87594090D01*
X89658569Y87381890D01*
X89607560Y87130000D01*
X89607560Y86229019D01*
X87880000Y87956580D01*
X87880000Y88645000D01*
X93321310Y88645000D01*
X93345000Y88654813D01*
X93368690Y88645000D01*
X98871310Y88645000D01*
X99104699Y88741673D01*
X99283327Y88920302D01*
X99380000Y89153691D01*
X99380000Y93956309D01*
X99370187Y93980000D01*
X99380000Y94003691D01*
X99380000Y98806309D01*
X99283327Y99039698D01*
X99104699Y99218327D01*
X98871310Y99315000D01*
X93368690Y99315000D01*
X93345000Y99305187D01*
X93321310Y99315000D01*
X87818690Y99315000D01*
X87585301Y99218327D01*
X87406673Y99039698D01*
X87310000Y98806309D01*
X87310000Y94003691D01*
X87319813Y93980000D01*
X87310000Y93956309D01*
X87310000Y92821579D01*
X86447440Y93684140D01*
X86447440Y94880000D01*
X86403162Y95115317D01*
X86264090Y95331441D01*
X86051890Y95476431D01*
X85800000Y95527440D01*
X85435000Y95527440D01*
X85435000Y96342560D01*
X85550000Y96342560D01*
X85785317Y96386838D01*
X86001441Y96525910D01*
X86146431Y96738110D01*
X86197440Y96990000D01*
X86197440Y98590000D01*
X86153162Y98825317D01*
X86014090Y99041441D01*
X85801890Y99186431D01*
X85550000Y99237440D01*
X83550000Y99237440D01*
X83314683Y99193162D01*
X83098559Y99054090D01*
X82953569Y98841890D01*
X82902560Y98590000D01*
X82902560Y96990000D01*
X82946838Y96754683D01*
X83085910Y96538559D01*
X83298110Y96393569D01*
X83550000Y96342560D01*
X83665000Y96342560D01*
X83665000Y95527440D01*
X83300000Y95527440D01*
X83064683Y95483162D01*
X82848559Y95344090D01*
X82703569Y95131890D01*
X82652560Y94880000D01*
X82652560Y93080000D01*
X82696838Y92844683D01*
X82835910Y92628559D01*
X83048110Y92483569D01*
X83300000Y92432560D01*
X85195860Y92432560D01*
X86110000Y91518421D01*
X86110000Y91272393D01*
X86014090Y91421441D01*
X85801890Y91566431D01*
X85550000Y91617440D01*
X83550000Y91617440D01*
X83314683Y91573162D01*
X83098559Y91434090D01*
X82953569Y91221890D01*
X82902560Y90970000D01*
X82902560Y89370000D01*
X82946838Y89134683D01*
X83085910Y88918559D01*
X83298110Y88773569D01*
X83550000Y88722560D01*
X83665000Y88722560D01*
X83665000Y88492440D01*
X83550000Y88492440D01*
X83314683Y88448162D01*
X83098559Y88309090D01*
X82953569Y88096890D01*
X82905550Y87859766D01*
X82736799Y87929838D01*
X82364833Y87930162D01*
X82194647Y87859843D01*
X82153162Y88080317D01*
X82014090Y88296441D01*
X81801890Y88441431D01*
X81550000Y88492440D01*
X79550000Y88492440D01*
X79314683Y88448162D01*
X79098559Y88309090D01*
X78953569Y88096890D01*
X78902560Y87845000D01*
X78902560Y86145000D01*
X78946838Y85909683D01*
X79085910Y85693559D01*
X79298110Y85548569D01*
X79550000Y85497560D01*
X81550000Y85497560D01*
X81785317Y85541838D01*
X82001441Y85680910D01*
X82146431Y85893110D01*
X82194450Y86130234D01*
X82363201Y86060162D01*
X82735167Y86059838D01*
X82905353Y86130157D01*
X82946838Y85909683D01*
X83085910Y85693559D01*
X83298110Y85548569D01*
X83550000Y85497560D01*
X83665000Y85497560D01*
X83665000Y85317440D01*
X83550000Y85317440D01*
X83314683Y85273162D01*
X83098559Y85134090D01*
X82953569Y84921890D01*
X82905550Y84684766D01*
X82736799Y84754838D01*
X82364833Y84755162D01*
X82194647Y84684843D01*
X82153162Y84905317D01*
X82014090Y85121441D01*
X81801890Y85266431D01*
X81550000Y85317440D01*
X79550000Y85317440D01*
X79314683Y85273162D01*
X79098559Y85134090D01*
X78953569Y84921890D01*
X78902560Y84670000D01*
X78902560Y82970000D01*
X78946838Y82734683D01*
X79085910Y82518559D01*
X79298110Y82373569D01*
X79550000Y82322560D01*
X81550000Y82322560D01*
X81785317Y82366838D01*
X82001441Y82505910D01*
X82146431Y82718110D01*
X82194450Y82955234D01*
X82363201Y82885162D01*
X82735167Y82884838D01*
X82905353Y82955157D01*
X82946838Y82734683D01*
X83085910Y82518559D01*
X83298110Y82373569D01*
X83550000Y82322560D01*
X83665000Y82322560D01*
X83665000Y81530000D01*
X76835005Y81530000D01*
X76835000Y81530001D01*
X76552516Y81473810D01*
X76496325Y81462633D01*
X76209210Y81270790D01*
X76209208Y81270787D01*
X73898469Y78960049D01*
X73886325Y78957633D01*
X73599210Y78765790D01*
X73599208Y78765787D01*
X69224210Y74390790D01*
X69032367Y74103675D01*
X69032367Y74103674D01*
X68994327Y73912440D01*
X68975000Y73912440D01*
X68739683Y73868162D01*
X68523559Y73729090D01*
X68378569Y73516890D01*
X68327560Y73265000D01*
X68327560Y71515000D01*
X68371838Y71279683D01*
X68510910Y71063559D01*
X68723110Y70918569D01*
X68965000Y70869585D01*
X68965000Y65020558D01*
X68739683Y64978162D01*
X68523559Y64839090D01*
X68378569Y64626890D01*
X68327560Y64375000D01*
X68327560Y62625000D01*
X68371838Y62389683D01*
X68510910Y62173559D01*
X68723110Y62028569D01*
X68965000Y61979585D01*
X68965000Y56130558D01*
X68739683Y56088162D01*
X68523559Y55949090D01*
X68378569Y55736890D01*
X68327560Y55485000D01*
X68327560Y53735000D01*
X68371838Y53499683D01*
X68510910Y53283559D01*
X68723110Y53138569D01*
X68975000Y53087560D01*
X70725000Y53087560D01*
X70960317Y53131838D01*
X71176441Y53270910D01*
X71321431Y53483110D01*
X71324786Y53499676D01*
X71493537Y53330630D01*
X72048325Y53100262D01*
X72649040Y53099738D01*
X73204229Y53329138D01*
X73600318Y53724536D01*
X73993537Y53330630D01*
X74548325Y53100262D01*
X75149040Y53099738D01*
X75704229Y53329138D01*
X75923413Y53547940D01*
X76467545Y53547940D01*
X76550884Y53294047D01*
X77115306Y53088410D01*
X77715458Y53114421D01*
X78149116Y53294047D01*
X78232455Y53547940D01*
X77350000Y54430395D01*
X76467545Y53547940D01*
X75923413Y53547940D01*
X76129370Y53753537D01*
X76138892Y53776469D01*
X76287940Y53727545D01*
X77170395Y54610000D01*
X77529605Y54610000D01*
X78412060Y53727545D01*
X78665953Y53810884D01*
X78871590Y54375306D01*
X78845579Y54975458D01*
X78665953Y55409116D01*
X78412060Y55492455D01*
X77529605Y54610000D01*
X77170395Y54610000D01*
X76287940Y55492455D01*
X76139352Y55443682D01*
X76130862Y55464229D01*
X75923394Y55672060D01*
X76467545Y55672060D01*
X77350000Y54789605D01*
X78232455Y55672060D01*
X78149116Y55925953D01*
X77584694Y56131590D01*
X76984542Y56105579D01*
X76550884Y55925953D01*
X76467545Y55672060D01*
X75923394Y55672060D01*
X75706463Y55889370D01*
X75151675Y56119738D01*
X74550960Y56120262D01*
X73995771Y55890862D01*
X73599682Y55495464D01*
X73206463Y55889370D01*
X72651675Y56119738D01*
X72050960Y56120262D01*
X71495771Y55890862D01*
X71326897Y55722283D01*
X71189090Y55936441D01*
X70976890Y56081431D01*
X70735000Y56130415D01*
X70735000Y61979442D01*
X70960317Y62021838D01*
X71176441Y62160910D01*
X71321431Y62373110D01*
X71324786Y62389676D01*
X71493537Y62220630D01*
X72048325Y61990262D01*
X72649040Y61989738D01*
X73204229Y62219138D01*
X73600318Y62614536D01*
X73993537Y62220630D01*
X74548325Y61990262D01*
X75149040Y61989738D01*
X75704229Y62219138D01*
X75923413Y62437940D01*
X76467545Y62437940D01*
X76550884Y62184047D01*
X77115306Y61978410D01*
X77715458Y62004421D01*
X78149116Y62184047D01*
X78232455Y62437940D01*
X77350000Y63320395D01*
X76467545Y62437940D01*
X75923413Y62437940D01*
X76129370Y62643537D01*
X76138892Y62666469D01*
X76287940Y62617545D01*
X77170395Y63500000D01*
X77529605Y63500000D01*
X78412060Y62617545D01*
X78665953Y62700884D01*
X78871590Y63265306D01*
X78845579Y63865458D01*
X78665953Y64299116D01*
X78412060Y64382455D01*
X77529605Y63500000D01*
X77170395Y63500000D01*
X76287940Y64382455D01*
X76139352Y64333682D01*
X76130862Y64354229D01*
X75923394Y64562060D01*
X76467545Y64562060D01*
X77350000Y63679605D01*
X78232455Y64562060D01*
X78149116Y64815953D01*
X77584694Y65021590D01*
X76984542Y64995579D01*
X76550884Y64815953D01*
X76467545Y64562060D01*
X75923394Y64562060D01*
X75706463Y64779370D01*
X75151675Y65009738D01*
X74550960Y65010262D01*
X73995771Y64780862D01*
X73599682Y64385464D01*
X73206463Y64779370D01*
X72651675Y65009738D01*
X72050960Y65010262D01*
X71495771Y64780862D01*
X71326897Y64612283D01*
X71189090Y64826441D01*
X70976890Y64971431D01*
X70735000Y65020415D01*
X70735000Y70869442D01*
X70960317Y70911838D01*
X71176441Y71050910D01*
X71321431Y71263110D01*
X71324786Y71279676D01*
X71493537Y71110630D01*
X72048325Y70880262D01*
X72649040Y70879738D01*
X73204229Y71109138D01*
X73600318Y71504536D01*
X73993537Y71110630D01*
X74548325Y70880262D01*
X75149040Y70879738D01*
X75704229Y71109138D01*
X75923413Y71327940D01*
X76467545Y71327940D01*
X76550884Y71074047D01*
X77115306Y70868410D01*
X77715458Y70894421D01*
X78149116Y71074047D01*
X78232455Y71327940D01*
X77350000Y72210395D01*
X76467545Y71327940D01*
X75923413Y71327940D01*
X76129370Y71533537D01*
X76138892Y71556469D01*
X76287940Y71507545D01*
X77170395Y72390000D01*
X77529605Y72390000D01*
X78412060Y71507545D01*
X78665953Y71590884D01*
X78871590Y72155306D01*
X78845579Y72755458D01*
X78665953Y73189116D01*
X78412060Y73272455D01*
X77529605Y72390000D01*
X77170395Y72390000D01*
X76287940Y73272455D01*
X76139352Y73223682D01*
X76130862Y73244229D01*
X75923394Y73452060D01*
X76467545Y73452060D01*
X77350000Y72569605D01*
X78232455Y73452060D01*
X78149116Y73705953D01*
X77584694Y73911590D01*
X76984542Y73885579D01*
X76550884Y73705953D01*
X76467545Y73452060D01*
X75923394Y73452060D01*
X75706463Y73669370D01*
X75151675Y73899738D01*
X74550960Y73900262D01*
X73995771Y73670862D01*
X73599682Y73275464D01*
X73206463Y73669370D01*
X72651675Y73899738D01*
X72050960Y73900262D01*
X71495771Y73670862D01*
X71326897Y73502283D01*
X71189090Y73716441D01*
X71108254Y73771674D01*
X74656530Y77319951D01*
X74668675Y77322367D01*
X74955790Y77514210D01*
X77201579Y79760000D01*
X83665000Y79760000D01*
X83665000Y76105005D01*
X83664999Y76105000D01*
X83721190Y75822516D01*
X83732367Y75766325D01*
X83924210Y75479210D01*
X86742560Y72660861D01*
X86742560Y71515000D01*
X86786838Y71279683D01*
X86925910Y71063559D01*
X87138110Y70918569D01*
X87380000Y70869585D01*
X87380000Y65020558D01*
X87154683Y64978162D01*
X86938559Y64839090D01*
X86793569Y64626890D01*
X86742560Y64375000D01*
X86742560Y62625000D01*
X86786838Y62389683D01*
X86925910Y62173559D01*
X87138110Y62028569D01*
X87380000Y61979585D01*
X87380000Y56130558D01*
X87154683Y56088162D01*
X86938559Y55949090D01*
X86793569Y55736890D01*
X86742560Y55485000D01*
X86742560Y53735000D01*
X86786838Y53499683D01*
X86925910Y53283559D01*
X87138110Y53138569D01*
X87380000Y53089585D01*
X87380000Y47240558D01*
X87154683Y47198162D01*
X86938559Y47059090D01*
X86793569Y46846890D01*
X86742560Y46595000D01*
X86742560Y44845000D01*
X86786838Y44609683D01*
X86925910Y44393559D01*
X87138110Y44248569D01*
X87390000Y44197560D01*
X89140000Y44197560D01*
X89375317Y44241838D01*
X89591441Y44380910D01*
X89736431Y44593110D01*
X89739786Y44609676D01*
X89908537Y44440630D01*
X90022777Y44393193D01*
X90062852Y44191725D01*
X90227599Y43945163D01*
X97030000Y37142762D01*
X97030000Y32565841D01*
X96827060Y32632455D01*
X95944605Y31750000D01*
X96827060Y30867545D01*
X97030000Y30934159D01*
X97030000Y23675841D01*
X96827060Y23742455D01*
X95944605Y22860000D01*
X96827060Y21977545D01*
X97030000Y22044159D01*
X97030000Y14785841D01*
X96827060Y14852455D01*
X95944605Y13970000D01*
X96827060Y13087545D01*
X97030000Y13154159D01*
X97030000Y5895841D01*
X96827060Y5962455D01*
X95944605Y5080000D01*
X95958748Y5065857D01*
X95779143Y4886252D01*
X95765000Y4900395D01*
X94882545Y4017940D01*
X94965884Y3764047D01*
X95530306Y3558410D01*
X95842122Y3571924D01*
X95570198Y3300000D01*
X68259802Y3300000D01*
X64895000Y6664802D01*
X64895000Y36195000D01*
X64837148Y36485839D01*
X64810629Y36525528D01*
X64672402Y36732401D01*
X59901350Y41503453D01*
X59943735Y41605528D01*
X59944264Y42211812D01*
X59712738Y42772149D01*
X59305263Y43180336D01*
X59711231Y43585596D01*
X59943735Y44145528D01*
X59944264Y44751812D01*
X59712738Y45312149D01*
X59305263Y45720336D01*
X59711231Y46125596D01*
X59943735Y46685528D01*
X59944264Y47291812D01*
X59712738Y47852149D01*
X59305263Y48260336D01*
X59711231Y48665596D01*
X59943735Y49225528D01*
X59944264Y49831812D01*
X59712738Y50392149D01*
X59305263Y50800336D01*
X59711231Y51205596D01*
X59943735Y51765528D01*
X59944264Y52371812D01*
X59712738Y52932149D01*
X59305263Y53340336D01*
X59711231Y53745596D01*
X59943735Y54305528D01*
X59944264Y54911812D01*
X59712738Y55472149D01*
X59305263Y55880336D01*
X59711231Y56285596D01*
X59943735Y56845528D01*
X59944264Y57451812D01*
X59712738Y58012149D01*
X59305263Y58420336D01*
X59711231Y58825596D01*
X59943735Y59385528D01*
X59944264Y59991812D01*
X59712738Y60552149D01*
X59305263Y60960336D01*
X59711231Y61365596D01*
X59943735Y61925528D01*
X59944264Y62531812D01*
X59712738Y63092149D01*
X59284404Y63521231D01*
X59257494Y63532405D01*
X59312591Y63697804D01*
X58420000Y64590395D01*
X58405858Y64576252D01*
X58226253Y64755857D01*
X58240395Y64770000D01*
X58599605Y64770000D01*
X59492196Y63877409D01*
X59747539Y63962467D01*
X59955516Y64531965D01*
X59929723Y65137700D01*
X59747539Y65577533D01*
X59492196Y65662591D01*
X58599605Y64770000D01*
X58240395Y64770000D01*
X58226253Y64784142D01*
X58405858Y64963747D01*
X58420000Y64949605D01*
X59312591Y65842196D01*
X59227533Y66097539D01*
X58658035Y66305516D01*
X58052300Y66279723D01*
X57612467Y66097539D01*
X57527410Y65842198D01*
X57412820Y65956788D01*
X57356359Y65900327D01*
X57307327Y66018699D01*
X57128698Y66197327D01*
X56895309Y66294000D01*
X56165750Y66294000D01*
X56007000Y66135250D01*
X56007000Y64897000D01*
X56027000Y64897000D01*
X56027000Y64643000D01*
X56007000Y64643000D01*
X56007000Y64623000D01*
X55753000Y64623000D01*
X55753000Y64643000D01*
X54514750Y64643000D01*
X54356000Y64484250D01*
X54356000Y63754690D01*
X54452673Y63521301D01*
X54631302Y63342673D01*
X54777011Y63282318D01*
X54588769Y63094404D01*
X54356265Y62534472D01*
X54355761Y61957341D01*
X52714210Y60315790D01*
X52522367Y60028675D01*
X52511190Y59972484D01*
X52454999Y59690000D01*
X52455000Y59689995D01*
X52455000Y3175005D01*
X52454999Y3175000D01*
X52479864Y3050000D01*
X52522367Y2836325D01*
X52636842Y2665000D01*
X52714210Y2549210D01*
X54553421Y710000D01*
X710000Y710000D01*
X710000Y2737804D01*
X4187409Y2737804D01*
X4272467Y2482461D01*
X4841965Y2274484D01*
X5447700Y2300277D01*
X5887533Y2482461D01*
X5972591Y2737804D01*
X6727409Y2737804D01*
X6812467Y2482461D01*
X7381965Y2274484D01*
X7987700Y2300277D01*
X8427533Y2482461D01*
X8512591Y2737804D01*
X7620000Y3630395D01*
X6727409Y2737804D01*
X5972591Y2737804D01*
X5080000Y3630395D01*
X4187409Y2737804D01*
X710000Y2737804D01*
X710000Y4048035D01*
X3544484Y4048035D01*
X3570277Y3442300D01*
X3752461Y3002467D01*
X4007804Y2917409D01*
X4900395Y3810000D01*
X5259605Y3810000D01*
X6152196Y2917409D01*
X6350000Y2983300D01*
X6547804Y2917409D01*
X7440395Y3810000D01*
X7799605Y3810000D01*
X8692196Y2917409D01*
X8947539Y3002467D01*
X9155516Y3571965D01*
X9129723Y4177700D01*
X8947539Y4617533D01*
X8692196Y4702591D01*
X7799605Y3810000D01*
X7440395Y3810000D01*
X6547804Y4702591D01*
X6350000Y4636700D01*
X6152196Y4702591D01*
X5259605Y3810000D01*
X4900395Y3810000D01*
X4007804Y4702591D01*
X3752461Y4617533D01*
X3544484Y4048035D01*
X710000Y4048035D01*
X710000Y37068035D01*
X3544484Y37068035D01*
X3570277Y36462300D01*
X3752461Y36022467D01*
X4007804Y35937409D01*
X4900395Y36830000D01*
X4007804Y37722591D01*
X3752461Y37637533D01*
X3544484Y37068035D01*
X710000Y37068035D01*
X710000Y59928035D01*
X3544484Y59928035D01*
X3570277Y59322300D01*
X3752461Y58882467D01*
X4007804Y58797409D01*
X4900395Y59690000D01*
X4007804Y60582591D01*
X3752461Y60497533D01*
X3544484Y59928035D01*
X710000Y59928035D01*
X710000Y61928188D01*
X3555736Y61928188D01*
X3787262Y61367851D01*
X4215596Y60938769D01*
X4242506Y60927595D01*
X4187409Y60762196D01*
X5080000Y59869605D01*
X5972591Y60762196D01*
X5917647Y60927138D01*
X5942149Y60937262D01*
X6350336Y61344737D01*
X6734737Y60959664D01*
X6328769Y60554404D01*
X6317595Y60527494D01*
X6152196Y60582591D01*
X5259605Y59690000D01*
X6152196Y58797409D01*
X6317138Y58852353D01*
X6327262Y58827851D01*
X6734737Y58419664D01*
X6349664Y58035263D01*
X5944404Y58441231D01*
X5917494Y58452405D01*
X5972591Y58617804D01*
X5080000Y59510395D01*
X4187409Y58617804D01*
X4242353Y58452862D01*
X4217851Y58442738D01*
X3788769Y58014404D01*
X3556265Y57454472D01*
X3555736Y56848188D01*
X3787262Y56287851D01*
X4194737Y55879664D01*
X3788769Y55474404D01*
X3556265Y54914472D01*
X3555736Y54308188D01*
X3787262Y53747851D01*
X4194737Y53339664D01*
X3788769Y52934404D01*
X3556265Y52374472D01*
X3555736Y51768188D01*
X3787262Y51207851D01*
X4194737Y50799664D01*
X3788769Y50394404D01*
X3556265Y49834472D01*
X3555736Y49228188D01*
X3787262Y48667851D01*
X4194737Y48259664D01*
X3788769Y47854404D01*
X3556265Y47294472D01*
X3555736Y46688188D01*
X3787262Y46127851D01*
X4194737Y45719664D01*
X3788769Y45314404D01*
X3556265Y44754472D01*
X3555736Y44148188D01*
X3787262Y43587851D01*
X4194737Y43179664D01*
X3788769Y42774404D01*
X3556265Y42214472D01*
X3555736Y41608188D01*
X3787262Y41047851D01*
X4194737Y40639664D01*
X3788769Y40234404D01*
X3556265Y39674472D01*
X3555736Y39068188D01*
X3787262Y38507851D01*
X4215596Y38078769D01*
X4242506Y38067595D01*
X4187409Y37902196D01*
X5080000Y37009605D01*
X5972591Y37902196D01*
X5917647Y38067138D01*
X5942149Y38077262D01*
X6350336Y38484737D01*
X6734737Y38099664D01*
X6328769Y37694404D01*
X6317595Y37667494D01*
X6152196Y37722591D01*
X5259605Y36830000D01*
X6152196Y35937409D01*
X6317138Y35992353D01*
X6327262Y35967851D01*
X6734737Y35559664D01*
X6349664Y35175263D01*
X5944404Y35581231D01*
X5917494Y35592405D01*
X5972591Y35757804D01*
X5080000Y36650395D01*
X4187409Y35757804D01*
X4242353Y35592862D01*
X4217851Y35582738D01*
X3788769Y35154404D01*
X3556265Y34594472D01*
X3555736Y33988188D01*
X3787262Y33427851D01*
X4194737Y33019664D01*
X3788769Y32614404D01*
X3556265Y32054472D01*
X3555736Y31448188D01*
X3787262Y30887851D01*
X4194737Y30479664D01*
X3788769Y30074404D01*
X3556265Y29514472D01*
X3555736Y28908188D01*
X3787262Y28347851D01*
X4194737Y27939664D01*
X3788769Y27534404D01*
X3556265Y26974472D01*
X3555736Y26368188D01*
X3787262Y25807851D01*
X4194737Y25399664D01*
X3788769Y24994404D01*
X3556265Y24434472D01*
X3555736Y23828188D01*
X3787262Y23267851D01*
X4194737Y22859664D01*
X3788769Y22454404D01*
X3556265Y21894472D01*
X3555736Y21288188D01*
X3787262Y20727851D01*
X4194737Y20319664D01*
X3788769Y19914404D01*
X3556265Y19354472D01*
X3555736Y18748188D01*
X3787262Y18187851D01*
X4194737Y17779664D01*
X3788769Y17374404D01*
X3556265Y16814472D01*
X3555736Y16208188D01*
X3787262Y15647851D01*
X4194737Y15239664D01*
X3788769Y14834404D01*
X3556265Y14274472D01*
X3555736Y13668188D01*
X3787262Y13107851D01*
X4194737Y12699664D01*
X3788769Y12294404D01*
X3556265Y11734472D01*
X3555736Y11128188D01*
X3787262Y10567851D01*
X4194737Y10159664D01*
X3788769Y9754404D01*
X3556265Y9194472D01*
X3555736Y8588188D01*
X3787262Y8027851D01*
X4194737Y7619664D01*
X3788769Y7214404D01*
X3556265Y6654472D01*
X3555736Y6048188D01*
X3787262Y5487851D01*
X4215596Y5058769D01*
X4242506Y5047595D01*
X4187409Y4882196D01*
X5080000Y3989605D01*
X5972591Y4882196D01*
X5917647Y5047138D01*
X5942149Y5057262D01*
X6350336Y5464737D01*
X6755596Y5058769D01*
X6782506Y5047595D01*
X6727409Y4882196D01*
X7620000Y3989605D01*
X8512591Y4882196D01*
X8457647Y5047138D01*
X8482149Y5057262D01*
X8911231Y5485596D01*
X9143735Y6045528D01*
X9144264Y6651812D01*
X8912738Y7212149D01*
X8505263Y7620336D01*
X8911231Y8025596D01*
X9143735Y8585528D01*
X9144264Y9191812D01*
X8912738Y9752149D01*
X8505263Y10160336D01*
X8911231Y10565596D01*
X9143735Y11125528D01*
X9144264Y11731812D01*
X8912738Y12292149D01*
X8505263Y12700336D01*
X8911231Y13105596D01*
X9143735Y13665528D01*
X9144264Y14271812D01*
X8912738Y14832149D01*
X8505263Y15240336D01*
X8911231Y15645596D01*
X9143735Y16205528D01*
X9144264Y16811812D01*
X8912738Y17372149D01*
X8505263Y17780336D01*
X8911231Y18185596D01*
X9143735Y18745528D01*
X9144264Y19351812D01*
X8912738Y19912149D01*
X8505263Y20320336D01*
X8911231Y20725596D01*
X9143735Y21285528D01*
X9144264Y21891812D01*
X8912738Y22452149D01*
X8505263Y22860336D01*
X8911231Y23265596D01*
X9143735Y23825528D01*
X9144264Y24431812D01*
X8912738Y24992149D01*
X8505263Y25400336D01*
X8911231Y25805596D01*
X9143735Y26365528D01*
X9144264Y26971812D01*
X8912738Y27532149D01*
X8505263Y27940336D01*
X8911231Y28345596D01*
X9143735Y28905528D01*
X9144264Y29511812D01*
X8912738Y30072149D01*
X8505263Y30480336D01*
X8911231Y30885596D01*
X9143735Y31445528D01*
X9144264Y32051812D01*
X8912738Y32612149D01*
X8505263Y33020336D01*
X8911231Y33425596D01*
X9143735Y33985528D01*
X9144264Y34591812D01*
X8912738Y35152149D01*
X8505263Y35560336D01*
X8911231Y35965596D01*
X9143735Y36525528D01*
X9144264Y37131812D01*
X8912738Y37692149D01*
X8505263Y38100336D01*
X8911231Y38505596D01*
X9143735Y39065528D01*
X9144264Y39671812D01*
X8912738Y40232149D01*
X8505263Y40640336D01*
X8911231Y41045596D01*
X8954583Y41150000D01*
X26035000Y41150000D01*
X26325839Y41207852D01*
X26572401Y41372599D01*
X50985112Y65785310D01*
X54356000Y65785310D01*
X54356000Y65055750D01*
X54514750Y64897000D01*
X55753000Y64897000D01*
X55753000Y66135250D01*
X55594250Y66294000D01*
X54864691Y66294000D01*
X54631302Y66197327D01*
X54452673Y66018699D01*
X54356000Y65785310D01*
X50985112Y65785310D01*
X51749802Y66550000D01*
X60010198Y66550000D01*
X60835000Y65725198D01*
X60835000Y42545000D01*
X60892852Y42254161D01*
X61057599Y42007599D01*
X63597599Y39467599D01*
X63844160Y39302852D01*
X63892414Y39293254D01*
X64135000Y39245000D01*
X77790198Y39245000D01*
X80480000Y36555198D01*
X80480000Y14605000D01*
X80537852Y14314161D01*
X80702599Y14067599D01*
X83090198Y11680000D01*
X70735000Y11680000D01*
X70735000Y12449442D01*
X70960317Y12491838D01*
X71176441Y12630910D01*
X71321431Y12843110D01*
X71324786Y12859676D01*
X71493537Y12690630D01*
X72048325Y12460262D01*
X72649040Y12459738D01*
X73204229Y12689138D01*
X73600318Y13084536D01*
X73993537Y12690630D01*
X74548325Y12460262D01*
X75149040Y12459738D01*
X75704229Y12689138D01*
X75923413Y12907940D01*
X76467545Y12907940D01*
X76550884Y12654047D01*
X77115306Y12448410D01*
X77715458Y12474421D01*
X78149116Y12654047D01*
X78232455Y12907940D01*
X77350000Y13790395D01*
X76467545Y12907940D01*
X75923413Y12907940D01*
X76129370Y13113537D01*
X76138892Y13136469D01*
X76287940Y13087545D01*
X77170395Y13970000D01*
X77529605Y13970000D01*
X78412060Y13087545D01*
X78665953Y13170884D01*
X78871590Y13735306D01*
X78845579Y14335458D01*
X78665953Y14769116D01*
X78412060Y14852455D01*
X77529605Y13970000D01*
X77170395Y13970000D01*
X76287940Y14852455D01*
X76139352Y14803682D01*
X76130862Y14824229D01*
X75923394Y15032060D01*
X76467545Y15032060D01*
X77350000Y14149605D01*
X78232455Y15032060D01*
X78149116Y15285953D01*
X77584694Y15491590D01*
X76984542Y15465579D01*
X76550884Y15285953D01*
X76467545Y15032060D01*
X75923394Y15032060D01*
X75706463Y15249370D01*
X75151675Y15479738D01*
X74550960Y15480262D01*
X73995771Y15250862D01*
X73599682Y14855464D01*
X73206463Y15249370D01*
X72651675Y15479738D01*
X72050960Y15480262D01*
X71495771Y15250862D01*
X71326897Y15082283D01*
X71189090Y15296441D01*
X70976890Y15441431D01*
X70735000Y15490415D01*
X70735000Y21339442D01*
X70960317Y21381838D01*
X71176441Y21520910D01*
X71321431Y21733110D01*
X71324786Y21749676D01*
X71493537Y21580630D01*
X72048325Y21350262D01*
X72649040Y21349738D01*
X73204229Y21579138D01*
X73600318Y21974536D01*
X73993537Y21580630D01*
X74548325Y21350262D01*
X75149040Y21349738D01*
X75704229Y21579138D01*
X75923413Y21797940D01*
X76467545Y21797940D01*
X76550884Y21544047D01*
X77115306Y21338410D01*
X77715458Y21364421D01*
X78149116Y21544047D01*
X78232455Y21797940D01*
X77350000Y22680395D01*
X76467545Y21797940D01*
X75923413Y21797940D01*
X76129370Y22003537D01*
X76138892Y22026469D01*
X76287940Y21977545D01*
X77170395Y22860000D01*
X77529605Y22860000D01*
X78412060Y21977545D01*
X78665953Y22060884D01*
X78871590Y22625306D01*
X78845579Y23225458D01*
X78665953Y23659116D01*
X78412060Y23742455D01*
X77529605Y22860000D01*
X77170395Y22860000D01*
X76287940Y23742455D01*
X76139352Y23693682D01*
X76130862Y23714229D01*
X75923394Y23922060D01*
X76467545Y23922060D01*
X77350000Y23039605D01*
X78232455Y23922060D01*
X78149116Y24175953D01*
X77584694Y24381590D01*
X76984542Y24355579D01*
X76550884Y24175953D01*
X76467545Y23922060D01*
X75923394Y23922060D01*
X75706463Y24139370D01*
X75151675Y24369738D01*
X74550960Y24370262D01*
X73995771Y24140862D01*
X73599682Y23745464D01*
X73206463Y24139370D01*
X72651675Y24369738D01*
X72050960Y24370262D01*
X71495771Y24140862D01*
X71326897Y23972283D01*
X71189090Y24186441D01*
X70976890Y24331431D01*
X70735000Y24380415D01*
X70735000Y30229442D01*
X70960317Y30271838D01*
X71176441Y30410910D01*
X71321431Y30623110D01*
X71324786Y30639676D01*
X71493537Y30470630D01*
X72048325Y30240262D01*
X72649040Y30239738D01*
X73204229Y30469138D01*
X73600318Y30864536D01*
X73993537Y30470630D01*
X74548325Y30240262D01*
X75149040Y30239738D01*
X75704229Y30469138D01*
X75923413Y30687940D01*
X76467545Y30687940D01*
X76550884Y30434047D01*
X77115306Y30228410D01*
X77715458Y30254421D01*
X78149116Y30434047D01*
X78232455Y30687940D01*
X77350000Y31570395D01*
X76467545Y30687940D01*
X75923413Y30687940D01*
X76129370Y30893537D01*
X76138892Y30916469D01*
X76287940Y30867545D01*
X77170395Y31750000D01*
X77529605Y31750000D01*
X78412060Y30867545D01*
X78665953Y30950884D01*
X78871590Y31515306D01*
X78845579Y32115458D01*
X78665953Y32549116D01*
X78412060Y32632455D01*
X77529605Y31750000D01*
X77170395Y31750000D01*
X76287940Y32632455D01*
X76139352Y32583682D01*
X76130862Y32604229D01*
X75923394Y32812060D01*
X76467545Y32812060D01*
X77350000Y31929605D01*
X78232455Y32812060D01*
X78149116Y33065953D01*
X77584694Y33271590D01*
X76984542Y33245579D01*
X76550884Y33065953D01*
X76467545Y32812060D01*
X75923394Y32812060D01*
X75706463Y33029370D01*
X75151675Y33259738D01*
X74550960Y33260262D01*
X73995771Y33030862D01*
X73599682Y32635464D01*
X73206463Y33029370D01*
X72651675Y33259738D01*
X72050960Y33260262D01*
X71495771Y33030862D01*
X71326897Y32862283D01*
X71189090Y33076441D01*
X70976890Y33221431D01*
X70725000Y33272440D01*
X68975000Y33272440D01*
X68739683Y33228162D01*
X68523559Y33089090D01*
X68378569Y32876890D01*
X68327560Y32625000D01*
X68327560Y30875000D01*
X68371838Y30639683D01*
X68510910Y30423559D01*
X68723110Y30278569D01*
X68965000Y30229585D01*
X68965000Y24380558D01*
X68739683Y24338162D01*
X68523559Y24199090D01*
X68378569Y23986890D01*
X68327560Y23735000D01*
X68327560Y21985000D01*
X68371838Y21749683D01*
X68510910Y21533559D01*
X68723110Y21388569D01*
X68965000Y21339585D01*
X68965000Y15490558D01*
X68739683Y15448162D01*
X68523559Y15309090D01*
X68378569Y15096890D01*
X68327560Y14845000D01*
X68327560Y13095000D01*
X68371838Y12859683D01*
X68510910Y12643559D01*
X68723110Y12498569D01*
X68965000Y12449585D01*
X68965000Y6600558D01*
X68739683Y6558162D01*
X68523559Y6419090D01*
X68378569Y6206890D01*
X68327560Y5955000D01*
X68327560Y4205000D01*
X68371838Y3969683D01*
X68510910Y3753559D01*
X68723110Y3608569D01*
X68975000Y3557560D01*
X70725000Y3557560D01*
X70960317Y3601838D01*
X71176441Y3740910D01*
X71321431Y3953110D01*
X71324786Y3969676D01*
X71493537Y3800630D01*
X72048325Y3570262D01*
X72649040Y3569738D01*
X73204229Y3799138D01*
X73600318Y4194536D01*
X73993537Y3800630D01*
X74548325Y3570262D01*
X75149040Y3569738D01*
X75704229Y3799138D01*
X75923413Y4017940D01*
X76467545Y4017940D01*
X76550884Y3764047D01*
X77115306Y3558410D01*
X77715458Y3584421D01*
X78149116Y3764047D01*
X78232455Y4017940D01*
X77350000Y4900395D01*
X76467545Y4017940D01*
X75923413Y4017940D01*
X76129370Y4223537D01*
X76138892Y4246469D01*
X76287940Y4197545D01*
X77170395Y5080000D01*
X77529605Y5080000D01*
X78412060Y4197545D01*
X78665953Y4280884D01*
X78871590Y4845306D01*
X78845579Y5445458D01*
X78665953Y5879116D01*
X78412060Y5962455D01*
X77529605Y5080000D01*
X77170395Y5080000D01*
X76287940Y5962455D01*
X76139352Y5913682D01*
X76130862Y5934229D01*
X75923394Y6142060D01*
X76467545Y6142060D01*
X77350000Y5259605D01*
X78232455Y6142060D01*
X78149116Y6395953D01*
X77584694Y6601590D01*
X76984542Y6575579D01*
X76550884Y6395953D01*
X76467545Y6142060D01*
X75923394Y6142060D01*
X75706463Y6359370D01*
X75151675Y6589738D01*
X74550960Y6590262D01*
X73995771Y6360862D01*
X73599682Y5965464D01*
X73206463Y6359370D01*
X72651675Y6589738D01*
X72050960Y6590262D01*
X71495771Y6360862D01*
X71326897Y6192283D01*
X71189090Y6406441D01*
X70976890Y6551431D01*
X70735000Y6600415D01*
X70735000Y9910000D01*
X83558420Y9910000D01*
X87005960Y6462461D01*
X86938559Y6419090D01*
X86793569Y6206890D01*
X86742560Y5955000D01*
X86742560Y4205000D01*
X86786838Y3969683D01*
X86925910Y3753559D01*
X87138110Y3608569D01*
X87390000Y3557560D01*
X89140000Y3557560D01*
X89375317Y3601838D01*
X89591441Y3740910D01*
X89736431Y3953110D01*
X89739786Y3969676D01*
X89908537Y3800630D01*
X90463325Y3570262D01*
X91064040Y3569738D01*
X91619229Y3799138D01*
X92015318Y4194536D01*
X92408537Y3800630D01*
X92963325Y3570262D01*
X93564040Y3569738D01*
X94119229Y3799138D01*
X94544370Y4223537D01*
X94553892Y4246469D01*
X94702940Y4197545D01*
X95585395Y5080000D01*
X94702940Y5962455D01*
X94554352Y5913682D01*
X94545862Y5934229D01*
X94338394Y6142060D01*
X94882545Y6142060D01*
X95765000Y5259605D01*
X96647455Y6142060D01*
X96564116Y6395953D01*
X95999694Y6601590D01*
X95399542Y6575579D01*
X94965884Y6395953D01*
X94882545Y6142060D01*
X94338394Y6142060D01*
X94121463Y6359370D01*
X93566675Y6589738D01*
X92965960Y6590262D01*
X92869427Y6550375D01*
X82675000Y16744802D01*
X82675000Y20985198D01*
X88167758Y15492440D01*
X87390000Y15492440D01*
X87154683Y15448162D01*
X86938559Y15309090D01*
X86793569Y15096890D01*
X86742560Y14845000D01*
X86742560Y13095000D01*
X86786838Y12859683D01*
X86925910Y12643559D01*
X87138110Y12498569D01*
X87390000Y12447560D01*
X89140000Y12447560D01*
X89375317Y12491838D01*
X89591441Y12630910D01*
X89736431Y12843110D01*
X89739786Y12859676D01*
X89908537Y12690630D01*
X90463325Y12460262D01*
X91064040Y12459738D01*
X91619229Y12689138D01*
X92015318Y13084536D01*
X92408537Y12690630D01*
X92963325Y12460262D01*
X93564040Y12459738D01*
X94119229Y12689138D01*
X94338413Y12907940D01*
X94882545Y12907940D01*
X94965884Y12654047D01*
X95530306Y12448410D01*
X96130458Y12474421D01*
X96564116Y12654047D01*
X96647455Y12907940D01*
X95765000Y13790395D01*
X94882545Y12907940D01*
X94338413Y12907940D01*
X94544370Y13113537D01*
X94553892Y13136469D01*
X94702940Y13087545D01*
X95585395Y13970000D01*
X94702940Y14852455D01*
X94554352Y14803682D01*
X94545862Y14824229D01*
X94338394Y15032060D01*
X94882545Y15032060D01*
X95765000Y14149605D01*
X96647455Y15032060D01*
X96564116Y15285953D01*
X95999694Y15491590D01*
X95399542Y15465579D01*
X94965884Y15285953D01*
X94882545Y15032060D01*
X94338394Y15032060D01*
X94121463Y15249370D01*
X93566675Y15479738D01*
X92965960Y15480262D01*
X92869427Y15440375D01*
X83945000Y24364802D01*
X83945000Y28605198D01*
X88167758Y24382440D01*
X87390000Y24382440D01*
X87154683Y24338162D01*
X86938559Y24199090D01*
X86793569Y23986890D01*
X86742560Y23735000D01*
X86742560Y21985000D01*
X86786838Y21749683D01*
X86925910Y21533559D01*
X87138110Y21388569D01*
X87390000Y21337560D01*
X89140000Y21337560D01*
X89375317Y21381838D01*
X89591441Y21520910D01*
X89736431Y21733110D01*
X89739786Y21749676D01*
X89908537Y21580630D01*
X90463325Y21350262D01*
X91064040Y21349738D01*
X91619229Y21579138D01*
X92015318Y21974536D01*
X92408537Y21580630D01*
X92963325Y21350262D01*
X93564040Y21349738D01*
X94119229Y21579138D01*
X94338413Y21797940D01*
X94882545Y21797940D01*
X94965884Y21544047D01*
X95530306Y21338410D01*
X96130458Y21364421D01*
X96564116Y21544047D01*
X96647455Y21797940D01*
X95765000Y22680395D01*
X94882545Y21797940D01*
X94338413Y21797940D01*
X94544370Y22003537D01*
X94553892Y22026469D01*
X94702940Y21977545D01*
X95585395Y22860000D01*
X94702940Y23742455D01*
X94554352Y23693682D01*
X94545862Y23714229D01*
X94338394Y23922060D01*
X94882545Y23922060D01*
X95765000Y23039605D01*
X96647455Y23922060D01*
X96564116Y24175953D01*
X95999694Y24381590D01*
X95399542Y24355579D01*
X94965884Y24175953D01*
X94882545Y23922060D01*
X94338394Y23922060D01*
X94121463Y24139370D01*
X93566675Y24369738D01*
X92965960Y24370262D01*
X92869427Y24330375D01*
X85215000Y31984802D01*
X85215000Y39440198D01*
X90005000Y34650198D01*
X90005000Y33069797D01*
X89910771Y33030862D01*
X89741897Y32862283D01*
X89604090Y33076441D01*
X89391890Y33221431D01*
X89140000Y33272440D01*
X87390000Y33272440D01*
X87154683Y33228162D01*
X86938559Y33089090D01*
X86793569Y32876890D01*
X86742560Y32625000D01*
X86742560Y30875000D01*
X86786838Y30639683D01*
X86925910Y30423559D01*
X87138110Y30278569D01*
X87390000Y30227560D01*
X89140000Y30227560D01*
X89375317Y30271838D01*
X89591441Y30410910D01*
X89736431Y30623110D01*
X89739786Y30639676D01*
X89908537Y30470630D01*
X90463325Y30240262D01*
X91064040Y30239738D01*
X91619229Y30469138D01*
X92015318Y30864536D01*
X92408537Y30470630D01*
X92963325Y30240262D01*
X93564040Y30239738D01*
X94119229Y30469138D01*
X94338413Y30687940D01*
X94882545Y30687940D01*
X94965884Y30434047D01*
X95530306Y30228410D01*
X96130458Y30254421D01*
X96564116Y30434047D01*
X96647455Y30687940D01*
X95765000Y31570395D01*
X94882545Y30687940D01*
X94338413Y30687940D01*
X94544370Y30893537D01*
X94553892Y30916469D01*
X94702940Y30867545D01*
X95585395Y31750000D01*
X94702940Y32632455D01*
X94554352Y32583682D01*
X94545862Y32604229D01*
X94338394Y32812060D01*
X94882545Y32812060D01*
X95765000Y31929605D01*
X96647455Y32812060D01*
X96564116Y33065953D01*
X95999694Y33271590D01*
X95399542Y33245579D01*
X94965884Y33065953D01*
X94882545Y32812060D01*
X94338394Y32812060D01*
X94121463Y33029370D01*
X94025000Y33069425D01*
X94025000Y33735000D01*
X93967148Y34025840D01*
X93802401Y34272401D01*
X83087401Y44987401D01*
X82840839Y45152148D01*
X82550000Y45210000D01*
X68894802Y45210000D01*
X66800000Y47304802D01*
X66800000Y70485000D01*
X66742148Y70775839D01*
X66742148Y70775840D01*
X66577401Y71022401D01*
X65307401Y72292401D01*
X65060839Y72457148D01*
X64770000Y72515000D01*
X46990000Y72515000D01*
X46699160Y72457148D01*
X46452599Y72292401D01*
X30800198Y56640000D01*
X9058392Y56640000D01*
X9143735Y56845528D01*
X9144264Y57451812D01*
X8912738Y58012149D01*
X8505263Y58420336D01*
X8911231Y58825596D01*
X9143735Y59385528D01*
X9144264Y59991812D01*
X8912738Y60552149D01*
X8505263Y60960336D01*
X8911231Y61365596D01*
X9143735Y61925528D01*
X9144264Y62531812D01*
X8912738Y63092149D01*
X8484404Y63521231D01*
X8457494Y63532405D01*
X8512591Y63697804D01*
X7620000Y64590395D01*
X7605858Y64576252D01*
X7426253Y64755857D01*
X7440395Y64770000D01*
X7799605Y64770000D01*
X8692196Y63877409D01*
X8947539Y63962467D01*
X9155516Y64531965D01*
X9129723Y65137700D01*
X8947539Y65577533D01*
X8692196Y65662591D01*
X7799605Y64770000D01*
X7440395Y64770000D01*
X7426253Y64784142D01*
X7605858Y64963747D01*
X7620000Y64949605D01*
X8512591Y65842196D01*
X8427533Y66097539D01*
X7858035Y66305516D01*
X7252300Y66279723D01*
X6812467Y66097539D01*
X6727410Y65842198D01*
X6612820Y65956788D01*
X6556359Y65900327D01*
X6507327Y66018699D01*
X6328698Y66197327D01*
X6095309Y66294000D01*
X5365750Y66294000D01*
X5207000Y66135250D01*
X5207000Y64897000D01*
X5227000Y64897000D01*
X5227000Y64643000D01*
X5207000Y64643000D01*
X5207000Y64623000D01*
X4953000Y64623000D01*
X4953000Y64643000D01*
X3714750Y64643000D01*
X3556000Y64484250D01*
X3556000Y63754690D01*
X3652673Y63521301D01*
X3831302Y63342673D01*
X3977011Y63282318D01*
X3788769Y63094404D01*
X3556265Y62534472D01*
X3555736Y61928188D01*
X710000Y61928188D01*
X710000Y65785310D01*
X3556000Y65785310D01*
X3556000Y65055750D01*
X3714750Y64897000D01*
X4953000Y64897000D01*
X4953000Y66135250D01*
X4794250Y66294000D01*
X4064691Y66294000D01*
X3831302Y66197327D01*
X3652673Y66018699D01*
X3556000Y65785310D01*
X710000Y65785310D01*
X710000Y89074250D01*
X64035000Y89074250D01*
X64035000Y87483691D01*
X64131673Y87250302D01*
X64310301Y87071673D01*
X64543690Y86975000D01*
X66134250Y86975000D01*
X66293000Y87133750D01*
X66293000Y89233000D01*
X66547000Y89233000D01*
X66547000Y87133750D01*
X66705750Y86975000D01*
X68296310Y86975000D01*
X68529699Y87071673D01*
X68708327Y87250302D01*
X68722560Y87284663D01*
X68722560Y84610000D01*
X68766838Y84374683D01*
X68905910Y84158559D01*
X69118110Y84013569D01*
X69370000Y83962560D01*
X72870000Y83962560D01*
X73105317Y84006838D01*
X73321441Y84145910D01*
X73466431Y84358110D01*
X73517440Y84610000D01*
X73517440Y87505860D01*
X75895829Y89884250D01*
X78915000Y89884250D01*
X78915000Y89243690D01*
X79011673Y89010301D01*
X79190302Y88831673D01*
X79423691Y88735000D01*
X80264250Y88735000D01*
X80423000Y88893750D01*
X80423000Y90043000D01*
X80677000Y90043000D01*
X80677000Y88893750D01*
X80835750Y88735000D01*
X81676309Y88735000D01*
X81909698Y88831673D01*
X82088327Y89010301D01*
X82185000Y89243690D01*
X82185000Y89884250D01*
X82026250Y90043000D01*
X80677000Y90043000D01*
X80423000Y90043000D01*
X79073750Y90043000D01*
X78915000Y89884250D01*
X75895829Y89884250D01*
X77107889Y91096310D01*
X78915000Y91096310D01*
X78915000Y90455750D01*
X79073750Y90297000D01*
X80423000Y90297000D01*
X80423000Y91446250D01*
X80677000Y91446250D01*
X80677000Y90297000D01*
X82026250Y90297000D01*
X82185000Y90455750D01*
X82185000Y91096310D01*
X82088327Y91329699D01*
X81909698Y91508327D01*
X81676309Y91605000D01*
X80835750Y91605000D01*
X80677000Y91446250D01*
X80423000Y91446250D01*
X80264250Y91605000D01*
X79423691Y91605000D01*
X79190302Y91508327D01*
X79011673Y91329699D01*
X78915000Y91096310D01*
X77107889Y91096310D01*
X78759258Y92747679D01*
X78835910Y92628559D01*
X79048110Y92483569D01*
X79300000Y92432560D01*
X81800000Y92432560D01*
X82035317Y92476838D01*
X82251441Y92615910D01*
X82396431Y92828110D01*
X82447440Y93080000D01*
X82447440Y94880000D01*
X82403162Y95115317D01*
X82264090Y95331441D01*
X82051890Y95476431D01*
X81800000Y95527440D01*
X79300000Y95527440D01*
X79064683Y95483162D01*
X78848559Y95344090D01*
X78703569Y95131890D01*
X78652560Y94880000D01*
X78652560Y94847607D01*
X78401325Y94797633D01*
X78114210Y94605790D01*
X78114208Y94605787D01*
X72265860Y88757440D01*
X69370000Y88757440D01*
X69134683Y88713162D01*
X68918559Y88574090D01*
X68805000Y88407891D01*
X68805000Y89074250D01*
X68646250Y89233000D01*
X66547000Y89233000D01*
X66293000Y89233000D01*
X64193750Y89233000D01*
X64035000Y89074250D01*
X710000Y89074250D01*
X710000Y91637804D01*
X4187409Y91637804D01*
X4272467Y91382461D01*
X4841965Y91174484D01*
X5447700Y91200277D01*
X5887533Y91382461D01*
X5972591Y91637804D01*
X57527409Y91637804D01*
X57612467Y91382461D01*
X58181965Y91174484D01*
X58787700Y91200277D01*
X58874689Y91236309D01*
X64035000Y91236309D01*
X64035000Y89645750D01*
X64193750Y89487000D01*
X66293000Y89487000D01*
X66293000Y91586250D01*
X66547000Y91586250D01*
X66547000Y89487000D01*
X68646250Y89487000D01*
X68805000Y89645750D01*
X68805000Y90314696D01*
X68831673Y90250302D01*
X69010301Y90071673D01*
X69243690Y89975000D01*
X70834250Y89975000D01*
X70993000Y90133750D01*
X70993000Y92233000D01*
X71247000Y92233000D01*
X71247000Y90133750D01*
X71405750Y89975000D01*
X72996310Y89975000D01*
X73229699Y90071673D01*
X73408327Y90250302D01*
X73505000Y90483691D01*
X73505000Y92074250D01*
X73346250Y92233000D01*
X71247000Y92233000D01*
X70993000Y92233000D01*
X68893750Y92233000D01*
X68735000Y92074250D01*
X68735000Y91405304D01*
X68708327Y91469698D01*
X68529699Y91648327D01*
X68296310Y91745000D01*
X66705750Y91745000D01*
X66547000Y91586250D01*
X66293000Y91586250D01*
X66134250Y91745000D01*
X64543690Y91745000D01*
X64310301Y91648327D01*
X64131673Y91469698D01*
X64035000Y91236309D01*
X58874689Y91236309D01*
X59227533Y91382461D01*
X59312591Y91637804D01*
X58420000Y92530395D01*
X57527409Y91637804D01*
X5972591Y91637804D01*
X5080000Y92530395D01*
X4187409Y91637804D01*
X710000Y91637804D01*
X710000Y92948035D01*
X3544484Y92948035D01*
X3570277Y92342300D01*
X3752461Y91902467D01*
X4007804Y91817409D01*
X4900395Y92710000D01*
X4886253Y92724142D01*
X5065858Y92903747D01*
X5080000Y92889605D01*
X5094143Y92903747D01*
X5273748Y92724142D01*
X5259605Y92710000D01*
X6152196Y91817409D01*
X6407539Y91902467D01*
X6615516Y92471965D01*
X6595245Y92948035D01*
X56884484Y92948035D01*
X56910277Y92342300D01*
X57092461Y91902467D01*
X57347804Y91817409D01*
X58240395Y92710000D01*
X58226253Y92724142D01*
X58405858Y92903747D01*
X58420000Y92889605D01*
X58434143Y92903747D01*
X58613748Y92724142D01*
X58599605Y92710000D01*
X59492196Y91817409D01*
X59747539Y91902467D01*
X59955516Y92471965D01*
X59929723Y93077700D01*
X59747539Y93517533D01*
X59492198Y93602590D01*
X59606788Y93717180D01*
X59550326Y93773642D01*
X59668698Y93822673D01*
X59847327Y94001301D01*
X59944000Y94234690D01*
X59944000Y94236309D01*
X68735000Y94236309D01*
X68735000Y92645750D01*
X68893750Y92487000D01*
X70993000Y92487000D01*
X70993000Y94586250D01*
X71247000Y94586250D01*
X71247000Y92487000D01*
X73346250Y92487000D01*
X73505000Y92645750D01*
X73505000Y94236309D01*
X73408327Y94469698D01*
X73229699Y94648327D01*
X72996310Y94745000D01*
X71405750Y94745000D01*
X71247000Y94586250D01*
X70993000Y94586250D01*
X70834250Y94745000D01*
X69243690Y94745000D01*
X69010301Y94648327D01*
X68831673Y94469698D01*
X68735000Y94236309D01*
X59944000Y94236309D01*
X59944000Y94964250D01*
X59785250Y95123000D01*
X58547000Y95123000D01*
X58547000Y95103000D01*
X58293000Y95103000D01*
X58293000Y95123000D01*
X57054750Y95123000D01*
X56896000Y94964250D01*
X56896000Y94234690D01*
X56992673Y94001301D01*
X57171302Y93822673D01*
X57289674Y93773642D01*
X57233212Y93717180D01*
X57347802Y93602590D01*
X57092461Y93517533D01*
X56884484Y92948035D01*
X6595245Y92948035D01*
X6589723Y93077700D01*
X6407539Y93517533D01*
X6152198Y93602590D01*
X6266788Y93717180D01*
X6210326Y93773642D01*
X6328698Y93822673D01*
X6507327Y94001301D01*
X6604000Y94234690D01*
X6604000Y94964250D01*
X6445250Y95123000D01*
X5207000Y95123000D01*
X5207000Y95103000D01*
X4953000Y95103000D01*
X4953000Y95123000D01*
X3714750Y95123000D01*
X3556000Y94964250D01*
X3556000Y94234690D01*
X3652673Y94001301D01*
X3831302Y93822673D01*
X3949674Y93773642D01*
X3893212Y93717180D01*
X4007802Y93602590D01*
X3752461Y93517533D01*
X3544484Y92948035D01*
X710000Y92948035D01*
X710000Y96265310D01*
X3556000Y96265310D01*
X3556000Y95535750D01*
X3714750Y95377000D01*
X4953000Y95377000D01*
X4953000Y96615250D01*
X5207000Y96615250D01*
X5207000Y95377000D01*
X6445250Y95377000D01*
X6604000Y95535750D01*
X6604000Y96265310D01*
X56896000Y96265310D01*
X56896000Y95535750D01*
X57054750Y95377000D01*
X58293000Y95377000D01*
X58293000Y96615250D01*
X58547000Y96615250D01*
X58547000Y95377000D01*
X59785250Y95377000D01*
X59944000Y95535750D01*
X59944000Y96265310D01*
X59847327Y96498699D01*
X59668698Y96677327D01*
X59435309Y96774000D01*
X58705750Y96774000D01*
X58547000Y96615250D01*
X58293000Y96615250D01*
X58134250Y96774000D01*
X57404691Y96774000D01*
X57171302Y96677327D01*
X56992673Y96498699D01*
X56896000Y96265310D01*
X6604000Y96265310D01*
X6507327Y96498699D01*
X6328698Y96677327D01*
X6095309Y96774000D01*
X5365750Y96774000D01*
X5207000Y96615250D01*
X4953000Y96615250D01*
X4794250Y96774000D01*
X4064691Y96774000D01*
X3831302Y96677327D01*
X3652673Y96498699D01*
X3556000Y96265310D01*
X710000Y96265310D01*
X710000Y97504250D01*
X78915000Y97504250D01*
X78915000Y96863690D01*
X79011673Y96630301D01*
X79190302Y96451673D01*
X79423691Y96355000D01*
X80264250Y96355000D01*
X80423000Y96513750D01*
X80423000Y97663000D01*
X80677000Y97663000D01*
X80677000Y96513750D01*
X80835750Y96355000D01*
X81676309Y96355000D01*
X81909698Y96451673D01*
X82088327Y96630301D01*
X82185000Y96863690D01*
X82185000Y97504250D01*
X82026250Y97663000D01*
X80677000Y97663000D01*
X80423000Y97663000D01*
X79073750Y97663000D01*
X78915000Y97504250D01*
X710000Y97504250D01*
X710000Y98716310D01*
X78915000Y98716310D01*
X78915000Y98075750D01*
X79073750Y97917000D01*
X80423000Y97917000D01*
X80423000Y99066250D01*
X80677000Y99066250D01*
X80677000Y97917000D01*
X82026250Y97917000D01*
X82185000Y98075750D01*
X82185000Y98716310D01*
X82088327Y98949699D01*
X81909698Y99128327D01*
X81676309Y99225000D01*
X80835750Y99225000D01*
X80677000Y99066250D01*
X80423000Y99066250D01*
X80264250Y99225000D01*
X79423691Y99225000D01*
X79190302Y99128327D01*
X79011673Y98949699D01*
X78915000Y98716310D01*
X710000Y98716310D01*
X710000Y99620000D01*
X99620000Y99620000D01*
X99620000Y79431579D01*
G36*
X54355736Y59388188D02*
X54587262Y58827851D01*
X54994737Y58419664D01*
X54588769Y58014404D01*
X54356265Y57454472D01*
X54355736Y56848188D01*
X54587262Y56287851D01*
X54994737Y55879664D01*
X54588769Y55474404D01*
X54356265Y54914472D01*
X54355736Y54308188D01*
X54587262Y53747851D01*
X54994737Y53339664D01*
X54588769Y52934404D01*
X54356265Y52374472D01*
X54355736Y51768188D01*
X54587262Y51207851D01*
X54994737Y50799664D01*
X54588769Y50394404D01*
X54356265Y49834472D01*
X54355736Y49228188D01*
X54587262Y48667851D01*
X54994737Y48259664D01*
X54588769Y47854404D01*
X54356265Y47294472D01*
X54355736Y46688188D01*
X54587262Y46127851D01*
X54994737Y45719664D01*
X54588769Y45314404D01*
X54356265Y44754472D01*
X54355736Y44148188D01*
X54587262Y43587851D01*
X54994737Y43179664D01*
X54588769Y42774404D01*
X54356265Y42214472D01*
X54355736Y41608188D01*
X54587262Y41047851D01*
X54994737Y40639664D01*
X54588769Y40234404D01*
X54356265Y39674472D01*
X54355736Y39068188D01*
X54587262Y38507851D01*
X54994737Y38099664D01*
X54588769Y37694404D01*
X54356265Y37134472D01*
X54355736Y36528188D01*
X54587262Y35967851D01*
X54994737Y35559664D01*
X54588769Y35154404D01*
X54356265Y34594472D01*
X54355736Y33988188D01*
X54587262Y33427851D01*
X54994737Y33019664D01*
X54588769Y32614404D01*
X54356265Y32054472D01*
X54355736Y31448188D01*
X54587262Y30887851D01*
X54994737Y30479664D01*
X54588769Y30074404D01*
X54356265Y29514472D01*
X54355736Y28908188D01*
X54587262Y28347851D01*
X54994737Y27939664D01*
X54588769Y27534404D01*
X54356265Y26974472D01*
X54355736Y26368188D01*
X54587262Y25807851D01*
X54994737Y25399664D01*
X54588769Y24994404D01*
X54356265Y24434472D01*
X54355736Y23828188D01*
X54587262Y23267851D01*
X54994737Y22859664D01*
X54588769Y22454404D01*
X54356265Y21894472D01*
X54355736Y21288188D01*
X54587262Y20727851D01*
X54994737Y20319664D01*
X54588769Y19914404D01*
X54356265Y19354472D01*
X54355736Y18748188D01*
X54587262Y18187851D01*
X54994737Y17779664D01*
X54588769Y17374404D01*
X54356265Y16814472D01*
X54355736Y16208188D01*
X54587262Y15647851D01*
X54994737Y15239664D01*
X54588769Y14834404D01*
X54356265Y14274472D01*
X54355736Y13668188D01*
X54587262Y13107851D01*
X54994737Y12699664D01*
X54588769Y12294404D01*
X54356265Y11734472D01*
X54355736Y11128188D01*
X54587262Y10567851D01*
X54994737Y10159664D01*
X54588769Y9754404D01*
X54356265Y9194472D01*
X54355736Y8588188D01*
X54587262Y8027851D01*
X54994737Y7619664D01*
X54588769Y7214404D01*
X54356265Y6654472D01*
X54355736Y6048188D01*
X54587262Y5487851D01*
X55015596Y5058769D01*
X55042506Y5047595D01*
X54987409Y4882196D01*
X55880000Y3989605D01*
X56772591Y4882196D01*
X56717647Y5047138D01*
X56742149Y5057262D01*
X57150336Y5464737D01*
X57555596Y5058769D01*
X57582506Y5047595D01*
X57527409Y4882196D01*
X58420000Y3989605D01*
X59312591Y4882196D01*
X59257647Y5047138D01*
X59282149Y5057262D01*
X59711231Y5485596D01*
X59943735Y6045528D01*
X59944264Y6651812D01*
X59712738Y7212149D01*
X59305263Y7620336D01*
X59711231Y8025596D01*
X59943735Y8585528D01*
X59944264Y9191812D01*
X59712738Y9752149D01*
X59305263Y10160336D01*
X59711231Y10565596D01*
X59943735Y11125528D01*
X59944264Y11731812D01*
X59712738Y12292149D01*
X59305263Y12700336D01*
X59711231Y13105596D01*
X59943735Y13665528D01*
X59944264Y14271812D01*
X59712738Y14832149D01*
X59305263Y15240336D01*
X59711231Y15645596D01*
X59943735Y16205528D01*
X59944264Y16811812D01*
X59712738Y17372149D01*
X59305263Y17780336D01*
X59711231Y18185596D01*
X59943735Y18745528D01*
X59944264Y19351812D01*
X59712738Y19912149D01*
X59305263Y20320336D01*
X59711231Y20725596D01*
X59943735Y21285528D01*
X59944264Y21891812D01*
X59712738Y22452149D01*
X59305263Y22860336D01*
X59711231Y23265596D01*
X59943735Y23825528D01*
X59944264Y24431812D01*
X59712738Y24992149D01*
X59305263Y25400336D01*
X59711231Y25805596D01*
X59943735Y26365528D01*
X59944264Y26971812D01*
X59712738Y27532149D01*
X59305263Y27940336D01*
X59711231Y28345596D01*
X59943735Y28905528D01*
X59944264Y29511812D01*
X59712738Y30072149D01*
X59305263Y30480336D01*
X59711231Y30885596D01*
X59943735Y31445528D01*
X59944264Y32051812D01*
X59712738Y32612149D01*
X59305263Y33020336D01*
X59711231Y33425596D01*
X59943735Y33985528D01*
X59944264Y34591812D01*
X59712738Y35152149D01*
X59305263Y35560336D01*
X59711231Y35965596D01*
X59943735Y36525528D01*
X59944264Y37131812D01*
X59858243Y37340000D01*
X60645198Y37340000D01*
X62740000Y35245198D01*
X62740000Y5715000D01*
X62797852Y5424161D01*
X62962599Y5177599D01*
X65985198Y2155000D01*
X55611579Y2155000D01*
X55405878Y2360702D01*
X55641965Y2274484D01*
X56247700Y2300277D01*
X56687533Y2482461D01*
X56772591Y2737804D01*
X57527409Y2737804D01*
X57612467Y2482461D01*
X58181965Y2274484D01*
X58787700Y2300277D01*
X59227533Y2482461D01*
X59312591Y2737804D01*
X58420000Y3630395D01*
X57527409Y2737804D01*
X56772591Y2737804D01*
X55880000Y3630395D01*
X55865858Y3616252D01*
X55686253Y3795857D01*
X55700395Y3810000D01*
X56059605Y3810000D01*
X56952196Y2917409D01*
X57150000Y2983300D01*
X57347804Y2917409D01*
X58240395Y3810000D01*
X58599605Y3810000D01*
X59492196Y2917409D01*
X59747539Y3002467D01*
X59955516Y3571965D01*
X59929723Y4177700D01*
X59747539Y4617533D01*
X59492196Y4702591D01*
X58599605Y3810000D01*
X58240395Y3810000D01*
X57347804Y4702591D01*
X57150000Y4636700D01*
X56952196Y4702591D01*
X56059605Y3810000D01*
X55700395Y3810000D01*
X54807804Y4702591D01*
X54552461Y4617533D01*
X54344484Y4048035D01*
X54370277Y3442300D01*
X54402802Y3363778D01*
X54225000Y3541580D01*
X54225000Y59323420D01*
X54355794Y59454214D01*
X54355736Y59388188D01*
X54355736Y59388188D01*
G37*
X54355736Y59388188D02*
X54587262Y58827851D01*
X54994737Y58419664D01*
X54588769Y58014404D01*
X54356265Y57454472D01*
X54355736Y56848188D01*
X54587262Y56287851D01*
X54994737Y55879664D01*
X54588769Y55474404D01*
X54356265Y54914472D01*
X54355736Y54308188D01*
X54587262Y53747851D01*
X54994737Y53339664D01*
X54588769Y52934404D01*
X54356265Y52374472D01*
X54355736Y51768188D01*
X54587262Y51207851D01*
X54994737Y50799664D01*
X54588769Y50394404D01*
X54356265Y49834472D01*
X54355736Y49228188D01*
X54587262Y48667851D01*
X54994737Y48259664D01*
X54588769Y47854404D01*
X54356265Y47294472D01*
X54355736Y46688188D01*
X54587262Y46127851D01*
X54994737Y45719664D01*
X54588769Y45314404D01*
X54356265Y44754472D01*
X54355736Y44148188D01*
X54587262Y43587851D01*
X54994737Y43179664D01*
X54588769Y42774404D01*
X54356265Y42214472D01*
X54355736Y41608188D01*
X54587262Y41047851D01*
X54994737Y40639664D01*
X54588769Y40234404D01*
X54356265Y39674472D01*
X54355736Y39068188D01*
X54587262Y38507851D01*
X54994737Y38099664D01*
X54588769Y37694404D01*
X54356265Y37134472D01*
X54355736Y36528188D01*
X54587262Y35967851D01*
X54994737Y35559664D01*
X54588769Y35154404D01*
X54356265Y34594472D01*
X54355736Y33988188D01*
X54587262Y33427851D01*
X54994737Y33019664D01*
X54588769Y32614404D01*
X54356265Y32054472D01*
X54355736Y31448188D01*
X54587262Y30887851D01*
X54994737Y30479664D01*
X54588769Y30074404D01*
X54356265Y29514472D01*
X54355736Y28908188D01*
X54587262Y28347851D01*
X54994737Y27939664D01*
X54588769Y27534404D01*
X54356265Y26974472D01*
X54355736Y26368188D01*
X54587262Y25807851D01*
X54994737Y25399664D01*
X54588769Y24994404D01*
X54356265Y24434472D01*
X54355736Y23828188D01*
X54587262Y23267851D01*
X54994737Y22859664D01*
X54588769Y22454404D01*
X54356265Y21894472D01*
X54355736Y21288188D01*
X54587262Y20727851D01*
X54994737Y20319664D01*
X54588769Y19914404D01*
X54356265Y19354472D01*
X54355736Y18748188D01*
X54587262Y18187851D01*
X54994737Y17779664D01*
X54588769Y17374404D01*
X54356265Y16814472D01*
X54355736Y16208188D01*
X54587262Y15647851D01*
X54994737Y15239664D01*
X54588769Y14834404D01*
X54356265Y14274472D01*
X54355736Y13668188D01*
X54587262Y13107851D01*
X54994737Y12699664D01*
X54588769Y12294404D01*
X54356265Y11734472D01*
X54355736Y11128188D01*
X54587262Y10567851D01*
X54994737Y10159664D01*
X54588769Y9754404D01*
X54356265Y9194472D01*
X54355736Y8588188D01*
X54587262Y8027851D01*
X54994737Y7619664D01*
X54588769Y7214404D01*
X54356265Y6654472D01*
X54355736Y6048188D01*
X54587262Y5487851D01*
X55015596Y5058769D01*
X55042506Y5047595D01*
X54987409Y4882196D01*
X55880000Y3989605D01*
X56772591Y4882196D01*
X56717647Y5047138D01*
X56742149Y5057262D01*
X57150336Y5464737D01*
X57555596Y5058769D01*
X57582506Y5047595D01*
X57527409Y4882196D01*
X58420000Y3989605D01*
X59312591Y4882196D01*
X59257647Y5047138D01*
X59282149Y5057262D01*
X59711231Y5485596D01*
X59943735Y6045528D01*
X59944264Y6651812D01*
X59712738Y7212149D01*
X59305263Y7620336D01*
X59711231Y8025596D01*
X59943735Y8585528D01*
X59944264Y9191812D01*
X59712738Y9752149D01*
X59305263Y10160336D01*
X59711231Y10565596D01*
X59943735Y11125528D01*
X59944264Y11731812D01*
X59712738Y12292149D01*
X59305263Y12700336D01*
X59711231Y13105596D01*
X59943735Y13665528D01*
X59944264Y14271812D01*
X59712738Y14832149D01*
X59305263Y15240336D01*
X59711231Y15645596D01*
X59943735Y16205528D01*
X59944264Y16811812D01*
X59712738Y17372149D01*
X59305263Y17780336D01*
X59711231Y18185596D01*
X59943735Y18745528D01*
X59944264Y19351812D01*
X59712738Y19912149D01*
X59305263Y20320336D01*
X59711231Y20725596D01*
X59943735Y21285528D01*
X59944264Y21891812D01*
X59712738Y22452149D01*
X59305263Y22860336D01*
X59711231Y23265596D01*
X59943735Y23825528D01*
X59944264Y24431812D01*
X59712738Y24992149D01*
X59305263Y25400336D01*
X59711231Y25805596D01*
X59943735Y26365528D01*
X59944264Y26971812D01*
X59712738Y27532149D01*
X59305263Y27940336D01*
X59711231Y28345596D01*
X59943735Y28905528D01*
X59944264Y29511812D01*
X59712738Y30072149D01*
X59305263Y30480336D01*
X59711231Y30885596D01*
X59943735Y31445528D01*
X59944264Y32051812D01*
X59712738Y32612149D01*
X59305263Y33020336D01*
X59711231Y33425596D01*
X59943735Y33985528D01*
X59944264Y34591812D01*
X59712738Y35152149D01*
X59305263Y35560336D01*
X59711231Y35965596D01*
X59943735Y36525528D01*
X59944264Y37131812D01*
X59858243Y37340000D01*
X60645198Y37340000D01*
X62740000Y35245198D01*
X62740000Y5715000D01*
X62797852Y5424161D01*
X62962599Y5177599D01*
X65985198Y2155000D01*
X55611579Y2155000D01*
X55405878Y2360702D01*
X55641965Y2274484D01*
X56247700Y2300277D01*
X56687533Y2482461D01*
X56772591Y2737804D01*
X57527409Y2737804D01*
X57612467Y2482461D01*
X58181965Y2274484D01*
X58787700Y2300277D01*
X59227533Y2482461D01*
X59312591Y2737804D01*
X58420000Y3630395D01*
X57527409Y2737804D01*
X56772591Y2737804D01*
X55880000Y3630395D01*
X55865858Y3616252D01*
X55686253Y3795857D01*
X55700395Y3810000D01*
X56059605Y3810000D01*
X56952196Y2917409D01*
X57150000Y2983300D01*
X57347804Y2917409D01*
X58240395Y3810000D01*
X58599605Y3810000D01*
X59492196Y2917409D01*
X59747539Y3002467D01*
X59955516Y3571965D01*
X59929723Y4177700D01*
X59747539Y4617533D01*
X59492196Y4702591D01*
X58599605Y3810000D01*
X58240395Y3810000D01*
X57347804Y4702591D01*
X57150000Y4636700D01*
X56952196Y4702591D01*
X56059605Y3810000D01*
X55700395Y3810000D01*
X54807804Y4702591D01*
X54552461Y4617533D01*
X54344484Y4048035D01*
X54370277Y3442300D01*
X54402802Y3363778D01*
X54225000Y3541580D01*
X54225000Y59323420D01*
X54355794Y59454214D01*
X54355736Y59388188D01*
G36*
X98175000Y78373421D02*
X98175000Y40647366D01*
X94251344Y44571022D01*
X94338413Y44657940D01*
X94882545Y44657940D01*
X94965884Y44404047D01*
X95530306Y44198410D01*
X96130458Y44224421D01*
X96564116Y44404047D01*
X96647455Y44657940D01*
X95765000Y45540395D01*
X94882545Y44657940D01*
X94338413Y44657940D01*
X94544370Y44863537D01*
X94553892Y44886469D01*
X94702940Y44837545D01*
X95585395Y45720000D01*
X95944605Y45720000D01*
X96827060Y44837545D01*
X97080953Y44920884D01*
X97286590Y45485306D01*
X97260579Y46085458D01*
X97080953Y46519116D01*
X96827060Y46602455D01*
X95944605Y45720000D01*
X95585395Y45720000D01*
X94702940Y46602455D01*
X94554352Y46553682D01*
X94545862Y46574229D01*
X94338394Y46782060D01*
X94882545Y46782060D01*
X95765000Y45899605D01*
X96647455Y46782060D01*
X96564116Y47035953D01*
X95999694Y47241590D01*
X95399542Y47215579D01*
X94965884Y47035953D01*
X94882545Y46782060D01*
X94338394Y46782060D01*
X94121463Y46999370D01*
X94025000Y47039425D01*
X94025000Y53290203D01*
X94119229Y53329138D01*
X94338413Y53547940D01*
X94882545Y53547940D01*
X94965884Y53294047D01*
X95530306Y53088410D01*
X96130458Y53114421D01*
X96564116Y53294047D01*
X96647455Y53547940D01*
X95765000Y54430395D01*
X94882545Y53547940D01*
X94338413Y53547940D01*
X94544370Y53753537D01*
X94553892Y53776469D01*
X94702940Y53727545D01*
X95585395Y54610000D01*
X95944605Y54610000D01*
X96827060Y53727545D01*
X97080953Y53810884D01*
X97286590Y54375306D01*
X97260579Y54975458D01*
X97080953Y55409116D01*
X96827060Y55492455D01*
X95944605Y54610000D01*
X95585395Y54610000D01*
X94702940Y55492455D01*
X94554352Y55443682D01*
X94545862Y55464229D01*
X94338394Y55672060D01*
X94882545Y55672060D01*
X95765000Y54789605D01*
X96647455Y55672060D01*
X96564116Y55925953D01*
X95999694Y56131590D01*
X95399542Y56105579D01*
X94965884Y55925953D01*
X94882545Y55672060D01*
X94338394Y55672060D01*
X94121463Y55889370D01*
X94025000Y55929425D01*
X94025000Y62180203D01*
X94119229Y62219138D01*
X94338413Y62437940D01*
X94882545Y62437940D01*
X94965884Y62184047D01*
X95530306Y61978410D01*
X96130458Y62004421D01*
X96564116Y62184047D01*
X96647455Y62437940D01*
X95765000Y63320395D01*
X94882545Y62437940D01*
X94338413Y62437940D01*
X94544370Y62643537D01*
X94553892Y62666469D01*
X94702940Y62617545D01*
X95585395Y63500000D01*
X95944605Y63500000D01*
X96827060Y62617545D01*
X97080953Y62700884D01*
X97286590Y63265306D01*
X97260579Y63865458D01*
X97080953Y64299116D01*
X96827060Y64382455D01*
X95944605Y63500000D01*
X95585395Y63500000D01*
X94702940Y64382455D01*
X94554352Y64333682D01*
X94545862Y64354229D01*
X94338394Y64562060D01*
X94882545Y64562060D01*
X95765000Y63679605D01*
X96647455Y64562060D01*
X96564116Y64815953D01*
X95999694Y65021590D01*
X95399542Y64995579D01*
X94965884Y64815953D01*
X94882545Y64562060D01*
X94338394Y64562060D01*
X94121463Y64779370D01*
X94025000Y64819425D01*
X94025000Y71070203D01*
X94119229Y71109138D01*
X94338413Y71327940D01*
X94882545Y71327940D01*
X94965884Y71074047D01*
X95530306Y70868410D01*
X96130458Y70894421D01*
X96564116Y71074047D01*
X96647455Y71327940D01*
X95765000Y72210395D01*
X94882545Y71327940D01*
X94338413Y71327940D01*
X94544370Y71533537D01*
X94553892Y71556469D01*
X94702940Y71507545D01*
X95585395Y72390000D01*
X95944605Y72390000D01*
X96827060Y71507545D01*
X97080953Y71590884D01*
X97286590Y72155306D01*
X97260579Y72755458D01*
X97080953Y73189116D01*
X96827060Y73272455D01*
X95944605Y72390000D01*
X95585395Y72390000D01*
X94702940Y73272455D01*
X94554352Y73223682D01*
X94545862Y73244229D01*
X94338394Y73452060D01*
X94882545Y73452060D01*
X95765000Y72569605D01*
X96647455Y73452060D01*
X96564116Y73705953D01*
X95999694Y73911590D01*
X95399542Y73885579D01*
X94965884Y73705953D01*
X94882545Y73452060D01*
X94338394Y73452060D01*
X94121463Y73669370D01*
X93566675Y73899738D01*
X92965960Y73900262D01*
X92410771Y73670862D01*
X92014682Y73275464D01*
X91621463Y73669370D01*
X91066675Y73899738D01*
X90465960Y73900262D01*
X89910771Y73670862D01*
X89741897Y73502283D01*
X89604090Y73716441D01*
X89391890Y73861431D01*
X89140000Y73912440D01*
X87994139Y73912440D01*
X85435000Y76471580D01*
X85435000Y79760000D01*
X94499995Y79760000D01*
X94500000Y79759999D01*
X94782484Y79816190D01*
X94838675Y79827367D01*
X95125790Y80019210D01*
X95827500Y80720920D01*
X98175000Y78373421D01*
X98175000Y78373421D01*
G37*
X98175000Y78373421D02*
X98175000Y40647366D01*
X94251344Y44571022D01*
X94338413Y44657940D01*
X94882545Y44657940D01*
X94965884Y44404047D01*
X95530306Y44198410D01*
X96130458Y44224421D01*
X96564116Y44404047D01*
X96647455Y44657940D01*
X95765000Y45540395D01*
X94882545Y44657940D01*
X94338413Y44657940D01*
X94544370Y44863537D01*
X94553892Y44886469D01*
X94702940Y44837545D01*
X95585395Y45720000D01*
X95944605Y45720000D01*
X96827060Y44837545D01*
X97080953Y44920884D01*
X97286590Y45485306D01*
X97260579Y46085458D01*
X97080953Y46519116D01*
X96827060Y46602455D01*
X95944605Y45720000D01*
X95585395Y45720000D01*
X94702940Y46602455D01*
X94554352Y46553682D01*
X94545862Y46574229D01*
X94338394Y46782060D01*
X94882545Y46782060D01*
X95765000Y45899605D01*
X96647455Y46782060D01*
X96564116Y47035953D01*
X95999694Y47241590D01*
X95399542Y47215579D01*
X94965884Y47035953D01*
X94882545Y46782060D01*
X94338394Y46782060D01*
X94121463Y46999370D01*
X94025000Y47039425D01*
X94025000Y53290203D01*
X94119229Y53329138D01*
X94338413Y53547940D01*
X94882545Y53547940D01*
X94965884Y53294047D01*
X95530306Y53088410D01*
X96130458Y53114421D01*
X96564116Y53294047D01*
X96647455Y53547940D01*
X95765000Y54430395D01*
X94882545Y53547940D01*
X94338413Y53547940D01*
X94544370Y53753537D01*
X94553892Y53776469D01*
X94702940Y53727545D01*
X95585395Y54610000D01*
X95944605Y54610000D01*
X96827060Y53727545D01*
X97080953Y53810884D01*
X97286590Y54375306D01*
X97260579Y54975458D01*
X97080953Y55409116D01*
X96827060Y55492455D01*
X95944605Y54610000D01*
X95585395Y54610000D01*
X94702940Y55492455D01*
X94554352Y55443682D01*
X94545862Y55464229D01*
X94338394Y55672060D01*
X94882545Y55672060D01*
X95765000Y54789605D01*
X96647455Y55672060D01*
X96564116Y55925953D01*
X95999694Y56131590D01*
X95399542Y56105579D01*
X94965884Y55925953D01*
X94882545Y55672060D01*
X94338394Y55672060D01*
X94121463Y55889370D01*
X94025000Y55929425D01*
X94025000Y62180203D01*
X94119229Y62219138D01*
X94338413Y62437940D01*
X94882545Y62437940D01*
X94965884Y62184047D01*
X95530306Y61978410D01*
X96130458Y62004421D01*
X96564116Y62184047D01*
X96647455Y62437940D01*
X95765000Y63320395D01*
X94882545Y62437940D01*
X94338413Y62437940D01*
X94544370Y62643537D01*
X94553892Y62666469D01*
X94702940Y62617545D01*
X95585395Y63500000D01*
X95944605Y63500000D01*
X96827060Y62617545D01*
X97080953Y62700884D01*
X97286590Y63265306D01*
X97260579Y63865458D01*
X97080953Y64299116D01*
X96827060Y64382455D01*
X95944605Y63500000D01*
X95585395Y63500000D01*
X94702940Y64382455D01*
X94554352Y64333682D01*
X94545862Y64354229D01*
X94338394Y64562060D01*
X94882545Y64562060D01*
X95765000Y63679605D01*
X96647455Y64562060D01*
X96564116Y64815953D01*
X95999694Y65021590D01*
X95399542Y64995579D01*
X94965884Y64815953D01*
X94882545Y64562060D01*
X94338394Y64562060D01*
X94121463Y64779370D01*
X94025000Y64819425D01*
X94025000Y71070203D01*
X94119229Y71109138D01*
X94338413Y71327940D01*
X94882545Y71327940D01*
X94965884Y71074047D01*
X95530306Y70868410D01*
X96130458Y70894421D01*
X96564116Y71074047D01*
X96647455Y71327940D01*
X95765000Y72210395D01*
X94882545Y71327940D01*
X94338413Y71327940D01*
X94544370Y71533537D01*
X94553892Y71556469D01*
X94702940Y71507545D01*
X95585395Y72390000D01*
X95944605Y72390000D01*
X96827060Y71507545D01*
X97080953Y71590884D01*
X97286590Y72155306D01*
X97260579Y72755458D01*
X97080953Y73189116D01*
X96827060Y73272455D01*
X95944605Y72390000D01*
X95585395Y72390000D01*
X94702940Y73272455D01*
X94554352Y73223682D01*
X94545862Y73244229D01*
X94338394Y73452060D01*
X94882545Y73452060D01*
X95765000Y72569605D01*
X96647455Y73452060D01*
X96564116Y73705953D01*
X95999694Y73911590D01*
X95399542Y73885579D01*
X94965884Y73705953D01*
X94882545Y73452060D01*
X94338394Y73452060D01*
X94121463Y73669370D01*
X93566675Y73899738D01*
X92965960Y73900262D01*
X92410771Y73670862D01*
X92014682Y73275464D01*
X91621463Y73669370D01*
X91066675Y73899738D01*
X90465960Y73900262D01*
X89910771Y73670862D01*
X89741897Y73502283D01*
X89604090Y73716441D01*
X89391890Y73861431D01*
X89140000Y73912440D01*
X87994139Y73912440D01*
X85435000Y76471580D01*
X85435000Y79760000D01*
X94499995Y79760000D01*
X94500000Y79759999D01*
X94782484Y79816190D01*
X94838675Y79827367D01*
X95125790Y80019210D01*
X95827500Y80720920D01*
X98175000Y78373421D01*
M02*
