G04 #@! TF.FileFunction,Paste,Top*
%FSLAX46Y46*%
G04 Gerber Fmt 4.6, Leading zero omitted, Abs format (unit mm)*
G04 Created by KiCad (PCBNEW 4.0.7) date Tue Mar  6 11:31:25 2018*
%MOMM*%
%LPD*%
G01*
G04 APERTURE LIST*
%ADD10C,0.150000*%
%ADD11R,2.000000X1.600000*%
%ADD12R,2.500000X1.800000*%
%ADD13R,2.000000X1.700000*%
%ADD14R,1.100000X4.600000*%
%ADD15R,5.250000X4.550000*%
%ADD16R,1.778000X1.778000*%
%ADD17C,1.778000*%
G04 APERTURE END LIST*
D10*
D11*
X84550000Y97790000D03*
X80550000Y97790000D03*
X84550000Y90170000D03*
X80550000Y90170000D03*
D12*
X84550000Y93980000D03*
X80550000Y93980000D03*
D13*
X80550000Y83820000D03*
X84550000Y83820000D03*
X80550000Y86995000D03*
X84550000Y86995000D03*
D14*
X90805000Y84830000D03*
X95885000Y84830000D03*
D15*
X96120000Y96405000D03*
X90570000Y91555000D03*
X90570000Y96405000D03*
X96120000Y91555000D03*
D16*
X5080000Y64770000D03*
D17*
X5080000Y62230000D03*
X5080000Y59690000D03*
X5080000Y57150000D03*
X5080000Y54610000D03*
X5080000Y52070000D03*
X5080000Y49530000D03*
X5080000Y46990000D03*
X5080000Y44450000D03*
X5080000Y41910000D03*
X5080000Y39370000D03*
X5080000Y36830000D03*
X5080000Y34290000D03*
X5080000Y31750000D03*
X5080000Y29210000D03*
X5080000Y26670000D03*
X5080000Y24130000D03*
X5080000Y21590000D03*
X5080000Y19050000D03*
X5080000Y16510000D03*
X5080000Y13970000D03*
X5080000Y11430000D03*
X5080000Y8890000D03*
X5080000Y6350000D03*
X5080000Y3810000D03*
X7620000Y64770000D03*
X7620000Y62230000D03*
X7620000Y59690000D03*
X7620000Y57150000D03*
X7620000Y54610000D03*
X7620000Y52070000D03*
X7620000Y49530000D03*
X7620000Y46990000D03*
X7620000Y44450000D03*
X7620000Y41910000D03*
X7620000Y39370000D03*
X7620000Y36830000D03*
X7620000Y34290000D03*
X7620000Y31750000D03*
X7620000Y29210000D03*
X7620000Y26670000D03*
X7620000Y24130000D03*
X7620000Y21590000D03*
X7620000Y19050000D03*
X7620000Y16510000D03*
X7620000Y13970000D03*
X7620000Y11430000D03*
X7620000Y8890000D03*
X7620000Y6350000D03*
X7620000Y3810000D03*
D16*
X55880000Y64770000D03*
D17*
X55880000Y62230000D03*
X55880000Y59690000D03*
X55880000Y57150000D03*
X55880000Y54610000D03*
X55880000Y52070000D03*
X55880000Y49530000D03*
X55880000Y46990000D03*
X55880000Y44450000D03*
X55880000Y41910000D03*
X55880000Y39370000D03*
X55880000Y36830000D03*
X55880000Y34290000D03*
X55880000Y31750000D03*
X55880000Y29210000D03*
X55880000Y26670000D03*
X55880000Y24130000D03*
X55880000Y21590000D03*
X55880000Y19050000D03*
X55880000Y16510000D03*
X55880000Y13970000D03*
X55880000Y11430000D03*
X55880000Y8890000D03*
X55880000Y6350000D03*
X55880000Y3810000D03*
X58420000Y64770000D03*
X58420000Y62230000D03*
X58420000Y59690000D03*
X58420000Y57150000D03*
X58420000Y54610000D03*
X58420000Y52070000D03*
X58420000Y49530000D03*
X58420000Y46990000D03*
X58420000Y44450000D03*
X58420000Y41910000D03*
X58420000Y39370000D03*
X58420000Y36830000D03*
X58420000Y34290000D03*
X58420000Y31750000D03*
X58420000Y29210000D03*
X58420000Y26670000D03*
X58420000Y24130000D03*
X58420000Y21590000D03*
X58420000Y19050000D03*
X58420000Y16510000D03*
X58420000Y13970000D03*
X58420000Y11430000D03*
X58420000Y8890000D03*
X58420000Y6350000D03*
X58420000Y3810000D03*
D16*
X5080000Y95250000D03*
D17*
X5080000Y92710000D03*
D16*
X58420000Y95250000D03*
D17*
X58420000Y92710000D03*
M02*
