G04 #@! TF.FileFunction,Legend,Top*
%FSLAX46Y46*%
G04 Gerber Fmt 4.6, Leading zero omitted, Abs format (unit mm)*
G04 Created by KiCad (PCBNEW 4.0.7) date Tue Mar  6 11:31:25 2018*
%MOMM*%
%LPD*%
G01*
G04 APERTURE LIST*
%ADD10C,0.150000*%
%ADD11C,0.200000*%
%ADD12C,0.120000*%
%ADD13C,0.127000*%
%ADD14R,3.900000X3.900000*%
%ADD15R,2.400000X2.000000*%
%ADD16R,2.900000X2.200000*%
%ADD17R,2.150000X2.150000*%
%ADD18C,2.150000*%
%ADD19R,2.400000X2.100000*%
%ADD20R,1.500000X5.000000*%
%ADD21R,11.200000X9.800000*%
%ADD22R,2.178000X2.178000*%
%ADD23C,2.178000*%
G04 APERTURE END LIST*
D10*
D11*
X81915000Y0D02*
X81915000Y80645000D01*
D10*
X64857381Y69683571D02*
X65666905Y69683571D01*
X65762143Y69731190D01*
X65809762Y69778809D01*
X65857381Y69874047D01*
X65857381Y70064524D01*
X65809762Y70159762D01*
X65762143Y70207381D01*
X65666905Y70255000D01*
X64857381Y70255000D01*
X65571667Y70683571D02*
X65571667Y71159762D01*
X65857381Y70588333D02*
X64857381Y70921666D01*
X65857381Y71255000D01*
X65857381Y72159762D02*
X65381190Y71826428D01*
X65857381Y71588333D02*
X64857381Y71588333D01*
X64857381Y71969286D01*
X64905000Y72064524D01*
X64952619Y72112143D01*
X65047857Y72159762D01*
X65190714Y72159762D01*
X65285952Y72112143D01*
X65333571Y72064524D01*
X65381190Y71969286D01*
X65381190Y71588333D01*
X64857381Y72445476D02*
X64857381Y73016905D01*
X65857381Y72731190D02*
X64857381Y72731190D01*
X64857381Y73255000D02*
X64857381Y73874048D01*
X65238333Y73540714D01*
X65238333Y73683572D01*
X65285952Y73778810D01*
X65333571Y73826429D01*
X65428810Y73874048D01*
X65666905Y73874048D01*
X65762143Y73826429D01*
X65809762Y73778810D01*
X65857381Y73683572D01*
X65857381Y73397857D01*
X65809762Y73302619D01*
X65762143Y73255000D01*
X71842381Y77343095D02*
X71842381Y77914524D01*
X72842381Y77628809D02*
X71842381Y77628809D01*
X71842381Y78152619D02*
X72842381Y78819286D01*
X71842381Y78819286D02*
X72842381Y78152619D01*
D11*
X100330000Y80645000D02*
X63500000Y80645000D01*
X63500000Y40640000D02*
X100330000Y40640000D01*
D10*
X76970000Y77343096D02*
X76922381Y77247858D01*
X76922381Y77105001D01*
X76970000Y76962143D01*
X77065238Y76866905D01*
X77160476Y76819286D01*
X77350952Y76771667D01*
X77493810Y76771667D01*
X77684286Y76819286D01*
X77779524Y76866905D01*
X77874762Y76962143D01*
X77922381Y77105001D01*
X77922381Y77200239D01*
X77874762Y77343096D01*
X77827143Y77390715D01*
X77493810Y77390715D01*
X77493810Y77200239D01*
X77922381Y77819286D02*
X76922381Y77819286D01*
X77922381Y78390715D01*
X76922381Y78390715D01*
X77922381Y78866905D02*
X76922381Y78866905D01*
X76922381Y79105000D01*
X76970000Y79247858D01*
X77065238Y79343096D01*
X77160476Y79390715D01*
X77350952Y79438334D01*
X77493810Y79438334D01*
X77684286Y79390715D01*
X77779524Y79343096D01*
X77874762Y79247858D01*
X77922381Y79105000D01*
X77922381Y78866905D01*
X75382381Y77938334D02*
X74906190Y77605000D01*
X75382381Y77366905D02*
X74382381Y77366905D01*
X74382381Y77747858D01*
X74430000Y77843096D01*
X74477619Y77890715D01*
X74572857Y77938334D01*
X74715714Y77938334D01*
X74810952Y77890715D01*
X74858571Y77843096D01*
X74906190Y77747858D01*
X74906190Y77366905D01*
X74382381Y78271667D02*
X75382381Y78938334D01*
X74382381Y78938334D02*
X75382381Y78271667D01*
X69302381Y76771667D02*
X70302381Y77105000D01*
X69302381Y77438334D01*
X70207143Y78343096D02*
X70254762Y78295477D01*
X70302381Y78152620D01*
X70302381Y78057382D01*
X70254762Y77914524D01*
X70159524Y77819286D01*
X70064286Y77771667D01*
X69873810Y77724048D01*
X69730952Y77724048D01*
X69540476Y77771667D01*
X69445238Y77819286D01*
X69350000Y77914524D01*
X69302381Y78057382D01*
X69302381Y78152620D01*
X69350000Y78295477D01*
X69397619Y78343096D01*
X70207143Y79343096D02*
X70254762Y79295477D01*
X70302381Y79152620D01*
X70302381Y79057382D01*
X70254762Y78914524D01*
X70159524Y78819286D01*
X70064286Y78771667D01*
X69873810Y78724048D01*
X69730952Y78724048D01*
X69540476Y78771667D01*
X69445238Y78819286D01*
X69350000Y78914524D01*
X69302381Y79057382D01*
X69302381Y79152620D01*
X69350000Y79295477D01*
X69397619Y79343096D01*
X64857381Y60793571D02*
X65666905Y60793571D01*
X65762143Y60841190D01*
X65809762Y60888809D01*
X65857381Y60984047D01*
X65857381Y61174524D01*
X65809762Y61269762D01*
X65762143Y61317381D01*
X65666905Y61365000D01*
X64857381Y61365000D01*
X65571667Y61793571D02*
X65571667Y62269762D01*
X65857381Y61698333D02*
X64857381Y62031666D01*
X65857381Y62365000D01*
X65857381Y63269762D02*
X65381190Y62936428D01*
X65857381Y62698333D02*
X64857381Y62698333D01*
X64857381Y63079286D01*
X64905000Y63174524D01*
X64952619Y63222143D01*
X65047857Y63269762D01*
X65190714Y63269762D01*
X65285952Y63222143D01*
X65333571Y63174524D01*
X65381190Y63079286D01*
X65381190Y62698333D01*
X64857381Y63555476D02*
X64857381Y64126905D01*
X65857381Y63841190D02*
X64857381Y63841190D01*
X64952619Y64412619D02*
X64905000Y64460238D01*
X64857381Y64555476D01*
X64857381Y64793572D01*
X64905000Y64888810D01*
X64952619Y64936429D01*
X65047857Y64984048D01*
X65143095Y64984048D01*
X65285952Y64936429D01*
X65857381Y64365000D01*
X65857381Y64984048D01*
X64857381Y51903571D02*
X65666905Y51903571D01*
X65762143Y51951190D01*
X65809762Y51998809D01*
X65857381Y52094047D01*
X65857381Y52284524D01*
X65809762Y52379762D01*
X65762143Y52427381D01*
X65666905Y52475000D01*
X64857381Y52475000D01*
X65571667Y52903571D02*
X65571667Y53379762D01*
X65857381Y52808333D02*
X64857381Y53141666D01*
X65857381Y53475000D01*
X65857381Y54379762D02*
X65381190Y54046428D01*
X65857381Y53808333D02*
X64857381Y53808333D01*
X64857381Y54189286D01*
X64905000Y54284524D01*
X64952619Y54332143D01*
X65047857Y54379762D01*
X65190714Y54379762D01*
X65285952Y54332143D01*
X65333571Y54284524D01*
X65381190Y54189286D01*
X65381190Y53808333D01*
X64857381Y54665476D02*
X64857381Y55236905D01*
X65857381Y54951190D02*
X64857381Y54951190D01*
X65857381Y56094048D02*
X65857381Y55522619D01*
X65857381Y55808333D02*
X64857381Y55808333D01*
X65000238Y55713095D01*
X65095476Y55617857D01*
X65143095Y55522619D01*
X65857381Y30376905D02*
X64857381Y30376905D01*
X64857381Y30615000D01*
X64905000Y30757858D01*
X65000238Y30853096D01*
X65095476Y30900715D01*
X65285952Y30948334D01*
X65428810Y30948334D01*
X65619286Y30900715D01*
X65714524Y30853096D01*
X65809762Y30757858D01*
X65857381Y30615000D01*
X65857381Y30376905D01*
X65190714Y31805477D02*
X65857381Y31805477D01*
X64809762Y31567381D02*
X65524048Y31329286D01*
X65524048Y31948334D01*
X65857381Y21486905D02*
X64857381Y21486905D01*
X64857381Y21725000D01*
X64905000Y21867858D01*
X65000238Y21963096D01*
X65095476Y22010715D01*
X65285952Y22058334D01*
X65428810Y22058334D01*
X65619286Y22010715D01*
X65714524Y21963096D01*
X65809762Y21867858D01*
X65857381Y21725000D01*
X65857381Y21486905D01*
X64857381Y22391667D02*
X64857381Y23010715D01*
X65238333Y22677381D01*
X65238333Y22820239D01*
X65285952Y22915477D01*
X65333571Y22963096D01*
X65428810Y23010715D01*
X65666905Y23010715D01*
X65762143Y22963096D01*
X65809762Y22915477D01*
X65857381Y22820239D01*
X65857381Y22534524D01*
X65809762Y22439286D01*
X65762143Y22391667D01*
X65857381Y12596905D02*
X64857381Y12596905D01*
X64857381Y12835000D01*
X64905000Y12977858D01*
X65000238Y13073096D01*
X65095476Y13120715D01*
X65285952Y13168334D01*
X65428810Y13168334D01*
X65619286Y13120715D01*
X65714524Y13073096D01*
X65809762Y12977858D01*
X65857381Y12835000D01*
X65857381Y12596905D01*
X64952619Y13549286D02*
X64905000Y13596905D01*
X64857381Y13692143D01*
X64857381Y13930239D01*
X64905000Y14025477D01*
X64952619Y14073096D01*
X65047857Y14120715D01*
X65143095Y14120715D01*
X65285952Y14073096D01*
X65857381Y13501667D01*
X65857381Y14120715D01*
X65857381Y3706905D02*
X64857381Y3706905D01*
X64857381Y3945000D01*
X64905000Y4087858D01*
X65000238Y4183096D01*
X65095476Y4230715D01*
X65285952Y4278334D01*
X65428810Y4278334D01*
X65619286Y4230715D01*
X65714524Y4183096D01*
X65809762Y4087858D01*
X65857381Y3945000D01*
X65857381Y3706905D01*
X65857381Y5230715D02*
X65857381Y4659286D01*
X65857381Y4945000D02*
X64857381Y4945000D01*
X65000238Y4849762D01*
X65095476Y4754524D01*
X65143095Y4659286D01*
X76970000Y37338096D02*
X76922381Y37242858D01*
X76922381Y37100001D01*
X76970000Y36957143D01*
X77065238Y36861905D01*
X77160476Y36814286D01*
X77350952Y36766667D01*
X77493810Y36766667D01*
X77684286Y36814286D01*
X77779524Y36861905D01*
X77874762Y36957143D01*
X77922381Y37100001D01*
X77922381Y37195239D01*
X77874762Y37338096D01*
X77827143Y37385715D01*
X77493810Y37385715D01*
X77493810Y37195239D01*
X77922381Y37814286D02*
X76922381Y37814286D01*
X77922381Y38385715D01*
X76922381Y38385715D01*
X77922381Y38861905D02*
X76922381Y38861905D01*
X76922381Y39100000D01*
X76970000Y39242858D01*
X77065238Y39338096D01*
X77160476Y39385715D01*
X77350952Y39433334D01*
X77493810Y39433334D01*
X77684286Y39385715D01*
X77779524Y39338096D01*
X77874762Y39242858D01*
X77922381Y39100000D01*
X77922381Y38861905D01*
X75382381Y37433333D02*
X74382381Y37433333D01*
X74382381Y37671428D01*
X74430000Y37814286D01*
X74525238Y37909524D01*
X74620476Y37957143D01*
X74810952Y38004762D01*
X74953810Y38004762D01*
X75144286Y37957143D01*
X75239524Y37909524D01*
X75334762Y37814286D01*
X75382381Y37671428D01*
X75382381Y37433333D01*
X75382381Y38338095D02*
X74715714Y38861905D01*
X74715714Y38338095D02*
X75382381Y38861905D01*
X72842381Y37433333D02*
X71842381Y37433333D01*
X71842381Y37671428D01*
X71890000Y37814286D01*
X71985238Y37909524D01*
X72080476Y37957143D01*
X72270952Y38004762D01*
X72413810Y38004762D01*
X72604286Y37957143D01*
X72699524Y37909524D01*
X72794762Y37814286D01*
X72842381Y37671428D01*
X72842381Y37433333D01*
X72842381Y38338095D02*
X72175714Y38861905D01*
X72175714Y38338095D02*
X72842381Y38861905D01*
X69302381Y36766667D02*
X70302381Y37100000D01*
X69302381Y37433334D01*
X70207143Y38338096D02*
X70254762Y38290477D01*
X70302381Y38147620D01*
X70302381Y38052382D01*
X70254762Y37909524D01*
X70159524Y37814286D01*
X70064286Y37766667D01*
X69873810Y37719048D01*
X69730952Y37719048D01*
X69540476Y37766667D01*
X69445238Y37814286D01*
X69350000Y37909524D01*
X69302381Y38052382D01*
X69302381Y38147620D01*
X69350000Y38290477D01*
X69397619Y38338096D01*
X70207143Y39338096D02*
X70254762Y39290477D01*
X70302381Y39147620D01*
X70302381Y39052382D01*
X70254762Y38909524D01*
X70159524Y38814286D01*
X70064286Y38766667D01*
X69873810Y38719048D01*
X69730952Y38719048D01*
X69540476Y38766667D01*
X69445238Y38814286D01*
X69350000Y38909524D01*
X69302381Y39052382D01*
X69302381Y39147620D01*
X69350000Y39290477D01*
X69397619Y39338096D01*
X87717381Y76771667D02*
X88717381Y77105000D01*
X87717381Y77438334D01*
X88622143Y78343096D02*
X88669762Y78295477D01*
X88717381Y78152620D01*
X88717381Y78057382D01*
X88669762Y77914524D01*
X88574524Y77819286D01*
X88479286Y77771667D01*
X88288810Y77724048D01*
X88145952Y77724048D01*
X87955476Y77771667D01*
X87860238Y77819286D01*
X87765000Y77914524D01*
X87717381Y78057382D01*
X87717381Y78152620D01*
X87765000Y78295477D01*
X87812619Y78343096D01*
X88622143Y79343096D02*
X88669762Y79295477D01*
X88717381Y79152620D01*
X88717381Y79057382D01*
X88669762Y78914524D01*
X88574524Y78819286D01*
X88479286Y78771667D01*
X88288810Y78724048D01*
X88145952Y78724048D01*
X87955476Y78771667D01*
X87860238Y78819286D01*
X87765000Y78914524D01*
X87717381Y79057382D01*
X87717381Y79152620D01*
X87765000Y79295477D01*
X87812619Y79343096D01*
X91209762Y76890714D02*
X91257381Y77033571D01*
X91257381Y77271667D01*
X91209762Y77366905D01*
X91162143Y77414524D01*
X91066905Y77462143D01*
X90971667Y77462143D01*
X90876429Y77414524D01*
X90828810Y77366905D01*
X90781190Y77271667D01*
X90733571Y77081190D01*
X90685952Y76985952D01*
X90638333Y76938333D01*
X90543095Y76890714D01*
X90447857Y76890714D01*
X90352619Y76938333D01*
X90305000Y76985952D01*
X90257381Y77081190D01*
X90257381Y77319286D01*
X90305000Y77462143D01*
X91257381Y77890714D02*
X90257381Y77890714D01*
X90257381Y78128809D01*
X90305000Y78271667D01*
X90400238Y78366905D01*
X90495476Y78414524D01*
X90685952Y78462143D01*
X90828810Y78462143D01*
X91019286Y78414524D01*
X91114524Y78366905D01*
X91209762Y78271667D01*
X91257381Y78128809D01*
X91257381Y77890714D01*
X90971667Y78843095D02*
X90971667Y79319286D01*
X91257381Y78747857D02*
X90257381Y79081190D01*
X91257381Y79414524D01*
X93749762Y76914524D02*
X93797381Y77057381D01*
X93797381Y77295477D01*
X93749762Y77390715D01*
X93702143Y77438334D01*
X93606905Y77485953D01*
X93511667Y77485953D01*
X93416429Y77438334D01*
X93368810Y77390715D01*
X93321190Y77295477D01*
X93273571Y77105000D01*
X93225952Y77009762D01*
X93178333Y76962143D01*
X93083095Y76914524D01*
X92987857Y76914524D01*
X92892619Y76962143D01*
X92845000Y77009762D01*
X92797381Y77105000D01*
X92797381Y77343096D01*
X92845000Y77485953D01*
X93702143Y78485953D02*
X93749762Y78438334D01*
X93797381Y78295477D01*
X93797381Y78200239D01*
X93749762Y78057381D01*
X93654524Y77962143D01*
X93559286Y77914524D01*
X93368810Y77866905D01*
X93225952Y77866905D01*
X93035476Y77914524D01*
X92940238Y77962143D01*
X92845000Y78057381D01*
X92797381Y78200239D01*
X92797381Y78295477D01*
X92845000Y78438334D01*
X92892619Y78485953D01*
X93797381Y79390715D02*
X93797381Y78914524D01*
X92797381Y78914524D01*
X95385000Y77343096D02*
X95337381Y77247858D01*
X95337381Y77105001D01*
X95385000Y76962143D01*
X95480238Y76866905D01*
X95575476Y76819286D01*
X95765952Y76771667D01*
X95908810Y76771667D01*
X96099286Y76819286D01*
X96194524Y76866905D01*
X96289762Y76962143D01*
X96337381Y77105001D01*
X96337381Y77200239D01*
X96289762Y77343096D01*
X96242143Y77390715D01*
X95908810Y77390715D01*
X95908810Y77200239D01*
X96337381Y77819286D02*
X95337381Y77819286D01*
X96337381Y78390715D01*
X95337381Y78390715D01*
X96337381Y78866905D02*
X95337381Y78866905D01*
X95337381Y79105000D01*
X95385000Y79247858D01*
X95480238Y79343096D01*
X95575476Y79390715D01*
X95765952Y79438334D01*
X95908810Y79438334D01*
X96099286Y79390715D01*
X96194524Y79343096D01*
X96289762Y79247858D01*
X96337381Y79105000D01*
X96337381Y78866905D01*
X84272381Y70302619D02*
X83272381Y70302619D01*
X83367619Y70731190D02*
X83320000Y70778809D01*
X83272381Y70874047D01*
X83272381Y71112143D01*
X83320000Y71207381D01*
X83367619Y71255000D01*
X83462857Y71302619D01*
X83558095Y71302619D01*
X83700952Y71255000D01*
X84272381Y70683571D01*
X84272381Y71302619D01*
X84177143Y72302619D02*
X84224762Y72255000D01*
X84272381Y72112143D01*
X84272381Y72016905D01*
X84224762Y71874047D01*
X84129524Y71778809D01*
X84034286Y71731190D01*
X83843810Y71683571D01*
X83700952Y71683571D01*
X83510476Y71731190D01*
X83415238Y71778809D01*
X83320000Y71874047D01*
X83272381Y72016905D01*
X83272381Y72112143D01*
X83320000Y72255000D01*
X83367619Y72302619D01*
X83605714Y73159762D02*
X84272381Y73159762D01*
X83224762Y72921666D02*
X83939048Y72683571D01*
X83939048Y73302619D01*
X84272381Y61412619D02*
X83272381Y61412619D01*
X83367619Y61841190D02*
X83320000Y61888809D01*
X83272381Y61984047D01*
X83272381Y62222143D01*
X83320000Y62317381D01*
X83367619Y62365000D01*
X83462857Y62412619D01*
X83558095Y62412619D01*
X83700952Y62365000D01*
X84272381Y61793571D01*
X84272381Y62412619D01*
X84177143Y63412619D02*
X84224762Y63365000D01*
X84272381Y63222143D01*
X84272381Y63126905D01*
X84224762Y62984047D01*
X84129524Y62888809D01*
X84034286Y62841190D01*
X83843810Y62793571D01*
X83700952Y62793571D01*
X83510476Y62841190D01*
X83415238Y62888809D01*
X83320000Y62984047D01*
X83272381Y63126905D01*
X83272381Y63222143D01*
X83320000Y63365000D01*
X83367619Y63412619D01*
X83272381Y63745952D02*
X83272381Y64365000D01*
X83653333Y64031666D01*
X83653333Y64174524D01*
X83700952Y64269762D01*
X83748571Y64317381D01*
X83843810Y64365000D01*
X84081905Y64365000D01*
X84177143Y64317381D01*
X84224762Y64269762D01*
X84272381Y64174524D01*
X84272381Y63888809D01*
X84224762Y63793571D01*
X84177143Y63745952D01*
X84272381Y52522619D02*
X83272381Y52522619D01*
X83367619Y52951190D02*
X83320000Y52998809D01*
X83272381Y53094047D01*
X83272381Y53332143D01*
X83320000Y53427381D01*
X83367619Y53475000D01*
X83462857Y53522619D01*
X83558095Y53522619D01*
X83700952Y53475000D01*
X84272381Y52903571D01*
X84272381Y53522619D01*
X84177143Y54522619D02*
X84224762Y54475000D01*
X84272381Y54332143D01*
X84272381Y54236905D01*
X84224762Y54094047D01*
X84129524Y53998809D01*
X84034286Y53951190D01*
X83843810Y53903571D01*
X83700952Y53903571D01*
X83510476Y53951190D01*
X83415238Y53998809D01*
X83320000Y54094047D01*
X83272381Y54236905D01*
X83272381Y54332143D01*
X83320000Y54475000D01*
X83367619Y54522619D01*
X83367619Y54903571D02*
X83320000Y54951190D01*
X83272381Y55046428D01*
X83272381Y55284524D01*
X83320000Y55379762D01*
X83367619Y55427381D01*
X83462857Y55475000D01*
X83558095Y55475000D01*
X83700952Y55427381D01*
X84272381Y54855952D01*
X84272381Y55475000D01*
X84272381Y43632619D02*
X83272381Y43632619D01*
X83367619Y44061190D02*
X83320000Y44108809D01*
X83272381Y44204047D01*
X83272381Y44442143D01*
X83320000Y44537381D01*
X83367619Y44585000D01*
X83462857Y44632619D01*
X83558095Y44632619D01*
X83700952Y44585000D01*
X84272381Y44013571D01*
X84272381Y44632619D01*
X84177143Y45632619D02*
X84224762Y45585000D01*
X84272381Y45442143D01*
X84272381Y45346905D01*
X84224762Y45204047D01*
X84129524Y45108809D01*
X84034286Y45061190D01*
X83843810Y45013571D01*
X83700952Y45013571D01*
X83510476Y45061190D01*
X83415238Y45108809D01*
X83320000Y45204047D01*
X83272381Y45346905D01*
X83272381Y45442143D01*
X83320000Y45585000D01*
X83367619Y45632619D01*
X84272381Y46585000D02*
X84272381Y46013571D01*
X84272381Y46299285D02*
X83272381Y46299285D01*
X83415238Y46204047D01*
X83510476Y46108809D01*
X83558095Y46013571D01*
X83986667Y29400714D02*
X83986667Y29876905D01*
X84272381Y29305476D02*
X83272381Y29638809D01*
X84272381Y29972143D01*
X84272381Y30305476D02*
X83272381Y30305476D01*
X83272381Y30543571D01*
X83320000Y30686429D01*
X83415238Y30781667D01*
X83510476Y30829286D01*
X83700952Y30876905D01*
X83843810Y30876905D01*
X84034286Y30829286D01*
X84129524Y30781667D01*
X84224762Y30686429D01*
X84272381Y30543571D01*
X84272381Y30305476D01*
X84177143Y31876905D02*
X84224762Y31829286D01*
X84272381Y31686429D01*
X84272381Y31591191D01*
X84224762Y31448333D01*
X84129524Y31353095D01*
X84034286Y31305476D01*
X83843810Y31257857D01*
X83700952Y31257857D01*
X83510476Y31305476D01*
X83415238Y31353095D01*
X83320000Y31448333D01*
X83272381Y31591191D01*
X83272381Y31686429D01*
X83320000Y31829286D01*
X83367619Y31876905D01*
X83605714Y32734048D02*
X84272381Y32734048D01*
X83224762Y32495952D02*
X83939048Y32257857D01*
X83939048Y32876905D01*
X83986667Y20510714D02*
X83986667Y20986905D01*
X84272381Y20415476D02*
X83272381Y20748809D01*
X84272381Y21082143D01*
X84272381Y21415476D02*
X83272381Y21415476D01*
X83272381Y21653571D01*
X83320000Y21796429D01*
X83415238Y21891667D01*
X83510476Y21939286D01*
X83700952Y21986905D01*
X83843810Y21986905D01*
X84034286Y21939286D01*
X84129524Y21891667D01*
X84224762Y21796429D01*
X84272381Y21653571D01*
X84272381Y21415476D01*
X84177143Y22986905D02*
X84224762Y22939286D01*
X84272381Y22796429D01*
X84272381Y22701191D01*
X84224762Y22558333D01*
X84129524Y22463095D01*
X84034286Y22415476D01*
X83843810Y22367857D01*
X83700952Y22367857D01*
X83510476Y22415476D01*
X83415238Y22463095D01*
X83320000Y22558333D01*
X83272381Y22701191D01*
X83272381Y22796429D01*
X83320000Y22939286D01*
X83367619Y22986905D01*
X83272381Y23320238D02*
X83272381Y23939286D01*
X83653333Y23605952D01*
X83653333Y23748810D01*
X83700952Y23844048D01*
X83748571Y23891667D01*
X83843810Y23939286D01*
X84081905Y23939286D01*
X84177143Y23891667D01*
X84224762Y23844048D01*
X84272381Y23748810D01*
X84272381Y23463095D01*
X84224762Y23367857D01*
X84177143Y23320238D01*
X83986667Y11620714D02*
X83986667Y12096905D01*
X84272381Y11525476D02*
X83272381Y11858809D01*
X84272381Y12192143D01*
X84272381Y12525476D02*
X83272381Y12525476D01*
X83272381Y12763571D01*
X83320000Y12906429D01*
X83415238Y13001667D01*
X83510476Y13049286D01*
X83700952Y13096905D01*
X83843810Y13096905D01*
X84034286Y13049286D01*
X84129524Y13001667D01*
X84224762Y12906429D01*
X84272381Y12763571D01*
X84272381Y12525476D01*
X84177143Y14096905D02*
X84224762Y14049286D01*
X84272381Y13906429D01*
X84272381Y13811191D01*
X84224762Y13668333D01*
X84129524Y13573095D01*
X84034286Y13525476D01*
X83843810Y13477857D01*
X83700952Y13477857D01*
X83510476Y13525476D01*
X83415238Y13573095D01*
X83320000Y13668333D01*
X83272381Y13811191D01*
X83272381Y13906429D01*
X83320000Y14049286D01*
X83367619Y14096905D01*
X83367619Y14477857D02*
X83320000Y14525476D01*
X83272381Y14620714D01*
X83272381Y14858810D01*
X83320000Y14954048D01*
X83367619Y15001667D01*
X83462857Y15049286D01*
X83558095Y15049286D01*
X83700952Y15001667D01*
X84272381Y14430238D01*
X84272381Y15049286D01*
X83986667Y2730714D02*
X83986667Y3206905D01*
X84272381Y2635476D02*
X83272381Y2968809D01*
X84272381Y3302143D01*
X84272381Y3635476D02*
X83272381Y3635476D01*
X83272381Y3873571D01*
X83320000Y4016429D01*
X83415238Y4111667D01*
X83510476Y4159286D01*
X83700952Y4206905D01*
X83843810Y4206905D01*
X84034286Y4159286D01*
X84129524Y4111667D01*
X84224762Y4016429D01*
X84272381Y3873571D01*
X84272381Y3635476D01*
X84177143Y5206905D02*
X84224762Y5159286D01*
X84272381Y5016429D01*
X84272381Y4921191D01*
X84224762Y4778333D01*
X84129524Y4683095D01*
X84034286Y4635476D01*
X83843810Y4587857D01*
X83700952Y4587857D01*
X83510476Y4635476D01*
X83415238Y4683095D01*
X83320000Y4778333D01*
X83272381Y4921191D01*
X83272381Y5016429D01*
X83320000Y5159286D01*
X83367619Y5206905D01*
X84272381Y6159286D02*
X84272381Y5587857D01*
X84272381Y5873571D02*
X83272381Y5873571D01*
X83415238Y5778333D01*
X83510476Y5683095D01*
X83558095Y5587857D01*
X95385000Y37338096D02*
X95337381Y37242858D01*
X95337381Y37100001D01*
X95385000Y36957143D01*
X95480238Y36861905D01*
X95575476Y36814286D01*
X95765952Y36766667D01*
X95908810Y36766667D01*
X96099286Y36814286D01*
X96194524Y36861905D01*
X96289762Y36957143D01*
X96337381Y37100001D01*
X96337381Y37195239D01*
X96289762Y37338096D01*
X96242143Y37385715D01*
X95908810Y37385715D01*
X95908810Y37195239D01*
X96337381Y37814286D02*
X95337381Y37814286D01*
X96337381Y38385715D01*
X95337381Y38385715D01*
X96337381Y38861905D02*
X95337381Y38861905D01*
X95337381Y39100000D01*
X95385000Y39242858D01*
X95480238Y39338096D01*
X95575476Y39385715D01*
X95765952Y39433334D01*
X95908810Y39433334D01*
X96099286Y39385715D01*
X96194524Y39338096D01*
X96289762Y39242858D01*
X96337381Y39100000D01*
X96337381Y38861905D01*
X93511667Y36457143D02*
X93511667Y36933334D01*
X93797381Y36361905D02*
X92797381Y36695238D01*
X93797381Y37028572D01*
X93797381Y37361905D02*
X92797381Y37361905D01*
X92797381Y37600000D01*
X92845000Y37742858D01*
X92940238Y37838096D01*
X93035476Y37885715D01*
X93225952Y37933334D01*
X93368810Y37933334D01*
X93559286Y37885715D01*
X93654524Y37838096D01*
X93749762Y37742858D01*
X93797381Y37600000D01*
X93797381Y37361905D01*
X93702143Y38933334D02*
X93749762Y38885715D01*
X93797381Y38742858D01*
X93797381Y38647620D01*
X93749762Y38504762D01*
X93654524Y38409524D01*
X93559286Y38361905D01*
X93368810Y38314286D01*
X93225952Y38314286D01*
X93035476Y38361905D01*
X92940238Y38409524D01*
X92845000Y38504762D01*
X92797381Y38647620D01*
X92797381Y38742858D01*
X92845000Y38885715D01*
X92892619Y38933334D01*
X93797381Y39266667D02*
X93130714Y39790477D01*
X93130714Y39266667D02*
X93797381Y39790477D01*
X90971667Y36457143D02*
X90971667Y36933334D01*
X91257381Y36361905D02*
X90257381Y36695238D01*
X91257381Y37028572D01*
X91257381Y37361905D02*
X90257381Y37361905D01*
X90257381Y37600000D01*
X90305000Y37742858D01*
X90400238Y37838096D01*
X90495476Y37885715D01*
X90685952Y37933334D01*
X90828810Y37933334D01*
X91019286Y37885715D01*
X91114524Y37838096D01*
X91209762Y37742858D01*
X91257381Y37600000D01*
X91257381Y37361905D01*
X91162143Y38933334D02*
X91209762Y38885715D01*
X91257381Y38742858D01*
X91257381Y38647620D01*
X91209762Y38504762D01*
X91114524Y38409524D01*
X91019286Y38361905D01*
X90828810Y38314286D01*
X90685952Y38314286D01*
X90495476Y38361905D01*
X90400238Y38409524D01*
X90305000Y38504762D01*
X90257381Y38647620D01*
X90257381Y38742858D01*
X90305000Y38885715D01*
X90352619Y38933334D01*
X91257381Y39266667D02*
X90590714Y39790477D01*
X90590714Y39266667D02*
X91257381Y39790477D01*
X87717381Y36766667D02*
X88717381Y37100000D01*
X87717381Y37433334D01*
X88622143Y38338096D02*
X88669762Y38290477D01*
X88717381Y38147620D01*
X88717381Y38052382D01*
X88669762Y37909524D01*
X88574524Y37814286D01*
X88479286Y37766667D01*
X88288810Y37719048D01*
X88145952Y37719048D01*
X87955476Y37766667D01*
X87860238Y37814286D01*
X87765000Y37909524D01*
X87717381Y38052382D01*
X87717381Y38147620D01*
X87765000Y38290477D01*
X87812619Y38338096D01*
X88622143Y39338096D02*
X88669762Y39290477D01*
X88717381Y39147620D01*
X88717381Y39052382D01*
X88669762Y38909524D01*
X88574524Y38814286D01*
X88479286Y38766667D01*
X88288810Y38719048D01*
X88145952Y38719048D01*
X87955476Y38766667D01*
X87860238Y38814286D01*
X87765000Y38909524D01*
X87717381Y39052382D01*
X87717381Y39147620D01*
X87765000Y39290477D01*
X87812619Y39338096D01*
D12*
X66520000Y91360000D02*
X66520000Y100160000D01*
X66520000Y100160000D02*
X75720000Y100160000D01*
X69220000Y85460000D02*
X66520000Y85460000D01*
X66520000Y85460000D02*
X66520000Y87360000D01*
X75720000Y100160000D02*
X75720000Y85460000D01*
X75720000Y85460000D02*
X73120000Y85460000D01*
X81550000Y96770000D02*
X83550000Y96770000D01*
X83550000Y98810000D02*
X81550000Y98810000D01*
X81550000Y89150000D02*
X83550000Y89150000D01*
X83550000Y91190000D02*
X81550000Y91190000D01*
X85950000Y92330000D02*
X85950000Y95630000D01*
X85950000Y95630000D02*
X80550000Y95630000D01*
X85950000Y92330000D02*
X80550000Y92330000D01*
X85715000Y7530000D02*
X85715000Y1580000D01*
X85715000Y1580000D02*
X98315000Y1580000D01*
X98315000Y1580000D02*
X98315000Y7530000D01*
X98315000Y7530000D02*
X85715000Y7530000D01*
X89015000Y7530000D02*
X89015000Y6780000D01*
X89015000Y6780000D02*
X95015000Y6780000D01*
X95015000Y6780000D02*
X95015000Y7530000D01*
X95015000Y7530000D02*
X89015000Y7530000D01*
X85715000Y7530000D02*
X85715000Y6780000D01*
X85715000Y6780000D02*
X87515000Y6780000D01*
X87515000Y6780000D02*
X87515000Y7530000D01*
X87515000Y7530000D02*
X85715000Y7530000D01*
X96515000Y7530000D02*
X96515000Y6780000D01*
X96515000Y6780000D02*
X98315000Y6780000D01*
X98315000Y6780000D02*
X98315000Y7530000D01*
X98315000Y7530000D02*
X96515000Y7530000D01*
X85715000Y5280000D02*
X86465000Y5280000D01*
X86465000Y5280000D02*
X86465000Y2330000D01*
X86465000Y2330000D02*
X92015000Y2330000D01*
X98315000Y5280000D02*
X97565000Y5280000D01*
X97565000Y5280000D02*
X97565000Y2330000D01*
X97565000Y2330000D02*
X92015000Y2330000D01*
X87915000Y7830000D02*
X85415000Y7830000D01*
X85415000Y7830000D02*
X85415000Y5330000D01*
X85715000Y16420000D02*
X85715000Y10470000D01*
X85715000Y10470000D02*
X98315000Y10470000D01*
X98315000Y10470000D02*
X98315000Y16420000D01*
X98315000Y16420000D02*
X85715000Y16420000D01*
X89015000Y16420000D02*
X89015000Y15670000D01*
X89015000Y15670000D02*
X95015000Y15670000D01*
X95015000Y15670000D02*
X95015000Y16420000D01*
X95015000Y16420000D02*
X89015000Y16420000D01*
X85715000Y16420000D02*
X85715000Y15670000D01*
X85715000Y15670000D02*
X87515000Y15670000D01*
X87515000Y15670000D02*
X87515000Y16420000D01*
X87515000Y16420000D02*
X85715000Y16420000D01*
X96515000Y16420000D02*
X96515000Y15670000D01*
X96515000Y15670000D02*
X98315000Y15670000D01*
X98315000Y15670000D02*
X98315000Y16420000D01*
X98315000Y16420000D02*
X96515000Y16420000D01*
X85715000Y14170000D02*
X86465000Y14170000D01*
X86465000Y14170000D02*
X86465000Y11220000D01*
X86465000Y11220000D02*
X92015000Y11220000D01*
X98315000Y14170000D02*
X97565000Y14170000D01*
X97565000Y14170000D02*
X97565000Y11220000D01*
X97565000Y11220000D02*
X92015000Y11220000D01*
X87915000Y16720000D02*
X85415000Y16720000D01*
X85415000Y16720000D02*
X85415000Y14220000D01*
X85715000Y25310000D02*
X85715000Y19360000D01*
X85715000Y19360000D02*
X98315000Y19360000D01*
X98315000Y19360000D02*
X98315000Y25310000D01*
X98315000Y25310000D02*
X85715000Y25310000D01*
X89015000Y25310000D02*
X89015000Y24560000D01*
X89015000Y24560000D02*
X95015000Y24560000D01*
X95015000Y24560000D02*
X95015000Y25310000D01*
X95015000Y25310000D02*
X89015000Y25310000D01*
X85715000Y25310000D02*
X85715000Y24560000D01*
X85715000Y24560000D02*
X87515000Y24560000D01*
X87515000Y24560000D02*
X87515000Y25310000D01*
X87515000Y25310000D02*
X85715000Y25310000D01*
X96515000Y25310000D02*
X96515000Y24560000D01*
X96515000Y24560000D02*
X98315000Y24560000D01*
X98315000Y24560000D02*
X98315000Y25310000D01*
X98315000Y25310000D02*
X96515000Y25310000D01*
X85715000Y23060000D02*
X86465000Y23060000D01*
X86465000Y23060000D02*
X86465000Y20110000D01*
X86465000Y20110000D02*
X92015000Y20110000D01*
X98315000Y23060000D02*
X97565000Y23060000D01*
X97565000Y23060000D02*
X97565000Y20110000D01*
X97565000Y20110000D02*
X92015000Y20110000D01*
X87915000Y25610000D02*
X85415000Y25610000D01*
X85415000Y25610000D02*
X85415000Y23110000D01*
X85715000Y34200000D02*
X85715000Y28250000D01*
X85715000Y28250000D02*
X98315000Y28250000D01*
X98315000Y28250000D02*
X98315000Y34200000D01*
X98315000Y34200000D02*
X85715000Y34200000D01*
X89015000Y34200000D02*
X89015000Y33450000D01*
X89015000Y33450000D02*
X95015000Y33450000D01*
X95015000Y33450000D02*
X95015000Y34200000D01*
X95015000Y34200000D02*
X89015000Y34200000D01*
X85715000Y34200000D02*
X85715000Y33450000D01*
X85715000Y33450000D02*
X87515000Y33450000D01*
X87515000Y33450000D02*
X87515000Y34200000D01*
X87515000Y34200000D02*
X85715000Y34200000D01*
X96515000Y34200000D02*
X96515000Y33450000D01*
X96515000Y33450000D02*
X98315000Y33450000D01*
X98315000Y33450000D02*
X98315000Y34200000D01*
X98315000Y34200000D02*
X96515000Y34200000D01*
X85715000Y31950000D02*
X86465000Y31950000D01*
X86465000Y31950000D02*
X86465000Y29000000D01*
X86465000Y29000000D02*
X92015000Y29000000D01*
X98315000Y31950000D02*
X97565000Y31950000D01*
X97565000Y31950000D02*
X97565000Y29000000D01*
X97565000Y29000000D02*
X92015000Y29000000D01*
X87915000Y34500000D02*
X85415000Y34500000D01*
X85415000Y34500000D02*
X85415000Y32000000D01*
X67300000Y57060000D02*
X67300000Y51110000D01*
X67300000Y51110000D02*
X79900000Y51110000D01*
X79900000Y51110000D02*
X79900000Y57060000D01*
X79900000Y57060000D02*
X67300000Y57060000D01*
X70600000Y57060000D02*
X70600000Y56310000D01*
X70600000Y56310000D02*
X76600000Y56310000D01*
X76600000Y56310000D02*
X76600000Y57060000D01*
X76600000Y57060000D02*
X70600000Y57060000D01*
X67300000Y57060000D02*
X67300000Y56310000D01*
X67300000Y56310000D02*
X69100000Y56310000D01*
X69100000Y56310000D02*
X69100000Y57060000D01*
X69100000Y57060000D02*
X67300000Y57060000D01*
X78100000Y57060000D02*
X78100000Y56310000D01*
X78100000Y56310000D02*
X79900000Y56310000D01*
X79900000Y56310000D02*
X79900000Y57060000D01*
X79900000Y57060000D02*
X78100000Y57060000D01*
X67300000Y54810000D02*
X68050000Y54810000D01*
X68050000Y54810000D02*
X68050000Y51860000D01*
X68050000Y51860000D02*
X73600000Y51860000D01*
X79900000Y54810000D02*
X79150000Y54810000D01*
X79150000Y54810000D02*
X79150000Y51860000D01*
X79150000Y51860000D02*
X73600000Y51860000D01*
X69500000Y57360000D02*
X67000000Y57360000D01*
X67000000Y57360000D02*
X67000000Y54860000D01*
X67300000Y65950000D02*
X67300000Y60000000D01*
X67300000Y60000000D02*
X79900000Y60000000D01*
X79900000Y60000000D02*
X79900000Y65950000D01*
X79900000Y65950000D02*
X67300000Y65950000D01*
X70600000Y65950000D02*
X70600000Y65200000D01*
X70600000Y65200000D02*
X76600000Y65200000D01*
X76600000Y65200000D02*
X76600000Y65950000D01*
X76600000Y65950000D02*
X70600000Y65950000D01*
X67300000Y65950000D02*
X67300000Y65200000D01*
X67300000Y65200000D02*
X69100000Y65200000D01*
X69100000Y65200000D02*
X69100000Y65950000D01*
X69100000Y65950000D02*
X67300000Y65950000D01*
X78100000Y65950000D02*
X78100000Y65200000D01*
X78100000Y65200000D02*
X79900000Y65200000D01*
X79900000Y65200000D02*
X79900000Y65950000D01*
X79900000Y65950000D02*
X78100000Y65950000D01*
X67300000Y63700000D02*
X68050000Y63700000D01*
X68050000Y63700000D02*
X68050000Y60750000D01*
X68050000Y60750000D02*
X73600000Y60750000D01*
X79900000Y63700000D02*
X79150000Y63700000D01*
X79150000Y63700000D02*
X79150000Y60750000D01*
X79150000Y60750000D02*
X73600000Y60750000D01*
X69500000Y66250000D02*
X67000000Y66250000D01*
X67000000Y66250000D02*
X67000000Y63750000D01*
X67300000Y74840000D02*
X67300000Y68890000D01*
X67300000Y68890000D02*
X79900000Y68890000D01*
X79900000Y68890000D02*
X79900000Y74840000D01*
X79900000Y74840000D02*
X67300000Y74840000D01*
X70600000Y74840000D02*
X70600000Y74090000D01*
X70600000Y74090000D02*
X76600000Y74090000D01*
X76600000Y74090000D02*
X76600000Y74840000D01*
X76600000Y74840000D02*
X70600000Y74840000D01*
X67300000Y74840000D02*
X67300000Y74090000D01*
X67300000Y74090000D02*
X69100000Y74090000D01*
X69100000Y74090000D02*
X69100000Y74840000D01*
X69100000Y74840000D02*
X67300000Y74840000D01*
X78100000Y74840000D02*
X78100000Y74090000D01*
X78100000Y74090000D02*
X79900000Y74090000D01*
X79900000Y74090000D02*
X79900000Y74840000D01*
X79900000Y74840000D02*
X78100000Y74840000D01*
X67300000Y72590000D02*
X68050000Y72590000D01*
X68050000Y72590000D02*
X68050000Y69640000D01*
X68050000Y69640000D02*
X73600000Y69640000D01*
X79900000Y72590000D02*
X79150000Y72590000D01*
X79150000Y72590000D02*
X79150000Y69640000D01*
X79150000Y69640000D02*
X73600000Y69640000D01*
X69500000Y75140000D02*
X67000000Y75140000D01*
X67000000Y75140000D02*
X67000000Y72640000D01*
X67300000Y7530000D02*
X67300000Y1580000D01*
X67300000Y1580000D02*
X79900000Y1580000D01*
X79900000Y1580000D02*
X79900000Y7530000D01*
X79900000Y7530000D02*
X67300000Y7530000D01*
X70600000Y7530000D02*
X70600000Y6780000D01*
X70600000Y6780000D02*
X76600000Y6780000D01*
X76600000Y6780000D02*
X76600000Y7530000D01*
X76600000Y7530000D02*
X70600000Y7530000D01*
X67300000Y7530000D02*
X67300000Y6780000D01*
X67300000Y6780000D02*
X69100000Y6780000D01*
X69100000Y6780000D02*
X69100000Y7530000D01*
X69100000Y7530000D02*
X67300000Y7530000D01*
X78100000Y7530000D02*
X78100000Y6780000D01*
X78100000Y6780000D02*
X79900000Y6780000D01*
X79900000Y6780000D02*
X79900000Y7530000D01*
X79900000Y7530000D02*
X78100000Y7530000D01*
X67300000Y5280000D02*
X68050000Y5280000D01*
X68050000Y5280000D02*
X68050000Y2330000D01*
X68050000Y2330000D02*
X73600000Y2330000D01*
X79900000Y5280000D02*
X79150000Y5280000D01*
X79150000Y5280000D02*
X79150000Y2330000D01*
X79150000Y2330000D02*
X73600000Y2330000D01*
X69500000Y7830000D02*
X67000000Y7830000D01*
X67000000Y7830000D02*
X67000000Y5330000D01*
X67300000Y16420000D02*
X67300000Y10470000D01*
X67300000Y10470000D02*
X79900000Y10470000D01*
X79900000Y10470000D02*
X79900000Y16420000D01*
X79900000Y16420000D02*
X67300000Y16420000D01*
X70600000Y16420000D02*
X70600000Y15670000D01*
X70600000Y15670000D02*
X76600000Y15670000D01*
X76600000Y15670000D02*
X76600000Y16420000D01*
X76600000Y16420000D02*
X70600000Y16420000D01*
X67300000Y16420000D02*
X67300000Y15670000D01*
X67300000Y15670000D02*
X69100000Y15670000D01*
X69100000Y15670000D02*
X69100000Y16420000D01*
X69100000Y16420000D02*
X67300000Y16420000D01*
X78100000Y16420000D02*
X78100000Y15670000D01*
X78100000Y15670000D02*
X79900000Y15670000D01*
X79900000Y15670000D02*
X79900000Y16420000D01*
X79900000Y16420000D02*
X78100000Y16420000D01*
X67300000Y14170000D02*
X68050000Y14170000D01*
X68050000Y14170000D02*
X68050000Y11220000D01*
X68050000Y11220000D02*
X73600000Y11220000D01*
X79900000Y14170000D02*
X79150000Y14170000D01*
X79150000Y14170000D02*
X79150000Y11220000D01*
X79150000Y11220000D02*
X73600000Y11220000D01*
X69500000Y16720000D02*
X67000000Y16720000D01*
X67000000Y16720000D02*
X67000000Y14220000D01*
X67300000Y25310000D02*
X67300000Y19360000D01*
X67300000Y19360000D02*
X79900000Y19360000D01*
X79900000Y19360000D02*
X79900000Y25310000D01*
X79900000Y25310000D02*
X67300000Y25310000D01*
X70600000Y25310000D02*
X70600000Y24560000D01*
X70600000Y24560000D02*
X76600000Y24560000D01*
X76600000Y24560000D02*
X76600000Y25310000D01*
X76600000Y25310000D02*
X70600000Y25310000D01*
X67300000Y25310000D02*
X67300000Y24560000D01*
X67300000Y24560000D02*
X69100000Y24560000D01*
X69100000Y24560000D02*
X69100000Y25310000D01*
X69100000Y25310000D02*
X67300000Y25310000D01*
X78100000Y25310000D02*
X78100000Y24560000D01*
X78100000Y24560000D02*
X79900000Y24560000D01*
X79900000Y24560000D02*
X79900000Y25310000D01*
X79900000Y25310000D02*
X78100000Y25310000D01*
X67300000Y23060000D02*
X68050000Y23060000D01*
X68050000Y23060000D02*
X68050000Y20110000D01*
X68050000Y20110000D02*
X73600000Y20110000D01*
X79900000Y23060000D02*
X79150000Y23060000D01*
X79150000Y23060000D02*
X79150000Y20110000D01*
X79150000Y20110000D02*
X73600000Y20110000D01*
X69500000Y25610000D02*
X67000000Y25610000D01*
X67000000Y25610000D02*
X67000000Y23110000D01*
X67300000Y34200000D02*
X67300000Y28250000D01*
X67300000Y28250000D02*
X79900000Y28250000D01*
X79900000Y28250000D02*
X79900000Y34200000D01*
X79900000Y34200000D02*
X67300000Y34200000D01*
X70600000Y34200000D02*
X70600000Y33450000D01*
X70600000Y33450000D02*
X76600000Y33450000D01*
X76600000Y33450000D02*
X76600000Y34200000D01*
X76600000Y34200000D02*
X70600000Y34200000D01*
X67300000Y34200000D02*
X67300000Y33450000D01*
X67300000Y33450000D02*
X69100000Y33450000D01*
X69100000Y33450000D02*
X69100000Y34200000D01*
X69100000Y34200000D02*
X67300000Y34200000D01*
X78100000Y34200000D02*
X78100000Y33450000D01*
X78100000Y33450000D02*
X79900000Y33450000D01*
X79900000Y33450000D02*
X79900000Y34200000D01*
X79900000Y34200000D02*
X78100000Y34200000D01*
X67300000Y31950000D02*
X68050000Y31950000D01*
X68050000Y31950000D02*
X68050000Y29000000D01*
X68050000Y29000000D02*
X73600000Y29000000D01*
X79900000Y31950000D02*
X79150000Y31950000D01*
X79150000Y31950000D02*
X79150000Y29000000D01*
X79150000Y29000000D02*
X73600000Y29000000D01*
X69500000Y34500000D02*
X67000000Y34500000D01*
X67000000Y34500000D02*
X67000000Y32000000D01*
X85715000Y74840000D02*
X85715000Y68890000D01*
X85715000Y68890000D02*
X98315000Y68890000D01*
X98315000Y68890000D02*
X98315000Y74840000D01*
X98315000Y74840000D02*
X85715000Y74840000D01*
X89015000Y74840000D02*
X89015000Y74090000D01*
X89015000Y74090000D02*
X95015000Y74090000D01*
X95015000Y74090000D02*
X95015000Y74840000D01*
X95015000Y74840000D02*
X89015000Y74840000D01*
X85715000Y74840000D02*
X85715000Y74090000D01*
X85715000Y74090000D02*
X87515000Y74090000D01*
X87515000Y74090000D02*
X87515000Y74840000D01*
X87515000Y74840000D02*
X85715000Y74840000D01*
X96515000Y74840000D02*
X96515000Y74090000D01*
X96515000Y74090000D02*
X98315000Y74090000D01*
X98315000Y74090000D02*
X98315000Y74840000D01*
X98315000Y74840000D02*
X96515000Y74840000D01*
X85715000Y72590000D02*
X86465000Y72590000D01*
X86465000Y72590000D02*
X86465000Y69640000D01*
X86465000Y69640000D02*
X92015000Y69640000D01*
X98315000Y72590000D02*
X97565000Y72590000D01*
X97565000Y72590000D02*
X97565000Y69640000D01*
X97565000Y69640000D02*
X92015000Y69640000D01*
X87915000Y75140000D02*
X85415000Y75140000D01*
X85415000Y75140000D02*
X85415000Y72640000D01*
X85715000Y65950000D02*
X85715000Y60000000D01*
X85715000Y60000000D02*
X98315000Y60000000D01*
X98315000Y60000000D02*
X98315000Y65950000D01*
X98315000Y65950000D02*
X85715000Y65950000D01*
X89015000Y65950000D02*
X89015000Y65200000D01*
X89015000Y65200000D02*
X95015000Y65200000D01*
X95015000Y65200000D02*
X95015000Y65950000D01*
X95015000Y65950000D02*
X89015000Y65950000D01*
X85715000Y65950000D02*
X85715000Y65200000D01*
X85715000Y65200000D02*
X87515000Y65200000D01*
X87515000Y65200000D02*
X87515000Y65950000D01*
X87515000Y65950000D02*
X85715000Y65950000D01*
X96515000Y65950000D02*
X96515000Y65200000D01*
X96515000Y65200000D02*
X98315000Y65200000D01*
X98315000Y65200000D02*
X98315000Y65950000D01*
X98315000Y65950000D02*
X96515000Y65950000D01*
X85715000Y63700000D02*
X86465000Y63700000D01*
X86465000Y63700000D02*
X86465000Y60750000D01*
X86465000Y60750000D02*
X92015000Y60750000D01*
X98315000Y63700000D02*
X97565000Y63700000D01*
X97565000Y63700000D02*
X97565000Y60750000D01*
X97565000Y60750000D02*
X92015000Y60750000D01*
X87915000Y66250000D02*
X85415000Y66250000D01*
X85415000Y66250000D02*
X85415000Y63750000D01*
X85715000Y57060000D02*
X85715000Y51110000D01*
X85715000Y51110000D02*
X98315000Y51110000D01*
X98315000Y51110000D02*
X98315000Y57060000D01*
X98315000Y57060000D02*
X85715000Y57060000D01*
X89015000Y57060000D02*
X89015000Y56310000D01*
X89015000Y56310000D02*
X95015000Y56310000D01*
X95015000Y56310000D02*
X95015000Y57060000D01*
X95015000Y57060000D02*
X89015000Y57060000D01*
X85715000Y57060000D02*
X85715000Y56310000D01*
X85715000Y56310000D02*
X87515000Y56310000D01*
X87515000Y56310000D02*
X87515000Y57060000D01*
X87515000Y57060000D02*
X85715000Y57060000D01*
X96515000Y57060000D02*
X96515000Y56310000D01*
X96515000Y56310000D02*
X98315000Y56310000D01*
X98315000Y56310000D02*
X98315000Y57060000D01*
X98315000Y57060000D02*
X96515000Y57060000D01*
X85715000Y54810000D02*
X86465000Y54810000D01*
X86465000Y54810000D02*
X86465000Y51860000D01*
X86465000Y51860000D02*
X92015000Y51860000D01*
X98315000Y54810000D02*
X97565000Y54810000D01*
X97565000Y54810000D02*
X97565000Y51860000D01*
X97565000Y51860000D02*
X92015000Y51860000D01*
X87915000Y57360000D02*
X85415000Y57360000D01*
X85415000Y57360000D02*
X85415000Y54860000D01*
X85715000Y48170000D02*
X85715000Y42220000D01*
X85715000Y42220000D02*
X98315000Y42220000D01*
X98315000Y42220000D02*
X98315000Y48170000D01*
X98315000Y48170000D02*
X85715000Y48170000D01*
X89015000Y48170000D02*
X89015000Y47420000D01*
X89015000Y47420000D02*
X95015000Y47420000D01*
X95015000Y47420000D02*
X95015000Y48170000D01*
X95015000Y48170000D02*
X89015000Y48170000D01*
X85715000Y48170000D02*
X85715000Y47420000D01*
X85715000Y47420000D02*
X87515000Y47420000D01*
X87515000Y47420000D02*
X87515000Y48170000D01*
X87515000Y48170000D02*
X85715000Y48170000D01*
X96515000Y48170000D02*
X96515000Y47420000D01*
X96515000Y47420000D02*
X98315000Y47420000D01*
X98315000Y47420000D02*
X98315000Y48170000D01*
X98315000Y48170000D02*
X96515000Y48170000D01*
X85715000Y45920000D02*
X86465000Y45920000D01*
X86465000Y45920000D02*
X86465000Y42970000D01*
X86465000Y42970000D02*
X92015000Y42970000D01*
X98315000Y45920000D02*
X97565000Y45920000D01*
X97565000Y45920000D02*
X97565000Y42970000D01*
X97565000Y42970000D02*
X92015000Y42970000D01*
X87915000Y48470000D02*
X85415000Y48470000D01*
X85415000Y48470000D02*
X85415000Y45970000D01*
X83550000Y82750000D02*
X81550000Y82750000D01*
X81550000Y84890000D02*
X83550000Y84890000D01*
X83550000Y85925000D02*
X81550000Y85925000D01*
X81550000Y88065000D02*
X83550000Y88065000D01*
X88145000Y89155000D02*
X88145000Y87655000D01*
X88145000Y87655000D02*
X89955000Y87655000D01*
X89955000Y87655000D02*
X89955000Y82530000D01*
X98545000Y89155000D02*
X98545000Y87655000D01*
X98545000Y87655000D02*
X96735000Y87655000D01*
X96735000Y87655000D02*
X96735000Y86555000D01*
D13*
X0Y1270000D02*
X0Y99060000D01*
X0Y99060000D02*
X63500000Y99060000D01*
X63500000Y99060000D02*
X63500000Y1270000D01*
X63500000Y1270000D02*
X0Y1270000D01*
D10*
X64822381Y94476667D02*
X65536667Y94476667D01*
X65679524Y94429047D01*
X65774762Y94333809D01*
X65822381Y94190952D01*
X65822381Y94095714D01*
X64917619Y94905238D02*
X64870000Y94952857D01*
X64822381Y95048095D01*
X64822381Y95286191D01*
X64870000Y95381429D01*
X64917619Y95429048D01*
X65012857Y95476667D01*
X65108095Y95476667D01*
X65250952Y95429048D01*
X65822381Y94857619D01*
X65822381Y95476667D01*
X77303334Y97432857D02*
X77255715Y97385238D01*
X77112858Y97337619D01*
X77017620Y97337619D01*
X76874762Y97385238D01*
X76779524Y97480476D01*
X76731905Y97575714D01*
X76684286Y97766190D01*
X76684286Y97909048D01*
X76731905Y98099524D01*
X76779524Y98194762D01*
X76874762Y98290000D01*
X77017620Y98337619D01*
X77112858Y98337619D01*
X77255715Y98290000D01*
X77303334Y98242381D01*
X78255715Y97337619D02*
X77684286Y97337619D01*
X77970000Y97337619D02*
X77970000Y98337619D01*
X77874762Y98194762D01*
X77779524Y98099524D01*
X77684286Y98051905D01*
X77303334Y89812857D02*
X77255715Y89765238D01*
X77112858Y89717619D01*
X77017620Y89717619D01*
X76874762Y89765238D01*
X76779524Y89860476D01*
X76731905Y89955714D01*
X76684286Y90146190D01*
X76684286Y90289048D01*
X76731905Y90479524D01*
X76779524Y90574762D01*
X76874762Y90670000D01*
X77017620Y90717619D01*
X77112858Y90717619D01*
X77255715Y90670000D01*
X77303334Y90622381D01*
X77636667Y90717619D02*
X78255715Y90717619D01*
X77922381Y90336667D01*
X78065239Y90336667D01*
X78160477Y90289048D01*
X78208096Y90241429D01*
X78255715Y90146190D01*
X78255715Y89908095D01*
X78208096Y89812857D01*
X78160477Y89765238D01*
X78065239Y89717619D01*
X77779524Y89717619D01*
X77684286Y89765238D01*
X77636667Y89812857D01*
X76731905Y93527619D02*
X76731905Y94527619D01*
X76970000Y94527619D01*
X77112858Y94480000D01*
X77208096Y94384762D01*
X77255715Y94289524D01*
X77303334Y94099048D01*
X77303334Y93956190D01*
X77255715Y93765714D01*
X77208096Y93670476D01*
X77112858Y93575238D01*
X76970000Y93527619D01*
X76731905Y93527619D01*
X78255715Y93527619D02*
X77684286Y93527619D01*
X77970000Y93527619D02*
X77970000Y94527619D01*
X77874762Y94384762D01*
X77779524Y94289524D01*
X77684286Y94241905D01*
X91741667Y8802619D02*
X91741667Y8088333D01*
X91694047Y7945476D01*
X91598809Y7850238D01*
X91455952Y7802619D01*
X91360714Y7802619D01*
X92741667Y7802619D02*
X92170238Y7802619D01*
X92455952Y7802619D02*
X92455952Y8802619D01*
X92360714Y8659762D01*
X92265476Y8564524D01*
X92170238Y8516905D01*
X91741667Y17692619D02*
X91741667Y16978333D01*
X91694047Y16835476D01*
X91598809Y16740238D01*
X91455952Y16692619D01*
X91360714Y16692619D01*
X92122619Y17692619D02*
X92741667Y17692619D01*
X92408333Y17311667D01*
X92551191Y17311667D01*
X92646429Y17264048D01*
X92694048Y17216429D01*
X92741667Y17121190D01*
X92741667Y16883095D01*
X92694048Y16787857D01*
X92646429Y16740238D01*
X92551191Y16692619D01*
X92265476Y16692619D01*
X92170238Y16740238D01*
X92122619Y16787857D01*
X91681667Y26582619D02*
X91681667Y25868333D01*
X91634047Y25725476D01*
X91538809Y25630238D01*
X91395952Y25582619D01*
X91300714Y25582619D01*
X92586429Y26249286D02*
X92586429Y25582619D01*
X92348333Y26630238D02*
X92110238Y25915952D01*
X92729286Y25915952D01*
X91741667Y35472619D02*
X91741667Y34758333D01*
X91694047Y34615476D01*
X91598809Y34520238D01*
X91455952Y34472619D01*
X91360714Y34472619D01*
X92694048Y35472619D02*
X92217857Y35472619D01*
X92170238Y34996429D01*
X92217857Y35044048D01*
X92313095Y35091667D01*
X92551191Y35091667D01*
X92646429Y35044048D01*
X92694048Y34996429D01*
X92741667Y34901190D01*
X92741667Y34663095D01*
X92694048Y34567857D01*
X92646429Y34520238D01*
X92551191Y34472619D01*
X92313095Y34472619D01*
X92217857Y34520238D01*
X92170238Y34567857D01*
X73326667Y58332619D02*
X73326667Y57618333D01*
X73279047Y57475476D01*
X73183809Y57380238D01*
X73040952Y57332619D01*
X72945714Y57332619D01*
X74231429Y58332619D02*
X74040952Y58332619D01*
X73945714Y58285000D01*
X73898095Y58237381D01*
X73802857Y58094524D01*
X73755238Y57904048D01*
X73755238Y57523095D01*
X73802857Y57427857D01*
X73850476Y57380238D01*
X73945714Y57332619D01*
X74136191Y57332619D01*
X74231429Y57380238D01*
X74279048Y57427857D01*
X74326667Y57523095D01*
X74326667Y57761190D01*
X74279048Y57856429D01*
X74231429Y57904048D01*
X74136191Y57951667D01*
X73945714Y57951667D01*
X73850476Y57904048D01*
X73802857Y57856429D01*
X73755238Y57761190D01*
X73326667Y67222619D02*
X73326667Y66508333D01*
X73279047Y66365476D01*
X73183809Y66270238D01*
X73040952Y66222619D01*
X72945714Y66222619D01*
X73707619Y67222619D02*
X74374286Y67222619D01*
X73945714Y66222619D01*
X73326667Y76112619D02*
X73326667Y75398333D01*
X73279047Y75255476D01*
X73183809Y75160238D01*
X73040952Y75112619D01*
X72945714Y75112619D01*
X73945714Y75684048D02*
X73850476Y75731667D01*
X73802857Y75779286D01*
X73755238Y75874524D01*
X73755238Y75922143D01*
X73802857Y76017381D01*
X73850476Y76065000D01*
X73945714Y76112619D01*
X74136191Y76112619D01*
X74231429Y76065000D01*
X74279048Y76017381D01*
X74326667Y75922143D01*
X74326667Y75874524D01*
X74279048Y75779286D01*
X74231429Y75731667D01*
X74136191Y75684048D01*
X73945714Y75684048D01*
X73850476Y75636429D01*
X73802857Y75588810D01*
X73755238Y75493571D01*
X73755238Y75303095D01*
X73802857Y75207857D01*
X73850476Y75160238D01*
X73945714Y75112619D01*
X74136191Y75112619D01*
X74231429Y75160238D01*
X74279048Y75207857D01*
X74326667Y75303095D01*
X74326667Y75493571D01*
X74279048Y75588810D01*
X74231429Y75636429D01*
X74136191Y75684048D01*
X73326667Y8802619D02*
X73326667Y8088333D01*
X73279047Y7945476D01*
X73183809Y7850238D01*
X73040952Y7802619D01*
X72945714Y7802619D01*
X73850476Y7802619D02*
X74040952Y7802619D01*
X74136191Y7850238D01*
X74183810Y7897857D01*
X74279048Y8040714D01*
X74326667Y8231190D01*
X74326667Y8612143D01*
X74279048Y8707381D01*
X74231429Y8755000D01*
X74136191Y8802619D01*
X73945714Y8802619D01*
X73850476Y8755000D01*
X73802857Y8707381D01*
X73755238Y8612143D01*
X73755238Y8374048D01*
X73802857Y8278810D01*
X73850476Y8231190D01*
X73945714Y8183571D01*
X74136191Y8183571D01*
X74231429Y8231190D01*
X74279048Y8278810D01*
X74326667Y8374048D01*
X72850477Y17692619D02*
X72850477Y16978333D01*
X72802857Y16835476D01*
X72707619Y16740238D01*
X72564762Y16692619D01*
X72469524Y16692619D01*
X73850477Y16692619D02*
X73279048Y16692619D01*
X73564762Y16692619D02*
X73564762Y17692619D01*
X73469524Y17549762D01*
X73374286Y17454524D01*
X73279048Y17406905D01*
X74469524Y17692619D02*
X74564763Y17692619D01*
X74660001Y17645000D01*
X74707620Y17597381D01*
X74755239Y17502143D01*
X74802858Y17311667D01*
X74802858Y17073571D01*
X74755239Y16883095D01*
X74707620Y16787857D01*
X74660001Y16740238D01*
X74564763Y16692619D01*
X74469524Y16692619D01*
X74374286Y16740238D01*
X74326667Y16787857D01*
X74279048Y16883095D01*
X74231429Y17073571D01*
X74231429Y17311667D01*
X74279048Y17502143D01*
X74326667Y17597381D01*
X74374286Y17645000D01*
X74469524Y17692619D01*
X72850477Y26582619D02*
X72850477Y25868333D01*
X72802857Y25725476D01*
X72707619Y25630238D01*
X72564762Y25582619D01*
X72469524Y25582619D01*
X73850477Y25582619D02*
X73279048Y25582619D01*
X73564762Y25582619D02*
X73564762Y26582619D01*
X73469524Y26439762D01*
X73374286Y26344524D01*
X73279048Y26296905D01*
X74802858Y25582619D02*
X74231429Y25582619D01*
X74517143Y25582619D02*
X74517143Y26582619D01*
X74421905Y26439762D01*
X74326667Y26344524D01*
X74231429Y26296905D01*
X72850477Y35472619D02*
X72850477Y34758333D01*
X72802857Y34615476D01*
X72707619Y34520238D01*
X72564762Y34472619D01*
X72469524Y34472619D01*
X73850477Y34472619D02*
X73279048Y34472619D01*
X73564762Y34472619D02*
X73564762Y35472619D01*
X73469524Y35329762D01*
X73374286Y35234524D01*
X73279048Y35186905D01*
X74231429Y35377381D02*
X74279048Y35425000D01*
X74374286Y35472619D01*
X74612382Y35472619D01*
X74707620Y35425000D01*
X74755239Y35377381D01*
X74802858Y35282143D01*
X74802858Y35186905D01*
X74755239Y35044048D01*
X74183810Y34472619D01*
X74802858Y34472619D01*
X91265477Y76112619D02*
X91265477Y75398333D01*
X91217857Y75255476D01*
X91122619Y75160238D01*
X90979762Y75112619D01*
X90884524Y75112619D01*
X92265477Y75112619D02*
X91694048Y75112619D01*
X91979762Y75112619D02*
X91979762Y76112619D01*
X91884524Y75969762D01*
X91789286Y75874524D01*
X91694048Y75826905D01*
X92598810Y76112619D02*
X93217858Y76112619D01*
X92884524Y75731667D01*
X93027382Y75731667D01*
X93122620Y75684048D01*
X93170239Y75636429D01*
X93217858Y75541190D01*
X93217858Y75303095D01*
X93170239Y75207857D01*
X93122620Y75160238D01*
X93027382Y75112619D01*
X92741667Y75112619D01*
X92646429Y75160238D01*
X92598810Y75207857D01*
X91265477Y67222619D02*
X91265477Y66508333D01*
X91217857Y66365476D01*
X91122619Y66270238D01*
X90979762Y66222619D01*
X90884524Y66222619D01*
X92265477Y66222619D02*
X91694048Y66222619D01*
X91979762Y66222619D02*
X91979762Y67222619D01*
X91884524Y67079762D01*
X91789286Y66984524D01*
X91694048Y66936905D01*
X93122620Y66889286D02*
X93122620Y66222619D01*
X92884524Y67270238D02*
X92646429Y66555952D01*
X93265477Y66555952D01*
X91265477Y58332619D02*
X91265477Y57618333D01*
X91217857Y57475476D01*
X91122619Y57380238D01*
X90979762Y57332619D01*
X90884524Y57332619D01*
X92265477Y57332619D02*
X91694048Y57332619D01*
X91979762Y57332619D02*
X91979762Y58332619D01*
X91884524Y58189762D01*
X91789286Y58094524D01*
X91694048Y58046905D01*
X93170239Y58332619D02*
X92694048Y58332619D01*
X92646429Y57856429D01*
X92694048Y57904048D01*
X92789286Y57951667D01*
X93027382Y57951667D01*
X93122620Y57904048D01*
X93170239Y57856429D01*
X93217858Y57761190D01*
X93217858Y57523095D01*
X93170239Y57427857D01*
X93122620Y57380238D01*
X93027382Y57332619D01*
X92789286Y57332619D01*
X92694048Y57380238D01*
X92646429Y57427857D01*
X91265477Y49442619D02*
X91265477Y48728333D01*
X91217857Y48585476D01*
X91122619Y48490238D01*
X90979762Y48442619D01*
X90884524Y48442619D01*
X92265477Y48442619D02*
X91694048Y48442619D01*
X91979762Y48442619D02*
X91979762Y49442619D01*
X91884524Y49299762D01*
X91789286Y49204524D01*
X91694048Y49156905D01*
X93122620Y49442619D02*
X92932143Y49442619D01*
X92836905Y49395000D01*
X92789286Y49347381D01*
X92694048Y49204524D01*
X92646429Y49014048D01*
X92646429Y48633095D01*
X92694048Y48537857D01*
X92741667Y48490238D01*
X92836905Y48442619D01*
X93027382Y48442619D01*
X93122620Y48490238D01*
X93170239Y48537857D01*
X93217858Y48633095D01*
X93217858Y48871190D01*
X93170239Y48966429D01*
X93122620Y49014048D01*
X93027382Y49061667D01*
X92836905Y49061667D01*
X92741667Y49014048D01*
X92694048Y48966429D01*
X92646429Y48871190D01*
X77303334Y83367619D02*
X76970000Y83843810D01*
X76731905Y83367619D02*
X76731905Y84367619D01*
X77112858Y84367619D01*
X77208096Y84320000D01*
X77255715Y84272381D01*
X77303334Y84177143D01*
X77303334Y84034286D01*
X77255715Y83939048D01*
X77208096Y83891429D01*
X77112858Y83843810D01*
X76731905Y83843810D01*
X78255715Y83367619D02*
X77684286Y83367619D01*
X77970000Y83367619D02*
X77970000Y84367619D01*
X77874762Y84224762D01*
X77779524Y84129524D01*
X77684286Y84081905D01*
X77303334Y86542619D02*
X76970000Y87018810D01*
X76731905Y86542619D02*
X76731905Y87542619D01*
X77112858Y87542619D01*
X77208096Y87495000D01*
X77255715Y87447381D01*
X77303334Y87352143D01*
X77303334Y87209286D01*
X77255715Y87114048D01*
X77208096Y87066429D01*
X77112858Y87018810D01*
X76731905Y87018810D01*
X77684286Y87447381D02*
X77731905Y87495000D01*
X77827143Y87542619D01*
X78065239Y87542619D01*
X78160477Y87495000D01*
X78208096Y87447381D01*
X78255715Y87352143D01*
X78255715Y87256905D01*
X78208096Y87114048D01*
X77636667Y86542619D01*
X78255715Y86542619D01*
X97877381Y82423095D02*
X98686905Y82423095D01*
X98782143Y82470714D01*
X98829762Y82518333D01*
X98877381Y82613571D01*
X98877381Y82804048D01*
X98829762Y82899286D01*
X98782143Y82946905D01*
X98686905Y82994524D01*
X97877381Y82994524D01*
X97972619Y83423095D02*
X97925000Y83470714D01*
X97877381Y83565952D01*
X97877381Y83804048D01*
X97925000Y83899286D01*
X97972619Y83946905D01*
X98067857Y83994524D01*
X98163095Y83994524D01*
X98305952Y83946905D01*
X98877381Y83375476D01*
X98877381Y83994524D01*
X30516286Y36140571D02*
X30516286Y37664571D01*
X31024286Y36576000D01*
X31532286Y37664571D01*
X31532286Y36140571D01*
X33056286Y36140571D02*
X32185429Y36140571D01*
X32620857Y36140571D02*
X32620857Y37664571D01*
X32475714Y37446857D01*
X32330572Y37301714D01*
X32185429Y37229143D01*
%LPC*%
D14*
X71120000Y86360000D03*
X71120000Y92360000D03*
X66420000Y89360000D03*
D15*
X84550000Y97790000D03*
X80550000Y97790000D03*
X84550000Y90170000D03*
X80550000Y90170000D03*
D16*
X84550000Y93980000D03*
X80550000Y93980000D03*
D17*
X88265000Y5080000D03*
D18*
X90765000Y5080000D03*
X93265000Y5080000D03*
X95765000Y5080000D03*
D17*
X88265000Y13970000D03*
D18*
X90765000Y13970000D03*
X93265000Y13970000D03*
X95765000Y13970000D03*
D17*
X88265000Y22860000D03*
D18*
X90765000Y22860000D03*
X93265000Y22860000D03*
X95765000Y22860000D03*
D17*
X88265000Y31750000D03*
D18*
X90765000Y31750000D03*
X93265000Y31750000D03*
X95765000Y31750000D03*
D17*
X69850000Y54610000D03*
D18*
X72350000Y54610000D03*
X74850000Y54610000D03*
X77350000Y54610000D03*
D17*
X69850000Y63500000D03*
D18*
X72350000Y63500000D03*
X74850000Y63500000D03*
X77350000Y63500000D03*
D17*
X69850000Y72390000D03*
D18*
X72350000Y72390000D03*
X74850000Y72390000D03*
X77350000Y72390000D03*
D17*
X69850000Y5080000D03*
D18*
X72350000Y5080000D03*
X74850000Y5080000D03*
X77350000Y5080000D03*
D17*
X69850000Y13970000D03*
D18*
X72350000Y13970000D03*
X74850000Y13970000D03*
X77350000Y13970000D03*
D17*
X69850000Y22860000D03*
D18*
X72350000Y22860000D03*
X74850000Y22860000D03*
X77350000Y22860000D03*
D17*
X69850000Y31750000D03*
D18*
X72350000Y31750000D03*
X74850000Y31750000D03*
X77350000Y31750000D03*
D17*
X88265000Y72390000D03*
D18*
X90765000Y72390000D03*
X93265000Y72390000D03*
X95765000Y72390000D03*
D17*
X88265000Y63500000D03*
D18*
X90765000Y63500000D03*
X93265000Y63500000D03*
X95765000Y63500000D03*
D17*
X88265000Y54610000D03*
D18*
X90765000Y54610000D03*
X93265000Y54610000D03*
X95765000Y54610000D03*
D17*
X88265000Y45720000D03*
D18*
X90765000Y45720000D03*
X93265000Y45720000D03*
X95765000Y45720000D03*
D19*
X80550000Y83820000D03*
X84550000Y83820000D03*
X80550000Y86995000D03*
X84550000Y86995000D03*
D20*
X90805000Y84830000D03*
X95885000Y84830000D03*
D21*
X93345000Y93980000D03*
D22*
X5080000Y64770000D03*
D23*
X5080000Y62230000D03*
X5080000Y59690000D03*
X5080000Y57150000D03*
X5080000Y54610000D03*
X5080000Y52070000D03*
X5080000Y49530000D03*
X5080000Y46990000D03*
X5080000Y44450000D03*
X5080000Y41910000D03*
X5080000Y39370000D03*
X5080000Y36830000D03*
X5080000Y34290000D03*
X5080000Y31750000D03*
X5080000Y29210000D03*
X5080000Y26670000D03*
X5080000Y24130000D03*
X5080000Y21590000D03*
X5080000Y19050000D03*
X5080000Y16510000D03*
X5080000Y13970000D03*
X5080000Y11430000D03*
X5080000Y8890000D03*
X5080000Y6350000D03*
X5080000Y3810000D03*
X7620000Y64770000D03*
X7620000Y62230000D03*
X7620000Y59690000D03*
X7620000Y57150000D03*
X7620000Y54610000D03*
X7620000Y52070000D03*
X7620000Y49530000D03*
X7620000Y46990000D03*
X7620000Y44450000D03*
X7620000Y41910000D03*
X7620000Y39370000D03*
X7620000Y36830000D03*
X7620000Y34290000D03*
X7620000Y31750000D03*
X7620000Y29210000D03*
X7620000Y26670000D03*
X7620000Y24130000D03*
X7620000Y21590000D03*
X7620000Y19050000D03*
X7620000Y16510000D03*
X7620000Y13970000D03*
X7620000Y11430000D03*
X7620000Y8890000D03*
X7620000Y6350000D03*
X7620000Y3810000D03*
D22*
X55880000Y64770000D03*
D23*
X55880000Y62230000D03*
X55880000Y59690000D03*
X55880000Y57150000D03*
X55880000Y54610000D03*
X55880000Y52070000D03*
X55880000Y49530000D03*
X55880000Y46990000D03*
X55880000Y44450000D03*
X55880000Y41910000D03*
X55880000Y39370000D03*
X55880000Y36830000D03*
X55880000Y34290000D03*
X55880000Y31750000D03*
X55880000Y29210000D03*
X55880000Y26670000D03*
X55880000Y24130000D03*
X55880000Y21590000D03*
X55880000Y19050000D03*
X55880000Y16510000D03*
X55880000Y13970000D03*
X55880000Y11430000D03*
X55880000Y8890000D03*
X55880000Y6350000D03*
X55880000Y3810000D03*
X58420000Y64770000D03*
X58420000Y62230000D03*
X58420000Y59690000D03*
X58420000Y57150000D03*
X58420000Y54610000D03*
X58420000Y52070000D03*
X58420000Y49530000D03*
X58420000Y46990000D03*
X58420000Y44450000D03*
X58420000Y41910000D03*
X58420000Y39370000D03*
X58420000Y36830000D03*
X58420000Y34290000D03*
X58420000Y31750000D03*
X58420000Y29210000D03*
X58420000Y26670000D03*
X58420000Y24130000D03*
X58420000Y21590000D03*
X58420000Y19050000D03*
X58420000Y16510000D03*
X58420000Y13970000D03*
X58420000Y11430000D03*
X58420000Y8890000D03*
X58420000Y6350000D03*
X58420000Y3810000D03*
D22*
X5080000Y95250000D03*
D23*
X5080000Y92710000D03*
D22*
X58420000Y95250000D03*
D23*
X58420000Y92710000D03*
M02*
