G04 #@! TF.FileFunction,Copper,L2,Bot,Signal*
%FSLAX46Y46*%
G04 Gerber Fmt 4.6, Leading zero omitted, Abs format (unit mm)*
G04 Created by KiCad (PCBNEW 4.0.7) date Thu Oct  5 08:26:23 2017*
%MOMM*%
%LPD*%
G01*
G04 APERTURE LIST*
%ADD10C,0.100000*%
%ADD11C,2.000000*%
%ADD12R,1.750000X1.750000*%
%ADD13C,1.750000*%
%ADD14O,1.250000X0.950000*%
%ADD15O,1.000000X1.550000*%
%ADD16R,1.300000X1.500000*%
%ADD17R,3.500000X3.500000*%
%ADD18R,1.700000X1.700000*%
%ADD19O,1.700000X1.700000*%
%ADD20R,1.600000X1.000000*%
%ADD21C,0.600000*%
%ADD22C,0.254000*%
G04 APERTURE END LIST*
D10*
D11*
X163045000Y-113030000D03*
X163045000Y-108530000D03*
X169545000Y-113030000D03*
X169545000Y-108530000D03*
X152250000Y-113030000D03*
X152250000Y-108530000D03*
X158750000Y-113030000D03*
X158750000Y-108530000D03*
D12*
X110490000Y-90297000D03*
D13*
X110490000Y-92797000D03*
X110490000Y-95297000D03*
X110490000Y-97797000D03*
D12*
X110490000Y-106419000D03*
D13*
X110490000Y-108919000D03*
X110490000Y-111419000D03*
X110490000Y-113919000D03*
D12*
X189865000Y-81915000D03*
D13*
X189865000Y-79415000D03*
X189865000Y-76915000D03*
X189865000Y-74415000D03*
D12*
X189865000Y-98171000D03*
D13*
X189865000Y-95671000D03*
X189865000Y-93171000D03*
X189865000Y-90671000D03*
D12*
X189865000Y-114427000D03*
D13*
X189865000Y-111927000D03*
X189865000Y-109427000D03*
X189865000Y-106927000D03*
D12*
X189865000Y-130683000D03*
D13*
X189865000Y-128183000D03*
X189865000Y-125683000D03*
X189865000Y-123183000D03*
D12*
X122555000Y-120650000D03*
D13*
X125055000Y-120650000D03*
X127555000Y-120650000D03*
X130055000Y-120650000D03*
D12*
X138430000Y-120650000D03*
D13*
X140930000Y-120650000D03*
X143430000Y-120650000D03*
X145930000Y-120650000D03*
D12*
X154305000Y-120650000D03*
D13*
X156805000Y-120650000D03*
X159305000Y-120650000D03*
X161805000Y-120650000D03*
D12*
X170180000Y-120650000D03*
D13*
X172680000Y-120650000D03*
X175180000Y-120650000D03*
X177680000Y-120650000D03*
D12*
X110490000Y-74295000D03*
D13*
X110490000Y-76795000D03*
X110490000Y-79295000D03*
X110490000Y-81795000D03*
D12*
X110490000Y-122675000D03*
D13*
X110490000Y-125175000D03*
X110490000Y-127675000D03*
X110490000Y-130175000D03*
D14*
X164100000Y-73820000D03*
X159100000Y-73820000D03*
D15*
X165100000Y-71120000D03*
X158100000Y-71120000D03*
D11*
X173840000Y-113085000D03*
X173840000Y-108585000D03*
X180340000Y-113085000D03*
X180340000Y-108585000D03*
D12*
X130175000Y-82550000D03*
D13*
X127675000Y-82550000D03*
X125175000Y-82550000D03*
X122675000Y-82550000D03*
D16*
X131445000Y-97255000D03*
X131445000Y-99955000D03*
D17*
X177165000Y-82200000D03*
X177165000Y-76200000D03*
X172465000Y-79200000D03*
D18*
X137795000Y-83185000D03*
D19*
X140335000Y-83185000D03*
X142875000Y-83185000D03*
X145415000Y-83185000D03*
X147955000Y-83185000D03*
X150495000Y-83185000D03*
D20*
X137795000Y-100155000D03*
X137795000Y-97155000D03*
X137795000Y-91615000D03*
X137795000Y-94615000D03*
X140970000Y-100155000D03*
X140970000Y-97155000D03*
X134620000Y-100155000D03*
X134620000Y-97155000D03*
X144145000Y-100155000D03*
X144145000Y-97155000D03*
X128270000Y-97155000D03*
X128270000Y-100155000D03*
X128270000Y-94615000D03*
X128270000Y-91615000D03*
X131445000Y-91615000D03*
X131445000Y-94615000D03*
X140970000Y-91615000D03*
X140970000Y-94615000D03*
X134620000Y-91615000D03*
X134620000Y-94615000D03*
D21*
X118745000Y-100965000D03*
X127635000Y-98425000D03*
X162560000Y-97155000D03*
X134620000Y-93472000D03*
X133604000Y-98552000D03*
X172085000Y-102870000D03*
X131064000Y-92964000D03*
X132080000Y-92964000D03*
X138684000Y-92964000D03*
X130048000Y-97536000D03*
X133096000Y-100584000D03*
X139700000Y-101600000D03*
X133350000Y-86360000D03*
X133985000Y-86995000D03*
X183515000Y-97790000D03*
X152400000Y-98425000D03*
X127000000Y-104140000D03*
X125730000Y-104775000D03*
X138430000Y-104140000D03*
X152400000Y-102870000D03*
X137795000Y-104775000D03*
X125095000Y-103505000D03*
X124460000Y-102235000D03*
X132715000Y-105410000D03*
X132080000Y-104775000D03*
X134470016Y-106052990D03*
X133350000Y-106045000D03*
X135890000Y-105410000D03*
X135255000Y-106680000D03*
X137160000Y-105410000D03*
X136525000Y-106045000D03*
X120015000Y-87630000D03*
X131445000Y-88900000D03*
X143510000Y-89535000D03*
X121285000Y-87630000D03*
X130810000Y-89535000D03*
X144145000Y-90170000D03*
X144145000Y-95250000D03*
X164465000Y-87630000D03*
X143510000Y-93345000D03*
X148590000Y-90170000D03*
X154940000Y-87630000D03*
X153670000Y-88265000D03*
X158115000Y-104775000D03*
X132715000Y-87630000D03*
X154940000Y-104775000D03*
X156845000Y-104775000D03*
X130048000Y-93472000D03*
X153035000Y-90805000D03*
X137160000Y-88265000D03*
X139065000Y-99060000D03*
X142240000Y-92710000D03*
X136514430Y-96516964D03*
X153035000Y-96520000D03*
X147955000Y-88900000D03*
X134620000Y-88900000D03*
X125095000Y-97155000D03*
X125730000Y-96520000D03*
X135890000Y-85725000D03*
X159385000Y-88265000D03*
X142270002Y-94615000D03*
X160020000Y-87630000D03*
X142875000Y-95250000D03*
D22*
X127635000Y-98425000D02*
X127635000Y-99520000D01*
X127635000Y-99520000D02*
X128270000Y-100155000D01*
X149225000Y-97155000D02*
X162560000Y-97155000D01*
X149225000Y-97155000D02*
X149352000Y-97155000D01*
X144145000Y-97155000D02*
X149225000Y-97155000D01*
X128270000Y-92621962D02*
X128270000Y-91615000D01*
X131445000Y-94615000D02*
X130263038Y-94615000D01*
X130263038Y-94615000D02*
X128270000Y-92621962D01*
X128270000Y-100155000D02*
X128570000Y-100155000D01*
X126365000Y-98250000D02*
X128270000Y-100155000D01*
X128270000Y-91615000D02*
X127970000Y-91615000D01*
X127970000Y-91615000D02*
X126365000Y-93220000D01*
X126365000Y-93220000D02*
X126365000Y-98250000D01*
X126365000Y-98250000D02*
X127948967Y-99833967D01*
X133604000Y-98552000D02*
X133604000Y-98171000D01*
X133604000Y-98171000D02*
X134620000Y-97155000D01*
X137795000Y-97155000D02*
X140970000Y-97155000D01*
X134620000Y-97155000D02*
X137795000Y-97155000D01*
X144145000Y-97155000D02*
X141724010Y-97155000D01*
X131445000Y-94615000D02*
X134620000Y-94615000D01*
X137795000Y-94615000D02*
X140970000Y-94615000D01*
X134620000Y-93472000D02*
X134620000Y-94615000D01*
X134620000Y-94615000D02*
X134320000Y-94615000D01*
X134620000Y-94615000D02*
X137795000Y-94615000D01*
X161925000Y-104140000D02*
X170815000Y-104140000D01*
X170815000Y-104140000D02*
X172085000Y-102870000D01*
X134620000Y-91615000D02*
X134620000Y-92456000D01*
X134620000Y-91615000D02*
X133937000Y-91615000D01*
X134620000Y-91615000D02*
X134445000Y-91615000D01*
X134620000Y-91615000D02*
X137795000Y-91615000D01*
X144145000Y-100155000D02*
X145199000Y-100155000D01*
X140001999Y-98432999D02*
X135588001Y-98432999D01*
X140970000Y-99401000D02*
X140001999Y-98432999D01*
X134620000Y-99401000D02*
X134620000Y-100155000D01*
X135588001Y-98432999D02*
X134620000Y-99401000D01*
X140970000Y-100155000D02*
X140970000Y-99401000D01*
X131064000Y-92964000D02*
X131064000Y-91996000D01*
X131064000Y-91996000D02*
X131445000Y-91615000D01*
X134112000Y-92964000D02*
X132080000Y-92964000D01*
X134620000Y-92456000D02*
X134112000Y-92964000D01*
X134620000Y-100155000D02*
X134320000Y-100155000D01*
X134320000Y-100155000D02*
X132349000Y-98184000D01*
X132349000Y-98184000D02*
X132349000Y-98159000D01*
X132349000Y-98159000D02*
X131445000Y-97255000D01*
X131445000Y-97255000D02*
X131445000Y-97155000D01*
X137795000Y-91615000D02*
X137795000Y-92075000D01*
X137795000Y-92075000D02*
X138684000Y-92964000D01*
X131112000Y-91948000D02*
X131445000Y-91615000D01*
X130048000Y-97536000D02*
X131064000Y-97536000D01*
X131064000Y-97536000D02*
X131445000Y-97155000D01*
X134620000Y-100155000D02*
X133525000Y-100155000D01*
X133525000Y-100155000D02*
X133096000Y-100584000D01*
X134445000Y-100330000D02*
X134620000Y-100155000D01*
X144145000Y-100155000D02*
X140970000Y-100155000D01*
X139700000Y-101600000D02*
X139700000Y-101425000D01*
X139700000Y-101425000D02*
X140970000Y-100155000D01*
X140970000Y-99925000D02*
X141270000Y-99925000D01*
X134390000Y-99695000D02*
X134620000Y-99925000D01*
X144145000Y-100030000D02*
X144145000Y-100155000D01*
X131445000Y-91615000D02*
X134620000Y-91615000D01*
X146009000Y-100965000D02*
X158750000Y-100965000D01*
X145199000Y-100155000D02*
X146009000Y-100965000D01*
X158750000Y-100965000D02*
X161925000Y-104140000D01*
X133985000Y-86360000D02*
X133350000Y-86360000D01*
X180420000Y-86360000D02*
X189865000Y-76915000D01*
X133985000Y-86360000D02*
X180420000Y-86360000D01*
X182285000Y-86995000D02*
X133985000Y-86995000D01*
X189865000Y-79415000D02*
X182285000Y-86995000D01*
X153035000Y-97790000D02*
X183515000Y-97790000D01*
X153035000Y-97790000D02*
X152400000Y-98425000D01*
X125095000Y-104140000D02*
X127000000Y-104140000D01*
X118110000Y-111125000D02*
X125095000Y-104140000D01*
X120650000Y-125095000D02*
X120015000Y-124460000D01*
X184785000Y-125095000D02*
X120650000Y-125095000D01*
X185420000Y-124460000D02*
X184785000Y-125095000D01*
X118110000Y-122555000D02*
X118110000Y-111125000D01*
X120015000Y-124460000D02*
X118110000Y-122555000D01*
X193040000Y-116840000D02*
X185420000Y-124460000D01*
X193040000Y-96346000D02*
X193040000Y-116840000D01*
X189865000Y-93171000D02*
X193040000Y-96346000D01*
X118745000Y-111760000D02*
X125730000Y-104775000D01*
X118745000Y-116840000D02*
X118745000Y-111760000D01*
X118745000Y-116840000D02*
X118745000Y-121920000D01*
X118745000Y-121920000D02*
X121285000Y-124460000D01*
X121285000Y-124460000D02*
X184150000Y-124460000D01*
X184150000Y-124460000D02*
X192405000Y-116205000D01*
X192405000Y-116205000D02*
X192405000Y-98211000D01*
X192405000Y-98211000D02*
X189865000Y-95671000D01*
X138430000Y-104775000D02*
X138430000Y-104140000D01*
X138430000Y-107950000D02*
X138430000Y-104775000D01*
X138430000Y-104775000D02*
X150495000Y-104775000D01*
X150495000Y-104775000D02*
X152400000Y-102870000D01*
X151130000Y-104140000D02*
X152400000Y-102870000D01*
X138430000Y-107950000D02*
X146050000Y-115570000D01*
X146050000Y-115570000D02*
X183722000Y-115570000D01*
X183722000Y-115570000D02*
X189865000Y-109427000D01*
X137795000Y-108585000D02*
X137795000Y-104775000D01*
X137795000Y-108585000D02*
X145415000Y-116205000D01*
X145415000Y-116205000D02*
X185587000Y-116205000D01*
X185587000Y-116205000D02*
X189865000Y-111927000D01*
X124460000Y-103505000D02*
X125095000Y-103505000D01*
X117475000Y-110490000D02*
X124460000Y-103505000D01*
X117475000Y-123190000D02*
X117475000Y-110490000D01*
X189865000Y-125683000D02*
X119968000Y-125683000D01*
X119968000Y-125683000D02*
X117475000Y-123190000D01*
X123190000Y-103505000D02*
X124460000Y-102235000D01*
X116840000Y-109855000D02*
X123190000Y-103505000D01*
X116840000Y-123825000D02*
X116840000Y-109855000D01*
X119380000Y-126365000D02*
X116840000Y-123825000D01*
X189865000Y-128183000D02*
X188047000Y-126365000D01*
X188047000Y-126365000D02*
X119380000Y-126365000D01*
X132715000Y-105410000D02*
X132715000Y-115490000D01*
X132715000Y-115490000D02*
X127555000Y-120650000D01*
X132080000Y-104775000D02*
X132080000Y-113625000D01*
X132080000Y-113625000D02*
X125055000Y-120650000D01*
X134470016Y-111690016D02*
X134470016Y-106052990D01*
X143430000Y-120650000D02*
X134470016Y-111690016D01*
X133350000Y-106045000D02*
X133350000Y-113070000D01*
X133350000Y-113070000D02*
X140930000Y-120650000D01*
X143510000Y-118110000D02*
X156765000Y-118110000D01*
X135896989Y-110496989D02*
X143510000Y-118110000D01*
X135896989Y-105841253D02*
X135896989Y-110496989D01*
X135890000Y-105410000D02*
X135890000Y-105834264D01*
X135890000Y-105834264D02*
X135896989Y-105841253D01*
X156765000Y-118110000D02*
X159305000Y-120650000D01*
X135269987Y-111139987D02*
X135269987Y-106694987D01*
X135269987Y-106694987D02*
X135255000Y-106680000D01*
X142875000Y-118745000D02*
X135269987Y-111139987D01*
X154900000Y-118745000D02*
X142875000Y-118745000D01*
X156805000Y-120650000D02*
X154900000Y-118745000D01*
X175180000Y-120650000D02*
X175180000Y-119300000D01*
X175180000Y-119300000D02*
X172720000Y-116840000D01*
X172720000Y-116840000D02*
X144780000Y-116840000D01*
X144780000Y-116840000D02*
X137160000Y-109220000D01*
X137160000Y-109220000D02*
X137160000Y-105410000D01*
X136525000Y-106045000D02*
X136525000Y-109855000D01*
X144145000Y-117475000D02*
X169505000Y-117475000D01*
X136525000Y-109855000D02*
X144145000Y-117475000D01*
X169505000Y-117475000D02*
X172680000Y-120650000D01*
X143510000Y-89535000D02*
X132080000Y-89535000D01*
X132080000Y-89535000D02*
X131445000Y-88900000D01*
X116205000Y-83820000D02*
X120015000Y-87630000D01*
X113665000Y-83820000D02*
X113665000Y-101600000D01*
X113665000Y-82470000D02*
X113665000Y-83820000D01*
X113665000Y-83820000D02*
X116205000Y-83820000D01*
X113665000Y-98472000D02*
X113665000Y-101600000D01*
X113665000Y-101600000D02*
X113665000Y-115570000D01*
X113665000Y-115570000D02*
X113665000Y-124500000D01*
X110490000Y-111419000D02*
X113665000Y-114594000D01*
X113665000Y-114594000D02*
X113665000Y-115570000D01*
X110490000Y-95297000D02*
X113665000Y-98472000D01*
X110490000Y-79295000D02*
X113665000Y-82470000D01*
X113665000Y-124500000D02*
X110490000Y-127675000D01*
X121285000Y-87630000D02*
X110490000Y-76835000D01*
X110490000Y-76835000D02*
X110490000Y-76795000D01*
X131445000Y-90170000D02*
X130810000Y-89535000D01*
X144145000Y-90170000D02*
X131445000Y-90170000D01*
X107315000Y-104775000D02*
X107315000Y-122000000D01*
X107315000Y-89535000D02*
X107315000Y-104775000D01*
X107315000Y-104775000D02*
X107315000Y-105744000D01*
X107315000Y-105744000D02*
X110490000Y-108919000D01*
X107315000Y-79970000D02*
X107315000Y-89535000D01*
X107315000Y-89535000D02*
X107315000Y-89622000D01*
X107315000Y-89622000D02*
X110490000Y-92797000D01*
X107315000Y-122000000D02*
X110490000Y-125175000D01*
X110490000Y-76795000D02*
X107315000Y-79970000D01*
X161290000Y-95250000D02*
X144145000Y-95250000D01*
X164465000Y-92075000D02*
X161290000Y-95250000D01*
X164465000Y-87630000D02*
X164465000Y-92075000D01*
X148844000Y-93525989D02*
X143690989Y-93525989D01*
X143690989Y-93525989D02*
X143510000Y-93345000D01*
X148844000Y-93525989D02*
X148590000Y-93271989D01*
X148590000Y-93271989D02*
X148590000Y-90170000D01*
X153362011Y-93525989D02*
X148844000Y-93525989D01*
X154940000Y-87630000D02*
X154940000Y-91948000D01*
X154940000Y-91948000D02*
X153362011Y-93525989D01*
X170030000Y-104775000D02*
X158115000Y-104775000D01*
X173840000Y-108585000D02*
X170030000Y-104775000D01*
X173840000Y-108585000D02*
X180340000Y-108585000D01*
X153035000Y-87630000D02*
X153670000Y-88265000D01*
X132715000Y-87630000D02*
X153035000Y-87630000D01*
X154940000Y-108530000D02*
X158750000Y-108530000D01*
X154940000Y-108530000D02*
X154940000Y-104775000D01*
X152250000Y-108530000D02*
X154940000Y-108530000D01*
X152400000Y-107745000D02*
X152250000Y-107895000D01*
X159925000Y-105410000D02*
X157480000Y-105410000D01*
X157480000Y-105410000D02*
X156845000Y-104775000D01*
X163045000Y-108530000D02*
X159925000Y-105410000D01*
X163045000Y-108530000D02*
X169545000Y-108530000D01*
X130048000Y-93472000D02*
X130048000Y-87122000D01*
X130048000Y-87122000D02*
X132080000Y-85090000D01*
X132080000Y-85090000D02*
X146050000Y-85090000D01*
X146050000Y-85090000D02*
X147955000Y-83185000D01*
X153035000Y-90805000D02*
X153035000Y-88900000D01*
X152400000Y-88265000D02*
X153035000Y-88900000D01*
X137160000Y-88265000D02*
X152400000Y-88265000D01*
X139065000Y-99060000D02*
X138890000Y-99060000D01*
X138890000Y-99060000D02*
X137795000Y-100155000D01*
X137366000Y-100584000D02*
X137795000Y-100155000D01*
X142240000Y-92710000D02*
X142240000Y-91831000D01*
X142240000Y-91831000D02*
X142024000Y-91615000D01*
X142024000Y-91615000D02*
X140970000Y-91615000D01*
X152400000Y-95885000D02*
X137146394Y-95885000D01*
X137146394Y-95885000D02*
X136514430Y-96516964D01*
X153035000Y-96520000D02*
X152400000Y-95885000D01*
X134620000Y-88900000D02*
X147955000Y-88900000D01*
X128270000Y-97155000D02*
X128270000Y-97909000D01*
X128270000Y-97909000D02*
X130316000Y-99955000D01*
X130316000Y-99955000D02*
X131445000Y-99955000D01*
X128270000Y-97155000D02*
X128570000Y-97155000D01*
X128270000Y-94615000D02*
X128270000Y-97155000D01*
X125095000Y-83867436D02*
X125175000Y-83787436D01*
X125175000Y-83787436D02*
X125175000Y-82550000D01*
X125095000Y-97155000D02*
X125095000Y-83867436D01*
X125095000Y-82630000D02*
X125175000Y-82550000D01*
X125730000Y-96520000D02*
X125730000Y-84495000D01*
X125730000Y-84495000D02*
X127675000Y-82550000D01*
X158100000Y-71120000D02*
X165100000Y-71120000D01*
X165100000Y-71120000D02*
X165100000Y-72970000D01*
X165100000Y-72970000D02*
X164250000Y-73820000D01*
X164250000Y-73820000D02*
X164100000Y-73820000D01*
X159100000Y-73820000D02*
X164100000Y-73820000D01*
X158100000Y-71120000D02*
X158100000Y-72970000D01*
X158100000Y-72970000D02*
X158950000Y-73820000D01*
X158950000Y-73820000D02*
X159100000Y-73820000D01*
X135890000Y-85725000D02*
X147955000Y-85725000D01*
X147955000Y-85725000D02*
X150495000Y-83185000D01*
X158596870Y-89734549D02*
X158653751Y-89770290D01*
X159385000Y-88265000D02*
X159385000Y-88900000D01*
X159385000Y-88900000D02*
X159377478Y-88966756D01*
X158717160Y-89207521D02*
X158653751Y-89229709D01*
X159377478Y-88966756D02*
X159355290Y-89030165D01*
X159377478Y-90033243D02*
X159385000Y-90100000D01*
X159355290Y-89030165D02*
X159319549Y-89087046D01*
X159319549Y-89087046D02*
X159272046Y-89134549D01*
X158783917Y-89200000D02*
X158717160Y-89207521D01*
X159085000Y-89800000D02*
X159151756Y-89807521D01*
X159272046Y-89134549D02*
X159215165Y-89170290D01*
X159215165Y-89829709D02*
X159272046Y-89865450D01*
X159215165Y-89170290D02*
X159151756Y-89192478D01*
X158491438Y-89433243D02*
X158483917Y-89500000D01*
X159151756Y-89192478D02*
X159085000Y-89200000D01*
X159085000Y-89200000D02*
X158783917Y-89200000D01*
X158483917Y-89500000D02*
X158491438Y-89566756D01*
X157480000Y-93980000D02*
X142905002Y-93980000D01*
X158549367Y-89687046D02*
X158596870Y-89734549D01*
X158549367Y-89312953D02*
X158513626Y-89369834D01*
X158653751Y-89229709D02*
X158596870Y-89265450D01*
X158596870Y-89265450D02*
X158549367Y-89312953D01*
X159272046Y-89865450D02*
X159319549Y-89912953D01*
X158513626Y-89369834D02*
X158491438Y-89433243D01*
X158491438Y-89566756D02*
X158513626Y-89630165D01*
X158717160Y-89792478D02*
X158783917Y-89800000D01*
X158513626Y-89630165D02*
X158549367Y-89687046D01*
X158653751Y-89770290D02*
X158717160Y-89792478D01*
X158783917Y-89800000D02*
X159085000Y-89800000D01*
X159151756Y-89807521D02*
X159215165Y-89829709D01*
X159355290Y-89969834D02*
X159377478Y-90033243D01*
X159319549Y-89912953D02*
X159355290Y-89969834D01*
X159385000Y-90100000D02*
X159385000Y-92075000D01*
X159385000Y-92075000D02*
X157480000Y-93980000D01*
X142905002Y-93980000D02*
X142270002Y-94615000D01*
X158115000Y-94541989D02*
X143583011Y-94541989D01*
X160020000Y-87630000D02*
X160020000Y-92636989D01*
X160020000Y-92636989D02*
X158115000Y-94541989D01*
X143583011Y-94541989D02*
X142875000Y-95250000D01*
G36*
X199950000Y-134545000D02*
X100405000Y-134545000D01*
X100405000Y-131237060D01*
X109607545Y-131237060D01*
X109690884Y-131490953D01*
X110255306Y-131696590D01*
X110855458Y-131670579D01*
X111289116Y-131490953D01*
X111372455Y-131237060D01*
X110490000Y-130354605D01*
X109607545Y-131237060D01*
X100405000Y-131237060D01*
X100405000Y-129940306D01*
X108968410Y-129940306D01*
X108994421Y-130540458D01*
X109174047Y-130974116D01*
X109427940Y-131057455D01*
X110310395Y-130175000D01*
X110669605Y-130175000D01*
X111552060Y-131057455D01*
X111805953Y-130974116D01*
X112011590Y-130409694D01*
X111985579Y-129809542D01*
X111805953Y-129375884D01*
X111552060Y-129292545D01*
X110669605Y-130175000D01*
X110310395Y-130175000D01*
X109427940Y-129292545D01*
X109174047Y-129375884D01*
X108968410Y-129940306D01*
X100405000Y-129940306D01*
X100405000Y-79970000D01*
X106553000Y-79970000D01*
X106553000Y-122000000D01*
X106611004Y-122291605D01*
X106722731Y-122458815D01*
X106776185Y-122538815D01*
X109018532Y-124781162D01*
X108980262Y-124873325D01*
X108979738Y-125474040D01*
X109209138Y-126029229D01*
X109604536Y-126425318D01*
X109210630Y-126818537D01*
X108980262Y-127373325D01*
X108979738Y-127974040D01*
X109209138Y-128529229D01*
X109633537Y-128954370D01*
X109656469Y-128963892D01*
X109607545Y-129112940D01*
X110490000Y-129995395D01*
X111372455Y-129112940D01*
X111323682Y-128964352D01*
X111344229Y-128955862D01*
X111769370Y-128531463D01*
X111999738Y-127976675D01*
X112000262Y-127375960D01*
X111961202Y-127281428D01*
X114203815Y-125038815D01*
X114368996Y-124791605D01*
X114427000Y-124500000D01*
X114427000Y-84582000D01*
X115889370Y-84582000D01*
X119079875Y-87772506D01*
X119079838Y-87815167D01*
X119213230Y-88138000D01*
X116840000Y-88138000D01*
X116793841Y-88146685D01*
X116751447Y-88173965D01*
X116723006Y-88215590D01*
X116713000Y-88265000D01*
X116713000Y-106045000D01*
X116721685Y-106091159D01*
X116748965Y-106133553D01*
X116790590Y-106161994D01*
X116840000Y-106172000D01*
X119445370Y-106172000D01*
X116301185Y-109316185D01*
X116136004Y-109563395D01*
X116078000Y-109855000D01*
X116078000Y-123825000D01*
X116136004Y-124116605D01*
X116197337Y-124208396D01*
X116301185Y-124363815D01*
X118841184Y-126903815D01*
X118928818Y-126962370D01*
X119088395Y-127068996D01*
X119380000Y-127127000D01*
X187731370Y-127127000D01*
X188393531Y-127789162D01*
X188355262Y-127881325D01*
X188354738Y-128482040D01*
X188584138Y-129037229D01*
X188752717Y-129206103D01*
X188538559Y-129343910D01*
X188393569Y-129556110D01*
X188342560Y-129808000D01*
X188342560Y-131558000D01*
X188386838Y-131793317D01*
X188525910Y-132009441D01*
X188738110Y-132154431D01*
X188990000Y-132205440D01*
X190740000Y-132205440D01*
X190975317Y-132161162D01*
X191191441Y-132022090D01*
X191336431Y-131809890D01*
X191387440Y-131558000D01*
X191387440Y-129808000D01*
X191343162Y-129572683D01*
X191204090Y-129356559D01*
X190991890Y-129211569D01*
X190975324Y-129208214D01*
X191144370Y-129039463D01*
X191374738Y-128484675D01*
X191375262Y-127883960D01*
X191145862Y-127328771D01*
X190750464Y-126932682D01*
X191144370Y-126539463D01*
X191374738Y-125984675D01*
X191375262Y-125383960D01*
X191145862Y-124828771D01*
X190721463Y-124403630D01*
X190698531Y-124394108D01*
X190747455Y-124245060D01*
X189865000Y-123362605D01*
X188982545Y-124245060D01*
X189031318Y-124393648D01*
X189010771Y-124402138D01*
X188585630Y-124826537D01*
X188546406Y-124921000D01*
X186036630Y-124921000D01*
X188534891Y-122422740D01*
X188343410Y-122948306D01*
X188369421Y-123548458D01*
X188549047Y-123982116D01*
X188802940Y-124065455D01*
X189685395Y-123183000D01*
X190044605Y-123183000D01*
X190927060Y-124065455D01*
X191180953Y-123982116D01*
X191386590Y-123417694D01*
X191360579Y-122817542D01*
X191180953Y-122383884D01*
X190927060Y-122300545D01*
X190044605Y-123183000D01*
X189685395Y-123183000D01*
X189671253Y-123168858D01*
X189850858Y-122989253D01*
X189865000Y-123003395D01*
X190747455Y-122120940D01*
X190664116Y-121867047D01*
X190099694Y-121661410D01*
X189499542Y-121687421D01*
X189108048Y-121849582D01*
X193578815Y-117378816D01*
X193743996Y-117131605D01*
X193743996Y-117131604D01*
X193802000Y-116840000D01*
X193802000Y-96346000D01*
X193743996Y-96054395D01*
X193578815Y-95807185D01*
X191336468Y-93564838D01*
X191374738Y-93472675D01*
X191375262Y-92871960D01*
X191145862Y-92316771D01*
X190721463Y-91891630D01*
X190698531Y-91882108D01*
X190747455Y-91733060D01*
X189865000Y-90850605D01*
X188982545Y-91733060D01*
X189031318Y-91881648D01*
X189010771Y-91890138D01*
X188585630Y-92314537D01*
X188355262Y-92869325D01*
X188354738Y-93470040D01*
X188584138Y-94025229D01*
X188979536Y-94421318D01*
X188585630Y-94814537D01*
X188355262Y-95369325D01*
X188354738Y-95970040D01*
X188584138Y-96525229D01*
X188752717Y-96694103D01*
X188538559Y-96831910D01*
X188393569Y-97044110D01*
X188342560Y-97296000D01*
X188342560Y-99046000D01*
X188386838Y-99281317D01*
X188525910Y-99497441D01*
X188738110Y-99642431D01*
X188990000Y-99693440D01*
X190740000Y-99693440D01*
X190975317Y-99649162D01*
X191191441Y-99510090D01*
X191336431Y-99297890D01*
X191387440Y-99046000D01*
X191387440Y-98271071D01*
X191643000Y-98526631D01*
X191643000Y-115889370D01*
X183834370Y-123698000D01*
X121600631Y-123698000D01*
X119507000Y-121604370D01*
X119507000Y-112075630D01*
X125410631Y-106172000D01*
X131318000Y-106172000D01*
X131318000Y-113309369D01*
X125448838Y-119178532D01*
X125356675Y-119140262D01*
X124755960Y-119139738D01*
X124200771Y-119369138D01*
X124031897Y-119537717D01*
X123894090Y-119323559D01*
X123681890Y-119178569D01*
X123430000Y-119127560D01*
X121680000Y-119127560D01*
X121444683Y-119171838D01*
X121228559Y-119310910D01*
X121083569Y-119523110D01*
X121032560Y-119775000D01*
X121032560Y-121525000D01*
X121076838Y-121760317D01*
X121215910Y-121976441D01*
X121428110Y-122121431D01*
X121680000Y-122172440D01*
X123430000Y-122172440D01*
X123665317Y-122128162D01*
X123881441Y-121989090D01*
X124026431Y-121776890D01*
X124029786Y-121760324D01*
X124198537Y-121929370D01*
X124753325Y-122159738D01*
X125354040Y-122160262D01*
X125909229Y-121930862D01*
X126305318Y-121535464D01*
X126698537Y-121929370D01*
X127253325Y-122159738D01*
X127854040Y-122160262D01*
X128409229Y-121930862D01*
X128628413Y-121712060D01*
X129172545Y-121712060D01*
X129255884Y-121965953D01*
X129820306Y-122171590D01*
X130420458Y-122145579D01*
X130854116Y-121965953D01*
X130937455Y-121712060D01*
X130055000Y-120829605D01*
X129172545Y-121712060D01*
X128628413Y-121712060D01*
X128834370Y-121506463D01*
X128843892Y-121483531D01*
X128992940Y-121532455D01*
X129875395Y-120650000D01*
X130234605Y-120650000D01*
X131117060Y-121532455D01*
X131370953Y-121449116D01*
X131576590Y-120884694D01*
X131550579Y-120284542D01*
X131370953Y-119850884D01*
X131117060Y-119767545D01*
X130234605Y-120650000D01*
X129875395Y-120650000D01*
X129861253Y-120635858D01*
X130040858Y-120456253D01*
X130055000Y-120470395D01*
X130937455Y-119587940D01*
X130854116Y-119334047D01*
X130289694Y-119128410D01*
X130148082Y-119134548D01*
X133253815Y-116028815D01*
X133306852Y-115949440D01*
X133418996Y-115781605D01*
X133477000Y-115490000D01*
X133477000Y-114274630D01*
X138329929Y-119127560D01*
X137555000Y-119127560D01*
X137319683Y-119171838D01*
X137103559Y-119310910D01*
X136958569Y-119523110D01*
X136907560Y-119775000D01*
X136907560Y-121525000D01*
X136951838Y-121760317D01*
X137090910Y-121976441D01*
X137303110Y-122121431D01*
X137555000Y-122172440D01*
X139305000Y-122172440D01*
X139540317Y-122128162D01*
X139756441Y-121989090D01*
X139901431Y-121776890D01*
X139904786Y-121760324D01*
X140073537Y-121929370D01*
X140628325Y-122159738D01*
X141229040Y-122160262D01*
X141784229Y-121930862D01*
X142180318Y-121535464D01*
X142573537Y-121929370D01*
X143128325Y-122159738D01*
X143729040Y-122160262D01*
X144284229Y-121930862D01*
X144503413Y-121712060D01*
X145047545Y-121712060D01*
X145130884Y-121965953D01*
X145695306Y-122171590D01*
X146295458Y-122145579D01*
X146729116Y-121965953D01*
X146812455Y-121712060D01*
X145930000Y-120829605D01*
X145047545Y-121712060D01*
X144503413Y-121712060D01*
X144709370Y-121506463D01*
X144718892Y-121483531D01*
X144867940Y-121532455D01*
X145750395Y-120650000D01*
X146109605Y-120650000D01*
X146992060Y-121532455D01*
X147245953Y-121449116D01*
X147451590Y-120884694D01*
X147425579Y-120284542D01*
X147245953Y-119850884D01*
X146992060Y-119767545D01*
X146109605Y-120650000D01*
X145750395Y-120650000D01*
X144867940Y-119767545D01*
X144719352Y-119816318D01*
X144710862Y-119795771D01*
X144422595Y-119507000D01*
X145074113Y-119507000D01*
X145047545Y-119587940D01*
X145930000Y-120470395D01*
X146812455Y-119587940D01*
X146785887Y-119507000D01*
X152844576Y-119507000D01*
X152833569Y-119523110D01*
X152782560Y-119775000D01*
X152782560Y-121525000D01*
X152826838Y-121760317D01*
X152965910Y-121976441D01*
X153178110Y-122121431D01*
X153430000Y-122172440D01*
X155180000Y-122172440D01*
X155415317Y-122128162D01*
X155631441Y-121989090D01*
X155776431Y-121776890D01*
X155779786Y-121760324D01*
X155948537Y-121929370D01*
X156503325Y-122159738D01*
X157104040Y-122160262D01*
X157659229Y-121930862D01*
X158055318Y-121535464D01*
X158448537Y-121929370D01*
X159003325Y-122159738D01*
X159604040Y-122160262D01*
X160159229Y-121930862D01*
X160378413Y-121712060D01*
X160922545Y-121712060D01*
X161005884Y-121965953D01*
X161570306Y-122171590D01*
X162170458Y-122145579D01*
X162604116Y-121965953D01*
X162687455Y-121712060D01*
X161805000Y-120829605D01*
X160922545Y-121712060D01*
X160378413Y-121712060D01*
X160584370Y-121506463D01*
X160593892Y-121483531D01*
X160742940Y-121532455D01*
X161625395Y-120650000D01*
X161984605Y-120650000D01*
X162867060Y-121532455D01*
X163120953Y-121449116D01*
X163326590Y-120884694D01*
X163300579Y-120284542D01*
X163120953Y-119850884D01*
X162867060Y-119767545D01*
X161984605Y-120650000D01*
X161625395Y-120650000D01*
X160742940Y-119767545D01*
X160594352Y-119816318D01*
X160585862Y-119795771D01*
X160378394Y-119587940D01*
X160922545Y-119587940D01*
X161805000Y-120470395D01*
X162687455Y-119587940D01*
X162604116Y-119334047D01*
X162039694Y-119128410D01*
X161439542Y-119154421D01*
X161005884Y-119334047D01*
X160922545Y-119587940D01*
X160378394Y-119587940D01*
X160161463Y-119370630D01*
X159606675Y-119140262D01*
X159005960Y-119139738D01*
X158911428Y-119178798D01*
X157969630Y-118237000D01*
X169189370Y-118237000D01*
X170079930Y-119127560D01*
X169305000Y-119127560D01*
X169069683Y-119171838D01*
X168853559Y-119310910D01*
X168708569Y-119523110D01*
X168657560Y-119775000D01*
X168657560Y-121525000D01*
X168701838Y-121760317D01*
X168840910Y-121976441D01*
X169053110Y-122121431D01*
X169305000Y-122172440D01*
X171055000Y-122172440D01*
X171290317Y-122128162D01*
X171506441Y-121989090D01*
X171651431Y-121776890D01*
X171654786Y-121760324D01*
X171823537Y-121929370D01*
X172378325Y-122159738D01*
X172979040Y-122160262D01*
X173534229Y-121930862D01*
X173930318Y-121535464D01*
X174323537Y-121929370D01*
X174878325Y-122159738D01*
X175479040Y-122160262D01*
X176034229Y-121930862D01*
X176253413Y-121712060D01*
X176797545Y-121712060D01*
X176880884Y-121965953D01*
X177445306Y-122171590D01*
X178045458Y-122145579D01*
X178479116Y-121965953D01*
X178562455Y-121712060D01*
X177680000Y-120829605D01*
X176797545Y-121712060D01*
X176253413Y-121712060D01*
X176459370Y-121506463D01*
X176468892Y-121483531D01*
X176617940Y-121532455D01*
X177500395Y-120650000D01*
X177859605Y-120650000D01*
X178742060Y-121532455D01*
X178995953Y-121449116D01*
X179201590Y-120884694D01*
X179175579Y-120284542D01*
X178995953Y-119850884D01*
X178742060Y-119767545D01*
X177859605Y-120650000D01*
X177500395Y-120650000D01*
X176617940Y-119767545D01*
X176469352Y-119816318D01*
X176460862Y-119795771D01*
X176253394Y-119587940D01*
X176797545Y-119587940D01*
X177680000Y-120470395D01*
X178562455Y-119587940D01*
X178479116Y-119334047D01*
X177914694Y-119128410D01*
X177314542Y-119154421D01*
X176880884Y-119334047D01*
X176797545Y-119587940D01*
X176253394Y-119587940D01*
X176036463Y-119370630D01*
X175942000Y-119331406D01*
X175942000Y-119300000D01*
X175883996Y-119008395D01*
X175718815Y-118761184D01*
X173924630Y-116967000D01*
X185587000Y-116967000D01*
X185878605Y-116908996D01*
X186125815Y-116743815D01*
X188342560Y-114527071D01*
X188342560Y-115302000D01*
X188386838Y-115537317D01*
X188525910Y-115753441D01*
X188738110Y-115898431D01*
X188990000Y-115949440D01*
X190740000Y-115949440D01*
X190975317Y-115905162D01*
X191191441Y-115766090D01*
X191336431Y-115553890D01*
X191387440Y-115302000D01*
X191387440Y-113552000D01*
X191343162Y-113316683D01*
X191204090Y-113100559D01*
X190991890Y-112955569D01*
X190975324Y-112952214D01*
X191144370Y-112783463D01*
X191374738Y-112228675D01*
X191375262Y-111627960D01*
X191145862Y-111072771D01*
X190750464Y-110676682D01*
X191144370Y-110283463D01*
X191374738Y-109728675D01*
X191375262Y-109127960D01*
X191145862Y-108572771D01*
X190721463Y-108147630D01*
X190698531Y-108138108D01*
X190747455Y-107989060D01*
X189865000Y-107106605D01*
X188982545Y-107989060D01*
X189031318Y-108137648D01*
X189010771Y-108146138D01*
X188585630Y-108570537D01*
X188355262Y-109125325D01*
X188354738Y-109726040D01*
X188393798Y-109820572D01*
X183406370Y-114808000D01*
X146365631Y-114808000D01*
X144911426Y-113353795D01*
X150614716Y-113353795D01*
X150863106Y-113954943D01*
X151322637Y-114415278D01*
X151923352Y-114664716D01*
X152573795Y-114665284D01*
X153174943Y-114416894D01*
X153635278Y-113957363D01*
X153884716Y-113356648D01*
X153884718Y-113353795D01*
X157114716Y-113353795D01*
X157363106Y-113954943D01*
X157822637Y-114415278D01*
X158423352Y-114664716D01*
X159073795Y-114665284D01*
X159674943Y-114416894D01*
X159909715Y-114182532D01*
X162072073Y-114182532D01*
X162170736Y-114449387D01*
X162780461Y-114675908D01*
X163430460Y-114651856D01*
X163919264Y-114449387D01*
X164017927Y-114182532D01*
X168572073Y-114182532D01*
X168670736Y-114449387D01*
X169280461Y-114675908D01*
X169930460Y-114651856D01*
X170419264Y-114449387D01*
X170517927Y-114182532D01*
X169545000Y-113209605D01*
X168572073Y-114182532D01*
X164017927Y-114182532D01*
X163045000Y-113209605D01*
X162072073Y-114182532D01*
X159909715Y-114182532D01*
X160135278Y-113957363D01*
X160384716Y-113356648D01*
X160385232Y-112765461D01*
X161399092Y-112765461D01*
X161423144Y-113415460D01*
X161625613Y-113904264D01*
X161892468Y-114002927D01*
X162865395Y-113030000D01*
X163224605Y-113030000D01*
X164197532Y-114002927D01*
X164464387Y-113904264D01*
X164690908Y-113294539D01*
X164671331Y-112765461D01*
X167899092Y-112765461D01*
X167923144Y-113415460D01*
X168125613Y-113904264D01*
X168392468Y-114002927D01*
X169365395Y-113030000D01*
X169724605Y-113030000D01*
X170697532Y-114002927D01*
X170964387Y-113904264D01*
X171148460Y-113408795D01*
X172204716Y-113408795D01*
X172453106Y-114009943D01*
X172912637Y-114470278D01*
X173513352Y-114719716D01*
X174163795Y-114720284D01*
X174764943Y-114471894D01*
X175225278Y-114012363D01*
X175474716Y-113411648D01*
X175474718Y-113408795D01*
X178704716Y-113408795D01*
X178953106Y-114009943D01*
X179412637Y-114470278D01*
X180013352Y-114719716D01*
X180663795Y-114720284D01*
X181264943Y-114471894D01*
X181725278Y-114012363D01*
X181974716Y-113411648D01*
X181975284Y-112761205D01*
X181726894Y-112160057D01*
X181267363Y-111699722D01*
X180666648Y-111450284D01*
X180016205Y-111449716D01*
X179415057Y-111698106D01*
X178954722Y-112157637D01*
X178705284Y-112758352D01*
X178704716Y-113408795D01*
X175474718Y-113408795D01*
X175475284Y-112761205D01*
X175226894Y-112160057D01*
X174767363Y-111699722D01*
X174166648Y-111450284D01*
X173516205Y-111449716D01*
X172915057Y-111698106D01*
X172454722Y-112157637D01*
X172205284Y-112758352D01*
X172204716Y-113408795D01*
X171148460Y-113408795D01*
X171190908Y-113294539D01*
X171166856Y-112644540D01*
X170964387Y-112155736D01*
X170697532Y-112057073D01*
X169724605Y-113030000D01*
X169365395Y-113030000D01*
X168392468Y-112057073D01*
X168125613Y-112155736D01*
X167899092Y-112765461D01*
X164671331Y-112765461D01*
X164666856Y-112644540D01*
X164464387Y-112155736D01*
X164197532Y-112057073D01*
X163224605Y-113030000D01*
X162865395Y-113030000D01*
X161892468Y-112057073D01*
X161625613Y-112155736D01*
X161399092Y-112765461D01*
X160385232Y-112765461D01*
X160385284Y-112706205D01*
X160136894Y-112105057D01*
X159909703Y-111877468D01*
X162072073Y-111877468D01*
X163045000Y-112850395D01*
X164017927Y-111877468D01*
X168572073Y-111877468D01*
X169545000Y-112850395D01*
X170517927Y-111877468D01*
X170419264Y-111610613D01*
X169809539Y-111384092D01*
X169159540Y-111408144D01*
X168670736Y-111610613D01*
X168572073Y-111877468D01*
X164017927Y-111877468D01*
X163919264Y-111610613D01*
X163309539Y-111384092D01*
X162659540Y-111408144D01*
X162170736Y-111610613D01*
X162072073Y-111877468D01*
X159909703Y-111877468D01*
X159677363Y-111644722D01*
X159076648Y-111395284D01*
X158426205Y-111394716D01*
X157825057Y-111643106D01*
X157364722Y-112102637D01*
X157115284Y-112703352D01*
X157114716Y-113353795D01*
X153884718Y-113353795D01*
X153885284Y-112706205D01*
X153636894Y-112105057D01*
X153177363Y-111644722D01*
X152576648Y-111395284D01*
X151926205Y-111394716D01*
X151325057Y-111643106D01*
X150864722Y-112102637D01*
X150615284Y-112703352D01*
X150614716Y-113353795D01*
X144911426Y-113353795D01*
X140411426Y-108853795D01*
X150614716Y-108853795D01*
X150863106Y-109454943D01*
X151322637Y-109915278D01*
X151923352Y-110164716D01*
X152573795Y-110165284D01*
X153174943Y-109916894D01*
X153635278Y-109457363D01*
X153703943Y-109292000D01*
X157295779Y-109292000D01*
X157363106Y-109454943D01*
X157822637Y-109915278D01*
X158423352Y-110164716D01*
X159073795Y-110165284D01*
X159674943Y-109916894D01*
X160135278Y-109457363D01*
X160384716Y-108856648D01*
X160385284Y-108206205D01*
X160136894Y-107605057D01*
X159677363Y-107144722D01*
X159076648Y-106895284D01*
X158426205Y-106894716D01*
X157825057Y-107143106D01*
X157364722Y-107602637D01*
X157296057Y-107768000D01*
X155702000Y-107768000D01*
X155702000Y-105335466D01*
X155732192Y-105305327D01*
X155874838Y-104961799D01*
X155875162Y-104589833D01*
X155733117Y-104246057D01*
X155470327Y-103982808D01*
X155126799Y-103840162D01*
X154754833Y-103839838D01*
X154411057Y-103981883D01*
X154147808Y-104244673D01*
X154005162Y-104588201D01*
X154004838Y-104960167D01*
X154146883Y-105303943D01*
X154178000Y-105335114D01*
X154178000Y-107768000D01*
X153704221Y-107768000D01*
X153636894Y-107605057D01*
X153177363Y-107144722D01*
X152576648Y-106895284D01*
X151926205Y-106894716D01*
X151325057Y-107143106D01*
X150864722Y-107602637D01*
X150615284Y-108203352D01*
X150614716Y-108853795D01*
X140411426Y-108853795D01*
X139192000Y-107634370D01*
X139192000Y-106172000D01*
X146050000Y-106172000D01*
X146096159Y-106163315D01*
X146138553Y-106136035D01*
X146166994Y-106094410D01*
X146177000Y-106045000D01*
X146177000Y-105537000D01*
X150495000Y-105537000D01*
X150786605Y-105478996D01*
X151033815Y-105313815D01*
X152276626Y-104071004D01*
X152542506Y-103805125D01*
X152585167Y-103805162D01*
X152928943Y-103663117D01*
X153192192Y-103400327D01*
X153334838Y-103056799D01*
X153335162Y-102684833D01*
X153193117Y-102341057D01*
X152930327Y-102077808D01*
X152586799Y-101935162D01*
X152214833Y-101934838D01*
X151871057Y-102076883D01*
X151607808Y-102339673D01*
X151465162Y-102683201D01*
X151465124Y-102727246D01*
X150179370Y-104013000D01*
X146177000Y-104013000D01*
X146177000Y-101727000D01*
X158434370Y-101727000D01*
X160720370Y-104013000D01*
X158675466Y-104013000D01*
X158645327Y-103982808D01*
X158301799Y-103840162D01*
X157929833Y-103839838D01*
X157586057Y-103981883D01*
X157480046Y-104087710D01*
X157375327Y-103982808D01*
X157031799Y-103840162D01*
X156659833Y-103839838D01*
X156316057Y-103981883D01*
X156052808Y-104244673D01*
X155910162Y-104588201D01*
X155909838Y-104960167D01*
X156051883Y-105303943D01*
X156314673Y-105567192D01*
X156658201Y-105709838D01*
X156702246Y-105709876D01*
X156941185Y-105948816D01*
X157089377Y-106047834D01*
X157188395Y-106113996D01*
X157480000Y-106172000D01*
X159609370Y-106172000D01*
X161477895Y-108040526D01*
X161410284Y-108203352D01*
X161409716Y-108853795D01*
X161658106Y-109454943D01*
X162117637Y-109915278D01*
X162718352Y-110164716D01*
X163368795Y-110165284D01*
X163969943Y-109916894D01*
X164430278Y-109457363D01*
X164498943Y-109292000D01*
X168090779Y-109292000D01*
X168158106Y-109454943D01*
X168617637Y-109915278D01*
X169218352Y-110164716D01*
X169868795Y-110165284D01*
X170469943Y-109916894D01*
X170930278Y-109457363D01*
X171179716Y-108856648D01*
X171180284Y-108206205D01*
X170931894Y-107605057D01*
X170472363Y-107144722D01*
X169871648Y-106895284D01*
X169221205Y-106894716D01*
X168620057Y-107143106D01*
X168159722Y-107602637D01*
X168091057Y-107768000D01*
X164499221Y-107768000D01*
X164431894Y-107605057D01*
X163972363Y-107144722D01*
X163371648Y-106895284D01*
X162721205Y-106894716D01*
X162555723Y-106963092D01*
X161129630Y-105537000D01*
X169714370Y-105537000D01*
X172272895Y-108095526D01*
X172205284Y-108258352D01*
X172204716Y-108908795D01*
X172453106Y-109509943D01*
X172912637Y-109970278D01*
X173513352Y-110219716D01*
X174163795Y-110220284D01*
X174764943Y-109971894D01*
X175225278Y-109512363D01*
X175293943Y-109347000D01*
X178885779Y-109347000D01*
X178953106Y-109509943D01*
X179412637Y-109970278D01*
X180013352Y-110219716D01*
X180663795Y-110220284D01*
X181264943Y-109971894D01*
X181725278Y-109512363D01*
X181974716Y-108911648D01*
X181975284Y-108261205D01*
X181726894Y-107660057D01*
X181267363Y-107199722D01*
X180666648Y-106950284D01*
X180016205Y-106949716D01*
X179415057Y-107198106D01*
X178954722Y-107657637D01*
X178886057Y-107823000D01*
X175294221Y-107823000D01*
X175226894Y-107660057D01*
X174767363Y-107199722D01*
X174166648Y-106950284D01*
X173516205Y-106949716D01*
X173350723Y-107018092D01*
X173024937Y-106692306D01*
X188343410Y-106692306D01*
X188369421Y-107292458D01*
X188549047Y-107726116D01*
X188802940Y-107809455D01*
X189685395Y-106927000D01*
X190044605Y-106927000D01*
X190927060Y-107809455D01*
X191180953Y-107726116D01*
X191386590Y-107161694D01*
X191360579Y-106561542D01*
X191180953Y-106127884D01*
X190927060Y-106044545D01*
X190044605Y-106927000D01*
X189685395Y-106927000D01*
X188802940Y-106044545D01*
X188549047Y-106127884D01*
X188343410Y-106692306D01*
X173024937Y-106692306D01*
X172197571Y-105864940D01*
X188982545Y-105864940D01*
X189865000Y-106747395D01*
X190747455Y-105864940D01*
X190664116Y-105611047D01*
X190099694Y-105405410D01*
X189499542Y-105431421D01*
X189065884Y-105611047D01*
X188982545Y-105864940D01*
X172197571Y-105864940D01*
X171148580Y-104815949D01*
X171353815Y-104678815D01*
X172227506Y-103805125D01*
X172270167Y-103805162D01*
X172613943Y-103663117D01*
X172877192Y-103400327D01*
X173019838Y-103056799D01*
X173020162Y-102684833D01*
X172878117Y-102341057D01*
X172615327Y-102077808D01*
X172271799Y-101935162D01*
X171899833Y-101934838D01*
X171556057Y-102076883D01*
X171292808Y-102339673D01*
X171150162Y-102683201D01*
X171150124Y-102727246D01*
X170499370Y-103378000D01*
X162240630Y-103378000D01*
X159288815Y-100426185D01*
X159247880Y-100398833D01*
X159041605Y-100261004D01*
X158750000Y-100203000D01*
X146324630Y-100203000D01*
X146177000Y-100055370D01*
X146177000Y-96647000D01*
X152084370Y-96647000D01*
X152099875Y-96662506D01*
X152099838Y-96705167D01*
X152241883Y-97048943D01*
X152469955Y-97277414D01*
X152257494Y-97489875D01*
X152214833Y-97489838D01*
X151871057Y-97631883D01*
X151607808Y-97894673D01*
X151465162Y-98238201D01*
X151464838Y-98610167D01*
X151606883Y-98953943D01*
X151869673Y-99217192D01*
X152213201Y-99359838D01*
X152585167Y-99360162D01*
X152928943Y-99218117D01*
X153192192Y-98955327D01*
X153334838Y-98611799D01*
X153334876Y-98567754D01*
X153350631Y-98552000D01*
X182954534Y-98552000D01*
X182984673Y-98582192D01*
X183328201Y-98724838D01*
X183700167Y-98725162D01*
X184043943Y-98583117D01*
X184307192Y-98320327D01*
X184449838Y-97976799D01*
X184450162Y-97604833D01*
X184308117Y-97261057D01*
X184045327Y-96997808D01*
X183701799Y-96855162D01*
X183329833Y-96854838D01*
X182986057Y-96996883D01*
X182954886Y-97028000D01*
X153836463Y-97028000D01*
X153969838Y-96706799D01*
X153970162Y-96334833D01*
X153836770Y-96012000D01*
X161290000Y-96012000D01*
X161581605Y-95953996D01*
X161828815Y-95788815D01*
X165003815Y-92613815D01*
X165168996Y-92366605D01*
X165178466Y-92318996D01*
X165227000Y-92075000D01*
X165227000Y-90436306D01*
X188343410Y-90436306D01*
X188369421Y-91036458D01*
X188549047Y-91470116D01*
X188802940Y-91553455D01*
X189685395Y-90671000D01*
X190044605Y-90671000D01*
X190927060Y-91553455D01*
X191180953Y-91470116D01*
X191386590Y-90905694D01*
X191360579Y-90305542D01*
X191180953Y-89871884D01*
X190927060Y-89788545D01*
X190044605Y-90671000D01*
X189685395Y-90671000D01*
X188802940Y-89788545D01*
X188549047Y-89871884D01*
X188343410Y-90436306D01*
X165227000Y-90436306D01*
X165227000Y-89608940D01*
X188982545Y-89608940D01*
X189865000Y-90491395D01*
X190747455Y-89608940D01*
X190664116Y-89355047D01*
X190099694Y-89149410D01*
X189499542Y-89175421D01*
X189065884Y-89355047D01*
X188982545Y-89608940D01*
X165227000Y-89608940D01*
X165227000Y-88190466D01*
X165257192Y-88160327D01*
X165399838Y-87816799D01*
X165399890Y-87757000D01*
X182285000Y-87757000D01*
X182576605Y-87698996D01*
X182823815Y-87533815D01*
X188342560Y-82015071D01*
X188342560Y-82790000D01*
X188386838Y-83025317D01*
X188525910Y-83241441D01*
X188738110Y-83386431D01*
X188990000Y-83437440D01*
X190740000Y-83437440D01*
X190975317Y-83393162D01*
X191191441Y-83254090D01*
X191336431Y-83041890D01*
X191387440Y-82790000D01*
X191387440Y-81040000D01*
X191343162Y-80804683D01*
X191204090Y-80588559D01*
X190991890Y-80443569D01*
X190975324Y-80440214D01*
X191144370Y-80271463D01*
X191374738Y-79716675D01*
X191375262Y-79115960D01*
X191145862Y-78560771D01*
X190750464Y-78164682D01*
X191144370Y-77771463D01*
X191374738Y-77216675D01*
X191375262Y-76615960D01*
X191145862Y-76060771D01*
X190721463Y-75635630D01*
X190698531Y-75626108D01*
X190747455Y-75477060D01*
X189865000Y-74594605D01*
X188982545Y-75477060D01*
X189031318Y-75625648D01*
X189010771Y-75634138D01*
X188585630Y-76058537D01*
X188355262Y-76613325D01*
X188354738Y-77214040D01*
X188393798Y-77308572D01*
X180104370Y-85598000D01*
X149159630Y-85598000D01*
X150130951Y-84626679D01*
X150495000Y-84699093D01*
X151063285Y-84586054D01*
X151545054Y-84264147D01*
X151866961Y-83782378D01*
X151980000Y-83214093D01*
X151980000Y-83155907D01*
X151866961Y-82587622D01*
X151545054Y-82105853D01*
X151063285Y-81783946D01*
X150495000Y-81670907D01*
X149926715Y-81783946D01*
X149444946Y-82105853D01*
X149225000Y-82435026D01*
X149005054Y-82105853D01*
X148523285Y-81783946D01*
X147955000Y-81670907D01*
X147386715Y-81783946D01*
X146904946Y-82105853D01*
X146685000Y-82435026D01*
X146465054Y-82105853D01*
X145983285Y-81783946D01*
X145415000Y-81670907D01*
X144846715Y-81783946D01*
X144364946Y-82105853D01*
X144137298Y-82446553D01*
X144070183Y-82303642D01*
X143641924Y-81913355D01*
X143231890Y-81743524D01*
X143002000Y-81864845D01*
X143002000Y-83058000D01*
X143022000Y-83058000D01*
X143022000Y-83312000D01*
X143002000Y-83312000D01*
X143002000Y-83332000D01*
X142748000Y-83332000D01*
X142748000Y-83312000D01*
X142728000Y-83312000D01*
X142728000Y-83058000D01*
X142748000Y-83058000D01*
X142748000Y-81864845D01*
X142518110Y-81743524D01*
X142108076Y-81913355D01*
X141679817Y-82303642D01*
X141612702Y-82446553D01*
X141385054Y-82105853D01*
X140903285Y-81783946D01*
X140335000Y-81670907D01*
X139766715Y-81783946D01*
X139284946Y-82105853D01*
X139257150Y-82147452D01*
X139248162Y-82099683D01*
X139109090Y-81883559D01*
X138896890Y-81738569D01*
X138645000Y-81687560D01*
X136945000Y-81687560D01*
X136709683Y-81731838D01*
X136493559Y-81870910D01*
X136348569Y-82083110D01*
X136297560Y-82335000D01*
X136297560Y-84035000D01*
X136341838Y-84270317D01*
X136378956Y-84328000D01*
X132080000Y-84328000D01*
X131788395Y-84386004D01*
X131610074Y-84505155D01*
X131541185Y-84551185D01*
X129509185Y-86583185D01*
X129344004Y-86830395D01*
X129286000Y-87122000D01*
X129286000Y-88138000D01*
X126492000Y-88138000D01*
X126492000Y-84810630D01*
X127281162Y-84021469D01*
X127373325Y-84059738D01*
X127974040Y-84060262D01*
X128529229Y-83830862D01*
X128698103Y-83662283D01*
X128835910Y-83876441D01*
X129048110Y-84021431D01*
X129300000Y-84072440D01*
X131050000Y-84072440D01*
X131285317Y-84028162D01*
X131501441Y-83889090D01*
X131646431Y-83676890D01*
X131697440Y-83425000D01*
X131697440Y-81675000D01*
X131653162Y-81439683D01*
X131514090Y-81223559D01*
X131301890Y-81078569D01*
X131050000Y-81027560D01*
X129300000Y-81027560D01*
X129064683Y-81071838D01*
X128848559Y-81210910D01*
X128703569Y-81423110D01*
X128700214Y-81439676D01*
X128531463Y-81270630D01*
X127976675Y-81040262D01*
X127375960Y-81039738D01*
X126820771Y-81269138D01*
X126424682Y-81664536D01*
X126031463Y-81270630D01*
X125476675Y-81040262D01*
X124875960Y-81039738D01*
X124320771Y-81269138D01*
X123895630Y-81693537D01*
X123886108Y-81716469D01*
X123737060Y-81667545D01*
X122854605Y-82550000D01*
X123737060Y-83432455D01*
X123885648Y-83383682D01*
X123894138Y-83404229D01*
X124318537Y-83829370D01*
X124338891Y-83837822D01*
X124333000Y-83867436D01*
X124333000Y-88138000D01*
X122086463Y-88138000D01*
X122219838Y-87816799D01*
X122220162Y-87444833D01*
X122078117Y-87101057D01*
X121815327Y-86837808D01*
X121471799Y-86695162D01*
X121427755Y-86695124D01*
X118344691Y-83612060D01*
X121792545Y-83612060D01*
X121875884Y-83865953D01*
X122440306Y-84071590D01*
X123040458Y-84045579D01*
X123474116Y-83865953D01*
X123557455Y-83612060D01*
X122675000Y-82729605D01*
X121792545Y-83612060D01*
X118344691Y-83612060D01*
X117047937Y-82315306D01*
X121153410Y-82315306D01*
X121179421Y-82915458D01*
X121359047Y-83349116D01*
X121612940Y-83432455D01*
X122495395Y-82550000D01*
X121612940Y-81667545D01*
X121359047Y-81750884D01*
X121153410Y-82315306D01*
X117047937Y-82315306D01*
X116220571Y-81487940D01*
X121792545Y-81487940D01*
X122675000Y-82370395D01*
X123557455Y-81487940D01*
X123474116Y-81234047D01*
X122909694Y-81028410D01*
X122309542Y-81054421D01*
X121875884Y-81234047D01*
X121792545Y-81487940D01*
X116220571Y-81487940D01*
X114218381Y-79485750D01*
X170080000Y-79485750D01*
X170080000Y-81076309D01*
X170176673Y-81309698D01*
X170355301Y-81488327D01*
X170588690Y-81585000D01*
X172179250Y-81585000D01*
X172338000Y-81426250D01*
X172338000Y-79327000D01*
X172592000Y-79327000D01*
X172592000Y-81426250D01*
X172750750Y-81585000D01*
X174341310Y-81585000D01*
X174574699Y-81488327D01*
X174753327Y-81309698D01*
X174767560Y-81275337D01*
X174767560Y-83950000D01*
X174811838Y-84185317D01*
X174950910Y-84401441D01*
X175163110Y-84546431D01*
X175415000Y-84597440D01*
X178915000Y-84597440D01*
X179150317Y-84553162D01*
X179366441Y-84414090D01*
X179511431Y-84201890D01*
X179562440Y-83950000D01*
X179562440Y-80450000D01*
X179518162Y-80214683D01*
X179379090Y-79998559D01*
X179166890Y-79853569D01*
X178915000Y-79802560D01*
X175415000Y-79802560D01*
X175179683Y-79846838D01*
X174963559Y-79985910D01*
X174850000Y-80152109D01*
X174850000Y-79485750D01*
X174691250Y-79327000D01*
X172592000Y-79327000D01*
X172338000Y-79327000D01*
X170238750Y-79327000D01*
X170080000Y-79485750D01*
X114218381Y-79485750D01*
X112056322Y-77323691D01*
X170080000Y-77323691D01*
X170080000Y-78914250D01*
X170238750Y-79073000D01*
X172338000Y-79073000D01*
X172338000Y-76973750D01*
X172592000Y-76973750D01*
X172592000Y-79073000D01*
X174691250Y-79073000D01*
X174850000Y-78914250D01*
X174850000Y-78245304D01*
X174876673Y-78309698D01*
X175055301Y-78488327D01*
X175288690Y-78585000D01*
X176879250Y-78585000D01*
X177038000Y-78426250D01*
X177038000Y-76327000D01*
X177292000Y-76327000D01*
X177292000Y-78426250D01*
X177450750Y-78585000D01*
X179041310Y-78585000D01*
X179274699Y-78488327D01*
X179453327Y-78309698D01*
X179550000Y-78076309D01*
X179550000Y-76485750D01*
X179391250Y-76327000D01*
X177292000Y-76327000D01*
X177038000Y-76327000D01*
X174938750Y-76327000D01*
X174780000Y-76485750D01*
X174780000Y-77154696D01*
X174753327Y-77090302D01*
X174574699Y-76911673D01*
X174341310Y-76815000D01*
X172750750Y-76815000D01*
X172592000Y-76973750D01*
X172338000Y-76973750D01*
X172179250Y-76815000D01*
X170588690Y-76815000D01*
X170355301Y-76911673D01*
X170176673Y-77090302D01*
X170080000Y-77323691D01*
X112056322Y-77323691D01*
X111949732Y-77217102D01*
X111999738Y-77096675D01*
X112000262Y-76495960D01*
X111770862Y-75940771D01*
X111602283Y-75771897D01*
X111816441Y-75634090D01*
X111961431Y-75421890D01*
X112012440Y-75170000D01*
X112012440Y-73420000D01*
X111968162Y-73184683D01*
X111829090Y-72968559D01*
X111616890Y-72823569D01*
X111365000Y-72772560D01*
X109615000Y-72772560D01*
X109379683Y-72816838D01*
X109163559Y-72955910D01*
X109018569Y-73168110D01*
X108967560Y-73420000D01*
X108967560Y-75170000D01*
X109011838Y-75405317D01*
X109150910Y-75621441D01*
X109363110Y-75766431D01*
X109379676Y-75769786D01*
X109210630Y-75938537D01*
X108980262Y-76493325D01*
X108979738Y-77094040D01*
X109018798Y-77188572D01*
X106776185Y-79431185D01*
X106611004Y-79678395D01*
X106553000Y-79970000D01*
X100405000Y-79970000D01*
X100405000Y-70817376D01*
X156965000Y-70817376D01*
X156965000Y-71422624D01*
X157051397Y-71856970D01*
X157297434Y-72225190D01*
X157338000Y-72252295D01*
X157338000Y-72970000D01*
X157396004Y-73261605D01*
X157485284Y-73395221D01*
X157561185Y-73508815D01*
X157824781Y-73772411D01*
X157815315Y-73820000D01*
X157899809Y-74244779D01*
X158140426Y-74604889D01*
X158500536Y-74845506D01*
X158925315Y-74930000D01*
X159274685Y-74930000D01*
X159699464Y-74845506D01*
X160059574Y-74604889D01*
X160074868Y-74582000D01*
X163125132Y-74582000D01*
X163140426Y-74604889D01*
X163500536Y-74845506D01*
X163925315Y-74930000D01*
X164274685Y-74930000D01*
X164699464Y-74845506D01*
X165059574Y-74604889D01*
X165247463Y-74323691D01*
X174780000Y-74323691D01*
X174780000Y-75914250D01*
X174938750Y-76073000D01*
X177038000Y-76073000D01*
X177038000Y-73973750D01*
X177292000Y-73973750D01*
X177292000Y-76073000D01*
X179391250Y-76073000D01*
X179550000Y-75914250D01*
X179550000Y-74323691D01*
X179490608Y-74180306D01*
X188343410Y-74180306D01*
X188369421Y-74780458D01*
X188549047Y-75214116D01*
X188802940Y-75297455D01*
X189685395Y-74415000D01*
X190044605Y-74415000D01*
X190927060Y-75297455D01*
X191180953Y-75214116D01*
X191386590Y-74649694D01*
X191360579Y-74049542D01*
X191180953Y-73615884D01*
X190927060Y-73532545D01*
X190044605Y-74415000D01*
X189685395Y-74415000D01*
X188802940Y-73532545D01*
X188549047Y-73615884D01*
X188343410Y-74180306D01*
X179490608Y-74180306D01*
X179453327Y-74090302D01*
X179274699Y-73911673D01*
X179041310Y-73815000D01*
X177450750Y-73815000D01*
X177292000Y-73973750D01*
X177038000Y-73973750D01*
X176879250Y-73815000D01*
X175288690Y-73815000D01*
X175055301Y-73911673D01*
X174876673Y-74090302D01*
X174780000Y-74323691D01*
X165247463Y-74323691D01*
X165300191Y-74244779D01*
X165384685Y-73820000D01*
X165375219Y-73772412D01*
X165638816Y-73508815D01*
X165742968Y-73352940D01*
X188982545Y-73352940D01*
X189865000Y-74235395D01*
X190747455Y-73352940D01*
X190664116Y-73099047D01*
X190099694Y-72893410D01*
X189499542Y-72919421D01*
X189065884Y-73099047D01*
X188982545Y-73352940D01*
X165742968Y-73352940D01*
X165803997Y-73261604D01*
X165862000Y-72970000D01*
X165862000Y-72252295D01*
X165902566Y-72225190D01*
X166148603Y-71856970D01*
X166235000Y-71422624D01*
X166235000Y-70817376D01*
X166148603Y-70383030D01*
X165902566Y-70014810D01*
X165534346Y-69768773D01*
X165100000Y-69682376D01*
X164665654Y-69768773D01*
X164297434Y-70014810D01*
X164068122Y-70358000D01*
X159131878Y-70358000D01*
X158902566Y-70014810D01*
X158534346Y-69768773D01*
X158100000Y-69682376D01*
X157665654Y-69768773D01*
X157297434Y-70014810D01*
X157051397Y-70383030D01*
X156965000Y-70817376D01*
X100405000Y-70817376D01*
X100405000Y-68655000D01*
X199950000Y-68655000D01*
X199950000Y-134545000D01*
X199950000Y-134545000D01*
G37*
X199950000Y-134545000D02*
X100405000Y-134545000D01*
X100405000Y-131237060D01*
X109607545Y-131237060D01*
X109690884Y-131490953D01*
X110255306Y-131696590D01*
X110855458Y-131670579D01*
X111289116Y-131490953D01*
X111372455Y-131237060D01*
X110490000Y-130354605D01*
X109607545Y-131237060D01*
X100405000Y-131237060D01*
X100405000Y-129940306D01*
X108968410Y-129940306D01*
X108994421Y-130540458D01*
X109174047Y-130974116D01*
X109427940Y-131057455D01*
X110310395Y-130175000D01*
X110669605Y-130175000D01*
X111552060Y-131057455D01*
X111805953Y-130974116D01*
X112011590Y-130409694D01*
X111985579Y-129809542D01*
X111805953Y-129375884D01*
X111552060Y-129292545D01*
X110669605Y-130175000D01*
X110310395Y-130175000D01*
X109427940Y-129292545D01*
X109174047Y-129375884D01*
X108968410Y-129940306D01*
X100405000Y-129940306D01*
X100405000Y-79970000D01*
X106553000Y-79970000D01*
X106553000Y-122000000D01*
X106611004Y-122291605D01*
X106722731Y-122458815D01*
X106776185Y-122538815D01*
X109018532Y-124781162D01*
X108980262Y-124873325D01*
X108979738Y-125474040D01*
X109209138Y-126029229D01*
X109604536Y-126425318D01*
X109210630Y-126818537D01*
X108980262Y-127373325D01*
X108979738Y-127974040D01*
X109209138Y-128529229D01*
X109633537Y-128954370D01*
X109656469Y-128963892D01*
X109607545Y-129112940D01*
X110490000Y-129995395D01*
X111372455Y-129112940D01*
X111323682Y-128964352D01*
X111344229Y-128955862D01*
X111769370Y-128531463D01*
X111999738Y-127976675D01*
X112000262Y-127375960D01*
X111961202Y-127281428D01*
X114203815Y-125038815D01*
X114368996Y-124791605D01*
X114427000Y-124500000D01*
X114427000Y-84582000D01*
X115889370Y-84582000D01*
X119079875Y-87772506D01*
X119079838Y-87815167D01*
X119213230Y-88138000D01*
X116840000Y-88138000D01*
X116793841Y-88146685D01*
X116751447Y-88173965D01*
X116723006Y-88215590D01*
X116713000Y-88265000D01*
X116713000Y-106045000D01*
X116721685Y-106091159D01*
X116748965Y-106133553D01*
X116790590Y-106161994D01*
X116840000Y-106172000D01*
X119445370Y-106172000D01*
X116301185Y-109316185D01*
X116136004Y-109563395D01*
X116078000Y-109855000D01*
X116078000Y-123825000D01*
X116136004Y-124116605D01*
X116197337Y-124208396D01*
X116301185Y-124363815D01*
X118841184Y-126903815D01*
X118928818Y-126962370D01*
X119088395Y-127068996D01*
X119380000Y-127127000D01*
X187731370Y-127127000D01*
X188393531Y-127789162D01*
X188355262Y-127881325D01*
X188354738Y-128482040D01*
X188584138Y-129037229D01*
X188752717Y-129206103D01*
X188538559Y-129343910D01*
X188393569Y-129556110D01*
X188342560Y-129808000D01*
X188342560Y-131558000D01*
X188386838Y-131793317D01*
X188525910Y-132009441D01*
X188738110Y-132154431D01*
X188990000Y-132205440D01*
X190740000Y-132205440D01*
X190975317Y-132161162D01*
X191191441Y-132022090D01*
X191336431Y-131809890D01*
X191387440Y-131558000D01*
X191387440Y-129808000D01*
X191343162Y-129572683D01*
X191204090Y-129356559D01*
X190991890Y-129211569D01*
X190975324Y-129208214D01*
X191144370Y-129039463D01*
X191374738Y-128484675D01*
X191375262Y-127883960D01*
X191145862Y-127328771D01*
X190750464Y-126932682D01*
X191144370Y-126539463D01*
X191374738Y-125984675D01*
X191375262Y-125383960D01*
X191145862Y-124828771D01*
X190721463Y-124403630D01*
X190698531Y-124394108D01*
X190747455Y-124245060D01*
X189865000Y-123362605D01*
X188982545Y-124245060D01*
X189031318Y-124393648D01*
X189010771Y-124402138D01*
X188585630Y-124826537D01*
X188546406Y-124921000D01*
X186036630Y-124921000D01*
X188534891Y-122422740D01*
X188343410Y-122948306D01*
X188369421Y-123548458D01*
X188549047Y-123982116D01*
X188802940Y-124065455D01*
X189685395Y-123183000D01*
X190044605Y-123183000D01*
X190927060Y-124065455D01*
X191180953Y-123982116D01*
X191386590Y-123417694D01*
X191360579Y-122817542D01*
X191180953Y-122383884D01*
X190927060Y-122300545D01*
X190044605Y-123183000D01*
X189685395Y-123183000D01*
X189671253Y-123168858D01*
X189850858Y-122989253D01*
X189865000Y-123003395D01*
X190747455Y-122120940D01*
X190664116Y-121867047D01*
X190099694Y-121661410D01*
X189499542Y-121687421D01*
X189108048Y-121849582D01*
X193578815Y-117378816D01*
X193743996Y-117131605D01*
X193743996Y-117131604D01*
X193802000Y-116840000D01*
X193802000Y-96346000D01*
X193743996Y-96054395D01*
X193578815Y-95807185D01*
X191336468Y-93564838D01*
X191374738Y-93472675D01*
X191375262Y-92871960D01*
X191145862Y-92316771D01*
X190721463Y-91891630D01*
X190698531Y-91882108D01*
X190747455Y-91733060D01*
X189865000Y-90850605D01*
X188982545Y-91733060D01*
X189031318Y-91881648D01*
X189010771Y-91890138D01*
X188585630Y-92314537D01*
X188355262Y-92869325D01*
X188354738Y-93470040D01*
X188584138Y-94025229D01*
X188979536Y-94421318D01*
X188585630Y-94814537D01*
X188355262Y-95369325D01*
X188354738Y-95970040D01*
X188584138Y-96525229D01*
X188752717Y-96694103D01*
X188538559Y-96831910D01*
X188393569Y-97044110D01*
X188342560Y-97296000D01*
X188342560Y-99046000D01*
X188386838Y-99281317D01*
X188525910Y-99497441D01*
X188738110Y-99642431D01*
X188990000Y-99693440D01*
X190740000Y-99693440D01*
X190975317Y-99649162D01*
X191191441Y-99510090D01*
X191336431Y-99297890D01*
X191387440Y-99046000D01*
X191387440Y-98271071D01*
X191643000Y-98526631D01*
X191643000Y-115889370D01*
X183834370Y-123698000D01*
X121600631Y-123698000D01*
X119507000Y-121604370D01*
X119507000Y-112075630D01*
X125410631Y-106172000D01*
X131318000Y-106172000D01*
X131318000Y-113309369D01*
X125448838Y-119178532D01*
X125356675Y-119140262D01*
X124755960Y-119139738D01*
X124200771Y-119369138D01*
X124031897Y-119537717D01*
X123894090Y-119323559D01*
X123681890Y-119178569D01*
X123430000Y-119127560D01*
X121680000Y-119127560D01*
X121444683Y-119171838D01*
X121228559Y-119310910D01*
X121083569Y-119523110D01*
X121032560Y-119775000D01*
X121032560Y-121525000D01*
X121076838Y-121760317D01*
X121215910Y-121976441D01*
X121428110Y-122121431D01*
X121680000Y-122172440D01*
X123430000Y-122172440D01*
X123665317Y-122128162D01*
X123881441Y-121989090D01*
X124026431Y-121776890D01*
X124029786Y-121760324D01*
X124198537Y-121929370D01*
X124753325Y-122159738D01*
X125354040Y-122160262D01*
X125909229Y-121930862D01*
X126305318Y-121535464D01*
X126698537Y-121929370D01*
X127253325Y-122159738D01*
X127854040Y-122160262D01*
X128409229Y-121930862D01*
X128628413Y-121712060D01*
X129172545Y-121712060D01*
X129255884Y-121965953D01*
X129820306Y-122171590D01*
X130420458Y-122145579D01*
X130854116Y-121965953D01*
X130937455Y-121712060D01*
X130055000Y-120829605D01*
X129172545Y-121712060D01*
X128628413Y-121712060D01*
X128834370Y-121506463D01*
X128843892Y-121483531D01*
X128992940Y-121532455D01*
X129875395Y-120650000D01*
X130234605Y-120650000D01*
X131117060Y-121532455D01*
X131370953Y-121449116D01*
X131576590Y-120884694D01*
X131550579Y-120284542D01*
X131370953Y-119850884D01*
X131117060Y-119767545D01*
X130234605Y-120650000D01*
X129875395Y-120650000D01*
X129861253Y-120635858D01*
X130040858Y-120456253D01*
X130055000Y-120470395D01*
X130937455Y-119587940D01*
X130854116Y-119334047D01*
X130289694Y-119128410D01*
X130148082Y-119134548D01*
X133253815Y-116028815D01*
X133306852Y-115949440D01*
X133418996Y-115781605D01*
X133477000Y-115490000D01*
X133477000Y-114274630D01*
X138329929Y-119127560D01*
X137555000Y-119127560D01*
X137319683Y-119171838D01*
X137103559Y-119310910D01*
X136958569Y-119523110D01*
X136907560Y-119775000D01*
X136907560Y-121525000D01*
X136951838Y-121760317D01*
X137090910Y-121976441D01*
X137303110Y-122121431D01*
X137555000Y-122172440D01*
X139305000Y-122172440D01*
X139540317Y-122128162D01*
X139756441Y-121989090D01*
X139901431Y-121776890D01*
X139904786Y-121760324D01*
X140073537Y-121929370D01*
X140628325Y-122159738D01*
X141229040Y-122160262D01*
X141784229Y-121930862D01*
X142180318Y-121535464D01*
X142573537Y-121929370D01*
X143128325Y-122159738D01*
X143729040Y-122160262D01*
X144284229Y-121930862D01*
X144503413Y-121712060D01*
X145047545Y-121712060D01*
X145130884Y-121965953D01*
X145695306Y-122171590D01*
X146295458Y-122145579D01*
X146729116Y-121965953D01*
X146812455Y-121712060D01*
X145930000Y-120829605D01*
X145047545Y-121712060D01*
X144503413Y-121712060D01*
X144709370Y-121506463D01*
X144718892Y-121483531D01*
X144867940Y-121532455D01*
X145750395Y-120650000D01*
X146109605Y-120650000D01*
X146992060Y-121532455D01*
X147245953Y-121449116D01*
X147451590Y-120884694D01*
X147425579Y-120284542D01*
X147245953Y-119850884D01*
X146992060Y-119767545D01*
X146109605Y-120650000D01*
X145750395Y-120650000D01*
X144867940Y-119767545D01*
X144719352Y-119816318D01*
X144710862Y-119795771D01*
X144422595Y-119507000D01*
X145074113Y-119507000D01*
X145047545Y-119587940D01*
X145930000Y-120470395D01*
X146812455Y-119587940D01*
X146785887Y-119507000D01*
X152844576Y-119507000D01*
X152833569Y-119523110D01*
X152782560Y-119775000D01*
X152782560Y-121525000D01*
X152826838Y-121760317D01*
X152965910Y-121976441D01*
X153178110Y-122121431D01*
X153430000Y-122172440D01*
X155180000Y-122172440D01*
X155415317Y-122128162D01*
X155631441Y-121989090D01*
X155776431Y-121776890D01*
X155779786Y-121760324D01*
X155948537Y-121929370D01*
X156503325Y-122159738D01*
X157104040Y-122160262D01*
X157659229Y-121930862D01*
X158055318Y-121535464D01*
X158448537Y-121929370D01*
X159003325Y-122159738D01*
X159604040Y-122160262D01*
X160159229Y-121930862D01*
X160378413Y-121712060D01*
X160922545Y-121712060D01*
X161005884Y-121965953D01*
X161570306Y-122171590D01*
X162170458Y-122145579D01*
X162604116Y-121965953D01*
X162687455Y-121712060D01*
X161805000Y-120829605D01*
X160922545Y-121712060D01*
X160378413Y-121712060D01*
X160584370Y-121506463D01*
X160593892Y-121483531D01*
X160742940Y-121532455D01*
X161625395Y-120650000D01*
X161984605Y-120650000D01*
X162867060Y-121532455D01*
X163120953Y-121449116D01*
X163326590Y-120884694D01*
X163300579Y-120284542D01*
X163120953Y-119850884D01*
X162867060Y-119767545D01*
X161984605Y-120650000D01*
X161625395Y-120650000D01*
X160742940Y-119767545D01*
X160594352Y-119816318D01*
X160585862Y-119795771D01*
X160378394Y-119587940D01*
X160922545Y-119587940D01*
X161805000Y-120470395D01*
X162687455Y-119587940D01*
X162604116Y-119334047D01*
X162039694Y-119128410D01*
X161439542Y-119154421D01*
X161005884Y-119334047D01*
X160922545Y-119587940D01*
X160378394Y-119587940D01*
X160161463Y-119370630D01*
X159606675Y-119140262D01*
X159005960Y-119139738D01*
X158911428Y-119178798D01*
X157969630Y-118237000D01*
X169189370Y-118237000D01*
X170079930Y-119127560D01*
X169305000Y-119127560D01*
X169069683Y-119171838D01*
X168853559Y-119310910D01*
X168708569Y-119523110D01*
X168657560Y-119775000D01*
X168657560Y-121525000D01*
X168701838Y-121760317D01*
X168840910Y-121976441D01*
X169053110Y-122121431D01*
X169305000Y-122172440D01*
X171055000Y-122172440D01*
X171290317Y-122128162D01*
X171506441Y-121989090D01*
X171651431Y-121776890D01*
X171654786Y-121760324D01*
X171823537Y-121929370D01*
X172378325Y-122159738D01*
X172979040Y-122160262D01*
X173534229Y-121930862D01*
X173930318Y-121535464D01*
X174323537Y-121929370D01*
X174878325Y-122159738D01*
X175479040Y-122160262D01*
X176034229Y-121930862D01*
X176253413Y-121712060D01*
X176797545Y-121712060D01*
X176880884Y-121965953D01*
X177445306Y-122171590D01*
X178045458Y-122145579D01*
X178479116Y-121965953D01*
X178562455Y-121712060D01*
X177680000Y-120829605D01*
X176797545Y-121712060D01*
X176253413Y-121712060D01*
X176459370Y-121506463D01*
X176468892Y-121483531D01*
X176617940Y-121532455D01*
X177500395Y-120650000D01*
X177859605Y-120650000D01*
X178742060Y-121532455D01*
X178995953Y-121449116D01*
X179201590Y-120884694D01*
X179175579Y-120284542D01*
X178995953Y-119850884D01*
X178742060Y-119767545D01*
X177859605Y-120650000D01*
X177500395Y-120650000D01*
X176617940Y-119767545D01*
X176469352Y-119816318D01*
X176460862Y-119795771D01*
X176253394Y-119587940D01*
X176797545Y-119587940D01*
X177680000Y-120470395D01*
X178562455Y-119587940D01*
X178479116Y-119334047D01*
X177914694Y-119128410D01*
X177314542Y-119154421D01*
X176880884Y-119334047D01*
X176797545Y-119587940D01*
X176253394Y-119587940D01*
X176036463Y-119370630D01*
X175942000Y-119331406D01*
X175942000Y-119300000D01*
X175883996Y-119008395D01*
X175718815Y-118761184D01*
X173924630Y-116967000D01*
X185587000Y-116967000D01*
X185878605Y-116908996D01*
X186125815Y-116743815D01*
X188342560Y-114527071D01*
X188342560Y-115302000D01*
X188386838Y-115537317D01*
X188525910Y-115753441D01*
X188738110Y-115898431D01*
X188990000Y-115949440D01*
X190740000Y-115949440D01*
X190975317Y-115905162D01*
X191191441Y-115766090D01*
X191336431Y-115553890D01*
X191387440Y-115302000D01*
X191387440Y-113552000D01*
X191343162Y-113316683D01*
X191204090Y-113100559D01*
X190991890Y-112955569D01*
X190975324Y-112952214D01*
X191144370Y-112783463D01*
X191374738Y-112228675D01*
X191375262Y-111627960D01*
X191145862Y-111072771D01*
X190750464Y-110676682D01*
X191144370Y-110283463D01*
X191374738Y-109728675D01*
X191375262Y-109127960D01*
X191145862Y-108572771D01*
X190721463Y-108147630D01*
X190698531Y-108138108D01*
X190747455Y-107989060D01*
X189865000Y-107106605D01*
X188982545Y-107989060D01*
X189031318Y-108137648D01*
X189010771Y-108146138D01*
X188585630Y-108570537D01*
X188355262Y-109125325D01*
X188354738Y-109726040D01*
X188393798Y-109820572D01*
X183406370Y-114808000D01*
X146365631Y-114808000D01*
X144911426Y-113353795D01*
X150614716Y-113353795D01*
X150863106Y-113954943D01*
X151322637Y-114415278D01*
X151923352Y-114664716D01*
X152573795Y-114665284D01*
X153174943Y-114416894D01*
X153635278Y-113957363D01*
X153884716Y-113356648D01*
X153884718Y-113353795D01*
X157114716Y-113353795D01*
X157363106Y-113954943D01*
X157822637Y-114415278D01*
X158423352Y-114664716D01*
X159073795Y-114665284D01*
X159674943Y-114416894D01*
X159909715Y-114182532D01*
X162072073Y-114182532D01*
X162170736Y-114449387D01*
X162780461Y-114675908D01*
X163430460Y-114651856D01*
X163919264Y-114449387D01*
X164017927Y-114182532D01*
X168572073Y-114182532D01*
X168670736Y-114449387D01*
X169280461Y-114675908D01*
X169930460Y-114651856D01*
X170419264Y-114449387D01*
X170517927Y-114182532D01*
X169545000Y-113209605D01*
X168572073Y-114182532D01*
X164017927Y-114182532D01*
X163045000Y-113209605D01*
X162072073Y-114182532D01*
X159909715Y-114182532D01*
X160135278Y-113957363D01*
X160384716Y-113356648D01*
X160385232Y-112765461D01*
X161399092Y-112765461D01*
X161423144Y-113415460D01*
X161625613Y-113904264D01*
X161892468Y-114002927D01*
X162865395Y-113030000D01*
X163224605Y-113030000D01*
X164197532Y-114002927D01*
X164464387Y-113904264D01*
X164690908Y-113294539D01*
X164671331Y-112765461D01*
X167899092Y-112765461D01*
X167923144Y-113415460D01*
X168125613Y-113904264D01*
X168392468Y-114002927D01*
X169365395Y-113030000D01*
X169724605Y-113030000D01*
X170697532Y-114002927D01*
X170964387Y-113904264D01*
X171148460Y-113408795D01*
X172204716Y-113408795D01*
X172453106Y-114009943D01*
X172912637Y-114470278D01*
X173513352Y-114719716D01*
X174163795Y-114720284D01*
X174764943Y-114471894D01*
X175225278Y-114012363D01*
X175474716Y-113411648D01*
X175474718Y-113408795D01*
X178704716Y-113408795D01*
X178953106Y-114009943D01*
X179412637Y-114470278D01*
X180013352Y-114719716D01*
X180663795Y-114720284D01*
X181264943Y-114471894D01*
X181725278Y-114012363D01*
X181974716Y-113411648D01*
X181975284Y-112761205D01*
X181726894Y-112160057D01*
X181267363Y-111699722D01*
X180666648Y-111450284D01*
X180016205Y-111449716D01*
X179415057Y-111698106D01*
X178954722Y-112157637D01*
X178705284Y-112758352D01*
X178704716Y-113408795D01*
X175474718Y-113408795D01*
X175475284Y-112761205D01*
X175226894Y-112160057D01*
X174767363Y-111699722D01*
X174166648Y-111450284D01*
X173516205Y-111449716D01*
X172915057Y-111698106D01*
X172454722Y-112157637D01*
X172205284Y-112758352D01*
X172204716Y-113408795D01*
X171148460Y-113408795D01*
X171190908Y-113294539D01*
X171166856Y-112644540D01*
X170964387Y-112155736D01*
X170697532Y-112057073D01*
X169724605Y-113030000D01*
X169365395Y-113030000D01*
X168392468Y-112057073D01*
X168125613Y-112155736D01*
X167899092Y-112765461D01*
X164671331Y-112765461D01*
X164666856Y-112644540D01*
X164464387Y-112155736D01*
X164197532Y-112057073D01*
X163224605Y-113030000D01*
X162865395Y-113030000D01*
X161892468Y-112057073D01*
X161625613Y-112155736D01*
X161399092Y-112765461D01*
X160385232Y-112765461D01*
X160385284Y-112706205D01*
X160136894Y-112105057D01*
X159909703Y-111877468D01*
X162072073Y-111877468D01*
X163045000Y-112850395D01*
X164017927Y-111877468D01*
X168572073Y-111877468D01*
X169545000Y-112850395D01*
X170517927Y-111877468D01*
X170419264Y-111610613D01*
X169809539Y-111384092D01*
X169159540Y-111408144D01*
X168670736Y-111610613D01*
X168572073Y-111877468D01*
X164017927Y-111877468D01*
X163919264Y-111610613D01*
X163309539Y-111384092D01*
X162659540Y-111408144D01*
X162170736Y-111610613D01*
X162072073Y-111877468D01*
X159909703Y-111877468D01*
X159677363Y-111644722D01*
X159076648Y-111395284D01*
X158426205Y-111394716D01*
X157825057Y-111643106D01*
X157364722Y-112102637D01*
X157115284Y-112703352D01*
X157114716Y-113353795D01*
X153884718Y-113353795D01*
X153885284Y-112706205D01*
X153636894Y-112105057D01*
X153177363Y-111644722D01*
X152576648Y-111395284D01*
X151926205Y-111394716D01*
X151325057Y-111643106D01*
X150864722Y-112102637D01*
X150615284Y-112703352D01*
X150614716Y-113353795D01*
X144911426Y-113353795D01*
X140411426Y-108853795D01*
X150614716Y-108853795D01*
X150863106Y-109454943D01*
X151322637Y-109915278D01*
X151923352Y-110164716D01*
X152573795Y-110165284D01*
X153174943Y-109916894D01*
X153635278Y-109457363D01*
X153703943Y-109292000D01*
X157295779Y-109292000D01*
X157363106Y-109454943D01*
X157822637Y-109915278D01*
X158423352Y-110164716D01*
X159073795Y-110165284D01*
X159674943Y-109916894D01*
X160135278Y-109457363D01*
X160384716Y-108856648D01*
X160385284Y-108206205D01*
X160136894Y-107605057D01*
X159677363Y-107144722D01*
X159076648Y-106895284D01*
X158426205Y-106894716D01*
X157825057Y-107143106D01*
X157364722Y-107602637D01*
X157296057Y-107768000D01*
X155702000Y-107768000D01*
X155702000Y-105335466D01*
X155732192Y-105305327D01*
X155874838Y-104961799D01*
X155875162Y-104589833D01*
X155733117Y-104246057D01*
X155470327Y-103982808D01*
X155126799Y-103840162D01*
X154754833Y-103839838D01*
X154411057Y-103981883D01*
X154147808Y-104244673D01*
X154005162Y-104588201D01*
X154004838Y-104960167D01*
X154146883Y-105303943D01*
X154178000Y-105335114D01*
X154178000Y-107768000D01*
X153704221Y-107768000D01*
X153636894Y-107605057D01*
X153177363Y-107144722D01*
X152576648Y-106895284D01*
X151926205Y-106894716D01*
X151325057Y-107143106D01*
X150864722Y-107602637D01*
X150615284Y-108203352D01*
X150614716Y-108853795D01*
X140411426Y-108853795D01*
X139192000Y-107634370D01*
X139192000Y-106172000D01*
X146050000Y-106172000D01*
X146096159Y-106163315D01*
X146138553Y-106136035D01*
X146166994Y-106094410D01*
X146177000Y-106045000D01*
X146177000Y-105537000D01*
X150495000Y-105537000D01*
X150786605Y-105478996D01*
X151033815Y-105313815D01*
X152276626Y-104071004D01*
X152542506Y-103805125D01*
X152585167Y-103805162D01*
X152928943Y-103663117D01*
X153192192Y-103400327D01*
X153334838Y-103056799D01*
X153335162Y-102684833D01*
X153193117Y-102341057D01*
X152930327Y-102077808D01*
X152586799Y-101935162D01*
X152214833Y-101934838D01*
X151871057Y-102076883D01*
X151607808Y-102339673D01*
X151465162Y-102683201D01*
X151465124Y-102727246D01*
X150179370Y-104013000D01*
X146177000Y-104013000D01*
X146177000Y-101727000D01*
X158434370Y-101727000D01*
X160720370Y-104013000D01*
X158675466Y-104013000D01*
X158645327Y-103982808D01*
X158301799Y-103840162D01*
X157929833Y-103839838D01*
X157586057Y-103981883D01*
X157480046Y-104087710D01*
X157375327Y-103982808D01*
X157031799Y-103840162D01*
X156659833Y-103839838D01*
X156316057Y-103981883D01*
X156052808Y-104244673D01*
X155910162Y-104588201D01*
X155909838Y-104960167D01*
X156051883Y-105303943D01*
X156314673Y-105567192D01*
X156658201Y-105709838D01*
X156702246Y-105709876D01*
X156941185Y-105948816D01*
X157089377Y-106047834D01*
X157188395Y-106113996D01*
X157480000Y-106172000D01*
X159609370Y-106172000D01*
X161477895Y-108040526D01*
X161410284Y-108203352D01*
X161409716Y-108853795D01*
X161658106Y-109454943D01*
X162117637Y-109915278D01*
X162718352Y-110164716D01*
X163368795Y-110165284D01*
X163969943Y-109916894D01*
X164430278Y-109457363D01*
X164498943Y-109292000D01*
X168090779Y-109292000D01*
X168158106Y-109454943D01*
X168617637Y-109915278D01*
X169218352Y-110164716D01*
X169868795Y-110165284D01*
X170469943Y-109916894D01*
X170930278Y-109457363D01*
X171179716Y-108856648D01*
X171180284Y-108206205D01*
X170931894Y-107605057D01*
X170472363Y-107144722D01*
X169871648Y-106895284D01*
X169221205Y-106894716D01*
X168620057Y-107143106D01*
X168159722Y-107602637D01*
X168091057Y-107768000D01*
X164499221Y-107768000D01*
X164431894Y-107605057D01*
X163972363Y-107144722D01*
X163371648Y-106895284D01*
X162721205Y-106894716D01*
X162555723Y-106963092D01*
X161129630Y-105537000D01*
X169714370Y-105537000D01*
X172272895Y-108095526D01*
X172205284Y-108258352D01*
X172204716Y-108908795D01*
X172453106Y-109509943D01*
X172912637Y-109970278D01*
X173513352Y-110219716D01*
X174163795Y-110220284D01*
X174764943Y-109971894D01*
X175225278Y-109512363D01*
X175293943Y-109347000D01*
X178885779Y-109347000D01*
X178953106Y-109509943D01*
X179412637Y-109970278D01*
X180013352Y-110219716D01*
X180663795Y-110220284D01*
X181264943Y-109971894D01*
X181725278Y-109512363D01*
X181974716Y-108911648D01*
X181975284Y-108261205D01*
X181726894Y-107660057D01*
X181267363Y-107199722D01*
X180666648Y-106950284D01*
X180016205Y-106949716D01*
X179415057Y-107198106D01*
X178954722Y-107657637D01*
X178886057Y-107823000D01*
X175294221Y-107823000D01*
X175226894Y-107660057D01*
X174767363Y-107199722D01*
X174166648Y-106950284D01*
X173516205Y-106949716D01*
X173350723Y-107018092D01*
X173024937Y-106692306D01*
X188343410Y-106692306D01*
X188369421Y-107292458D01*
X188549047Y-107726116D01*
X188802940Y-107809455D01*
X189685395Y-106927000D01*
X190044605Y-106927000D01*
X190927060Y-107809455D01*
X191180953Y-107726116D01*
X191386590Y-107161694D01*
X191360579Y-106561542D01*
X191180953Y-106127884D01*
X190927060Y-106044545D01*
X190044605Y-106927000D01*
X189685395Y-106927000D01*
X188802940Y-106044545D01*
X188549047Y-106127884D01*
X188343410Y-106692306D01*
X173024937Y-106692306D01*
X172197571Y-105864940D01*
X188982545Y-105864940D01*
X189865000Y-106747395D01*
X190747455Y-105864940D01*
X190664116Y-105611047D01*
X190099694Y-105405410D01*
X189499542Y-105431421D01*
X189065884Y-105611047D01*
X188982545Y-105864940D01*
X172197571Y-105864940D01*
X171148580Y-104815949D01*
X171353815Y-104678815D01*
X172227506Y-103805125D01*
X172270167Y-103805162D01*
X172613943Y-103663117D01*
X172877192Y-103400327D01*
X173019838Y-103056799D01*
X173020162Y-102684833D01*
X172878117Y-102341057D01*
X172615327Y-102077808D01*
X172271799Y-101935162D01*
X171899833Y-101934838D01*
X171556057Y-102076883D01*
X171292808Y-102339673D01*
X171150162Y-102683201D01*
X171150124Y-102727246D01*
X170499370Y-103378000D01*
X162240630Y-103378000D01*
X159288815Y-100426185D01*
X159247880Y-100398833D01*
X159041605Y-100261004D01*
X158750000Y-100203000D01*
X146324630Y-100203000D01*
X146177000Y-100055370D01*
X146177000Y-96647000D01*
X152084370Y-96647000D01*
X152099875Y-96662506D01*
X152099838Y-96705167D01*
X152241883Y-97048943D01*
X152469955Y-97277414D01*
X152257494Y-97489875D01*
X152214833Y-97489838D01*
X151871057Y-97631883D01*
X151607808Y-97894673D01*
X151465162Y-98238201D01*
X151464838Y-98610167D01*
X151606883Y-98953943D01*
X151869673Y-99217192D01*
X152213201Y-99359838D01*
X152585167Y-99360162D01*
X152928943Y-99218117D01*
X153192192Y-98955327D01*
X153334838Y-98611799D01*
X153334876Y-98567754D01*
X153350631Y-98552000D01*
X182954534Y-98552000D01*
X182984673Y-98582192D01*
X183328201Y-98724838D01*
X183700167Y-98725162D01*
X184043943Y-98583117D01*
X184307192Y-98320327D01*
X184449838Y-97976799D01*
X184450162Y-97604833D01*
X184308117Y-97261057D01*
X184045327Y-96997808D01*
X183701799Y-96855162D01*
X183329833Y-96854838D01*
X182986057Y-96996883D01*
X182954886Y-97028000D01*
X153836463Y-97028000D01*
X153969838Y-96706799D01*
X153970162Y-96334833D01*
X153836770Y-96012000D01*
X161290000Y-96012000D01*
X161581605Y-95953996D01*
X161828815Y-95788815D01*
X165003815Y-92613815D01*
X165168996Y-92366605D01*
X165178466Y-92318996D01*
X165227000Y-92075000D01*
X165227000Y-90436306D01*
X188343410Y-90436306D01*
X188369421Y-91036458D01*
X188549047Y-91470116D01*
X188802940Y-91553455D01*
X189685395Y-90671000D01*
X190044605Y-90671000D01*
X190927060Y-91553455D01*
X191180953Y-91470116D01*
X191386590Y-90905694D01*
X191360579Y-90305542D01*
X191180953Y-89871884D01*
X190927060Y-89788545D01*
X190044605Y-90671000D01*
X189685395Y-90671000D01*
X188802940Y-89788545D01*
X188549047Y-89871884D01*
X188343410Y-90436306D01*
X165227000Y-90436306D01*
X165227000Y-89608940D01*
X188982545Y-89608940D01*
X189865000Y-90491395D01*
X190747455Y-89608940D01*
X190664116Y-89355047D01*
X190099694Y-89149410D01*
X189499542Y-89175421D01*
X189065884Y-89355047D01*
X188982545Y-89608940D01*
X165227000Y-89608940D01*
X165227000Y-88190466D01*
X165257192Y-88160327D01*
X165399838Y-87816799D01*
X165399890Y-87757000D01*
X182285000Y-87757000D01*
X182576605Y-87698996D01*
X182823815Y-87533815D01*
X188342560Y-82015071D01*
X188342560Y-82790000D01*
X188386838Y-83025317D01*
X188525910Y-83241441D01*
X188738110Y-83386431D01*
X188990000Y-83437440D01*
X190740000Y-83437440D01*
X190975317Y-83393162D01*
X191191441Y-83254090D01*
X191336431Y-83041890D01*
X191387440Y-82790000D01*
X191387440Y-81040000D01*
X191343162Y-80804683D01*
X191204090Y-80588559D01*
X190991890Y-80443569D01*
X190975324Y-80440214D01*
X191144370Y-80271463D01*
X191374738Y-79716675D01*
X191375262Y-79115960D01*
X191145862Y-78560771D01*
X190750464Y-78164682D01*
X191144370Y-77771463D01*
X191374738Y-77216675D01*
X191375262Y-76615960D01*
X191145862Y-76060771D01*
X190721463Y-75635630D01*
X190698531Y-75626108D01*
X190747455Y-75477060D01*
X189865000Y-74594605D01*
X188982545Y-75477060D01*
X189031318Y-75625648D01*
X189010771Y-75634138D01*
X188585630Y-76058537D01*
X188355262Y-76613325D01*
X188354738Y-77214040D01*
X188393798Y-77308572D01*
X180104370Y-85598000D01*
X149159630Y-85598000D01*
X150130951Y-84626679D01*
X150495000Y-84699093D01*
X151063285Y-84586054D01*
X151545054Y-84264147D01*
X151866961Y-83782378D01*
X151980000Y-83214093D01*
X151980000Y-83155907D01*
X151866961Y-82587622D01*
X151545054Y-82105853D01*
X151063285Y-81783946D01*
X150495000Y-81670907D01*
X149926715Y-81783946D01*
X149444946Y-82105853D01*
X149225000Y-82435026D01*
X149005054Y-82105853D01*
X148523285Y-81783946D01*
X147955000Y-81670907D01*
X147386715Y-81783946D01*
X146904946Y-82105853D01*
X146685000Y-82435026D01*
X146465054Y-82105853D01*
X145983285Y-81783946D01*
X145415000Y-81670907D01*
X144846715Y-81783946D01*
X144364946Y-82105853D01*
X144137298Y-82446553D01*
X144070183Y-82303642D01*
X143641924Y-81913355D01*
X143231890Y-81743524D01*
X143002000Y-81864845D01*
X143002000Y-83058000D01*
X143022000Y-83058000D01*
X143022000Y-83312000D01*
X143002000Y-83312000D01*
X143002000Y-83332000D01*
X142748000Y-83332000D01*
X142748000Y-83312000D01*
X142728000Y-83312000D01*
X142728000Y-83058000D01*
X142748000Y-83058000D01*
X142748000Y-81864845D01*
X142518110Y-81743524D01*
X142108076Y-81913355D01*
X141679817Y-82303642D01*
X141612702Y-82446553D01*
X141385054Y-82105853D01*
X140903285Y-81783946D01*
X140335000Y-81670907D01*
X139766715Y-81783946D01*
X139284946Y-82105853D01*
X139257150Y-82147452D01*
X139248162Y-82099683D01*
X139109090Y-81883559D01*
X138896890Y-81738569D01*
X138645000Y-81687560D01*
X136945000Y-81687560D01*
X136709683Y-81731838D01*
X136493559Y-81870910D01*
X136348569Y-82083110D01*
X136297560Y-82335000D01*
X136297560Y-84035000D01*
X136341838Y-84270317D01*
X136378956Y-84328000D01*
X132080000Y-84328000D01*
X131788395Y-84386004D01*
X131610074Y-84505155D01*
X131541185Y-84551185D01*
X129509185Y-86583185D01*
X129344004Y-86830395D01*
X129286000Y-87122000D01*
X129286000Y-88138000D01*
X126492000Y-88138000D01*
X126492000Y-84810630D01*
X127281162Y-84021469D01*
X127373325Y-84059738D01*
X127974040Y-84060262D01*
X128529229Y-83830862D01*
X128698103Y-83662283D01*
X128835910Y-83876441D01*
X129048110Y-84021431D01*
X129300000Y-84072440D01*
X131050000Y-84072440D01*
X131285317Y-84028162D01*
X131501441Y-83889090D01*
X131646431Y-83676890D01*
X131697440Y-83425000D01*
X131697440Y-81675000D01*
X131653162Y-81439683D01*
X131514090Y-81223559D01*
X131301890Y-81078569D01*
X131050000Y-81027560D01*
X129300000Y-81027560D01*
X129064683Y-81071838D01*
X128848559Y-81210910D01*
X128703569Y-81423110D01*
X128700214Y-81439676D01*
X128531463Y-81270630D01*
X127976675Y-81040262D01*
X127375960Y-81039738D01*
X126820771Y-81269138D01*
X126424682Y-81664536D01*
X126031463Y-81270630D01*
X125476675Y-81040262D01*
X124875960Y-81039738D01*
X124320771Y-81269138D01*
X123895630Y-81693537D01*
X123886108Y-81716469D01*
X123737060Y-81667545D01*
X122854605Y-82550000D01*
X123737060Y-83432455D01*
X123885648Y-83383682D01*
X123894138Y-83404229D01*
X124318537Y-83829370D01*
X124338891Y-83837822D01*
X124333000Y-83867436D01*
X124333000Y-88138000D01*
X122086463Y-88138000D01*
X122219838Y-87816799D01*
X122220162Y-87444833D01*
X122078117Y-87101057D01*
X121815327Y-86837808D01*
X121471799Y-86695162D01*
X121427755Y-86695124D01*
X118344691Y-83612060D01*
X121792545Y-83612060D01*
X121875884Y-83865953D01*
X122440306Y-84071590D01*
X123040458Y-84045579D01*
X123474116Y-83865953D01*
X123557455Y-83612060D01*
X122675000Y-82729605D01*
X121792545Y-83612060D01*
X118344691Y-83612060D01*
X117047937Y-82315306D01*
X121153410Y-82315306D01*
X121179421Y-82915458D01*
X121359047Y-83349116D01*
X121612940Y-83432455D01*
X122495395Y-82550000D01*
X121612940Y-81667545D01*
X121359047Y-81750884D01*
X121153410Y-82315306D01*
X117047937Y-82315306D01*
X116220571Y-81487940D01*
X121792545Y-81487940D01*
X122675000Y-82370395D01*
X123557455Y-81487940D01*
X123474116Y-81234047D01*
X122909694Y-81028410D01*
X122309542Y-81054421D01*
X121875884Y-81234047D01*
X121792545Y-81487940D01*
X116220571Y-81487940D01*
X114218381Y-79485750D01*
X170080000Y-79485750D01*
X170080000Y-81076309D01*
X170176673Y-81309698D01*
X170355301Y-81488327D01*
X170588690Y-81585000D01*
X172179250Y-81585000D01*
X172338000Y-81426250D01*
X172338000Y-79327000D01*
X172592000Y-79327000D01*
X172592000Y-81426250D01*
X172750750Y-81585000D01*
X174341310Y-81585000D01*
X174574699Y-81488327D01*
X174753327Y-81309698D01*
X174767560Y-81275337D01*
X174767560Y-83950000D01*
X174811838Y-84185317D01*
X174950910Y-84401441D01*
X175163110Y-84546431D01*
X175415000Y-84597440D01*
X178915000Y-84597440D01*
X179150317Y-84553162D01*
X179366441Y-84414090D01*
X179511431Y-84201890D01*
X179562440Y-83950000D01*
X179562440Y-80450000D01*
X179518162Y-80214683D01*
X179379090Y-79998559D01*
X179166890Y-79853569D01*
X178915000Y-79802560D01*
X175415000Y-79802560D01*
X175179683Y-79846838D01*
X174963559Y-79985910D01*
X174850000Y-80152109D01*
X174850000Y-79485750D01*
X174691250Y-79327000D01*
X172592000Y-79327000D01*
X172338000Y-79327000D01*
X170238750Y-79327000D01*
X170080000Y-79485750D01*
X114218381Y-79485750D01*
X112056322Y-77323691D01*
X170080000Y-77323691D01*
X170080000Y-78914250D01*
X170238750Y-79073000D01*
X172338000Y-79073000D01*
X172338000Y-76973750D01*
X172592000Y-76973750D01*
X172592000Y-79073000D01*
X174691250Y-79073000D01*
X174850000Y-78914250D01*
X174850000Y-78245304D01*
X174876673Y-78309698D01*
X175055301Y-78488327D01*
X175288690Y-78585000D01*
X176879250Y-78585000D01*
X177038000Y-78426250D01*
X177038000Y-76327000D01*
X177292000Y-76327000D01*
X177292000Y-78426250D01*
X177450750Y-78585000D01*
X179041310Y-78585000D01*
X179274699Y-78488327D01*
X179453327Y-78309698D01*
X179550000Y-78076309D01*
X179550000Y-76485750D01*
X179391250Y-76327000D01*
X177292000Y-76327000D01*
X177038000Y-76327000D01*
X174938750Y-76327000D01*
X174780000Y-76485750D01*
X174780000Y-77154696D01*
X174753327Y-77090302D01*
X174574699Y-76911673D01*
X174341310Y-76815000D01*
X172750750Y-76815000D01*
X172592000Y-76973750D01*
X172338000Y-76973750D01*
X172179250Y-76815000D01*
X170588690Y-76815000D01*
X170355301Y-76911673D01*
X170176673Y-77090302D01*
X170080000Y-77323691D01*
X112056322Y-77323691D01*
X111949732Y-77217102D01*
X111999738Y-77096675D01*
X112000262Y-76495960D01*
X111770862Y-75940771D01*
X111602283Y-75771897D01*
X111816441Y-75634090D01*
X111961431Y-75421890D01*
X112012440Y-75170000D01*
X112012440Y-73420000D01*
X111968162Y-73184683D01*
X111829090Y-72968559D01*
X111616890Y-72823569D01*
X111365000Y-72772560D01*
X109615000Y-72772560D01*
X109379683Y-72816838D01*
X109163559Y-72955910D01*
X109018569Y-73168110D01*
X108967560Y-73420000D01*
X108967560Y-75170000D01*
X109011838Y-75405317D01*
X109150910Y-75621441D01*
X109363110Y-75766431D01*
X109379676Y-75769786D01*
X109210630Y-75938537D01*
X108980262Y-76493325D01*
X108979738Y-77094040D01*
X109018798Y-77188572D01*
X106776185Y-79431185D01*
X106611004Y-79678395D01*
X106553000Y-79970000D01*
X100405000Y-79970000D01*
X100405000Y-70817376D01*
X156965000Y-70817376D01*
X156965000Y-71422624D01*
X157051397Y-71856970D01*
X157297434Y-72225190D01*
X157338000Y-72252295D01*
X157338000Y-72970000D01*
X157396004Y-73261605D01*
X157485284Y-73395221D01*
X157561185Y-73508815D01*
X157824781Y-73772411D01*
X157815315Y-73820000D01*
X157899809Y-74244779D01*
X158140426Y-74604889D01*
X158500536Y-74845506D01*
X158925315Y-74930000D01*
X159274685Y-74930000D01*
X159699464Y-74845506D01*
X160059574Y-74604889D01*
X160074868Y-74582000D01*
X163125132Y-74582000D01*
X163140426Y-74604889D01*
X163500536Y-74845506D01*
X163925315Y-74930000D01*
X164274685Y-74930000D01*
X164699464Y-74845506D01*
X165059574Y-74604889D01*
X165247463Y-74323691D01*
X174780000Y-74323691D01*
X174780000Y-75914250D01*
X174938750Y-76073000D01*
X177038000Y-76073000D01*
X177038000Y-73973750D01*
X177292000Y-73973750D01*
X177292000Y-76073000D01*
X179391250Y-76073000D01*
X179550000Y-75914250D01*
X179550000Y-74323691D01*
X179490608Y-74180306D01*
X188343410Y-74180306D01*
X188369421Y-74780458D01*
X188549047Y-75214116D01*
X188802940Y-75297455D01*
X189685395Y-74415000D01*
X190044605Y-74415000D01*
X190927060Y-75297455D01*
X191180953Y-75214116D01*
X191386590Y-74649694D01*
X191360579Y-74049542D01*
X191180953Y-73615884D01*
X190927060Y-73532545D01*
X190044605Y-74415000D01*
X189685395Y-74415000D01*
X188802940Y-73532545D01*
X188549047Y-73615884D01*
X188343410Y-74180306D01*
X179490608Y-74180306D01*
X179453327Y-74090302D01*
X179274699Y-73911673D01*
X179041310Y-73815000D01*
X177450750Y-73815000D01*
X177292000Y-73973750D01*
X177038000Y-73973750D01*
X176879250Y-73815000D01*
X175288690Y-73815000D01*
X175055301Y-73911673D01*
X174876673Y-74090302D01*
X174780000Y-74323691D01*
X165247463Y-74323691D01*
X165300191Y-74244779D01*
X165384685Y-73820000D01*
X165375219Y-73772412D01*
X165638816Y-73508815D01*
X165742968Y-73352940D01*
X188982545Y-73352940D01*
X189865000Y-74235395D01*
X190747455Y-73352940D01*
X190664116Y-73099047D01*
X190099694Y-72893410D01*
X189499542Y-72919421D01*
X189065884Y-73099047D01*
X188982545Y-73352940D01*
X165742968Y-73352940D01*
X165803997Y-73261604D01*
X165862000Y-72970000D01*
X165862000Y-72252295D01*
X165902566Y-72225190D01*
X166148603Y-71856970D01*
X166235000Y-71422624D01*
X166235000Y-70817376D01*
X166148603Y-70383030D01*
X165902566Y-70014810D01*
X165534346Y-69768773D01*
X165100000Y-69682376D01*
X164665654Y-69768773D01*
X164297434Y-70014810D01*
X164068122Y-70358000D01*
X159131878Y-70358000D01*
X158902566Y-70014810D01*
X158534346Y-69768773D01*
X158100000Y-69682376D01*
X157665654Y-69768773D01*
X157297434Y-70014810D01*
X157051397Y-70383030D01*
X156965000Y-70817376D01*
X100405000Y-70817376D01*
X100405000Y-68655000D01*
X199950000Y-68655000D01*
X199950000Y-134545000D01*
G36*
X109018532Y-108525162D02*
X108980262Y-108617325D01*
X108979738Y-109218040D01*
X109209138Y-109773229D01*
X109604536Y-110169318D01*
X109210630Y-110562537D01*
X108980262Y-111117325D01*
X108979738Y-111718040D01*
X109209138Y-112273229D01*
X109633537Y-112698370D01*
X109656469Y-112707892D01*
X109607545Y-112856940D01*
X110490000Y-113739395D01*
X110504143Y-113725253D01*
X110683748Y-113904858D01*
X110669605Y-113919000D01*
X111552060Y-114801455D01*
X111805953Y-114718116D01*
X112011590Y-114153694D01*
X112005452Y-114012082D01*
X112903000Y-114909630D01*
X112903000Y-124184370D01*
X112000078Y-125087292D01*
X112000262Y-124875960D01*
X111770862Y-124320771D01*
X111602283Y-124151897D01*
X111816441Y-124014090D01*
X111961431Y-123801890D01*
X112012440Y-123550000D01*
X112012440Y-121800000D01*
X111968162Y-121564683D01*
X111829090Y-121348559D01*
X111616890Y-121203569D01*
X111365000Y-121152560D01*
X109615000Y-121152560D01*
X109379683Y-121196838D01*
X109163559Y-121335910D01*
X109018569Y-121548110D01*
X108967560Y-121800000D01*
X108967560Y-122574930D01*
X108077000Y-121684370D01*
X108077000Y-114981060D01*
X109607545Y-114981060D01*
X109690884Y-115234953D01*
X110255306Y-115440590D01*
X110855458Y-115414579D01*
X111289116Y-115234953D01*
X111372455Y-114981060D01*
X110490000Y-114098605D01*
X109607545Y-114981060D01*
X108077000Y-114981060D01*
X108077000Y-113684306D01*
X108968410Y-113684306D01*
X108994421Y-114284458D01*
X109174047Y-114718116D01*
X109427940Y-114801455D01*
X110310395Y-113919000D01*
X109427940Y-113036545D01*
X109174047Y-113119884D01*
X108968410Y-113684306D01*
X108077000Y-113684306D01*
X108077000Y-107583630D01*
X109018532Y-108525162D01*
X109018532Y-108525162D01*
G37*
X109018532Y-108525162D02*
X108980262Y-108617325D01*
X108979738Y-109218040D01*
X109209138Y-109773229D01*
X109604536Y-110169318D01*
X109210630Y-110562537D01*
X108980262Y-111117325D01*
X108979738Y-111718040D01*
X109209138Y-112273229D01*
X109633537Y-112698370D01*
X109656469Y-112707892D01*
X109607545Y-112856940D01*
X110490000Y-113739395D01*
X110504143Y-113725253D01*
X110683748Y-113904858D01*
X110669605Y-113919000D01*
X111552060Y-114801455D01*
X111805953Y-114718116D01*
X112011590Y-114153694D01*
X112005452Y-114012082D01*
X112903000Y-114909630D01*
X112903000Y-124184370D01*
X112000078Y-125087292D01*
X112000262Y-124875960D01*
X111770862Y-124320771D01*
X111602283Y-124151897D01*
X111816441Y-124014090D01*
X111961431Y-123801890D01*
X112012440Y-123550000D01*
X112012440Y-121800000D01*
X111968162Y-121564683D01*
X111829090Y-121348559D01*
X111616890Y-121203569D01*
X111365000Y-121152560D01*
X109615000Y-121152560D01*
X109379683Y-121196838D01*
X109163559Y-121335910D01*
X109018569Y-121548110D01*
X108967560Y-121800000D01*
X108967560Y-122574930D01*
X108077000Y-121684370D01*
X108077000Y-114981060D01*
X109607545Y-114981060D01*
X109690884Y-115234953D01*
X110255306Y-115440590D01*
X110855458Y-115414579D01*
X111289116Y-115234953D01*
X111372455Y-114981060D01*
X110490000Y-114098605D01*
X109607545Y-114981060D01*
X108077000Y-114981060D01*
X108077000Y-113684306D01*
X108968410Y-113684306D01*
X108994421Y-114284458D01*
X109174047Y-114718116D01*
X109427940Y-114801455D01*
X110310395Y-113919000D01*
X109427940Y-113036545D01*
X109174047Y-113119884D01*
X108968410Y-113684306D01*
X108077000Y-113684306D01*
X108077000Y-107583630D01*
X109018532Y-108525162D01*
G36*
X109018532Y-92403162D02*
X108980262Y-92495325D01*
X108979738Y-93096040D01*
X109209138Y-93651229D01*
X109604536Y-94047318D01*
X109210630Y-94440537D01*
X108980262Y-94995325D01*
X108979738Y-95596040D01*
X109209138Y-96151229D01*
X109633537Y-96576370D01*
X109656469Y-96585892D01*
X109607545Y-96734940D01*
X110490000Y-97617395D01*
X110504143Y-97603253D01*
X110683748Y-97782858D01*
X110669605Y-97797000D01*
X111552060Y-98679455D01*
X111805953Y-98596116D01*
X112011590Y-98031694D01*
X112005452Y-97890082D01*
X112903000Y-98787630D01*
X112903000Y-112754370D01*
X111961468Y-111812838D01*
X111999738Y-111720675D01*
X112000262Y-111119960D01*
X111770862Y-110564771D01*
X111375464Y-110168682D01*
X111769370Y-109775463D01*
X111999738Y-109220675D01*
X112000262Y-108619960D01*
X111770862Y-108064771D01*
X111602283Y-107895897D01*
X111816441Y-107758090D01*
X111961431Y-107545890D01*
X112012440Y-107294000D01*
X112012440Y-105544000D01*
X111968162Y-105308683D01*
X111829090Y-105092559D01*
X111616890Y-104947569D01*
X111365000Y-104896560D01*
X109615000Y-104896560D01*
X109379683Y-104940838D01*
X109163559Y-105079910D01*
X109018569Y-105292110D01*
X108967560Y-105544000D01*
X108967560Y-106318930D01*
X108077000Y-105428370D01*
X108077000Y-98859060D01*
X109607545Y-98859060D01*
X109690884Y-99112953D01*
X110255306Y-99318590D01*
X110855458Y-99292579D01*
X111289116Y-99112953D01*
X111372455Y-98859060D01*
X110490000Y-97976605D01*
X109607545Y-98859060D01*
X108077000Y-98859060D01*
X108077000Y-97562306D01*
X108968410Y-97562306D01*
X108994421Y-98162458D01*
X109174047Y-98596116D01*
X109427940Y-98679455D01*
X110310395Y-97797000D01*
X109427940Y-96914545D01*
X109174047Y-96997884D01*
X108968410Y-97562306D01*
X108077000Y-97562306D01*
X108077000Y-91461630D01*
X109018532Y-92403162D01*
X109018532Y-92403162D01*
G37*
X109018532Y-92403162D02*
X108980262Y-92495325D01*
X108979738Y-93096040D01*
X109209138Y-93651229D01*
X109604536Y-94047318D01*
X109210630Y-94440537D01*
X108980262Y-94995325D01*
X108979738Y-95596040D01*
X109209138Y-96151229D01*
X109633537Y-96576370D01*
X109656469Y-96585892D01*
X109607545Y-96734940D01*
X110490000Y-97617395D01*
X110504143Y-97603253D01*
X110683748Y-97782858D01*
X110669605Y-97797000D01*
X111552060Y-98679455D01*
X111805953Y-98596116D01*
X112011590Y-98031694D01*
X112005452Y-97890082D01*
X112903000Y-98787630D01*
X112903000Y-112754370D01*
X111961468Y-111812838D01*
X111999738Y-111720675D01*
X112000262Y-111119960D01*
X111770862Y-110564771D01*
X111375464Y-110168682D01*
X111769370Y-109775463D01*
X111999738Y-109220675D01*
X112000262Y-108619960D01*
X111770862Y-108064771D01*
X111602283Y-107895897D01*
X111816441Y-107758090D01*
X111961431Y-107545890D01*
X112012440Y-107294000D01*
X112012440Y-105544000D01*
X111968162Y-105308683D01*
X111829090Y-105092559D01*
X111616890Y-104947569D01*
X111365000Y-104896560D01*
X109615000Y-104896560D01*
X109379683Y-104940838D01*
X109163559Y-105079910D01*
X109018569Y-105292110D01*
X108967560Y-105544000D01*
X108967560Y-106318930D01*
X108077000Y-105428370D01*
X108077000Y-98859060D01*
X109607545Y-98859060D01*
X109690884Y-99112953D01*
X110255306Y-99318590D01*
X110855458Y-99292579D01*
X111289116Y-99112953D01*
X111372455Y-98859060D01*
X110490000Y-97976605D01*
X109607545Y-98859060D01*
X108077000Y-98859060D01*
X108077000Y-97562306D01*
X108968410Y-97562306D01*
X108994421Y-98162458D01*
X109174047Y-98596116D01*
X109427940Y-98679455D01*
X110310395Y-97797000D01*
X109427940Y-96914545D01*
X109174047Y-96997884D01*
X108968410Y-97562306D01*
X108077000Y-97562306D01*
X108077000Y-91461630D01*
X109018532Y-92403162D01*
G36*
X124333000Y-96594534D02*
X124302808Y-96624673D01*
X124160162Y-96968201D01*
X124159838Y-97340167D01*
X124301883Y-97683943D01*
X124564673Y-97947192D01*
X124908201Y-98089838D01*
X125280167Y-98090162D01*
X125623943Y-97948117D01*
X125887192Y-97685327D01*
X125996765Y-97421446D01*
X126258943Y-97313117D01*
X126522192Y-97050327D01*
X126664838Y-96706799D01*
X126665162Y-96334833D01*
X126523117Y-95991057D01*
X126492000Y-95959886D01*
X126492000Y-91900750D01*
X126835000Y-91900750D01*
X126835000Y-92241309D01*
X126931673Y-92474698D01*
X127110301Y-92653327D01*
X127343690Y-92750000D01*
X127984250Y-92750000D01*
X128143000Y-92591250D01*
X128143000Y-91742000D01*
X126993750Y-91742000D01*
X126835000Y-91900750D01*
X126492000Y-91900750D01*
X126492000Y-90988691D01*
X126835000Y-90988691D01*
X126835000Y-91329250D01*
X126993750Y-91488000D01*
X128143000Y-91488000D01*
X128143000Y-90638750D01*
X127984250Y-90480000D01*
X127343690Y-90480000D01*
X127110301Y-90576673D01*
X126931673Y-90755302D01*
X126835000Y-90988691D01*
X126492000Y-90988691D01*
X126492000Y-89027000D01*
X129286000Y-89027000D01*
X129286000Y-90517151D01*
X129196310Y-90480000D01*
X128555750Y-90480000D01*
X128397000Y-90638750D01*
X128397000Y-91488000D01*
X128417000Y-91488000D01*
X128417000Y-91742000D01*
X128397000Y-91742000D01*
X128397000Y-92591250D01*
X128555750Y-92750000D01*
X129196310Y-92750000D01*
X129286000Y-92712849D01*
X129286000Y-92911534D01*
X129255808Y-92941673D01*
X129113162Y-93285201D01*
X129112996Y-93476267D01*
X129070000Y-93467560D01*
X127470000Y-93467560D01*
X127234683Y-93511838D01*
X127018559Y-93650910D01*
X126873569Y-93863110D01*
X126822560Y-94115000D01*
X126822560Y-95115000D01*
X126866838Y-95350317D01*
X127005910Y-95566441D01*
X127218110Y-95711431D01*
X127470000Y-95762440D01*
X127508000Y-95762440D01*
X127508000Y-96007560D01*
X127470000Y-96007560D01*
X127234683Y-96051838D01*
X127018559Y-96190910D01*
X126873569Y-96403110D01*
X126822560Y-96655000D01*
X126822560Y-97655000D01*
X126866838Y-97890317D01*
X127005910Y-98106441D01*
X127218110Y-98251431D01*
X127470000Y-98302440D01*
X127634048Y-98302440D01*
X127721285Y-98432999D01*
X127731185Y-98447815D01*
X128429560Y-99146190D01*
X128397000Y-99178750D01*
X128397000Y-100028000D01*
X128417000Y-100028000D01*
X128417000Y-100282000D01*
X128397000Y-100282000D01*
X128397000Y-101131250D01*
X128555750Y-101290000D01*
X129196310Y-101290000D01*
X129429699Y-101193327D01*
X129608327Y-101014698D01*
X129705000Y-100781309D01*
X129705000Y-100440750D01*
X129546252Y-100282002D01*
X129565372Y-100282002D01*
X129777185Y-100493815D01*
X130024395Y-100658996D01*
X130147560Y-100683495D01*
X130147560Y-100705000D01*
X130191838Y-100940317D01*
X130330910Y-101156441D01*
X130543110Y-101301431D01*
X130795000Y-101352440D01*
X132095000Y-101352440D01*
X132330317Y-101308162D01*
X132432271Y-101242557D01*
X132565673Y-101376192D01*
X132909201Y-101518838D01*
X133281167Y-101519162D01*
X133624943Y-101377117D01*
X133720030Y-101282196D01*
X133820000Y-101302440D01*
X135420000Y-101302440D01*
X135655317Y-101258162D01*
X135871441Y-101119090D01*
X136016431Y-100906890D01*
X136067440Y-100655000D01*
X136067440Y-99655000D01*
X136023162Y-99419683D01*
X135888389Y-99210241D01*
X135903631Y-99194999D01*
X136540765Y-99194999D01*
X136398569Y-99403110D01*
X136347560Y-99655000D01*
X136347560Y-100655000D01*
X136391838Y-100890317D01*
X136530910Y-101106441D01*
X136743110Y-101251431D01*
X136995000Y-101302440D01*
X137147012Y-101302440D01*
X137366000Y-101345999D01*
X137584988Y-101302440D01*
X138595000Y-101302440D01*
X138829474Y-101258321D01*
X138765162Y-101413201D01*
X138764838Y-101785167D01*
X138906883Y-102128943D01*
X139169673Y-102392192D01*
X139513201Y-102534838D01*
X139885167Y-102535162D01*
X140228943Y-102393117D01*
X140492192Y-102130327D01*
X140634838Y-101786799D01*
X140635029Y-101567601D01*
X140900191Y-101302440D01*
X141770000Y-101302440D01*
X142005317Y-101258162D01*
X142221441Y-101119090D01*
X142359523Y-100917000D01*
X142759008Y-100917000D01*
X142880910Y-101106441D01*
X143093110Y-101251431D01*
X143345000Y-101302440D01*
X144945000Y-101302440D01*
X145180317Y-101258162D01*
X145207220Y-101240850D01*
X145288000Y-101321630D01*
X145288000Y-104013000D01*
X139365111Y-104013000D01*
X139365162Y-103954833D01*
X139223117Y-103611057D01*
X138960327Y-103347808D01*
X138616799Y-103205162D01*
X138244833Y-103204838D01*
X137901057Y-103346883D01*
X137637808Y-103609673D01*
X137528235Y-103873554D01*
X137266057Y-103981883D01*
X137002808Y-104244673D01*
X136893235Y-104508554D01*
X136631057Y-104616883D01*
X136525046Y-104722710D01*
X136420327Y-104617808D01*
X136076799Y-104475162D01*
X135704833Y-104474838D01*
X135361057Y-104616883D01*
X135097808Y-104879673D01*
X134955162Y-105223201D01*
X134955146Y-105242030D01*
X134656815Y-105118152D01*
X134284849Y-105117828D01*
X133941073Y-105259873D01*
X133917906Y-105283000D01*
X133910466Y-105283000D01*
X133880327Y-105252808D01*
X133616446Y-105143235D01*
X133508117Y-104881057D01*
X133245327Y-104617808D01*
X132981446Y-104508235D01*
X132873117Y-104246057D01*
X132610327Y-103982808D01*
X132266799Y-103840162D01*
X131894833Y-103839838D01*
X131551057Y-103981883D01*
X131287808Y-104244673D01*
X131145162Y-104588201D01*
X131144838Y-104960167D01*
X131278230Y-105283000D01*
X126531463Y-105283000D01*
X126646622Y-105005668D01*
X126813201Y-105074838D01*
X127185167Y-105075162D01*
X127528943Y-104933117D01*
X127792192Y-104670327D01*
X127934838Y-104326799D01*
X127935162Y-103954833D01*
X127793117Y-103611057D01*
X127530327Y-103347808D01*
X127186799Y-103205162D01*
X126814833Y-103204838D01*
X126471057Y-103346883D01*
X126439886Y-103378000D01*
X126030111Y-103378000D01*
X126030162Y-103319833D01*
X125888117Y-102976057D01*
X125625327Y-102712808D01*
X125325668Y-102588378D01*
X125394838Y-102421799D01*
X125395162Y-102049833D01*
X125253117Y-101706057D01*
X124990327Y-101442808D01*
X124646799Y-101300162D01*
X124274833Y-101299838D01*
X123931057Y-101441883D01*
X123667808Y-101704673D01*
X123525162Y-102048201D01*
X123525124Y-102092246D01*
X120334370Y-105283000D01*
X117602000Y-105283000D01*
X117602000Y-100440750D01*
X126835000Y-100440750D01*
X126835000Y-100781309D01*
X126931673Y-101014698D01*
X127110301Y-101193327D01*
X127343690Y-101290000D01*
X127984250Y-101290000D01*
X128143000Y-101131250D01*
X128143000Y-100282000D01*
X126993750Y-100282000D01*
X126835000Y-100440750D01*
X117602000Y-100440750D01*
X117602000Y-99528691D01*
X126835000Y-99528691D01*
X126835000Y-99869250D01*
X126993750Y-100028000D01*
X128143000Y-100028000D01*
X128143000Y-99178750D01*
X127984250Y-99020000D01*
X127343690Y-99020000D01*
X127110301Y-99116673D01*
X126931673Y-99295302D01*
X126835000Y-99528691D01*
X117602000Y-99528691D01*
X117602000Y-89027000D01*
X124333000Y-89027000D01*
X124333000Y-96594534D01*
X124333000Y-96594534D01*
G37*
X124333000Y-96594534D02*
X124302808Y-96624673D01*
X124160162Y-96968201D01*
X124159838Y-97340167D01*
X124301883Y-97683943D01*
X124564673Y-97947192D01*
X124908201Y-98089838D01*
X125280167Y-98090162D01*
X125623943Y-97948117D01*
X125887192Y-97685327D01*
X125996765Y-97421446D01*
X126258943Y-97313117D01*
X126522192Y-97050327D01*
X126664838Y-96706799D01*
X126665162Y-96334833D01*
X126523117Y-95991057D01*
X126492000Y-95959886D01*
X126492000Y-91900750D01*
X126835000Y-91900750D01*
X126835000Y-92241309D01*
X126931673Y-92474698D01*
X127110301Y-92653327D01*
X127343690Y-92750000D01*
X127984250Y-92750000D01*
X128143000Y-92591250D01*
X128143000Y-91742000D01*
X126993750Y-91742000D01*
X126835000Y-91900750D01*
X126492000Y-91900750D01*
X126492000Y-90988691D01*
X126835000Y-90988691D01*
X126835000Y-91329250D01*
X126993750Y-91488000D01*
X128143000Y-91488000D01*
X128143000Y-90638750D01*
X127984250Y-90480000D01*
X127343690Y-90480000D01*
X127110301Y-90576673D01*
X126931673Y-90755302D01*
X126835000Y-90988691D01*
X126492000Y-90988691D01*
X126492000Y-89027000D01*
X129286000Y-89027000D01*
X129286000Y-90517151D01*
X129196310Y-90480000D01*
X128555750Y-90480000D01*
X128397000Y-90638750D01*
X128397000Y-91488000D01*
X128417000Y-91488000D01*
X128417000Y-91742000D01*
X128397000Y-91742000D01*
X128397000Y-92591250D01*
X128555750Y-92750000D01*
X129196310Y-92750000D01*
X129286000Y-92712849D01*
X129286000Y-92911534D01*
X129255808Y-92941673D01*
X129113162Y-93285201D01*
X129112996Y-93476267D01*
X129070000Y-93467560D01*
X127470000Y-93467560D01*
X127234683Y-93511838D01*
X127018559Y-93650910D01*
X126873569Y-93863110D01*
X126822560Y-94115000D01*
X126822560Y-95115000D01*
X126866838Y-95350317D01*
X127005910Y-95566441D01*
X127218110Y-95711431D01*
X127470000Y-95762440D01*
X127508000Y-95762440D01*
X127508000Y-96007560D01*
X127470000Y-96007560D01*
X127234683Y-96051838D01*
X127018559Y-96190910D01*
X126873569Y-96403110D01*
X126822560Y-96655000D01*
X126822560Y-97655000D01*
X126866838Y-97890317D01*
X127005910Y-98106441D01*
X127218110Y-98251431D01*
X127470000Y-98302440D01*
X127634048Y-98302440D01*
X127721285Y-98432999D01*
X127731185Y-98447815D01*
X128429560Y-99146190D01*
X128397000Y-99178750D01*
X128397000Y-100028000D01*
X128417000Y-100028000D01*
X128417000Y-100282000D01*
X128397000Y-100282000D01*
X128397000Y-101131250D01*
X128555750Y-101290000D01*
X129196310Y-101290000D01*
X129429699Y-101193327D01*
X129608327Y-101014698D01*
X129705000Y-100781309D01*
X129705000Y-100440750D01*
X129546252Y-100282002D01*
X129565372Y-100282002D01*
X129777185Y-100493815D01*
X130024395Y-100658996D01*
X130147560Y-100683495D01*
X130147560Y-100705000D01*
X130191838Y-100940317D01*
X130330910Y-101156441D01*
X130543110Y-101301431D01*
X130795000Y-101352440D01*
X132095000Y-101352440D01*
X132330317Y-101308162D01*
X132432271Y-101242557D01*
X132565673Y-101376192D01*
X132909201Y-101518838D01*
X133281167Y-101519162D01*
X133624943Y-101377117D01*
X133720030Y-101282196D01*
X133820000Y-101302440D01*
X135420000Y-101302440D01*
X135655317Y-101258162D01*
X135871441Y-101119090D01*
X136016431Y-100906890D01*
X136067440Y-100655000D01*
X136067440Y-99655000D01*
X136023162Y-99419683D01*
X135888389Y-99210241D01*
X135903631Y-99194999D01*
X136540765Y-99194999D01*
X136398569Y-99403110D01*
X136347560Y-99655000D01*
X136347560Y-100655000D01*
X136391838Y-100890317D01*
X136530910Y-101106441D01*
X136743110Y-101251431D01*
X136995000Y-101302440D01*
X137147012Y-101302440D01*
X137366000Y-101345999D01*
X137584988Y-101302440D01*
X138595000Y-101302440D01*
X138829474Y-101258321D01*
X138765162Y-101413201D01*
X138764838Y-101785167D01*
X138906883Y-102128943D01*
X139169673Y-102392192D01*
X139513201Y-102534838D01*
X139885167Y-102535162D01*
X140228943Y-102393117D01*
X140492192Y-102130327D01*
X140634838Y-101786799D01*
X140635029Y-101567601D01*
X140900191Y-101302440D01*
X141770000Y-101302440D01*
X142005317Y-101258162D01*
X142221441Y-101119090D01*
X142359523Y-100917000D01*
X142759008Y-100917000D01*
X142880910Y-101106441D01*
X143093110Y-101251431D01*
X143345000Y-101302440D01*
X144945000Y-101302440D01*
X145180317Y-101258162D01*
X145207220Y-101240850D01*
X145288000Y-101321630D01*
X145288000Y-104013000D01*
X139365111Y-104013000D01*
X139365162Y-103954833D01*
X139223117Y-103611057D01*
X138960327Y-103347808D01*
X138616799Y-103205162D01*
X138244833Y-103204838D01*
X137901057Y-103346883D01*
X137637808Y-103609673D01*
X137528235Y-103873554D01*
X137266057Y-103981883D01*
X137002808Y-104244673D01*
X136893235Y-104508554D01*
X136631057Y-104616883D01*
X136525046Y-104722710D01*
X136420327Y-104617808D01*
X136076799Y-104475162D01*
X135704833Y-104474838D01*
X135361057Y-104616883D01*
X135097808Y-104879673D01*
X134955162Y-105223201D01*
X134955146Y-105242030D01*
X134656815Y-105118152D01*
X134284849Y-105117828D01*
X133941073Y-105259873D01*
X133917906Y-105283000D01*
X133910466Y-105283000D01*
X133880327Y-105252808D01*
X133616446Y-105143235D01*
X133508117Y-104881057D01*
X133245327Y-104617808D01*
X132981446Y-104508235D01*
X132873117Y-104246057D01*
X132610327Y-103982808D01*
X132266799Y-103840162D01*
X131894833Y-103839838D01*
X131551057Y-103981883D01*
X131287808Y-104244673D01*
X131145162Y-104588201D01*
X131144838Y-104960167D01*
X131278230Y-105283000D01*
X126531463Y-105283000D01*
X126646622Y-105005668D01*
X126813201Y-105074838D01*
X127185167Y-105075162D01*
X127528943Y-104933117D01*
X127792192Y-104670327D01*
X127934838Y-104326799D01*
X127935162Y-103954833D01*
X127793117Y-103611057D01*
X127530327Y-103347808D01*
X127186799Y-103205162D01*
X126814833Y-103204838D01*
X126471057Y-103346883D01*
X126439886Y-103378000D01*
X126030111Y-103378000D01*
X126030162Y-103319833D01*
X125888117Y-102976057D01*
X125625327Y-102712808D01*
X125325668Y-102588378D01*
X125394838Y-102421799D01*
X125395162Y-102049833D01*
X125253117Y-101706057D01*
X124990327Y-101442808D01*
X124646799Y-101300162D01*
X124274833Y-101299838D01*
X123931057Y-101441883D01*
X123667808Y-101704673D01*
X123525162Y-102048201D01*
X123525124Y-102092246D01*
X120334370Y-105283000D01*
X117602000Y-105283000D01*
X117602000Y-100440750D01*
X126835000Y-100440750D01*
X126835000Y-100781309D01*
X126931673Y-101014698D01*
X127110301Y-101193327D01*
X127343690Y-101290000D01*
X127984250Y-101290000D01*
X128143000Y-101131250D01*
X128143000Y-100282000D01*
X126993750Y-100282000D01*
X126835000Y-100440750D01*
X117602000Y-100440750D01*
X117602000Y-99528691D01*
X126835000Y-99528691D01*
X126835000Y-99869250D01*
X126993750Y-100028000D01*
X128143000Y-100028000D01*
X128143000Y-99178750D01*
X127984250Y-99020000D01*
X127343690Y-99020000D01*
X127110301Y-99116673D01*
X126931673Y-99295302D01*
X126835000Y-99528691D01*
X117602000Y-99528691D01*
X117602000Y-89027000D01*
X124333000Y-89027000D01*
X124333000Y-96594534D01*
G36*
X139535000Y-96869250D02*
X139693750Y-97028000D01*
X140843000Y-97028000D01*
X140843000Y-97008000D01*
X141097000Y-97008000D01*
X141097000Y-97028000D01*
X142246250Y-97028000D01*
X142405000Y-96869250D01*
X142405000Y-96647000D01*
X142710000Y-96647000D01*
X142710000Y-96869250D01*
X142868750Y-97028000D01*
X144018000Y-97028000D01*
X144018000Y-97008000D01*
X144272000Y-97008000D01*
X144272000Y-97028000D01*
X144292000Y-97028000D01*
X144292000Y-97282000D01*
X144272000Y-97282000D01*
X144272000Y-98131250D01*
X144430750Y-98290000D01*
X145071310Y-98290000D01*
X145288000Y-98200244D01*
X145288000Y-99120822D01*
X145196890Y-99058569D01*
X144945000Y-99007560D01*
X143345000Y-99007560D01*
X143109683Y-99051838D01*
X142893559Y-99190910D01*
X142755477Y-99393000D01*
X142355992Y-99393000D01*
X142234090Y-99203559D01*
X142021890Y-99058569D01*
X141770000Y-99007560D01*
X141605952Y-99007560D01*
X141508815Y-98862185D01*
X140810440Y-98163810D01*
X140843000Y-98131250D01*
X140843000Y-97282000D01*
X141097000Y-97282000D01*
X141097000Y-98131250D01*
X141255750Y-98290000D01*
X141896310Y-98290000D01*
X142129699Y-98193327D01*
X142308327Y-98014698D01*
X142405000Y-97781309D01*
X142405000Y-97440750D01*
X142710000Y-97440750D01*
X142710000Y-97781309D01*
X142806673Y-98014698D01*
X142985301Y-98193327D01*
X143218690Y-98290000D01*
X143859250Y-98290000D01*
X144018000Y-98131250D01*
X144018000Y-97282000D01*
X142868750Y-97282000D01*
X142710000Y-97440750D01*
X142405000Y-97440750D01*
X142246250Y-97282000D01*
X141097000Y-97282000D01*
X140843000Y-97282000D01*
X139693750Y-97282000D01*
X139535000Y-97440750D01*
X139535000Y-97670999D01*
X139230000Y-97670999D01*
X139230000Y-97440750D01*
X139071250Y-97282000D01*
X137922000Y-97282000D01*
X137922000Y-97302000D01*
X137668000Y-97302000D01*
X137668000Y-97282000D01*
X137648000Y-97282000D01*
X137648000Y-97028000D01*
X137668000Y-97028000D01*
X137668000Y-97008000D01*
X137922000Y-97008000D01*
X137922000Y-97028000D01*
X139071250Y-97028000D01*
X139230000Y-96869250D01*
X139230000Y-96647000D01*
X139535000Y-96647000D01*
X139535000Y-96869250D01*
X139535000Y-96869250D01*
G37*
X139535000Y-96869250D02*
X139693750Y-97028000D01*
X140843000Y-97028000D01*
X140843000Y-97008000D01*
X141097000Y-97008000D01*
X141097000Y-97028000D01*
X142246250Y-97028000D01*
X142405000Y-96869250D01*
X142405000Y-96647000D01*
X142710000Y-96647000D01*
X142710000Y-96869250D01*
X142868750Y-97028000D01*
X144018000Y-97028000D01*
X144018000Y-97008000D01*
X144272000Y-97008000D01*
X144272000Y-97028000D01*
X144292000Y-97028000D01*
X144292000Y-97282000D01*
X144272000Y-97282000D01*
X144272000Y-98131250D01*
X144430750Y-98290000D01*
X145071310Y-98290000D01*
X145288000Y-98200244D01*
X145288000Y-99120822D01*
X145196890Y-99058569D01*
X144945000Y-99007560D01*
X143345000Y-99007560D01*
X143109683Y-99051838D01*
X142893559Y-99190910D01*
X142755477Y-99393000D01*
X142355992Y-99393000D01*
X142234090Y-99203559D01*
X142021890Y-99058569D01*
X141770000Y-99007560D01*
X141605952Y-99007560D01*
X141508815Y-98862185D01*
X140810440Y-98163810D01*
X140843000Y-98131250D01*
X140843000Y-97282000D01*
X141097000Y-97282000D01*
X141097000Y-98131250D01*
X141255750Y-98290000D01*
X141896310Y-98290000D01*
X142129699Y-98193327D01*
X142308327Y-98014698D01*
X142405000Y-97781309D01*
X142405000Y-97440750D01*
X142710000Y-97440750D01*
X142710000Y-97781309D01*
X142806673Y-98014698D01*
X142985301Y-98193327D01*
X143218690Y-98290000D01*
X143859250Y-98290000D01*
X144018000Y-98131250D01*
X144018000Y-97282000D01*
X142868750Y-97282000D01*
X142710000Y-97440750D01*
X142405000Y-97440750D01*
X142246250Y-97282000D01*
X141097000Y-97282000D01*
X140843000Y-97282000D01*
X139693750Y-97282000D01*
X139535000Y-97440750D01*
X139535000Y-97670999D01*
X139230000Y-97670999D01*
X139230000Y-97440750D01*
X139071250Y-97282000D01*
X137922000Y-97282000D01*
X137922000Y-97302000D01*
X137668000Y-97302000D01*
X137668000Y-97282000D01*
X137648000Y-97282000D01*
X137648000Y-97028000D01*
X137668000Y-97028000D01*
X137668000Y-97008000D01*
X137922000Y-97008000D01*
X137922000Y-97028000D01*
X139071250Y-97028000D01*
X139230000Y-96869250D01*
X139230000Y-96647000D01*
X139535000Y-96647000D01*
X139535000Y-96869250D01*
G36*
X139522560Y-91115000D02*
X139522560Y-92115000D01*
X139566838Y-92350317D01*
X139705910Y-92566441D01*
X139918110Y-92711431D01*
X140170000Y-92762440D01*
X141304954Y-92762440D01*
X141304838Y-92895167D01*
X141446883Y-93238943D01*
X141687520Y-93480000D01*
X141255750Y-93480000D01*
X141097000Y-93638750D01*
X141097000Y-94488000D01*
X141117000Y-94488000D01*
X141117000Y-94742000D01*
X141097000Y-94742000D01*
X141097000Y-94762000D01*
X140843000Y-94762000D01*
X140843000Y-94742000D01*
X139693750Y-94742000D01*
X139535000Y-94900750D01*
X139535000Y-95123000D01*
X139230000Y-95123000D01*
X139230000Y-94900750D01*
X139071250Y-94742000D01*
X137922000Y-94742000D01*
X137922000Y-94762000D01*
X137668000Y-94762000D01*
X137668000Y-94742000D01*
X136518750Y-94742000D01*
X136360000Y-94900750D01*
X136360000Y-95241309D01*
X136456673Y-95474698D01*
X136467869Y-95485895D01*
X136371925Y-95581839D01*
X136329263Y-95581802D01*
X135985487Y-95723847D01*
X135722238Y-95986637D01*
X135684599Y-96077281D01*
X135546310Y-96020000D01*
X134905750Y-96020000D01*
X134747000Y-96178750D01*
X134747000Y-97028000D01*
X134767000Y-97028000D01*
X134767000Y-97282000D01*
X134747000Y-97282000D01*
X134747000Y-98131250D01*
X134779560Y-98163810D01*
X134093000Y-98850370D01*
X132938157Y-97695527D01*
X132887815Y-97620185D01*
X132742440Y-97474810D01*
X132742440Y-97440750D01*
X133185000Y-97440750D01*
X133185000Y-97781309D01*
X133281673Y-98014698D01*
X133460301Y-98193327D01*
X133693690Y-98290000D01*
X134334250Y-98290000D01*
X134493000Y-98131250D01*
X134493000Y-97282000D01*
X133343750Y-97282000D01*
X133185000Y-97440750D01*
X132742440Y-97440750D01*
X132742440Y-96528691D01*
X133185000Y-96528691D01*
X133185000Y-96869250D01*
X133343750Y-97028000D01*
X134493000Y-97028000D01*
X134493000Y-96178750D01*
X134334250Y-96020000D01*
X133693690Y-96020000D01*
X133460301Y-96116673D01*
X133281673Y-96295302D01*
X133185000Y-96528691D01*
X132742440Y-96528691D01*
X132742440Y-96505000D01*
X132698162Y-96269683D01*
X132559090Y-96053559D01*
X132346890Y-95908569D01*
X132095000Y-95857560D01*
X130795000Y-95857560D01*
X130559683Y-95901838D01*
X130343559Y-96040910D01*
X130198569Y-96253110D01*
X130147560Y-96505000D01*
X130147560Y-96601086D01*
X129862833Y-96600838D01*
X129717440Y-96660913D01*
X129717440Y-96655000D01*
X129673162Y-96419683D01*
X129534090Y-96203559D01*
X129321890Y-96058569D01*
X129070000Y-96007560D01*
X129032000Y-96007560D01*
X129032000Y-95762440D01*
X129070000Y-95762440D01*
X129305317Y-95718162D01*
X129521441Y-95579090D01*
X129666431Y-95366890D01*
X129717440Y-95115000D01*
X129717440Y-94900750D01*
X130010000Y-94900750D01*
X130010000Y-95241309D01*
X130106673Y-95474698D01*
X130285301Y-95653327D01*
X130518690Y-95750000D01*
X131159250Y-95750000D01*
X131318000Y-95591250D01*
X131318000Y-94742000D01*
X131572000Y-94742000D01*
X131572000Y-95591250D01*
X131730750Y-95750000D01*
X132371310Y-95750000D01*
X132604699Y-95653327D01*
X132783327Y-95474698D01*
X132880000Y-95241309D01*
X132880000Y-94900750D01*
X133185000Y-94900750D01*
X133185000Y-95241309D01*
X133281673Y-95474698D01*
X133460301Y-95653327D01*
X133693690Y-95750000D01*
X134334250Y-95750000D01*
X134493000Y-95591250D01*
X134493000Y-94742000D01*
X134747000Y-94742000D01*
X134747000Y-95591250D01*
X134905750Y-95750000D01*
X135546310Y-95750000D01*
X135779699Y-95653327D01*
X135958327Y-95474698D01*
X136055000Y-95241309D01*
X136055000Y-94900750D01*
X135896250Y-94742000D01*
X134747000Y-94742000D01*
X134493000Y-94742000D01*
X133343750Y-94742000D01*
X133185000Y-94900750D01*
X132880000Y-94900750D01*
X132721250Y-94742000D01*
X131572000Y-94742000D01*
X131318000Y-94742000D01*
X130168750Y-94742000D01*
X130010000Y-94900750D01*
X129717440Y-94900750D01*
X129717440Y-94347143D01*
X129861201Y-94406838D01*
X130087785Y-94407035D01*
X130168750Y-94488000D01*
X131318000Y-94488000D01*
X131318000Y-94468000D01*
X131572000Y-94468000D01*
X131572000Y-94488000D01*
X132721250Y-94488000D01*
X132880000Y-94329250D01*
X132880000Y-93988691D01*
X132783327Y-93755302D01*
X132754025Y-93726000D01*
X133310975Y-93726000D01*
X133281673Y-93755302D01*
X133185000Y-93988691D01*
X133185000Y-94329250D01*
X133343750Y-94488000D01*
X134493000Y-94488000D01*
X134493000Y-94468000D01*
X134747000Y-94468000D01*
X134747000Y-94488000D01*
X135896250Y-94488000D01*
X136055000Y-94329250D01*
X136055000Y-93988691D01*
X136360000Y-93988691D01*
X136360000Y-94329250D01*
X136518750Y-94488000D01*
X137668000Y-94488000D01*
X137668000Y-93638750D01*
X137509250Y-93480000D01*
X136868690Y-93480000D01*
X136635301Y-93576673D01*
X136456673Y-93755302D01*
X136360000Y-93988691D01*
X136055000Y-93988691D01*
X135958327Y-93755302D01*
X135779699Y-93576673D01*
X135546310Y-93480000D01*
X134905750Y-93480000D01*
X134747002Y-93638748D01*
X134747002Y-93480000D01*
X134673630Y-93480000D01*
X135158815Y-92994816D01*
X135314084Y-92762440D01*
X135420000Y-92762440D01*
X135655317Y-92718162D01*
X135871441Y-92579090D01*
X136009523Y-92377000D01*
X136409008Y-92377000D01*
X136530910Y-92566441D01*
X136743110Y-92711431D01*
X136995000Y-92762440D01*
X137404810Y-92762440D01*
X137748875Y-93106505D01*
X137748838Y-93149167D01*
X137890883Y-93492943D01*
X137979268Y-93581482D01*
X137922000Y-93638750D01*
X137922000Y-94488000D01*
X139071250Y-94488000D01*
X139230000Y-94329250D01*
X139230000Y-93988691D01*
X139535000Y-93988691D01*
X139535000Y-94329250D01*
X139693750Y-94488000D01*
X140843000Y-94488000D01*
X140843000Y-93638750D01*
X140684250Y-93480000D01*
X140043690Y-93480000D01*
X139810301Y-93576673D01*
X139631673Y-93755302D01*
X139535000Y-93988691D01*
X139230000Y-93988691D01*
X139145604Y-93784941D01*
X139212943Y-93757117D01*
X139476192Y-93494327D01*
X139618838Y-93150799D01*
X139619162Y-92778833D01*
X139477117Y-92435057D01*
X139228135Y-92185640D01*
X139242440Y-92115000D01*
X139242440Y-91115000D01*
X139208006Y-90932000D01*
X139559618Y-90932000D01*
X139522560Y-91115000D01*
X139522560Y-91115000D01*
G37*
X139522560Y-91115000D02*
X139522560Y-92115000D01*
X139566838Y-92350317D01*
X139705910Y-92566441D01*
X139918110Y-92711431D01*
X140170000Y-92762440D01*
X141304954Y-92762440D01*
X141304838Y-92895167D01*
X141446883Y-93238943D01*
X141687520Y-93480000D01*
X141255750Y-93480000D01*
X141097000Y-93638750D01*
X141097000Y-94488000D01*
X141117000Y-94488000D01*
X141117000Y-94742000D01*
X141097000Y-94742000D01*
X141097000Y-94762000D01*
X140843000Y-94762000D01*
X140843000Y-94742000D01*
X139693750Y-94742000D01*
X139535000Y-94900750D01*
X139535000Y-95123000D01*
X139230000Y-95123000D01*
X139230000Y-94900750D01*
X139071250Y-94742000D01*
X137922000Y-94742000D01*
X137922000Y-94762000D01*
X137668000Y-94762000D01*
X137668000Y-94742000D01*
X136518750Y-94742000D01*
X136360000Y-94900750D01*
X136360000Y-95241309D01*
X136456673Y-95474698D01*
X136467869Y-95485895D01*
X136371925Y-95581839D01*
X136329263Y-95581802D01*
X135985487Y-95723847D01*
X135722238Y-95986637D01*
X135684599Y-96077281D01*
X135546310Y-96020000D01*
X134905750Y-96020000D01*
X134747000Y-96178750D01*
X134747000Y-97028000D01*
X134767000Y-97028000D01*
X134767000Y-97282000D01*
X134747000Y-97282000D01*
X134747000Y-98131250D01*
X134779560Y-98163810D01*
X134093000Y-98850370D01*
X132938157Y-97695527D01*
X132887815Y-97620185D01*
X132742440Y-97474810D01*
X132742440Y-97440750D01*
X133185000Y-97440750D01*
X133185000Y-97781309D01*
X133281673Y-98014698D01*
X133460301Y-98193327D01*
X133693690Y-98290000D01*
X134334250Y-98290000D01*
X134493000Y-98131250D01*
X134493000Y-97282000D01*
X133343750Y-97282000D01*
X133185000Y-97440750D01*
X132742440Y-97440750D01*
X132742440Y-96528691D01*
X133185000Y-96528691D01*
X133185000Y-96869250D01*
X133343750Y-97028000D01*
X134493000Y-97028000D01*
X134493000Y-96178750D01*
X134334250Y-96020000D01*
X133693690Y-96020000D01*
X133460301Y-96116673D01*
X133281673Y-96295302D01*
X133185000Y-96528691D01*
X132742440Y-96528691D01*
X132742440Y-96505000D01*
X132698162Y-96269683D01*
X132559090Y-96053559D01*
X132346890Y-95908569D01*
X132095000Y-95857560D01*
X130795000Y-95857560D01*
X130559683Y-95901838D01*
X130343559Y-96040910D01*
X130198569Y-96253110D01*
X130147560Y-96505000D01*
X130147560Y-96601086D01*
X129862833Y-96600838D01*
X129717440Y-96660913D01*
X129717440Y-96655000D01*
X129673162Y-96419683D01*
X129534090Y-96203559D01*
X129321890Y-96058569D01*
X129070000Y-96007560D01*
X129032000Y-96007560D01*
X129032000Y-95762440D01*
X129070000Y-95762440D01*
X129305317Y-95718162D01*
X129521441Y-95579090D01*
X129666431Y-95366890D01*
X129717440Y-95115000D01*
X129717440Y-94900750D01*
X130010000Y-94900750D01*
X130010000Y-95241309D01*
X130106673Y-95474698D01*
X130285301Y-95653327D01*
X130518690Y-95750000D01*
X131159250Y-95750000D01*
X131318000Y-95591250D01*
X131318000Y-94742000D01*
X131572000Y-94742000D01*
X131572000Y-95591250D01*
X131730750Y-95750000D01*
X132371310Y-95750000D01*
X132604699Y-95653327D01*
X132783327Y-95474698D01*
X132880000Y-95241309D01*
X132880000Y-94900750D01*
X133185000Y-94900750D01*
X133185000Y-95241309D01*
X133281673Y-95474698D01*
X133460301Y-95653327D01*
X133693690Y-95750000D01*
X134334250Y-95750000D01*
X134493000Y-95591250D01*
X134493000Y-94742000D01*
X134747000Y-94742000D01*
X134747000Y-95591250D01*
X134905750Y-95750000D01*
X135546310Y-95750000D01*
X135779699Y-95653327D01*
X135958327Y-95474698D01*
X136055000Y-95241309D01*
X136055000Y-94900750D01*
X135896250Y-94742000D01*
X134747000Y-94742000D01*
X134493000Y-94742000D01*
X133343750Y-94742000D01*
X133185000Y-94900750D01*
X132880000Y-94900750D01*
X132721250Y-94742000D01*
X131572000Y-94742000D01*
X131318000Y-94742000D01*
X130168750Y-94742000D01*
X130010000Y-94900750D01*
X129717440Y-94900750D01*
X129717440Y-94347143D01*
X129861201Y-94406838D01*
X130087785Y-94407035D01*
X130168750Y-94488000D01*
X131318000Y-94488000D01*
X131318000Y-94468000D01*
X131572000Y-94468000D01*
X131572000Y-94488000D01*
X132721250Y-94488000D01*
X132880000Y-94329250D01*
X132880000Y-93988691D01*
X132783327Y-93755302D01*
X132754025Y-93726000D01*
X133310975Y-93726000D01*
X133281673Y-93755302D01*
X133185000Y-93988691D01*
X133185000Y-94329250D01*
X133343750Y-94488000D01*
X134493000Y-94488000D01*
X134493000Y-94468000D01*
X134747000Y-94468000D01*
X134747000Y-94488000D01*
X135896250Y-94488000D01*
X136055000Y-94329250D01*
X136055000Y-93988691D01*
X136360000Y-93988691D01*
X136360000Y-94329250D01*
X136518750Y-94488000D01*
X137668000Y-94488000D01*
X137668000Y-93638750D01*
X137509250Y-93480000D01*
X136868690Y-93480000D01*
X136635301Y-93576673D01*
X136456673Y-93755302D01*
X136360000Y-93988691D01*
X136055000Y-93988691D01*
X135958327Y-93755302D01*
X135779699Y-93576673D01*
X135546310Y-93480000D01*
X134905750Y-93480000D01*
X134747002Y-93638748D01*
X134747002Y-93480000D01*
X134673630Y-93480000D01*
X135158815Y-92994816D01*
X135314084Y-92762440D01*
X135420000Y-92762440D01*
X135655317Y-92718162D01*
X135871441Y-92579090D01*
X136009523Y-92377000D01*
X136409008Y-92377000D01*
X136530910Y-92566441D01*
X136743110Y-92711431D01*
X136995000Y-92762440D01*
X137404810Y-92762440D01*
X137748875Y-93106505D01*
X137748838Y-93149167D01*
X137890883Y-93492943D01*
X137979268Y-93581482D01*
X137922000Y-93638750D01*
X137922000Y-94488000D01*
X139071250Y-94488000D01*
X139230000Y-94329250D01*
X139230000Y-93988691D01*
X139535000Y-93988691D01*
X139535000Y-94329250D01*
X139693750Y-94488000D01*
X140843000Y-94488000D01*
X140843000Y-93638750D01*
X140684250Y-93480000D01*
X140043690Y-93480000D01*
X139810301Y-93576673D01*
X139631673Y-93755302D01*
X139535000Y-93988691D01*
X139230000Y-93988691D01*
X139145604Y-93784941D01*
X139212943Y-93757117D01*
X139476192Y-93494327D01*
X139618838Y-93150799D01*
X139619162Y-92778833D01*
X139477117Y-92435057D01*
X139228135Y-92185640D01*
X139242440Y-92115000D01*
X139242440Y-91115000D01*
X139208006Y-90932000D01*
X139559618Y-90932000D01*
X139522560Y-91115000D01*
G36*
X108979738Y-79594040D02*
X109209138Y-80149229D01*
X109633537Y-80574370D01*
X109656469Y-80583892D01*
X109607545Y-80732940D01*
X110490000Y-81615395D01*
X110504143Y-81601253D01*
X110683748Y-81780858D01*
X110669605Y-81795000D01*
X111552060Y-82677455D01*
X111805953Y-82594116D01*
X112011590Y-82029694D01*
X112005452Y-81888082D01*
X112903000Y-82785630D01*
X112903000Y-96632370D01*
X111961468Y-95690838D01*
X111999738Y-95598675D01*
X112000262Y-94997960D01*
X111770862Y-94442771D01*
X111375464Y-94046682D01*
X111769370Y-93653463D01*
X111999738Y-93098675D01*
X112000262Y-92497960D01*
X111770862Y-91942771D01*
X111602283Y-91773897D01*
X111816441Y-91636090D01*
X111961431Y-91423890D01*
X112012440Y-91172000D01*
X112012440Y-89422000D01*
X111968162Y-89186683D01*
X111829090Y-88970559D01*
X111616890Y-88825569D01*
X111365000Y-88774560D01*
X109615000Y-88774560D01*
X109379683Y-88818838D01*
X109163559Y-88957910D01*
X109018569Y-89170110D01*
X108967560Y-89422000D01*
X108967560Y-90196930D01*
X108077000Y-89306370D01*
X108077000Y-82857060D01*
X109607545Y-82857060D01*
X109690884Y-83110953D01*
X110255306Y-83316590D01*
X110855458Y-83290579D01*
X111289116Y-83110953D01*
X111372455Y-82857060D01*
X110490000Y-81974605D01*
X109607545Y-82857060D01*
X108077000Y-82857060D01*
X108077000Y-81560306D01*
X108968410Y-81560306D01*
X108994421Y-82160458D01*
X109174047Y-82594116D01*
X109427940Y-82677455D01*
X110310395Y-81795000D01*
X109427940Y-80912545D01*
X109174047Y-80995884D01*
X108968410Y-81560306D01*
X108077000Y-81560306D01*
X108077000Y-80285630D01*
X108979922Y-79382708D01*
X108979738Y-79594040D01*
X108979738Y-79594040D01*
G37*
X108979738Y-79594040D02*
X109209138Y-80149229D01*
X109633537Y-80574370D01*
X109656469Y-80583892D01*
X109607545Y-80732940D01*
X110490000Y-81615395D01*
X110504143Y-81601253D01*
X110683748Y-81780858D01*
X110669605Y-81795000D01*
X111552060Y-82677455D01*
X111805953Y-82594116D01*
X112011590Y-82029694D01*
X112005452Y-81888082D01*
X112903000Y-82785630D01*
X112903000Y-96632370D01*
X111961468Y-95690838D01*
X111999738Y-95598675D01*
X112000262Y-94997960D01*
X111770862Y-94442771D01*
X111375464Y-94046682D01*
X111769370Y-93653463D01*
X111999738Y-93098675D01*
X112000262Y-92497960D01*
X111770862Y-91942771D01*
X111602283Y-91773897D01*
X111816441Y-91636090D01*
X111961431Y-91423890D01*
X112012440Y-91172000D01*
X112012440Y-89422000D01*
X111968162Y-89186683D01*
X111829090Y-88970559D01*
X111616890Y-88825569D01*
X111365000Y-88774560D01*
X109615000Y-88774560D01*
X109379683Y-88818838D01*
X109163559Y-88957910D01*
X109018569Y-89170110D01*
X108967560Y-89422000D01*
X108967560Y-90196930D01*
X108077000Y-89306370D01*
X108077000Y-82857060D01*
X109607545Y-82857060D01*
X109690884Y-83110953D01*
X110255306Y-83316590D01*
X110855458Y-83290579D01*
X111289116Y-83110953D01*
X111372455Y-82857060D01*
X110490000Y-81974605D01*
X109607545Y-82857060D01*
X108077000Y-82857060D01*
X108077000Y-81560306D01*
X108968410Y-81560306D01*
X108994421Y-82160458D01*
X109174047Y-82594116D01*
X109427940Y-82677455D01*
X110310395Y-81795000D01*
X109427940Y-80912545D01*
X109174047Y-80995884D01*
X108968410Y-81560306D01*
X108077000Y-81560306D01*
X108077000Y-80285630D01*
X108979922Y-79382708D01*
X108979738Y-79594040D01*
M02*
