G04 #@! TF.FileFunction,Soldermask,Top*
%FSLAX46Y46*%
G04 Gerber Fmt 4.6, Leading zero omitted, Abs format (unit mm)*
G04 Created by KiCad (PCBNEW 4.0.7) date Thu Oct  5 08:26:23 2017*
%MOMM*%
%LPD*%
G01*
G04 APERTURE LIST*
%ADD10C,0.100000*%
%ADD11C,2.400000*%
%ADD12R,2.400000X2.000000*%
%ADD13R,1.400000X0.650000*%
%ADD14R,0.650000X1.400000*%
%ADD15R,2.100000X2.400000*%
%ADD16R,2.150000X2.150000*%
%ADD17C,2.150000*%
%ADD18R,2.400000X2.100000*%
%ADD19R,1.900000X1.650000*%
%ADD20R,0.800000X1.750000*%
%ADD21O,1.650000X1.350000*%
%ADD22O,1.400000X1.950000*%
%ADD23R,4.200000X2.400000*%
%ADD24R,1.900000X2.400000*%
%ADD25R,2.200000X2.500000*%
%ADD26R,3.900000X3.900000*%
%ADD27R,2.100000X2.100000*%
%ADD28O,2.100000X2.100000*%
%ADD29R,1.900000X1.700000*%
G04 APERTURE END LIST*
D10*
D11*
X163045000Y-113030000D03*
X163045000Y-108530000D03*
X169545000Y-113030000D03*
X169545000Y-108530000D03*
D12*
X169640000Y-99695000D03*
X165640000Y-99695000D03*
D13*
X128935000Y-92785000D03*
X128935000Y-93285000D03*
X128935000Y-93785000D03*
X128935000Y-94285000D03*
X128935000Y-94785000D03*
X128935000Y-95285000D03*
X128935000Y-95785000D03*
X128935000Y-96285000D03*
X128935000Y-96785000D03*
X128935000Y-97285000D03*
X128935000Y-97785000D03*
X128935000Y-98285000D03*
X128935000Y-98785000D03*
X128935000Y-99285000D03*
X128935000Y-99785000D03*
X128935000Y-100285000D03*
D14*
X130885000Y-102235000D03*
X131385000Y-102235000D03*
X131885000Y-102235000D03*
X132385000Y-102235000D03*
X132885000Y-102235000D03*
X133385000Y-102235000D03*
X133885000Y-102235000D03*
X134385000Y-102235000D03*
X134885000Y-102235000D03*
X135385000Y-102235000D03*
X135885000Y-102235000D03*
X136385000Y-102235000D03*
X136885000Y-102235000D03*
X137385000Y-102235000D03*
X137885000Y-102235000D03*
X138385000Y-102235000D03*
D13*
X140335000Y-100285000D03*
X140335000Y-99785000D03*
X140335000Y-99285000D03*
X140335000Y-98785000D03*
X140335000Y-98285000D03*
X140335000Y-97785000D03*
X140335000Y-97285000D03*
X140335000Y-96785000D03*
X140335000Y-96285000D03*
X140335000Y-95785000D03*
X140335000Y-95285000D03*
X140335000Y-94785000D03*
X140335000Y-94285000D03*
X140335000Y-93785000D03*
X140335000Y-93285000D03*
X140335000Y-92785000D03*
D14*
X138385000Y-90835000D03*
X137885000Y-90835000D03*
X137385000Y-90835000D03*
X136885000Y-90835000D03*
X136385000Y-90835000D03*
X135885000Y-90835000D03*
X135385000Y-90835000D03*
X134885000Y-90835000D03*
X134385000Y-90835000D03*
X133885000Y-90835000D03*
X133385000Y-90835000D03*
X132885000Y-90835000D03*
X132385000Y-90835000D03*
X131885000Y-90835000D03*
X131385000Y-90835000D03*
X130885000Y-90835000D03*
D11*
X152250000Y-113030000D03*
X152250000Y-108530000D03*
X158750000Y-113030000D03*
X158750000Y-108530000D03*
D15*
X135255000Y-113220000D03*
X135255000Y-109220000D03*
D16*
X110490000Y-90297000D03*
D17*
X110490000Y-92797000D03*
X110490000Y-95297000D03*
X110490000Y-97797000D03*
D16*
X110490000Y-106419000D03*
D17*
X110490000Y-108919000D03*
X110490000Y-111419000D03*
X110490000Y-113919000D03*
D18*
X150495000Y-93345000D03*
X146495000Y-93345000D03*
D12*
X179070000Y-99695000D03*
X175070000Y-99695000D03*
D19*
X122535000Y-90805000D03*
X120035000Y-90805000D03*
X122535000Y-99695000D03*
X120035000Y-99695000D03*
D15*
X126365000Y-109220000D03*
X126365000Y-113220000D03*
X132715000Y-109220000D03*
X132715000Y-113220000D03*
X139065000Y-109220000D03*
X139065000Y-113220000D03*
X145415000Y-109220000D03*
X145415000Y-113220000D03*
D16*
X189865000Y-81915000D03*
D17*
X189865000Y-79415000D03*
X189865000Y-76915000D03*
X189865000Y-74415000D03*
D16*
X189865000Y-98171000D03*
D17*
X189865000Y-95671000D03*
X189865000Y-93171000D03*
X189865000Y-90671000D03*
D16*
X189865000Y-114427000D03*
D17*
X189865000Y-111927000D03*
X189865000Y-109427000D03*
X189865000Y-106927000D03*
D16*
X189865000Y-130683000D03*
D17*
X189865000Y-128183000D03*
X189865000Y-125683000D03*
X189865000Y-123183000D03*
D16*
X122555000Y-120650000D03*
D17*
X125055000Y-120650000D03*
X127555000Y-120650000D03*
X130055000Y-120650000D03*
D16*
X138430000Y-120650000D03*
D17*
X140930000Y-120650000D03*
X143430000Y-120650000D03*
X145930000Y-120650000D03*
D16*
X154305000Y-120650000D03*
D17*
X156805000Y-120650000D03*
X159305000Y-120650000D03*
X161805000Y-120650000D03*
D16*
X170180000Y-120650000D03*
D17*
X172680000Y-120650000D03*
X175180000Y-120650000D03*
X177680000Y-120650000D03*
D16*
X110490000Y-74295000D03*
D17*
X110490000Y-76795000D03*
X110490000Y-79295000D03*
X110490000Y-81795000D03*
D16*
X110490000Y-122675000D03*
D17*
X110490000Y-125175000D03*
X110490000Y-127675000D03*
X110490000Y-130175000D03*
D20*
X162900000Y-73820000D03*
X162250000Y-73820000D03*
X161600000Y-73820000D03*
X160950000Y-73820000D03*
X160300000Y-73820000D03*
D21*
X164100000Y-73820000D03*
X159100000Y-73820000D03*
D22*
X165100000Y-71120000D03*
X158100000Y-71120000D03*
D15*
X122555000Y-109220000D03*
X122555000Y-113220000D03*
X147955000Y-113220000D03*
X147955000Y-109220000D03*
X128905000Y-113220000D03*
X128905000Y-109220000D03*
X141605000Y-113220000D03*
X141605000Y-109220000D03*
X164465000Y-82137000D03*
X164465000Y-78137000D03*
X158115000Y-82137000D03*
X158115000Y-78137000D03*
X161290000Y-82137000D03*
X161290000Y-78137000D03*
X154940000Y-82137000D03*
X154940000Y-78137000D03*
D18*
X154940000Y-90170000D03*
X158940000Y-90170000D03*
X154940000Y-102870000D03*
X158940000Y-102870000D03*
X150495000Y-96520000D03*
X146495000Y-96520000D03*
X158940000Y-96520000D03*
X154940000Y-96520000D03*
X146495000Y-90170000D03*
X150495000Y-90170000D03*
X146495000Y-102870000D03*
X150495000Y-102870000D03*
X146495000Y-99695000D03*
X150495000Y-99695000D03*
X158940000Y-93345000D03*
X154940000Y-93345000D03*
D11*
X173840000Y-113085000D03*
X173840000Y-108585000D03*
X180340000Y-113085000D03*
X180340000Y-108585000D03*
D23*
X167665000Y-90195000D03*
D24*
X167665000Y-96495000D03*
X169965000Y-96495000D03*
X165365000Y-96495000D03*
D25*
X120135000Y-93980000D03*
X120135000Y-96880000D03*
X122435000Y-96880000D03*
X122435000Y-93980000D03*
D15*
X120015000Y-109243684D03*
X120015000Y-113243684D03*
D16*
X130175000Y-82550000D03*
D17*
X127675000Y-82550000D03*
X125175000Y-82550000D03*
X122675000Y-82550000D03*
D12*
X154940000Y-99695000D03*
X158940000Y-99695000D03*
D26*
X177165000Y-82200000D03*
X177165000Y-76200000D03*
X172465000Y-79200000D03*
D23*
X177165000Y-90195000D03*
D24*
X177165000Y-96495000D03*
X179465000Y-96495000D03*
X174865000Y-96495000D03*
D15*
X167640000Y-78105000D03*
X167640000Y-82105000D03*
D27*
X137795000Y-83185000D03*
D28*
X140335000Y-83185000D03*
X142875000Y-83185000D03*
X145415000Y-83185000D03*
X147955000Y-83185000D03*
X150495000Y-83185000D03*
D12*
X169624000Y-102870000D03*
X165624000Y-102870000D03*
X179070000Y-102870000D03*
X175070000Y-102870000D03*
D29*
X122635000Y-102235000D03*
X119935000Y-102235000D03*
M02*
