G04 #@! TF.FileFunction,Soldermask,Bot*
%FSLAX46Y46*%
G04 Gerber Fmt 4.6, Leading zero omitted, Abs format (unit mm)*
G04 Created by KiCad (PCBNEW 4.0.7) date Thu Oct  5 08:26:23 2017*
%MOMM*%
%LPD*%
G01*
G04 APERTURE LIST*
%ADD10C,0.100000*%
%ADD11C,2.400000*%
%ADD12R,2.150000X2.150000*%
%ADD13C,2.150000*%
%ADD14O,1.650000X1.350000*%
%ADD15O,1.400000X1.950000*%
%ADD16R,1.700000X1.900000*%
%ADD17R,3.900000X3.900000*%
%ADD18R,2.100000X2.100000*%
%ADD19O,2.100000X2.100000*%
%ADD20R,2.000000X1.400000*%
G04 APERTURE END LIST*
D10*
D11*
X163045000Y-113030000D03*
X163045000Y-108530000D03*
X169545000Y-113030000D03*
X169545000Y-108530000D03*
X152250000Y-113030000D03*
X152250000Y-108530000D03*
X158750000Y-113030000D03*
X158750000Y-108530000D03*
D12*
X110490000Y-90297000D03*
D13*
X110490000Y-92797000D03*
X110490000Y-95297000D03*
X110490000Y-97797000D03*
D12*
X110490000Y-106419000D03*
D13*
X110490000Y-108919000D03*
X110490000Y-111419000D03*
X110490000Y-113919000D03*
D12*
X189865000Y-81915000D03*
D13*
X189865000Y-79415000D03*
X189865000Y-76915000D03*
X189865000Y-74415000D03*
D12*
X189865000Y-98171000D03*
D13*
X189865000Y-95671000D03*
X189865000Y-93171000D03*
X189865000Y-90671000D03*
D12*
X189865000Y-114427000D03*
D13*
X189865000Y-111927000D03*
X189865000Y-109427000D03*
X189865000Y-106927000D03*
D12*
X189865000Y-130683000D03*
D13*
X189865000Y-128183000D03*
X189865000Y-125683000D03*
X189865000Y-123183000D03*
D12*
X122555000Y-120650000D03*
D13*
X125055000Y-120650000D03*
X127555000Y-120650000D03*
X130055000Y-120650000D03*
D12*
X138430000Y-120650000D03*
D13*
X140930000Y-120650000D03*
X143430000Y-120650000D03*
X145930000Y-120650000D03*
D12*
X154305000Y-120650000D03*
D13*
X156805000Y-120650000D03*
X159305000Y-120650000D03*
X161805000Y-120650000D03*
D12*
X170180000Y-120650000D03*
D13*
X172680000Y-120650000D03*
X175180000Y-120650000D03*
X177680000Y-120650000D03*
D12*
X110490000Y-74295000D03*
D13*
X110490000Y-76795000D03*
X110490000Y-79295000D03*
X110490000Y-81795000D03*
D12*
X110490000Y-122675000D03*
D13*
X110490000Y-125175000D03*
X110490000Y-127675000D03*
X110490000Y-130175000D03*
D14*
X164100000Y-73820000D03*
X159100000Y-73820000D03*
D15*
X165100000Y-71120000D03*
X158100000Y-71120000D03*
D11*
X173840000Y-113085000D03*
X173840000Y-108585000D03*
X180340000Y-113085000D03*
X180340000Y-108585000D03*
D12*
X130175000Y-82550000D03*
D13*
X127675000Y-82550000D03*
X125175000Y-82550000D03*
X122675000Y-82550000D03*
D16*
X131445000Y-97255000D03*
X131445000Y-99955000D03*
D17*
X177165000Y-82200000D03*
X177165000Y-76200000D03*
X172465000Y-79200000D03*
D18*
X137795000Y-83185000D03*
D19*
X140335000Y-83185000D03*
X142875000Y-83185000D03*
X145415000Y-83185000D03*
X147955000Y-83185000D03*
X150495000Y-83185000D03*
D20*
X137795000Y-100155000D03*
X137795000Y-97155000D03*
X137795000Y-91615000D03*
X137795000Y-94615000D03*
X140970000Y-100155000D03*
X140970000Y-97155000D03*
X134620000Y-100155000D03*
X134620000Y-97155000D03*
X144145000Y-100155000D03*
X144145000Y-97155000D03*
X128270000Y-97155000D03*
X128270000Y-100155000D03*
X128270000Y-94615000D03*
X128270000Y-91615000D03*
X131445000Y-91615000D03*
X131445000Y-94615000D03*
X140970000Y-91615000D03*
X140970000Y-94615000D03*
X134620000Y-91615000D03*
X134620000Y-94615000D03*
M02*
