G75*
%MOIN*%
%OFA0B0*%
%FSLAX25Y25*%
%IPPOS*%
%LPD*%
%AMOC8*
5,1,8,0,0,1.08239X$1,22.5*
%
%ADD10C,0.01000*%
%ADD11C,0.01500*%
%ADD12C,0.00000*%
D10*
X0006750Y0001750D02*
X0011750Y0001750D01*
D11*
X0001750Y0001750D01*
X0001750Y0266750D01*
X0346750Y0266750D01*
X0346750Y0001750D01*
X0011750Y0001750D01*
D12*
X0024191Y0025726D02*
X0024193Y0025866D01*
X0024199Y0026006D01*
X0024209Y0026145D01*
X0024223Y0026284D01*
X0024241Y0026423D01*
X0024262Y0026561D01*
X0024288Y0026699D01*
X0024318Y0026836D01*
X0024351Y0026971D01*
X0024389Y0027106D01*
X0024430Y0027240D01*
X0024475Y0027373D01*
X0024523Y0027504D01*
X0024576Y0027633D01*
X0024632Y0027762D01*
X0024691Y0027888D01*
X0024755Y0028013D01*
X0024821Y0028136D01*
X0024892Y0028257D01*
X0024965Y0028376D01*
X0025042Y0028493D01*
X0025123Y0028607D01*
X0025206Y0028719D01*
X0025293Y0028829D01*
X0025383Y0028937D01*
X0025475Y0029041D01*
X0025571Y0029143D01*
X0025670Y0029243D01*
X0025771Y0029339D01*
X0025875Y0029433D01*
X0025982Y0029523D01*
X0026091Y0029610D01*
X0026203Y0029695D01*
X0026317Y0029776D01*
X0026433Y0029854D01*
X0026551Y0029928D01*
X0026672Y0029999D01*
X0026794Y0030067D01*
X0026919Y0030131D01*
X0027045Y0030192D01*
X0027172Y0030249D01*
X0027302Y0030302D01*
X0027433Y0030352D01*
X0027565Y0030397D01*
X0027698Y0030440D01*
X0027833Y0030478D01*
X0027968Y0030512D01*
X0028105Y0030543D01*
X0028242Y0030570D01*
X0028380Y0030592D01*
X0028519Y0030611D01*
X0028658Y0030626D01*
X0028797Y0030637D01*
X0028937Y0030644D01*
X0029077Y0030647D01*
X0029217Y0030646D01*
X0029357Y0030641D01*
X0029496Y0030632D01*
X0029636Y0030619D01*
X0029775Y0030602D01*
X0029913Y0030581D01*
X0030051Y0030557D01*
X0030188Y0030528D01*
X0030324Y0030496D01*
X0030459Y0030459D01*
X0030593Y0030419D01*
X0030726Y0030375D01*
X0030857Y0030327D01*
X0030987Y0030276D01*
X0031116Y0030221D01*
X0031243Y0030162D01*
X0031368Y0030099D01*
X0031491Y0030034D01*
X0031613Y0029964D01*
X0031732Y0029891D01*
X0031850Y0029815D01*
X0031965Y0029736D01*
X0032078Y0029653D01*
X0032188Y0029567D01*
X0032296Y0029478D01*
X0032401Y0029386D01*
X0032504Y0029291D01*
X0032604Y0029193D01*
X0032701Y0029093D01*
X0032795Y0028989D01*
X0032887Y0028883D01*
X0032975Y0028775D01*
X0033060Y0028664D01*
X0033142Y0028550D01*
X0033221Y0028434D01*
X0033296Y0028317D01*
X0033368Y0028197D01*
X0033436Y0028075D01*
X0033501Y0027951D01*
X0033563Y0027825D01*
X0033621Y0027698D01*
X0033675Y0027569D01*
X0033726Y0027438D01*
X0033772Y0027306D01*
X0033815Y0027173D01*
X0033855Y0027039D01*
X0033890Y0026904D01*
X0033922Y0026767D01*
X0033949Y0026630D01*
X0033973Y0026492D01*
X0033993Y0026354D01*
X0034009Y0026215D01*
X0034021Y0026075D01*
X0034029Y0025936D01*
X0034033Y0025796D01*
X0034033Y0025656D01*
X0034029Y0025516D01*
X0034021Y0025377D01*
X0034009Y0025237D01*
X0033993Y0025098D01*
X0033973Y0024960D01*
X0033949Y0024822D01*
X0033922Y0024685D01*
X0033890Y0024548D01*
X0033855Y0024413D01*
X0033815Y0024279D01*
X0033772Y0024146D01*
X0033726Y0024014D01*
X0033675Y0023883D01*
X0033621Y0023754D01*
X0033563Y0023627D01*
X0033501Y0023501D01*
X0033436Y0023377D01*
X0033368Y0023255D01*
X0033296Y0023135D01*
X0033221Y0023018D01*
X0033142Y0022902D01*
X0033060Y0022788D01*
X0032975Y0022677D01*
X0032887Y0022569D01*
X0032795Y0022463D01*
X0032701Y0022359D01*
X0032604Y0022259D01*
X0032504Y0022161D01*
X0032401Y0022066D01*
X0032296Y0021974D01*
X0032188Y0021885D01*
X0032078Y0021799D01*
X0031965Y0021716D01*
X0031850Y0021637D01*
X0031732Y0021561D01*
X0031613Y0021488D01*
X0031491Y0021418D01*
X0031368Y0021353D01*
X0031243Y0021290D01*
X0031116Y0021231D01*
X0030987Y0021176D01*
X0030857Y0021125D01*
X0030726Y0021077D01*
X0030593Y0021033D01*
X0030459Y0020993D01*
X0030324Y0020956D01*
X0030188Y0020924D01*
X0030051Y0020895D01*
X0029913Y0020871D01*
X0029775Y0020850D01*
X0029636Y0020833D01*
X0029496Y0020820D01*
X0029357Y0020811D01*
X0029217Y0020806D01*
X0029077Y0020805D01*
X0028937Y0020808D01*
X0028797Y0020815D01*
X0028658Y0020826D01*
X0028519Y0020841D01*
X0028380Y0020860D01*
X0028242Y0020882D01*
X0028105Y0020909D01*
X0027968Y0020940D01*
X0027833Y0020974D01*
X0027698Y0021012D01*
X0027565Y0021055D01*
X0027433Y0021100D01*
X0027302Y0021150D01*
X0027172Y0021203D01*
X0027045Y0021260D01*
X0026919Y0021321D01*
X0026794Y0021385D01*
X0026672Y0021453D01*
X0026551Y0021524D01*
X0026433Y0021598D01*
X0026317Y0021676D01*
X0026203Y0021757D01*
X0026091Y0021842D01*
X0025982Y0021929D01*
X0025875Y0022019D01*
X0025771Y0022113D01*
X0025670Y0022209D01*
X0025571Y0022309D01*
X0025475Y0022411D01*
X0025383Y0022515D01*
X0025293Y0022623D01*
X0025206Y0022733D01*
X0025123Y0022845D01*
X0025042Y0022959D01*
X0024965Y0023076D01*
X0024892Y0023195D01*
X0024821Y0023316D01*
X0024755Y0023439D01*
X0024691Y0023564D01*
X0024632Y0023690D01*
X0024576Y0023819D01*
X0024523Y0023948D01*
X0024475Y0024079D01*
X0024430Y0024212D01*
X0024389Y0024346D01*
X0024351Y0024481D01*
X0024318Y0024616D01*
X0024288Y0024753D01*
X0024262Y0024891D01*
X0024241Y0025029D01*
X0024223Y0025168D01*
X0024209Y0025307D01*
X0024199Y0025446D01*
X0024193Y0025586D01*
X0024191Y0025726D01*
X0024191Y0147774D02*
X0024193Y0147914D01*
X0024199Y0148054D01*
X0024209Y0148193D01*
X0024223Y0148332D01*
X0024241Y0148471D01*
X0024262Y0148609D01*
X0024288Y0148747D01*
X0024318Y0148884D01*
X0024351Y0149019D01*
X0024389Y0149154D01*
X0024430Y0149288D01*
X0024475Y0149421D01*
X0024523Y0149552D01*
X0024576Y0149681D01*
X0024632Y0149810D01*
X0024691Y0149936D01*
X0024755Y0150061D01*
X0024821Y0150184D01*
X0024892Y0150305D01*
X0024965Y0150424D01*
X0025042Y0150541D01*
X0025123Y0150655D01*
X0025206Y0150767D01*
X0025293Y0150877D01*
X0025383Y0150985D01*
X0025475Y0151089D01*
X0025571Y0151191D01*
X0025670Y0151291D01*
X0025771Y0151387D01*
X0025875Y0151481D01*
X0025982Y0151571D01*
X0026091Y0151658D01*
X0026203Y0151743D01*
X0026317Y0151824D01*
X0026433Y0151902D01*
X0026551Y0151976D01*
X0026672Y0152047D01*
X0026794Y0152115D01*
X0026919Y0152179D01*
X0027045Y0152240D01*
X0027172Y0152297D01*
X0027302Y0152350D01*
X0027433Y0152400D01*
X0027565Y0152445D01*
X0027698Y0152488D01*
X0027833Y0152526D01*
X0027968Y0152560D01*
X0028105Y0152591D01*
X0028242Y0152618D01*
X0028380Y0152640D01*
X0028519Y0152659D01*
X0028658Y0152674D01*
X0028797Y0152685D01*
X0028937Y0152692D01*
X0029077Y0152695D01*
X0029217Y0152694D01*
X0029357Y0152689D01*
X0029496Y0152680D01*
X0029636Y0152667D01*
X0029775Y0152650D01*
X0029913Y0152629D01*
X0030051Y0152605D01*
X0030188Y0152576D01*
X0030324Y0152544D01*
X0030459Y0152507D01*
X0030593Y0152467D01*
X0030726Y0152423D01*
X0030857Y0152375D01*
X0030987Y0152324D01*
X0031116Y0152269D01*
X0031243Y0152210D01*
X0031368Y0152147D01*
X0031491Y0152082D01*
X0031613Y0152012D01*
X0031732Y0151939D01*
X0031850Y0151863D01*
X0031965Y0151784D01*
X0032078Y0151701D01*
X0032188Y0151615D01*
X0032296Y0151526D01*
X0032401Y0151434D01*
X0032504Y0151339D01*
X0032604Y0151241D01*
X0032701Y0151141D01*
X0032795Y0151037D01*
X0032887Y0150931D01*
X0032975Y0150823D01*
X0033060Y0150712D01*
X0033142Y0150598D01*
X0033221Y0150482D01*
X0033296Y0150365D01*
X0033368Y0150245D01*
X0033436Y0150123D01*
X0033501Y0149999D01*
X0033563Y0149873D01*
X0033621Y0149746D01*
X0033675Y0149617D01*
X0033726Y0149486D01*
X0033772Y0149354D01*
X0033815Y0149221D01*
X0033855Y0149087D01*
X0033890Y0148952D01*
X0033922Y0148815D01*
X0033949Y0148678D01*
X0033973Y0148540D01*
X0033993Y0148402D01*
X0034009Y0148263D01*
X0034021Y0148123D01*
X0034029Y0147984D01*
X0034033Y0147844D01*
X0034033Y0147704D01*
X0034029Y0147564D01*
X0034021Y0147425D01*
X0034009Y0147285D01*
X0033993Y0147146D01*
X0033973Y0147008D01*
X0033949Y0146870D01*
X0033922Y0146733D01*
X0033890Y0146596D01*
X0033855Y0146461D01*
X0033815Y0146327D01*
X0033772Y0146194D01*
X0033726Y0146062D01*
X0033675Y0145931D01*
X0033621Y0145802D01*
X0033563Y0145675D01*
X0033501Y0145549D01*
X0033436Y0145425D01*
X0033368Y0145303D01*
X0033296Y0145183D01*
X0033221Y0145066D01*
X0033142Y0144950D01*
X0033060Y0144836D01*
X0032975Y0144725D01*
X0032887Y0144617D01*
X0032795Y0144511D01*
X0032701Y0144407D01*
X0032604Y0144307D01*
X0032504Y0144209D01*
X0032401Y0144114D01*
X0032296Y0144022D01*
X0032188Y0143933D01*
X0032078Y0143847D01*
X0031965Y0143764D01*
X0031850Y0143685D01*
X0031732Y0143609D01*
X0031613Y0143536D01*
X0031491Y0143466D01*
X0031368Y0143401D01*
X0031243Y0143338D01*
X0031116Y0143279D01*
X0030987Y0143224D01*
X0030857Y0143173D01*
X0030726Y0143125D01*
X0030593Y0143081D01*
X0030459Y0143041D01*
X0030324Y0143004D01*
X0030188Y0142972D01*
X0030051Y0142943D01*
X0029913Y0142919D01*
X0029775Y0142898D01*
X0029636Y0142881D01*
X0029496Y0142868D01*
X0029357Y0142859D01*
X0029217Y0142854D01*
X0029077Y0142853D01*
X0028937Y0142856D01*
X0028797Y0142863D01*
X0028658Y0142874D01*
X0028519Y0142889D01*
X0028380Y0142908D01*
X0028242Y0142930D01*
X0028105Y0142957D01*
X0027968Y0142988D01*
X0027833Y0143022D01*
X0027698Y0143060D01*
X0027565Y0143103D01*
X0027433Y0143148D01*
X0027302Y0143198D01*
X0027172Y0143251D01*
X0027045Y0143308D01*
X0026919Y0143369D01*
X0026794Y0143433D01*
X0026672Y0143501D01*
X0026551Y0143572D01*
X0026433Y0143646D01*
X0026317Y0143724D01*
X0026203Y0143805D01*
X0026091Y0143890D01*
X0025982Y0143977D01*
X0025875Y0144067D01*
X0025771Y0144161D01*
X0025670Y0144257D01*
X0025571Y0144357D01*
X0025475Y0144459D01*
X0025383Y0144563D01*
X0025293Y0144671D01*
X0025206Y0144781D01*
X0025123Y0144893D01*
X0025042Y0145007D01*
X0024965Y0145124D01*
X0024892Y0145243D01*
X0024821Y0145364D01*
X0024755Y0145487D01*
X0024691Y0145612D01*
X0024632Y0145738D01*
X0024576Y0145867D01*
X0024523Y0145996D01*
X0024475Y0146127D01*
X0024430Y0146260D01*
X0024389Y0146394D01*
X0024351Y0146529D01*
X0024318Y0146664D01*
X0024288Y0146801D01*
X0024262Y0146939D01*
X0024241Y0147077D01*
X0024223Y0147216D01*
X0024209Y0147355D01*
X0024199Y0147494D01*
X0024193Y0147634D01*
X0024191Y0147774D01*
X0319467Y0147774D02*
X0319469Y0147914D01*
X0319475Y0148054D01*
X0319485Y0148193D01*
X0319499Y0148332D01*
X0319517Y0148471D01*
X0319538Y0148609D01*
X0319564Y0148747D01*
X0319594Y0148884D01*
X0319627Y0149019D01*
X0319665Y0149154D01*
X0319706Y0149288D01*
X0319751Y0149421D01*
X0319799Y0149552D01*
X0319852Y0149681D01*
X0319908Y0149810D01*
X0319967Y0149936D01*
X0320031Y0150061D01*
X0320097Y0150184D01*
X0320168Y0150305D01*
X0320241Y0150424D01*
X0320318Y0150541D01*
X0320399Y0150655D01*
X0320482Y0150767D01*
X0320569Y0150877D01*
X0320659Y0150985D01*
X0320751Y0151089D01*
X0320847Y0151191D01*
X0320946Y0151291D01*
X0321047Y0151387D01*
X0321151Y0151481D01*
X0321258Y0151571D01*
X0321367Y0151658D01*
X0321479Y0151743D01*
X0321593Y0151824D01*
X0321709Y0151902D01*
X0321827Y0151976D01*
X0321948Y0152047D01*
X0322070Y0152115D01*
X0322195Y0152179D01*
X0322321Y0152240D01*
X0322448Y0152297D01*
X0322578Y0152350D01*
X0322709Y0152400D01*
X0322841Y0152445D01*
X0322974Y0152488D01*
X0323109Y0152526D01*
X0323244Y0152560D01*
X0323381Y0152591D01*
X0323518Y0152618D01*
X0323656Y0152640D01*
X0323795Y0152659D01*
X0323934Y0152674D01*
X0324073Y0152685D01*
X0324213Y0152692D01*
X0324353Y0152695D01*
X0324493Y0152694D01*
X0324633Y0152689D01*
X0324772Y0152680D01*
X0324912Y0152667D01*
X0325051Y0152650D01*
X0325189Y0152629D01*
X0325327Y0152605D01*
X0325464Y0152576D01*
X0325600Y0152544D01*
X0325735Y0152507D01*
X0325869Y0152467D01*
X0326002Y0152423D01*
X0326133Y0152375D01*
X0326263Y0152324D01*
X0326392Y0152269D01*
X0326519Y0152210D01*
X0326644Y0152147D01*
X0326767Y0152082D01*
X0326889Y0152012D01*
X0327008Y0151939D01*
X0327126Y0151863D01*
X0327241Y0151784D01*
X0327354Y0151701D01*
X0327464Y0151615D01*
X0327572Y0151526D01*
X0327677Y0151434D01*
X0327780Y0151339D01*
X0327880Y0151241D01*
X0327977Y0151141D01*
X0328071Y0151037D01*
X0328163Y0150931D01*
X0328251Y0150823D01*
X0328336Y0150712D01*
X0328418Y0150598D01*
X0328497Y0150482D01*
X0328572Y0150365D01*
X0328644Y0150245D01*
X0328712Y0150123D01*
X0328777Y0149999D01*
X0328839Y0149873D01*
X0328897Y0149746D01*
X0328951Y0149617D01*
X0329002Y0149486D01*
X0329048Y0149354D01*
X0329091Y0149221D01*
X0329131Y0149087D01*
X0329166Y0148952D01*
X0329198Y0148815D01*
X0329225Y0148678D01*
X0329249Y0148540D01*
X0329269Y0148402D01*
X0329285Y0148263D01*
X0329297Y0148123D01*
X0329305Y0147984D01*
X0329309Y0147844D01*
X0329309Y0147704D01*
X0329305Y0147564D01*
X0329297Y0147425D01*
X0329285Y0147285D01*
X0329269Y0147146D01*
X0329249Y0147008D01*
X0329225Y0146870D01*
X0329198Y0146733D01*
X0329166Y0146596D01*
X0329131Y0146461D01*
X0329091Y0146327D01*
X0329048Y0146194D01*
X0329002Y0146062D01*
X0328951Y0145931D01*
X0328897Y0145802D01*
X0328839Y0145675D01*
X0328777Y0145549D01*
X0328712Y0145425D01*
X0328644Y0145303D01*
X0328572Y0145183D01*
X0328497Y0145066D01*
X0328418Y0144950D01*
X0328336Y0144836D01*
X0328251Y0144725D01*
X0328163Y0144617D01*
X0328071Y0144511D01*
X0327977Y0144407D01*
X0327880Y0144307D01*
X0327780Y0144209D01*
X0327677Y0144114D01*
X0327572Y0144022D01*
X0327464Y0143933D01*
X0327354Y0143847D01*
X0327241Y0143764D01*
X0327126Y0143685D01*
X0327008Y0143609D01*
X0326889Y0143536D01*
X0326767Y0143466D01*
X0326644Y0143401D01*
X0326519Y0143338D01*
X0326392Y0143279D01*
X0326263Y0143224D01*
X0326133Y0143173D01*
X0326002Y0143125D01*
X0325869Y0143081D01*
X0325735Y0143041D01*
X0325600Y0143004D01*
X0325464Y0142972D01*
X0325327Y0142943D01*
X0325189Y0142919D01*
X0325051Y0142898D01*
X0324912Y0142881D01*
X0324772Y0142868D01*
X0324633Y0142859D01*
X0324493Y0142854D01*
X0324353Y0142853D01*
X0324213Y0142856D01*
X0324073Y0142863D01*
X0323934Y0142874D01*
X0323795Y0142889D01*
X0323656Y0142908D01*
X0323518Y0142930D01*
X0323381Y0142957D01*
X0323244Y0142988D01*
X0323109Y0143022D01*
X0322974Y0143060D01*
X0322841Y0143103D01*
X0322709Y0143148D01*
X0322578Y0143198D01*
X0322448Y0143251D01*
X0322321Y0143308D01*
X0322195Y0143369D01*
X0322070Y0143433D01*
X0321948Y0143501D01*
X0321827Y0143572D01*
X0321709Y0143646D01*
X0321593Y0143724D01*
X0321479Y0143805D01*
X0321367Y0143890D01*
X0321258Y0143977D01*
X0321151Y0144067D01*
X0321047Y0144161D01*
X0320946Y0144257D01*
X0320847Y0144357D01*
X0320751Y0144459D01*
X0320659Y0144563D01*
X0320569Y0144671D01*
X0320482Y0144781D01*
X0320399Y0144893D01*
X0320318Y0145007D01*
X0320241Y0145124D01*
X0320168Y0145243D01*
X0320097Y0145364D01*
X0320031Y0145487D01*
X0319967Y0145612D01*
X0319908Y0145738D01*
X0319852Y0145867D01*
X0319799Y0145996D01*
X0319751Y0146127D01*
X0319706Y0146260D01*
X0319665Y0146394D01*
X0319627Y0146529D01*
X0319594Y0146664D01*
X0319564Y0146801D01*
X0319538Y0146939D01*
X0319517Y0147077D01*
X0319499Y0147216D01*
X0319485Y0147355D01*
X0319475Y0147494D01*
X0319469Y0147634D01*
X0319467Y0147774D01*
X0319467Y0025726D02*
X0319469Y0025866D01*
X0319475Y0026006D01*
X0319485Y0026145D01*
X0319499Y0026284D01*
X0319517Y0026423D01*
X0319538Y0026561D01*
X0319564Y0026699D01*
X0319594Y0026836D01*
X0319627Y0026971D01*
X0319665Y0027106D01*
X0319706Y0027240D01*
X0319751Y0027373D01*
X0319799Y0027504D01*
X0319852Y0027633D01*
X0319908Y0027762D01*
X0319967Y0027888D01*
X0320031Y0028013D01*
X0320097Y0028136D01*
X0320168Y0028257D01*
X0320241Y0028376D01*
X0320318Y0028493D01*
X0320399Y0028607D01*
X0320482Y0028719D01*
X0320569Y0028829D01*
X0320659Y0028937D01*
X0320751Y0029041D01*
X0320847Y0029143D01*
X0320946Y0029243D01*
X0321047Y0029339D01*
X0321151Y0029433D01*
X0321258Y0029523D01*
X0321367Y0029610D01*
X0321479Y0029695D01*
X0321593Y0029776D01*
X0321709Y0029854D01*
X0321827Y0029928D01*
X0321948Y0029999D01*
X0322070Y0030067D01*
X0322195Y0030131D01*
X0322321Y0030192D01*
X0322448Y0030249D01*
X0322578Y0030302D01*
X0322709Y0030352D01*
X0322841Y0030397D01*
X0322974Y0030440D01*
X0323109Y0030478D01*
X0323244Y0030512D01*
X0323381Y0030543D01*
X0323518Y0030570D01*
X0323656Y0030592D01*
X0323795Y0030611D01*
X0323934Y0030626D01*
X0324073Y0030637D01*
X0324213Y0030644D01*
X0324353Y0030647D01*
X0324493Y0030646D01*
X0324633Y0030641D01*
X0324772Y0030632D01*
X0324912Y0030619D01*
X0325051Y0030602D01*
X0325189Y0030581D01*
X0325327Y0030557D01*
X0325464Y0030528D01*
X0325600Y0030496D01*
X0325735Y0030459D01*
X0325869Y0030419D01*
X0326002Y0030375D01*
X0326133Y0030327D01*
X0326263Y0030276D01*
X0326392Y0030221D01*
X0326519Y0030162D01*
X0326644Y0030099D01*
X0326767Y0030034D01*
X0326889Y0029964D01*
X0327008Y0029891D01*
X0327126Y0029815D01*
X0327241Y0029736D01*
X0327354Y0029653D01*
X0327464Y0029567D01*
X0327572Y0029478D01*
X0327677Y0029386D01*
X0327780Y0029291D01*
X0327880Y0029193D01*
X0327977Y0029093D01*
X0328071Y0028989D01*
X0328163Y0028883D01*
X0328251Y0028775D01*
X0328336Y0028664D01*
X0328418Y0028550D01*
X0328497Y0028434D01*
X0328572Y0028317D01*
X0328644Y0028197D01*
X0328712Y0028075D01*
X0328777Y0027951D01*
X0328839Y0027825D01*
X0328897Y0027698D01*
X0328951Y0027569D01*
X0329002Y0027438D01*
X0329048Y0027306D01*
X0329091Y0027173D01*
X0329131Y0027039D01*
X0329166Y0026904D01*
X0329198Y0026767D01*
X0329225Y0026630D01*
X0329249Y0026492D01*
X0329269Y0026354D01*
X0329285Y0026215D01*
X0329297Y0026075D01*
X0329305Y0025936D01*
X0329309Y0025796D01*
X0329309Y0025656D01*
X0329305Y0025516D01*
X0329297Y0025377D01*
X0329285Y0025237D01*
X0329269Y0025098D01*
X0329249Y0024960D01*
X0329225Y0024822D01*
X0329198Y0024685D01*
X0329166Y0024548D01*
X0329131Y0024413D01*
X0329091Y0024279D01*
X0329048Y0024146D01*
X0329002Y0024014D01*
X0328951Y0023883D01*
X0328897Y0023754D01*
X0328839Y0023627D01*
X0328777Y0023501D01*
X0328712Y0023377D01*
X0328644Y0023255D01*
X0328572Y0023135D01*
X0328497Y0023018D01*
X0328418Y0022902D01*
X0328336Y0022788D01*
X0328251Y0022677D01*
X0328163Y0022569D01*
X0328071Y0022463D01*
X0327977Y0022359D01*
X0327880Y0022259D01*
X0327780Y0022161D01*
X0327677Y0022066D01*
X0327572Y0021974D01*
X0327464Y0021885D01*
X0327354Y0021799D01*
X0327241Y0021716D01*
X0327126Y0021637D01*
X0327008Y0021561D01*
X0326889Y0021488D01*
X0326767Y0021418D01*
X0326644Y0021353D01*
X0326519Y0021290D01*
X0326392Y0021231D01*
X0326263Y0021176D01*
X0326133Y0021125D01*
X0326002Y0021077D01*
X0325869Y0021033D01*
X0325735Y0020993D01*
X0325600Y0020956D01*
X0325464Y0020924D01*
X0325327Y0020895D01*
X0325189Y0020871D01*
X0325051Y0020850D01*
X0324912Y0020833D01*
X0324772Y0020820D01*
X0324633Y0020811D01*
X0324493Y0020806D01*
X0324353Y0020805D01*
X0324213Y0020808D01*
X0324073Y0020815D01*
X0323934Y0020826D01*
X0323795Y0020841D01*
X0323656Y0020860D01*
X0323518Y0020882D01*
X0323381Y0020909D01*
X0323244Y0020940D01*
X0323109Y0020974D01*
X0322974Y0021012D01*
X0322841Y0021055D01*
X0322709Y0021100D01*
X0322578Y0021150D01*
X0322448Y0021203D01*
X0322321Y0021260D01*
X0322195Y0021321D01*
X0322070Y0021385D01*
X0321948Y0021453D01*
X0321827Y0021524D01*
X0321709Y0021598D01*
X0321593Y0021676D01*
X0321479Y0021757D01*
X0321367Y0021842D01*
X0321258Y0021929D01*
X0321151Y0022019D01*
X0321047Y0022113D01*
X0320946Y0022209D01*
X0320847Y0022309D01*
X0320751Y0022411D01*
X0320659Y0022515D01*
X0320569Y0022623D01*
X0320482Y0022733D01*
X0320399Y0022845D01*
X0320318Y0022959D01*
X0320241Y0023076D01*
X0320168Y0023195D01*
X0320097Y0023316D01*
X0320031Y0023439D01*
X0319967Y0023564D01*
X0319908Y0023690D01*
X0319852Y0023819D01*
X0319799Y0023948D01*
X0319751Y0024079D01*
X0319706Y0024212D01*
X0319665Y0024346D01*
X0319627Y0024481D01*
X0319594Y0024616D01*
X0319564Y0024753D01*
X0319538Y0024891D01*
X0319517Y0025029D01*
X0319499Y0025168D01*
X0319485Y0025307D01*
X0319475Y0025446D01*
X0319469Y0025586D01*
X0319467Y0025726D01*
M02*
