G75*
%MOIN*%
%OFA0B0*%
%FSLAX25Y25*%
%IPPOS*%
%LPD*%
%AMOC8*
5,1,8,0,0,1.08239X$1,22.5*
%
%ADD10C,0.00600*%
%ADD11C,0.00800*%
%ADD12C,0.00500*%
%ADD13C,0.00300*%
%ADD14C,0.00700*%
%ADD15C,0.00200*%
%ADD16R,0.11614X0.17126*%
D10*
X0018750Y0177750D02*
X0021550Y0177750D01*
X0018750Y0177750D02*
X0018750Y0190550D01*
X0018750Y0192950D01*
X0018750Y0205750D01*
X0021650Y0205750D01*
X0018750Y0192950D02*
X0018819Y0192948D01*
X0018887Y0192942D01*
X0018955Y0192932D01*
X0019022Y0192919D01*
X0019088Y0192901D01*
X0019153Y0192880D01*
X0019217Y0192855D01*
X0019279Y0192827D01*
X0019340Y0192795D01*
X0019399Y0192760D01*
X0019455Y0192721D01*
X0019510Y0192679D01*
X0019561Y0192634D01*
X0019611Y0192586D01*
X0019657Y0192536D01*
X0019700Y0192483D01*
X0019741Y0192427D01*
X0019778Y0192370D01*
X0019811Y0192310D01*
X0019842Y0192248D01*
X0019868Y0192185D01*
X0019891Y0192121D01*
X0019911Y0192055D01*
X0019926Y0191988D01*
X0019938Y0191921D01*
X0019946Y0191853D01*
X0019950Y0191784D01*
X0019950Y0191716D01*
X0019946Y0191647D01*
X0019938Y0191579D01*
X0019926Y0191512D01*
X0019911Y0191445D01*
X0019891Y0191379D01*
X0019868Y0191315D01*
X0019842Y0191252D01*
X0019811Y0191190D01*
X0019778Y0191130D01*
X0019741Y0191073D01*
X0019700Y0191017D01*
X0019657Y0190964D01*
X0019611Y0190914D01*
X0019561Y0190866D01*
X0019510Y0190821D01*
X0019455Y0190779D01*
X0019399Y0190740D01*
X0019340Y0190705D01*
X0019279Y0190673D01*
X0019217Y0190645D01*
X0019153Y0190620D01*
X0019088Y0190599D01*
X0019022Y0190581D01*
X0018955Y0190568D01*
X0018887Y0190558D01*
X0018819Y0190552D01*
X0018750Y0190550D01*
X0032089Y0229915D02*
X0032089Y0236320D01*
X0035292Y0236320D01*
X0036360Y0235253D01*
X0036360Y0233118D01*
X0035292Y0232050D01*
X0032089Y0232050D01*
X0029928Y0232050D02*
X0028860Y0233118D01*
X0028860Y0237388D01*
X0027792Y0236320D02*
X0029928Y0236320D01*
X0025631Y0236320D02*
X0023495Y0236320D01*
X0024563Y0237388D02*
X0024563Y0233118D01*
X0025631Y0232050D01*
X0021320Y0232050D02*
X0021320Y0235253D01*
X0020253Y0236320D01*
X0018118Y0236320D01*
X0017050Y0235253D01*
X0017050Y0238455D02*
X0017050Y0232050D01*
X0017050Y0242550D02*
X0021320Y0242550D01*
X0023495Y0243618D02*
X0024563Y0242550D01*
X0026698Y0242550D01*
X0027766Y0243618D01*
X0029941Y0242550D02*
X0033144Y0242550D01*
X0034211Y0243618D01*
X0034211Y0247888D01*
X0033144Y0248955D01*
X0029941Y0248955D01*
X0029941Y0242550D01*
X0027766Y0247888D02*
X0026698Y0248955D01*
X0024563Y0248955D01*
X0023495Y0247888D01*
X0023495Y0243618D01*
X0017050Y0242550D02*
X0017050Y0248955D01*
X0017050Y0253050D02*
X0017050Y0259455D01*
X0020253Y0259455D01*
X0021320Y0258388D01*
X0021320Y0256253D01*
X0020253Y0255185D01*
X0017050Y0255185D01*
X0023495Y0253050D02*
X0025631Y0253050D01*
X0024563Y0253050D02*
X0024563Y0259455D01*
X0023495Y0259455D01*
X0027792Y0257320D02*
X0027792Y0254118D01*
X0028860Y0253050D01*
X0032063Y0253050D01*
X0032063Y0257320D01*
X0034238Y0256253D02*
X0034238Y0254118D01*
X0035306Y0253050D01*
X0038508Y0253050D01*
X0038508Y0251982D02*
X0037441Y0250915D01*
X0036373Y0250915D01*
X0038508Y0251982D02*
X0038508Y0257320D01*
X0035306Y0257320D01*
X0034238Y0256253D01*
X0042832Y0246820D02*
X0044967Y0248955D01*
X0044967Y0242550D01*
X0042832Y0242550D02*
X0047102Y0242550D01*
X0049277Y0243618D02*
X0049277Y0245753D01*
X0052480Y0245753D01*
X0053548Y0244685D01*
X0053548Y0243618D01*
X0052480Y0242550D01*
X0050345Y0242550D01*
X0049277Y0243618D01*
X0049277Y0245753D02*
X0051413Y0247888D01*
X0053548Y0248955D01*
X0055723Y0246820D02*
X0059993Y0242550D01*
X0062168Y0242550D02*
X0066439Y0246820D01*
X0066439Y0247888D01*
X0065371Y0248955D01*
X0063236Y0248955D01*
X0062168Y0247888D01*
X0059993Y0246820D02*
X0055723Y0242550D01*
X0058919Y0238455D02*
X0054649Y0232050D01*
X0048203Y0232050D02*
X0052474Y0238455D01*
X0046048Y0236320D02*
X0046048Y0235253D01*
X0044980Y0235253D01*
X0044980Y0236320D01*
X0046048Y0236320D01*
X0042805Y0236320D02*
X0039603Y0236320D01*
X0038535Y0235253D01*
X0039603Y0234185D01*
X0041738Y0234185D01*
X0042805Y0233118D01*
X0041738Y0232050D01*
X0038535Y0232050D01*
X0044980Y0232050D02*
X0044980Y0233118D01*
X0046048Y0233118D01*
X0046048Y0232050D01*
X0044980Y0232050D01*
X0061094Y0236320D02*
X0063229Y0236320D01*
X0062162Y0237388D02*
X0062162Y0233118D01*
X0063229Y0232050D01*
X0065391Y0233118D02*
X0066459Y0232050D01*
X0069662Y0232050D01*
X0069662Y0236320D01*
X0072904Y0236320D02*
X0075039Y0236320D01*
X0076107Y0235253D01*
X0076107Y0232050D01*
X0072904Y0232050D01*
X0071837Y0233118D01*
X0072904Y0234185D01*
X0076107Y0234185D01*
X0078282Y0232050D02*
X0078282Y0236320D01*
X0081485Y0236320D01*
X0082553Y0235253D01*
X0082553Y0232050D01*
X0084728Y0232050D02*
X0084728Y0238455D01*
X0087930Y0236320D02*
X0084728Y0234185D01*
X0087930Y0232050D01*
X0090099Y0232050D02*
X0092234Y0232050D01*
X0091167Y0232050D02*
X0091167Y0236320D01*
X0090099Y0236320D01*
X0091167Y0238455D02*
X0091167Y0239523D01*
X0092221Y0242550D02*
X0089018Y0242550D01*
X0087950Y0243618D01*
X0087950Y0245753D01*
X0089018Y0246820D01*
X0092221Y0246820D01*
X0092221Y0248955D02*
X0092221Y0242550D01*
X0094396Y0243618D02*
X0094396Y0246820D01*
X0094396Y0243618D02*
X0095464Y0242550D01*
X0098666Y0242550D01*
X0098666Y0246820D01*
X0100841Y0248955D02*
X0101909Y0248955D01*
X0101909Y0242550D01*
X0100841Y0242550D02*
X0102977Y0242550D01*
X0105138Y0243618D02*
X0105138Y0245753D01*
X0106206Y0246820D01*
X0108341Y0246820D01*
X0109409Y0245753D01*
X0109409Y0244685D01*
X0105138Y0244685D01*
X0105138Y0243618D02*
X0106206Y0242550D01*
X0108341Y0242550D01*
X0109409Y0238455D02*
X0107274Y0237388D01*
X0105138Y0235253D01*
X0108341Y0235253D01*
X0109409Y0234185D01*
X0109409Y0233118D01*
X0108341Y0232050D01*
X0106206Y0232050D01*
X0105138Y0233118D01*
X0105138Y0235253D01*
X0102977Y0236320D02*
X0100841Y0236320D01*
X0101909Y0237388D02*
X0101909Y0233118D01*
X0102977Y0232050D01*
X0098666Y0234185D02*
X0094396Y0234185D01*
X0094396Y0233118D02*
X0094396Y0235253D01*
X0095464Y0236320D01*
X0097599Y0236320D01*
X0098666Y0235253D01*
X0098666Y0234185D01*
X0097599Y0232050D02*
X0095464Y0232050D01*
X0094396Y0233118D01*
X0084708Y0242550D02*
X0082573Y0242550D01*
X0081505Y0243618D01*
X0081505Y0245753D01*
X0082573Y0246820D01*
X0084708Y0246820D01*
X0085775Y0245753D01*
X0085775Y0243618D01*
X0084708Y0242550D01*
X0079330Y0242550D02*
X0079330Y0245753D01*
X0078262Y0246820D01*
X0077195Y0245753D01*
X0077195Y0242550D01*
X0075059Y0242550D02*
X0075059Y0246820D01*
X0076127Y0246820D01*
X0077195Y0245753D01*
X0079350Y0253050D02*
X0078282Y0254118D01*
X0079350Y0255185D01*
X0082553Y0255185D01*
X0082553Y0256253D02*
X0082553Y0253050D01*
X0079350Y0253050D01*
X0076107Y0255185D02*
X0071837Y0255185D01*
X0071837Y0254118D02*
X0071837Y0256253D01*
X0072904Y0257320D01*
X0075039Y0257320D01*
X0076107Y0256253D01*
X0076107Y0255185D01*
X0075039Y0253050D02*
X0072904Y0253050D01*
X0071837Y0254118D01*
X0069668Y0257320D02*
X0068601Y0257320D01*
X0066465Y0255185D01*
X0066465Y0253050D02*
X0066465Y0257320D01*
X0064290Y0258388D02*
X0063223Y0259455D01*
X0061088Y0259455D01*
X0060020Y0258388D01*
X0060020Y0254118D01*
X0061088Y0253050D01*
X0063223Y0253050D01*
X0064290Y0254118D01*
X0062168Y0242550D02*
X0066439Y0242550D01*
X0065391Y0236320D02*
X0065391Y0233118D01*
X0051399Y0253050D02*
X0047129Y0257320D01*
X0047129Y0258388D01*
X0048197Y0259455D01*
X0049264Y0258388D01*
X0049264Y0257320D01*
X0047129Y0255185D01*
X0047129Y0254118D01*
X0048197Y0253050D01*
X0049264Y0253050D01*
X0051399Y0255185D01*
X0079350Y0257320D02*
X0081485Y0257320D01*
X0082553Y0256253D01*
X0084728Y0257320D02*
X0086863Y0257320D01*
X0085795Y0258388D02*
X0085795Y0254118D01*
X0086863Y0253050D01*
X0089025Y0254118D02*
X0089025Y0256253D01*
X0090092Y0257320D01*
X0092227Y0257320D01*
X0093295Y0256253D01*
X0093295Y0255185D01*
X0089025Y0255185D01*
X0089025Y0254118D02*
X0090092Y0253050D01*
X0092227Y0253050D01*
X0111584Y0238455D02*
X0111584Y0235253D01*
X0113719Y0236320D01*
X0114787Y0236320D01*
X0115854Y0235253D01*
X0115854Y0233118D01*
X0114787Y0232050D01*
X0112652Y0232050D01*
X0111584Y0233118D01*
X0118029Y0233118D02*
X0119097Y0233118D01*
X0119097Y0232050D01*
X0118029Y0232050D01*
X0118029Y0233118D01*
X0121252Y0232050D02*
X0121252Y0236320D01*
X0122320Y0236320D01*
X0123387Y0235253D01*
X0124455Y0236320D01*
X0125523Y0235253D01*
X0125523Y0232050D01*
X0123387Y0232050D02*
X0123387Y0235253D01*
X0127698Y0235253D02*
X0127698Y0233118D01*
X0128765Y0232050D01*
X0130900Y0232050D01*
X0131968Y0233118D01*
X0131968Y0235253D01*
X0130900Y0236320D01*
X0128765Y0236320D01*
X0127698Y0235253D01*
X0134143Y0235253D02*
X0134143Y0233118D01*
X0135211Y0232050D01*
X0137346Y0232050D01*
X0138414Y0234185D02*
X0134143Y0234185D01*
X0134143Y0235253D02*
X0135211Y0236320D01*
X0137346Y0236320D01*
X0138414Y0235253D01*
X0138414Y0234185D01*
X0128745Y0243618D02*
X0127678Y0242550D01*
X0125543Y0242550D01*
X0124475Y0243618D01*
X0126610Y0245753D02*
X0127678Y0245753D01*
X0128745Y0244685D01*
X0128745Y0243618D01*
X0127678Y0245753D02*
X0128745Y0246820D01*
X0128745Y0247888D01*
X0127678Y0248955D01*
X0125543Y0248955D01*
X0124475Y0247888D01*
X0122300Y0246820D02*
X0120165Y0242550D01*
X0118029Y0246820D01*
X0115854Y0238455D02*
X0111584Y0238455D01*
X0121850Y0205750D02*
X0124750Y0205750D01*
X0124750Y0177750D01*
X0121850Y0177750D01*
D11*
X0019663Y0157222D02*
X0019663Y0016278D01*
X0333837Y0016278D01*
X0333837Y0157222D01*
X0019663Y0157222D01*
X0032065Y0133994D02*
X0032065Y0037144D01*
X0321435Y0037144D01*
X0321435Y0133994D01*
X0032065Y0133994D01*
X0050175Y0112341D02*
X0050175Y0058797D01*
X0303325Y0058797D01*
X0303325Y0112341D01*
X0050175Y0112341D01*
X0188750Y0186750D02*
X0191750Y0186750D01*
X0191750Y0185750D01*
X0191750Y0186750D02*
X0194750Y0186750D01*
X0194750Y0206750D01*
X0191750Y0206750D01*
X0191750Y0207750D01*
X0191750Y0206750D02*
X0188750Y0206750D01*
X0188750Y0186750D01*
X0236986Y0174033D02*
X0236986Y0209467D01*
X0268089Y0209467D01*
X0268089Y0203561D01*
X0285411Y0203561D01*
X0285411Y0209467D01*
X0316514Y0209467D01*
X0316514Y0174427D01*
X0316514Y0174033D02*
X0236986Y0174033D01*
X0268089Y0209467D02*
X0285411Y0209467D01*
X0294250Y0202675D02*
X0299250Y0202675D01*
X0326750Y0204250D02*
X0329250Y0201750D01*
X0326750Y0199250D01*
X0326750Y0194250D01*
X0329250Y0191750D01*
X0326750Y0189250D01*
X0326750Y0184250D01*
X0329250Y0181750D01*
X0326750Y0179250D01*
X0326750Y0174250D01*
X0329250Y0171750D01*
X0334250Y0171750D01*
X0336750Y0174250D01*
X0336750Y0179250D01*
X0334250Y0181750D01*
X0336750Y0184250D01*
X0336750Y0189250D01*
X0334250Y0191750D01*
X0336750Y0194250D01*
X0336750Y0199250D01*
X0334250Y0201750D01*
X0336750Y0204250D01*
X0336750Y0209250D01*
X0334250Y0211750D01*
X0329250Y0211750D01*
X0326750Y0209250D01*
X0326750Y0204250D01*
D12*
X0339098Y0200630D02*
X0339415Y0200947D01*
X0340049Y0200947D01*
X0340366Y0200630D01*
X0340366Y0199679D01*
X0340366Y0200313D02*
X0341000Y0200947D01*
X0341000Y0199679D02*
X0339098Y0199679D01*
X0339098Y0200630D01*
X0339415Y0198737D02*
X0339098Y0198420D01*
X0339098Y0197786D01*
X0339415Y0197469D01*
X0340683Y0197469D01*
X0341000Y0197786D01*
X0341000Y0198420D01*
X0340683Y0198737D01*
X0339415Y0198737D01*
X0339098Y0196527D02*
X0339098Y0195259D01*
X0339098Y0195893D02*
X0341000Y0195893D01*
X0340683Y0194317D02*
X0341000Y0194000D01*
X0341000Y0193366D01*
X0340683Y0193049D01*
X0339415Y0193049D01*
X0339098Y0193366D01*
X0339098Y0194000D01*
X0339415Y0194317D01*
X0339098Y0192107D02*
X0339098Y0190840D01*
X0341000Y0190840D01*
X0341000Y0192107D01*
X0340049Y0191473D02*
X0340049Y0190840D01*
X0341000Y0189897D02*
X0339098Y0189897D01*
X0339098Y0188630D02*
X0341000Y0189897D01*
X0341000Y0188630D02*
X0339098Y0188630D01*
X0339098Y0187687D02*
X0341000Y0187687D01*
X0339098Y0186420D01*
X0341000Y0186420D01*
X0340683Y0185478D02*
X0339415Y0185478D01*
X0339098Y0185161D01*
X0339098Y0184527D01*
X0339415Y0184210D01*
X0340683Y0184210D01*
X0341000Y0184527D01*
X0341000Y0185161D01*
X0340683Y0185478D01*
X0340683Y0183268D02*
X0341000Y0182951D01*
X0341000Y0182317D01*
X0340683Y0182000D01*
X0339415Y0182000D01*
X0339098Y0182317D01*
X0339098Y0182951D01*
X0339415Y0183268D01*
X0297519Y0170402D02*
X0296251Y0169134D01*
X0296568Y0169451D02*
X0297519Y0168500D01*
X0296251Y0168500D02*
X0296251Y0170402D01*
X0295309Y0170085D02*
X0294992Y0170402D01*
X0294358Y0170402D01*
X0294041Y0170085D01*
X0294041Y0168817D01*
X0294358Y0168500D01*
X0294992Y0168500D01*
X0295309Y0168817D01*
X0293099Y0168817D02*
X0293099Y0170085D01*
X0292782Y0170402D01*
X0292148Y0170402D01*
X0291831Y0170085D01*
X0291831Y0168817D01*
X0292148Y0168500D01*
X0292782Y0168500D01*
X0293099Y0168817D01*
X0290889Y0168500D02*
X0289621Y0168500D01*
X0289621Y0170402D01*
X0288679Y0170085D02*
X0288362Y0170402D01*
X0287728Y0170402D01*
X0287412Y0170085D01*
X0286469Y0170402D02*
X0285202Y0168500D01*
X0284260Y0168817D02*
X0283943Y0168500D01*
X0283309Y0168500D01*
X0282992Y0168817D01*
X0282992Y0169451D02*
X0283626Y0169768D01*
X0283943Y0169768D01*
X0284260Y0169451D01*
X0284260Y0168817D01*
X0282992Y0169451D02*
X0282992Y0170402D01*
X0284260Y0170402D01*
X0285202Y0170402D02*
X0286469Y0168500D01*
X0287412Y0168500D02*
X0288679Y0169768D01*
X0288679Y0170085D01*
X0288679Y0168500D02*
X0287412Y0168500D01*
X0282050Y0168183D02*
X0280782Y0168183D01*
X0279840Y0168817D02*
X0279840Y0169451D01*
X0279206Y0169451D01*
X0279840Y0170085D02*
X0279523Y0170402D01*
X0278889Y0170402D01*
X0278572Y0170085D01*
X0278572Y0168817D01*
X0278889Y0168500D01*
X0279523Y0168500D01*
X0279840Y0168817D01*
X0277630Y0168817D02*
X0277630Y0170085D01*
X0277313Y0170402D01*
X0276679Y0170402D01*
X0276362Y0170085D01*
X0276362Y0168817D01*
X0276679Y0168500D01*
X0277313Y0168500D01*
X0277630Y0168817D01*
X0275420Y0168500D02*
X0274786Y0169134D01*
X0275103Y0169134D02*
X0274152Y0169134D01*
X0274152Y0168500D02*
X0274152Y0170402D01*
X0275103Y0170402D01*
X0275420Y0170085D01*
X0275420Y0169451D01*
X0275103Y0169134D01*
X0273210Y0169451D02*
X0272893Y0169134D01*
X0271942Y0169134D01*
X0271942Y0168500D02*
X0271942Y0170402D01*
X0272893Y0170402D01*
X0273210Y0170085D01*
X0273210Y0169451D01*
X0271000Y0168183D02*
X0269733Y0168183D01*
X0268893Y0168500D02*
X0268259Y0168500D01*
X0268576Y0168500D02*
X0268576Y0170402D01*
X0268259Y0170402D02*
X0268893Y0170402D01*
X0267317Y0170085D02*
X0267317Y0169451D01*
X0267000Y0169134D01*
X0266049Y0169134D01*
X0266049Y0168500D02*
X0266049Y0170402D01*
X0267000Y0170402D01*
X0267317Y0170085D01*
X0265107Y0170085D02*
X0264790Y0170402D01*
X0264156Y0170402D01*
X0263840Y0170085D01*
X0263840Y0169768D01*
X0264156Y0169451D01*
X0264790Y0169451D01*
X0265107Y0169134D01*
X0265107Y0168817D01*
X0264790Y0168500D01*
X0264156Y0168500D01*
X0263840Y0168817D01*
X0262897Y0168183D02*
X0261630Y0168183D01*
X0260687Y0168500D02*
X0260054Y0169134D01*
X0260371Y0169134D02*
X0259420Y0169134D01*
X0259420Y0168500D02*
X0259420Y0170402D01*
X0260371Y0170402D01*
X0260687Y0170085D01*
X0260687Y0169451D01*
X0260371Y0169134D01*
X0258478Y0169134D02*
X0258478Y0170402D01*
X0257210Y0170402D02*
X0257210Y0169134D01*
X0257844Y0168500D01*
X0258478Y0169134D01*
X0256268Y0169451D02*
X0255000Y0169451D01*
X0255000Y0169768D02*
X0255634Y0170402D01*
X0256268Y0169768D01*
X0256268Y0168500D01*
X0255000Y0168500D02*
X0255000Y0169768D01*
X0219998Y0195250D02*
X0203502Y0195250D01*
X0206222Y0201250D02*
X0207278Y0201250D01*
X0202248Y0197278D02*
X0202352Y0197063D01*
X0202461Y0196850D01*
X0202575Y0196640D01*
X0202694Y0196433D01*
X0202817Y0196228D01*
X0202945Y0196026D01*
X0203078Y0195827D01*
X0203215Y0195632D01*
X0203356Y0195439D01*
X0203502Y0195250D01*
X0202250Y0206222D02*
X0202362Y0206452D01*
X0202479Y0206679D01*
X0202601Y0206903D01*
X0202729Y0207124D01*
X0202863Y0207341D01*
X0203001Y0207556D01*
X0203145Y0207767D01*
X0203294Y0207974D01*
X0203448Y0208178D01*
X0203606Y0208378D01*
X0203770Y0208574D01*
X0203938Y0208766D01*
X0204111Y0208954D01*
X0204289Y0209138D01*
X0204470Y0209317D01*
X0204657Y0209492D01*
X0204847Y0209662D01*
X0205041Y0209827D01*
X0205240Y0209988D01*
X0205442Y0210144D01*
X0205648Y0210295D01*
X0205858Y0210441D01*
X0206071Y0210581D01*
X0206287Y0210717D01*
X0206507Y0210847D01*
X0206730Y0210972D01*
X0206955Y0211091D01*
X0207184Y0211205D01*
X0207415Y0211313D01*
X0207649Y0211416D01*
X0207885Y0211513D01*
X0208124Y0211604D01*
X0208364Y0211689D01*
X0208607Y0211769D01*
X0208852Y0211842D01*
X0209098Y0211910D01*
X0209346Y0211971D01*
X0209595Y0212026D01*
X0209845Y0212076D01*
X0210097Y0212119D01*
X0210350Y0212156D01*
X0210603Y0212187D01*
X0210857Y0212212D01*
X0211112Y0212231D01*
X0211367Y0212243D01*
X0211622Y0212249D01*
X0211878Y0212249D01*
X0212133Y0212243D01*
X0212388Y0212231D01*
X0212643Y0212212D01*
X0212897Y0212187D01*
X0213150Y0212156D01*
X0213403Y0212119D01*
X0213655Y0212076D01*
X0213905Y0212026D01*
X0214154Y0211971D01*
X0214402Y0211910D01*
X0214648Y0211842D01*
X0214893Y0211769D01*
X0215136Y0211689D01*
X0215376Y0211604D01*
X0215615Y0211513D01*
X0215851Y0211416D01*
X0216085Y0211313D01*
X0216316Y0211205D01*
X0216545Y0211091D01*
X0216770Y0210972D01*
X0216993Y0210847D01*
X0217213Y0210717D01*
X0217429Y0210581D01*
X0217642Y0210441D01*
X0217852Y0210295D01*
X0218058Y0210144D01*
X0218260Y0209988D01*
X0218459Y0209827D01*
X0218653Y0209662D01*
X0218843Y0209492D01*
X0219030Y0209317D01*
X0219211Y0209138D01*
X0219389Y0208954D01*
X0219562Y0208766D01*
X0219730Y0208574D01*
X0219894Y0208378D01*
X0220052Y0208178D01*
X0220206Y0207974D01*
X0220355Y0207767D01*
X0220499Y0207556D01*
X0220637Y0207341D01*
X0220771Y0207124D01*
X0220899Y0206903D01*
X0221021Y0206679D01*
X0221138Y0206452D01*
X0221250Y0206222D01*
X0217278Y0201250D02*
X0216222Y0201250D01*
X0221296Y0197372D02*
X0221189Y0197147D01*
X0221077Y0196924D01*
X0220960Y0196704D01*
X0220838Y0196487D01*
X0220710Y0196272D01*
X0220577Y0196061D01*
X0220440Y0195853D01*
X0220297Y0195649D01*
X0220150Y0195447D01*
X0219998Y0195250D01*
X0209606Y0214000D02*
X0206604Y0214000D01*
X0208105Y0214000D02*
X0208105Y0218504D01*
X0206604Y0217003D01*
X0205003Y0218504D02*
X0202000Y0218504D01*
X0203501Y0218504D02*
X0203501Y0214000D01*
X0192900Y0198135D02*
X0192266Y0197184D01*
X0191632Y0198135D01*
X0190998Y0197184D02*
X0192900Y0197184D01*
X0192900Y0196242D02*
X0192900Y0194974D01*
X0192900Y0195608D02*
X0190998Y0195608D01*
X0191632Y0194974D01*
X0187500Y0194790D02*
X0185598Y0194790D01*
X0185598Y0195741D01*
X0185915Y0196058D01*
X0186549Y0196058D01*
X0186866Y0195741D01*
X0186866Y0194790D01*
X0186866Y0195424D02*
X0187500Y0196058D01*
X0187500Y0197000D02*
X0187500Y0198268D01*
X0187500Y0197634D02*
X0185598Y0197634D01*
X0186232Y0197000D01*
X0171750Y0191750D02*
X0171750Y0211750D01*
X0151750Y0211750D01*
X0151750Y0191750D01*
X0171750Y0191750D01*
X0161750Y0196750D02*
X0161750Y0201750D01*
X0153844Y0201750D02*
X0153846Y0201944D01*
X0153854Y0202138D01*
X0153865Y0202332D01*
X0153882Y0202525D01*
X0153903Y0202718D01*
X0153930Y0202910D01*
X0153960Y0203102D01*
X0153996Y0203292D01*
X0154036Y0203482D01*
X0154081Y0203671D01*
X0154130Y0203859D01*
X0154184Y0204045D01*
X0154243Y0204230D01*
X0154306Y0204413D01*
X0154374Y0204595D01*
X0154446Y0204775D01*
X0154522Y0204954D01*
X0154603Y0205130D01*
X0154688Y0205305D01*
X0154778Y0205477D01*
X0154871Y0205647D01*
X0154969Y0205814D01*
X0155071Y0205980D01*
X0155176Y0206142D01*
X0155286Y0206302D01*
X0155400Y0206460D01*
X0155517Y0206614D01*
X0155639Y0206766D01*
X0155764Y0206914D01*
X0155892Y0207059D01*
X0156024Y0207202D01*
X0156160Y0207340D01*
X0156298Y0207476D01*
X0156441Y0207608D01*
X0156586Y0207736D01*
X0156734Y0207861D01*
X0156886Y0207983D01*
X0157040Y0208100D01*
X0157198Y0208214D01*
X0157358Y0208324D01*
X0157520Y0208429D01*
X0157686Y0208531D01*
X0157853Y0208629D01*
X0158023Y0208722D01*
X0158195Y0208812D01*
X0158370Y0208897D01*
X0158546Y0208978D01*
X0158725Y0209054D01*
X0158905Y0209126D01*
X0159087Y0209194D01*
X0159270Y0209257D01*
X0159455Y0209316D01*
X0159641Y0209370D01*
X0159829Y0209419D01*
X0160018Y0209464D01*
X0160208Y0209504D01*
X0160398Y0209540D01*
X0160590Y0209570D01*
X0160782Y0209597D01*
X0160975Y0209618D01*
X0161168Y0209635D01*
X0161362Y0209646D01*
X0161556Y0209654D01*
X0161750Y0209656D01*
X0161944Y0209654D01*
X0162138Y0209646D01*
X0162332Y0209635D01*
X0162525Y0209618D01*
X0162718Y0209597D01*
X0162910Y0209570D01*
X0163102Y0209540D01*
X0163292Y0209504D01*
X0163482Y0209464D01*
X0163671Y0209419D01*
X0163859Y0209370D01*
X0164045Y0209316D01*
X0164230Y0209257D01*
X0164413Y0209194D01*
X0164595Y0209126D01*
X0164775Y0209054D01*
X0164954Y0208978D01*
X0165130Y0208897D01*
X0165305Y0208812D01*
X0165477Y0208722D01*
X0165647Y0208629D01*
X0165814Y0208531D01*
X0165980Y0208429D01*
X0166142Y0208324D01*
X0166302Y0208214D01*
X0166460Y0208100D01*
X0166614Y0207983D01*
X0166766Y0207861D01*
X0166914Y0207736D01*
X0167059Y0207608D01*
X0167202Y0207476D01*
X0167340Y0207340D01*
X0167476Y0207202D01*
X0167608Y0207059D01*
X0167736Y0206914D01*
X0167861Y0206766D01*
X0167983Y0206614D01*
X0168100Y0206460D01*
X0168214Y0206302D01*
X0168324Y0206142D01*
X0168429Y0205980D01*
X0168531Y0205814D01*
X0168629Y0205647D01*
X0168722Y0205477D01*
X0168812Y0205305D01*
X0168897Y0205130D01*
X0168978Y0204954D01*
X0169054Y0204775D01*
X0169126Y0204595D01*
X0169194Y0204413D01*
X0169257Y0204230D01*
X0169316Y0204045D01*
X0169370Y0203859D01*
X0169419Y0203671D01*
X0169464Y0203482D01*
X0169504Y0203292D01*
X0169540Y0203102D01*
X0169570Y0202910D01*
X0169597Y0202718D01*
X0169618Y0202525D01*
X0169635Y0202332D01*
X0169646Y0202138D01*
X0169654Y0201944D01*
X0169656Y0201750D01*
X0169654Y0201556D01*
X0169646Y0201362D01*
X0169635Y0201168D01*
X0169618Y0200975D01*
X0169597Y0200782D01*
X0169570Y0200590D01*
X0169540Y0200398D01*
X0169504Y0200208D01*
X0169464Y0200018D01*
X0169419Y0199829D01*
X0169370Y0199641D01*
X0169316Y0199455D01*
X0169257Y0199270D01*
X0169194Y0199087D01*
X0169126Y0198905D01*
X0169054Y0198725D01*
X0168978Y0198546D01*
X0168897Y0198370D01*
X0168812Y0198195D01*
X0168722Y0198023D01*
X0168629Y0197853D01*
X0168531Y0197686D01*
X0168429Y0197520D01*
X0168324Y0197358D01*
X0168214Y0197198D01*
X0168100Y0197040D01*
X0167983Y0196886D01*
X0167861Y0196734D01*
X0167736Y0196586D01*
X0167608Y0196441D01*
X0167476Y0196298D01*
X0167340Y0196160D01*
X0167202Y0196024D01*
X0167059Y0195892D01*
X0166914Y0195764D01*
X0166766Y0195639D01*
X0166614Y0195517D01*
X0166460Y0195400D01*
X0166302Y0195286D01*
X0166142Y0195176D01*
X0165980Y0195071D01*
X0165814Y0194969D01*
X0165647Y0194871D01*
X0165477Y0194778D01*
X0165305Y0194688D01*
X0165130Y0194603D01*
X0164954Y0194522D01*
X0164775Y0194446D01*
X0164595Y0194374D01*
X0164413Y0194306D01*
X0164230Y0194243D01*
X0164045Y0194184D01*
X0163859Y0194130D01*
X0163671Y0194081D01*
X0163482Y0194036D01*
X0163292Y0193996D01*
X0163102Y0193960D01*
X0162910Y0193930D01*
X0162718Y0193903D01*
X0162525Y0193882D01*
X0162332Y0193865D01*
X0162138Y0193854D01*
X0161944Y0193846D01*
X0161750Y0193844D01*
X0161556Y0193846D01*
X0161362Y0193854D01*
X0161168Y0193865D01*
X0160975Y0193882D01*
X0160782Y0193903D01*
X0160590Y0193930D01*
X0160398Y0193960D01*
X0160208Y0193996D01*
X0160018Y0194036D01*
X0159829Y0194081D01*
X0159641Y0194130D01*
X0159455Y0194184D01*
X0159270Y0194243D01*
X0159087Y0194306D01*
X0158905Y0194374D01*
X0158725Y0194446D01*
X0158546Y0194522D01*
X0158370Y0194603D01*
X0158195Y0194688D01*
X0158023Y0194778D01*
X0157853Y0194871D01*
X0157686Y0194969D01*
X0157520Y0195071D01*
X0157358Y0195176D01*
X0157198Y0195286D01*
X0157040Y0195400D01*
X0156886Y0195517D01*
X0156734Y0195639D01*
X0156586Y0195764D01*
X0156441Y0195892D01*
X0156298Y0196024D01*
X0156160Y0196160D01*
X0156024Y0196298D01*
X0155892Y0196441D01*
X0155764Y0196586D01*
X0155639Y0196734D01*
X0155517Y0196886D01*
X0155400Y0197040D01*
X0155286Y0197198D01*
X0155176Y0197358D01*
X0155071Y0197520D01*
X0154969Y0197686D01*
X0154871Y0197853D01*
X0154778Y0198023D01*
X0154688Y0198195D01*
X0154603Y0198370D01*
X0154522Y0198546D01*
X0154446Y0198725D01*
X0154374Y0198905D01*
X0154306Y0199087D01*
X0154243Y0199270D01*
X0154184Y0199455D01*
X0154130Y0199641D01*
X0154081Y0199829D01*
X0154036Y0200018D01*
X0153996Y0200208D01*
X0153960Y0200398D01*
X0153930Y0200590D01*
X0153903Y0200782D01*
X0153882Y0200975D01*
X0153865Y0201168D01*
X0153854Y0201362D01*
X0153846Y0201556D01*
X0153844Y0201750D01*
X0156750Y0201750D02*
X0161750Y0201750D01*
X0166750Y0201750D01*
X0161750Y0201750D02*
X0161750Y0206750D01*
D13*
X0021416Y0177736D02*
X0018280Y0174600D01*
X0018280Y0176168D02*
X0021416Y0176168D01*
X0021416Y0174600D02*
X0018280Y0177736D01*
X0019848Y0177736D02*
X0019848Y0174600D01*
D14*
X0028500Y0189600D02*
X0028500Y0193804D01*
X0030602Y0195905D01*
X0032704Y0193804D01*
X0032704Y0189600D01*
X0032704Y0192753D02*
X0028500Y0192753D01*
X0034945Y0195905D02*
X0039149Y0195905D01*
X0037047Y0195905D02*
X0037047Y0189600D01*
X0043493Y0189600D02*
X0043493Y0195905D01*
X0041391Y0195905D02*
X0045595Y0195905D01*
X0047836Y0195905D02*
X0049938Y0195905D01*
X0048887Y0195905D02*
X0048887Y0189600D01*
X0047836Y0189600D02*
X0049938Y0189600D01*
X0052133Y0189600D02*
X0052133Y0195905D01*
X0056337Y0189600D01*
X0056337Y0195905D01*
X0058579Y0195905D02*
X0058579Y0194854D01*
X0060681Y0192753D01*
X0060681Y0189600D01*
X0060681Y0192753D02*
X0062783Y0194854D01*
X0062783Y0195905D01*
X0065024Y0194854D02*
X0066075Y0195905D01*
X0068177Y0195905D01*
X0069228Y0194854D01*
X0069228Y0193804D01*
X0065024Y0189600D01*
X0069228Y0189600D01*
X0071470Y0190651D02*
X0072521Y0189600D01*
X0074623Y0189600D01*
X0075674Y0190651D01*
X0075674Y0191702D01*
X0074623Y0192753D01*
X0073572Y0192753D01*
X0074623Y0192753D02*
X0075674Y0193804D01*
X0075674Y0194854D01*
X0074623Y0195905D01*
X0072521Y0195905D01*
X0071470Y0194854D01*
X0077915Y0193804D02*
X0080017Y0195905D01*
X0080017Y0189600D01*
X0077915Y0189600D02*
X0082119Y0189600D01*
X0084361Y0190651D02*
X0085412Y0189600D01*
X0087514Y0189600D01*
X0088565Y0190651D01*
X0088565Y0191702D01*
X0087514Y0192753D01*
X0086463Y0192753D01*
X0087514Y0192753D02*
X0088565Y0193804D01*
X0088565Y0194854D01*
X0087514Y0195905D01*
X0085412Y0195905D01*
X0084361Y0194854D01*
X0090806Y0193804D02*
X0090806Y0189600D01*
X0090806Y0192753D02*
X0095010Y0192753D01*
X0095010Y0193804D02*
X0092908Y0195905D01*
X0090806Y0193804D01*
X0095010Y0193804D02*
X0095010Y0189600D01*
X0097252Y0192753D02*
X0101456Y0192753D01*
X0103697Y0191702D02*
X0106850Y0191702D01*
X0107901Y0192753D01*
X0107901Y0194854D01*
X0106850Y0195905D01*
X0103697Y0195905D01*
X0103697Y0189600D01*
X0110143Y0190651D02*
X0110143Y0195905D01*
X0114347Y0195905D02*
X0114347Y0190651D01*
X0113296Y0189600D01*
X0111194Y0189600D01*
X0110143Y0190651D01*
D15*
X0153949Y0231350D02*
X0153949Y0234152D01*
X0154416Y0233218D02*
X0155350Y0233218D01*
X0155817Y0232751D01*
X0155817Y0231350D01*
X0156711Y0231817D02*
X0157179Y0232284D01*
X0158580Y0232284D01*
X0158580Y0232751D02*
X0158580Y0231350D01*
X0157179Y0231350D01*
X0156711Y0231817D01*
X0157179Y0233218D02*
X0158113Y0233218D01*
X0158580Y0232751D01*
X0159474Y0232284D02*
X0160408Y0233218D01*
X0160875Y0233218D01*
X0161776Y0232751D02*
X0162243Y0233218D01*
X0163644Y0233218D01*
X0164538Y0233218D02*
X0164538Y0231817D01*
X0165005Y0231350D01*
X0165472Y0231817D01*
X0165939Y0231350D01*
X0166406Y0231817D01*
X0166406Y0233218D01*
X0167768Y0233218D02*
X0168702Y0233218D01*
X0169169Y0232751D01*
X0169169Y0231350D01*
X0167768Y0231350D01*
X0167301Y0231817D01*
X0167768Y0232284D01*
X0169169Y0232284D01*
X0170063Y0232284D02*
X0170997Y0233218D01*
X0171464Y0233218D01*
X0172365Y0232751D02*
X0172832Y0233218D01*
X0173766Y0233218D01*
X0174233Y0232751D01*
X0174233Y0232284D01*
X0172365Y0232284D01*
X0172365Y0231817D02*
X0172365Y0232751D01*
X0172365Y0231817D02*
X0172832Y0231350D01*
X0173766Y0231350D01*
X0170063Y0231350D02*
X0170063Y0233218D01*
X0169629Y0235850D02*
X0169629Y0237718D01*
X0170523Y0237718D02*
X0170523Y0235850D01*
X0169629Y0235850D02*
X0168228Y0235850D01*
X0167761Y0236317D01*
X0167761Y0237718D01*
X0166867Y0237251D02*
X0166400Y0237718D01*
X0165466Y0237718D01*
X0164999Y0237251D01*
X0164999Y0236317D01*
X0165466Y0235850D01*
X0166400Y0235850D01*
X0166867Y0236317D01*
X0166867Y0237251D01*
X0164104Y0237718D02*
X0162703Y0237718D01*
X0162236Y0237251D01*
X0162703Y0236784D01*
X0163637Y0236784D01*
X0164104Y0236317D01*
X0163637Y0235850D01*
X0162236Y0235850D01*
X0163644Y0234152D02*
X0163644Y0231350D01*
X0162243Y0231350D01*
X0161776Y0231817D01*
X0161776Y0232751D01*
X0159474Y0233218D02*
X0159474Y0231350D01*
X0158580Y0235850D02*
X0158580Y0237251D01*
X0158113Y0237718D01*
X0156711Y0237718D01*
X0156711Y0235850D01*
X0155817Y0236784D02*
X0153949Y0236784D01*
X0153949Y0236317D02*
X0153949Y0237251D01*
X0154416Y0237718D01*
X0155350Y0237718D01*
X0155817Y0237251D01*
X0155817Y0236784D01*
X0155350Y0235850D02*
X0154416Y0235850D01*
X0153949Y0236317D01*
X0153055Y0236317D02*
X0152588Y0235850D01*
X0151187Y0235850D01*
X0151187Y0234916D02*
X0151187Y0237718D01*
X0152588Y0237718D01*
X0153055Y0237251D01*
X0153055Y0236317D01*
X0150293Y0236317D02*
X0150293Y0237251D01*
X0149826Y0237718D01*
X0148891Y0237718D01*
X0148424Y0237251D01*
X0148424Y0236317D01*
X0148891Y0235850D01*
X0149826Y0235850D01*
X0150293Y0236317D01*
X0153949Y0232751D02*
X0154416Y0233218D01*
X0160596Y0240075D02*
X0161969Y0240075D01*
X0161679Y0239877D02*
X0160820Y0239877D01*
X0160850Y0239850D02*
X0161200Y0239550D01*
X0163250Y0240950D01*
X0164400Y0240350D01*
X0165800Y0244350D01*
X0165303Y0244599D01*
X0164871Y0244948D01*
X0164523Y0245382D01*
X0164276Y0245880D01*
X0164142Y0246420D01*
X0164127Y0246975D01*
X0164230Y0247521D01*
X0164449Y0248033D01*
X0164771Y0248485D01*
X0165184Y0248858D01*
X0165666Y0249134D01*
X0166196Y0249301D01*
X0166750Y0249350D01*
X0167286Y0249284D01*
X0167797Y0249111D01*
X0168262Y0248836D01*
X0168661Y0248473D01*
X0168977Y0248036D01*
X0169198Y0247544D01*
X0169314Y0247017D01*
X0169320Y0246477D01*
X0169216Y0245948D01*
X0169006Y0245450D01*
X0168700Y0245007D01*
X0168309Y0244635D01*
X0167850Y0244350D01*
X0169400Y0240450D01*
X0170000Y0240700D01*
X0170600Y0241100D01*
X0172600Y0239700D01*
X0173000Y0240050D01*
X0173350Y0240400D01*
X0173750Y0240850D01*
X0174100Y0241300D01*
X0172650Y0243400D01*
X0173000Y0244000D01*
X0173200Y0244600D01*
X0173400Y0245400D01*
X0175850Y0245850D01*
X0175850Y0247000D01*
X0175800Y0247550D01*
X0175750Y0248050D01*
X0173300Y0248500D01*
X0173100Y0249150D01*
X0172850Y0249700D01*
X0172500Y0250300D01*
X0172450Y0250400D01*
X0173850Y0252350D01*
X0173450Y0252850D01*
X0172950Y0253350D01*
X0172550Y0253700D01*
X0172200Y0253950D01*
X0170150Y0252500D01*
X0169700Y0252750D01*
X0169250Y0252950D01*
X0168800Y0253150D01*
X0168350Y0253250D01*
X0167900Y0255700D01*
X0167300Y0255750D01*
X0166150Y0255750D01*
X0165650Y0255700D01*
X0165250Y0253300D01*
X0164500Y0253050D01*
X0164000Y0252850D01*
X0163300Y0252450D01*
X0161300Y0253900D01*
X0160850Y0253550D01*
X0160350Y0253050D01*
X0159950Y0252600D01*
X0159700Y0252350D01*
X0161100Y0250300D01*
X0160800Y0249800D01*
X0160500Y0249150D01*
X0160350Y0248600D01*
X0160200Y0248250D01*
X0157750Y0247850D01*
X0157750Y0245650D01*
X0160200Y0245250D01*
X0160400Y0244550D01*
X0160550Y0244050D01*
X0160750Y0243650D01*
X0161100Y0243050D01*
X0159650Y0241050D01*
X0160050Y0240600D01*
X0160400Y0240250D01*
X0160850Y0239850D01*
X0161050Y0239678D02*
X0161388Y0239678D01*
X0162260Y0240274D02*
X0160376Y0240274D01*
X0160178Y0240472D02*
X0162551Y0240472D01*
X0162841Y0240671D02*
X0159987Y0240671D01*
X0159811Y0240869D02*
X0163132Y0240869D01*
X0163404Y0240869D02*
X0164582Y0240869D01*
X0164512Y0240671D02*
X0163785Y0240671D01*
X0164165Y0240472D02*
X0164443Y0240472D01*
X0164651Y0241068D02*
X0159663Y0241068D01*
X0159807Y0241266D02*
X0164721Y0241266D01*
X0164790Y0241465D02*
X0159951Y0241465D01*
X0160095Y0241663D02*
X0164860Y0241663D01*
X0164929Y0241862D02*
X0160239Y0241862D01*
X0160383Y0242060D02*
X0164999Y0242060D01*
X0165068Y0242259D02*
X0160527Y0242259D01*
X0160670Y0242457D02*
X0165138Y0242457D01*
X0165207Y0242656D02*
X0160814Y0242656D01*
X0160958Y0242855D02*
X0165277Y0242855D01*
X0165346Y0243053D02*
X0161098Y0243053D01*
X0160982Y0243252D02*
X0165416Y0243252D01*
X0165485Y0243450D02*
X0160867Y0243450D01*
X0160751Y0243649D02*
X0165554Y0243649D01*
X0165624Y0243847D02*
X0160651Y0243847D01*
X0160552Y0244046D02*
X0165693Y0244046D01*
X0165763Y0244244D02*
X0160492Y0244244D01*
X0160432Y0244443D02*
X0165615Y0244443D01*
X0165250Y0244641D02*
X0160374Y0244641D01*
X0160317Y0244840D02*
X0165005Y0244840D01*
X0164798Y0245038D02*
X0160261Y0245038D01*
X0160204Y0245237D02*
X0164639Y0245237D01*
X0164497Y0245435D02*
X0159066Y0245435D01*
X0157850Y0245634D02*
X0164398Y0245634D01*
X0164300Y0245832D02*
X0157750Y0245832D01*
X0157750Y0246031D02*
X0164239Y0246031D01*
X0164190Y0246229D02*
X0157750Y0246229D01*
X0157750Y0246428D02*
X0164142Y0246428D01*
X0164137Y0246626D02*
X0157750Y0246626D01*
X0157750Y0246825D02*
X0164131Y0246825D01*
X0164136Y0247023D02*
X0157750Y0247023D01*
X0157750Y0247222D02*
X0164174Y0247222D01*
X0164211Y0247420D02*
X0157750Y0247420D01*
X0157750Y0247619D02*
X0164272Y0247619D01*
X0164357Y0247817D02*
X0157750Y0247817D01*
X0158766Y0248016D02*
X0164442Y0248016D01*
X0164578Y0248214D02*
X0159981Y0248214D01*
X0160270Y0248413D02*
X0164720Y0248413D01*
X0164911Y0248611D02*
X0160353Y0248611D01*
X0160407Y0248810D02*
X0165130Y0248810D01*
X0165446Y0249008D02*
X0160461Y0249008D01*
X0160526Y0249207D02*
X0165897Y0249207D01*
X0167513Y0249207D02*
X0173074Y0249207D01*
X0173144Y0249008D02*
X0167970Y0249008D01*
X0168291Y0248810D02*
X0173205Y0248810D01*
X0173266Y0248611D02*
X0168509Y0248611D01*
X0168705Y0248413D02*
X0173775Y0248413D01*
X0174855Y0248214D02*
X0168848Y0248214D01*
X0168987Y0248016D02*
X0175753Y0248016D01*
X0175773Y0247817D02*
X0169076Y0247817D01*
X0169165Y0247619D02*
X0175793Y0247619D01*
X0175812Y0247420D02*
X0169226Y0247420D01*
X0169269Y0247222D02*
X0175830Y0247222D01*
X0175848Y0247023D02*
X0169313Y0247023D01*
X0169317Y0246825D02*
X0175850Y0246825D01*
X0175850Y0246626D02*
X0169319Y0246626D01*
X0169311Y0246428D02*
X0175850Y0246428D01*
X0175850Y0246229D02*
X0169272Y0246229D01*
X0169233Y0246031D02*
X0175850Y0246031D01*
X0175753Y0245832D02*
X0169168Y0245832D01*
X0169084Y0245634D02*
X0174672Y0245634D01*
X0173591Y0245435D02*
X0168996Y0245435D01*
X0168859Y0245237D02*
X0173359Y0245237D01*
X0173310Y0245038D02*
X0168721Y0245038D01*
X0168524Y0244840D02*
X0173260Y0244840D01*
X0173210Y0244641D02*
X0168316Y0244641D01*
X0167999Y0244443D02*
X0173148Y0244443D01*
X0173081Y0244244D02*
X0167892Y0244244D01*
X0167971Y0244046D02*
X0173015Y0244046D01*
X0172911Y0243847D02*
X0168050Y0243847D01*
X0168129Y0243649D02*
X0172795Y0243649D01*
X0172679Y0243450D02*
X0168208Y0243450D01*
X0168287Y0243252D02*
X0172753Y0243252D01*
X0172890Y0243053D02*
X0168365Y0243053D01*
X0168444Y0242855D02*
X0173027Y0242855D01*
X0173164Y0242656D02*
X0168523Y0242656D01*
X0168602Y0242457D02*
X0173301Y0242457D01*
X0173438Y0242259D02*
X0168681Y0242259D01*
X0168760Y0242060D02*
X0173575Y0242060D01*
X0173712Y0241862D02*
X0168839Y0241862D01*
X0168918Y0241663D02*
X0173849Y0241663D01*
X0173986Y0241465D02*
X0168997Y0241465D01*
X0169076Y0241266D02*
X0174074Y0241266D01*
X0173919Y0241068D02*
X0170646Y0241068D01*
X0170552Y0241068D02*
X0169154Y0241068D01*
X0169233Y0240869D02*
X0170254Y0240869D01*
X0169930Y0240671D02*
X0169312Y0240671D01*
X0169391Y0240472D02*
X0169454Y0240472D01*
X0170929Y0240869D02*
X0173765Y0240869D01*
X0173591Y0240671D02*
X0171213Y0240671D01*
X0171497Y0240472D02*
X0173414Y0240472D01*
X0173224Y0240274D02*
X0171780Y0240274D01*
X0172064Y0240075D02*
X0173025Y0240075D01*
X0172802Y0239877D02*
X0172347Y0239877D01*
X0171924Y0237718D02*
X0171457Y0237718D01*
X0170523Y0236784D01*
X0172825Y0236317D02*
X0173292Y0235850D01*
X0174693Y0235850D01*
X0175588Y0236317D02*
X0176055Y0235850D01*
X0176989Y0235850D01*
X0177456Y0236784D02*
X0175588Y0236784D01*
X0175588Y0236317D02*
X0175588Y0237251D01*
X0176055Y0237718D01*
X0176989Y0237718D01*
X0177456Y0237251D01*
X0177456Y0236784D01*
X0174693Y0237718D02*
X0173292Y0237718D01*
X0172825Y0237251D01*
X0172825Y0236317D01*
X0172984Y0249405D02*
X0160618Y0249405D01*
X0160709Y0249604D02*
X0172894Y0249604D01*
X0172790Y0249802D02*
X0160801Y0249802D01*
X0160921Y0250001D02*
X0172674Y0250001D01*
X0172559Y0250199D02*
X0161040Y0250199D01*
X0161033Y0250398D02*
X0172451Y0250398D01*
X0172591Y0250596D02*
X0160898Y0250596D01*
X0160762Y0250795D02*
X0172734Y0250795D01*
X0172876Y0250993D02*
X0160626Y0250993D01*
X0160491Y0251192D02*
X0173019Y0251192D01*
X0173161Y0251391D02*
X0160355Y0251391D01*
X0160220Y0251589D02*
X0173304Y0251589D01*
X0173446Y0251788D02*
X0160084Y0251788D01*
X0159949Y0251986D02*
X0173589Y0251986D01*
X0173731Y0252185D02*
X0159813Y0252185D01*
X0159733Y0252383D02*
X0173824Y0252383D01*
X0173665Y0252582D02*
X0170265Y0252582D01*
X0170003Y0252582D02*
X0163530Y0252582D01*
X0163878Y0252780D02*
X0169632Y0252780D01*
X0169186Y0252979D02*
X0164321Y0252979D01*
X0164881Y0253177D02*
X0168678Y0253177D01*
X0168327Y0253376D02*
X0165263Y0253376D01*
X0165296Y0253574D02*
X0168290Y0253574D01*
X0168254Y0253773D02*
X0165329Y0253773D01*
X0165362Y0253971D02*
X0168218Y0253971D01*
X0168181Y0254170D02*
X0165395Y0254170D01*
X0165428Y0254368D02*
X0168145Y0254368D01*
X0168108Y0254567D02*
X0165461Y0254567D01*
X0165494Y0254765D02*
X0168072Y0254765D01*
X0168035Y0254964D02*
X0165527Y0254964D01*
X0165560Y0255162D02*
X0167999Y0255162D01*
X0167962Y0255361D02*
X0165593Y0255361D01*
X0165627Y0255559D02*
X0167926Y0255559D01*
X0170546Y0252780D02*
X0173506Y0252780D01*
X0173321Y0252979D02*
X0170827Y0252979D01*
X0171107Y0253177D02*
X0173123Y0253177D01*
X0172921Y0253376D02*
X0171388Y0253376D01*
X0171669Y0253574D02*
X0172694Y0253574D01*
X0172448Y0253773D02*
X0171949Y0253773D01*
X0163119Y0252582D02*
X0159932Y0252582D01*
X0160110Y0252780D02*
X0162845Y0252780D01*
X0162571Y0252979D02*
X0160287Y0252979D01*
X0160477Y0253177D02*
X0162297Y0253177D01*
X0162023Y0253376D02*
X0160676Y0253376D01*
X0160881Y0253574D02*
X0161749Y0253574D01*
X0161476Y0253773D02*
X0161136Y0253773D01*
X0174350Y0214052D02*
X0175451Y0214052D01*
X0175818Y0213685D01*
X0175818Y0212951D01*
X0175451Y0212584D01*
X0174350Y0212584D01*
X0175084Y0212584D02*
X0175818Y0211850D01*
X0176560Y0211850D02*
X0178028Y0213318D01*
X0178028Y0213685D01*
X0177661Y0214052D01*
X0176927Y0214052D01*
X0176560Y0213685D01*
X0176560Y0211850D02*
X0178028Y0211850D01*
X0177661Y0209052D02*
X0178028Y0208685D01*
X0176560Y0207217D01*
X0176927Y0206850D01*
X0177661Y0206850D01*
X0178028Y0207217D01*
X0178028Y0208685D01*
X0177661Y0209052D02*
X0176927Y0209052D01*
X0176560Y0208685D01*
X0176560Y0207217D01*
X0175818Y0206850D02*
X0174350Y0206850D01*
X0175084Y0206850D02*
X0175084Y0209052D01*
X0174350Y0208318D01*
X0174350Y0211850D02*
X0174350Y0214052D01*
X0178770Y0209052D02*
X0178770Y0206850D01*
X0178770Y0207584D02*
X0180238Y0209052D01*
X0179137Y0207951D02*
X0180238Y0206850D01*
D16*
X0183935Y0095707D03*
X0169565Y0095707D03*
X0155195Y0095707D03*
X0140825Y0095707D03*
X0126455Y0095707D03*
X0112085Y0095707D03*
X0097715Y0095707D03*
X0083344Y0095707D03*
X0068974Y0095707D03*
X0068974Y0075431D03*
X0083344Y0075431D03*
X0097715Y0075431D03*
X0112085Y0075431D03*
X0126455Y0075431D03*
X0140825Y0075431D03*
X0155195Y0075431D03*
X0169565Y0075431D03*
X0183935Y0075431D03*
X0198305Y0075431D03*
X0212675Y0075431D03*
X0227045Y0075431D03*
X0241415Y0075431D03*
X0255785Y0075431D03*
X0270156Y0075431D03*
X0284526Y0075431D03*
X0284526Y0095707D03*
X0270156Y0095707D03*
X0255785Y0095707D03*
X0241415Y0095707D03*
X0227045Y0095707D03*
X0212675Y0095707D03*
X0198305Y0095707D03*
M02*
