%
M48
M72
T01C0.0320
T02C0.0354
T03C0.0394
T04C0.0400
T05C0.0440
T06C0.0984
%
T01
X20175Y20175
X21175Y20175
X22175Y20175
T02
X19175Y21175
X19175Y18175
T03
X17175Y19175
X15175Y19175
X16175Y21175
X16077Y14777
X17077Y14777
X18077Y14777
X19077Y14777
X20077Y14777
X15077Y14777
X14077Y14777
X13077Y14777
X12077Y14777
X11077Y14777
X10077Y14777
X9077Y14777
X8077Y14777
X7077Y14777
X6077Y14777
X5077Y14777
T04
X25675Y18625
X26675Y18625
X27675Y18625
X28675Y18625
X29675Y18625
X29675Y19725
X28675Y19725
X27675Y19725
X26675Y19725
X25675Y19725
X33175Y19675
X33175Y18675
X33175Y17675
X33175Y20675
T05
X11675Y20675
X10675Y20675
X9675Y20675
X8675Y20675
X7675Y20675
X6675Y20675
X5675Y20675
X4675Y20675
X3675Y20675
X2675Y20675
X2675Y17675
X3675Y17675
X4675Y17675
X5675Y17675
X6675Y17675
X7675Y17675
X8675Y17675
X9675Y17675
X10675Y17675
X11675Y17675
T06
X2911Y2573
X2911Y14777
X32439Y14777
X32439Y2573
M30
