%
M48
M72
T01C0.0320
T02C0.0354
T03C0.0400
T04C0.0440
T05C0.0472
%
T01
X27250Y38750
X27250Y40750
T02
X27250Y33750
X30250Y33750
X22250Y33750
X19250Y33750
X14250Y33750
X11250Y33750
X6250Y33750
X3250Y33750
T03
X5750Y39250
X5750Y40250
X6750Y40250
X6750Y39250
X7750Y39250
X7750Y40250
X8750Y40250
X8750Y39250
X9750Y39250
X9750Y40250
X29750Y40250
X29750Y39250
X29750Y38250
X29750Y41250
T04
X24250Y41250
X23250Y41250
X22250Y41250
X21250Y41250
X20250Y41250
X19250Y41250
X18250Y41250
X17250Y41250
X16250Y41250
X15250Y41250
X15250Y38250
X16250Y38250
X17250Y38250
X18250Y38250
X19250Y38250
X20250Y38250
X21250Y38250
X22250Y38250
X23250Y38250
X24250Y38250
T05
X2289Y4266
X2289Y6234
X7211Y6234
X7211Y4266
X10289Y4266
X10289Y6234
X15211Y6234
X15211Y4266
X18289Y4266
X18289Y6234
X23211Y6234
X23211Y4266
X26289Y4266
X26289Y6234
X31211Y6234
X31211Y4266
X31211Y12266
X31211Y14234
X26289Y14234
X26289Y12266
X23211Y12266
X23211Y14234
X18289Y14234
X18289Y12266
X15211Y12266
X15211Y14234
X10289Y14234
X10289Y12266
X7211Y12266
X7211Y14234
X2289Y14234
X2289Y12266
X2289Y20266
X2289Y22234
X7211Y22234
X7211Y20266
X10289Y20266
X10289Y22234
X15211Y22234
X15211Y20266
X18289Y20266
X18289Y22234
X23211Y22234
X23211Y20266
X26289Y20266
X26289Y22234
X31211Y22234
X31211Y20266
X31211Y28266
X31211Y30234
X26289Y30234
X26289Y28266
X23211Y28266
X23211Y30234
X18289Y30234
X18289Y28266
X15211Y28266
X15211Y30234
X10289Y30234
X10289Y28266
X7211Y28266
X7211Y30234
X2289Y30234
X2289Y28266
M30
