G75*
%MOIN*%
%OFA0B0*%
%FSLAX25Y25*%
%IPPOS*%
%LPD*%
%AMOC8*
5,1,8,0,0,1.08239X$1,22.5*
%
%ADD10R,0.06600X0.06600*%
%ADD11C,0.06600*%
%ADD12C,0.07400*%
%ADD13C,0.08500*%
%ADD14OC8,0.05200*%
%ADD15C,0.03000*%
%ADD16C,0.01000*%
%ADD17C,0.05000*%
%ADD18C,0.02000*%
D10*
X0152500Y0382500D03*
D11*
X0162500Y0382500D03*
X0172500Y0382500D03*
X0182500Y0382500D03*
X0192500Y0382500D03*
X0202500Y0382500D03*
X0212500Y0382500D03*
X0222500Y0382500D03*
X0232500Y0382500D03*
X0242500Y0382500D03*
X0242500Y0412500D03*
X0232500Y0412500D03*
X0222500Y0412500D03*
X0212500Y0412500D03*
X0202500Y0412500D03*
X0192500Y0412500D03*
X0182500Y0412500D03*
X0172500Y0412500D03*
X0162500Y0412500D03*
X0152500Y0412500D03*
D12*
X0097500Y0402500D03*
X0097500Y0392500D03*
X0087500Y0392500D03*
X0087500Y0402500D03*
X0077500Y0402500D03*
X0077500Y0392500D03*
X0067500Y0392500D03*
X0067500Y0402500D03*
X0057500Y0402500D03*
X0057500Y0392500D03*
X0062500Y0337500D03*
X0032500Y0337500D03*
X0112500Y0337500D03*
X0142500Y0337500D03*
X0192500Y0337500D03*
X0222500Y0337500D03*
X0272500Y0337500D03*
X0302500Y0337500D03*
X0297500Y0382500D03*
X0297500Y0392500D03*
X0297500Y0402500D03*
X0297500Y0412500D03*
D13*
X0312106Y0302343D03*
X0312106Y0282657D03*
X0262894Y0282657D03*
X0262894Y0302343D03*
X0232106Y0302343D03*
X0232106Y0282657D03*
X0182894Y0282657D03*
X0182894Y0302343D03*
X0152106Y0302343D03*
X0152106Y0282657D03*
X0102894Y0282657D03*
X0102894Y0302343D03*
X0072106Y0302343D03*
X0072106Y0282657D03*
X0022894Y0282657D03*
X0022894Y0302343D03*
X0022894Y0222343D03*
X0022894Y0202657D03*
X0072106Y0202657D03*
X0072106Y0222343D03*
X0102894Y0222343D03*
X0102894Y0202657D03*
X0152106Y0202657D03*
X0152106Y0222343D03*
X0182894Y0222343D03*
X0182894Y0202657D03*
X0232106Y0202657D03*
X0232106Y0222343D03*
X0262894Y0222343D03*
X0262894Y0202657D03*
X0312106Y0202657D03*
X0312106Y0222343D03*
X0312106Y0142343D03*
X0312106Y0122657D03*
X0262894Y0122657D03*
X0262894Y0142343D03*
X0232106Y0142343D03*
X0232106Y0122657D03*
X0182894Y0122657D03*
X0182894Y0142343D03*
X0152106Y0142343D03*
X0152106Y0122657D03*
X0102894Y0122657D03*
X0102894Y0142343D03*
X0072106Y0142343D03*
X0072106Y0122657D03*
X0022894Y0122657D03*
X0022894Y0142343D03*
X0022894Y0062343D03*
X0022894Y0042657D03*
X0072106Y0042657D03*
X0072106Y0062343D03*
X0102894Y0062343D03*
X0102894Y0042657D03*
X0152106Y0042657D03*
X0152106Y0062343D03*
X0182894Y0062343D03*
X0182894Y0042657D03*
X0232106Y0042657D03*
X0232106Y0062343D03*
X0262894Y0062343D03*
X0262894Y0042657D03*
X0312106Y0042657D03*
X0312106Y0062343D03*
D14*
X0272500Y0387500D03*
X0272500Y0407500D03*
D15*
X0009500Y0287032D02*
X0009500Y0009500D01*
X0355500Y0009500D01*
X0355500Y0445500D01*
X0343268Y0445500D01*
X0351012Y0437756D01*
X0352756Y0436012D01*
X0353700Y0433733D01*
X0353700Y0076267D01*
X0352756Y0073988D01*
X0351012Y0072244D01*
X0351012Y0072244D01*
X0321056Y0042288D01*
X0321056Y0040877D01*
X0319694Y0037588D01*
X0317176Y0035070D01*
X0313887Y0033707D01*
X0310326Y0033707D01*
X0307037Y0035070D01*
X0304519Y0037588D01*
X0303156Y0040877D01*
X0303156Y0044438D01*
X0304519Y0047727D01*
X0307037Y0050245D01*
X0310326Y0051607D01*
X0312839Y0051607D01*
X0315146Y0053914D01*
X0313887Y0053393D01*
X0310326Y0053393D01*
X0307037Y0054755D01*
X0304519Y0057273D01*
X0303156Y0060562D01*
X0303156Y0061110D01*
X0281396Y0082870D01*
X0280300Y0085517D01*
X0280300Y0278932D01*
X0281396Y0281578D01*
X0283422Y0283604D01*
X0303156Y0303339D01*
X0303156Y0304123D01*
X0304519Y0307412D01*
X0307037Y0309930D01*
X0310326Y0311293D01*
X0313887Y0311293D01*
X0317176Y0309930D01*
X0319694Y0307412D01*
X0321056Y0304123D01*
X0321056Y0300562D01*
X0320535Y0299303D01*
X0326300Y0305068D01*
X0326300Y0414932D01*
X0319932Y0421300D01*
X0250068Y0421300D01*
X0247541Y0418773D01*
X0249282Y0417032D01*
X0250500Y0414091D01*
X0250500Y0410909D01*
X0249585Y0408700D01*
X0249932Y0408700D01*
X0252244Y0411012D01*
X0253988Y0412756D01*
X0256267Y0413700D01*
X0268376Y0413700D01*
X0269476Y0414800D01*
X0271032Y0414800D01*
X0273988Y0417756D01*
X0276267Y0418700D01*
X0291821Y0418700D01*
X0292742Y0419621D01*
X0295829Y0420900D01*
X0299171Y0420900D01*
X0302258Y0419621D01*
X0304621Y0417258D01*
X0305900Y0414171D01*
X0305900Y0413007D01*
X0306366Y0413200D01*
X0308634Y0413200D01*
X0310729Y0412332D01*
X0312332Y0410729D01*
X0313200Y0408634D01*
X0313200Y0391366D01*
X0312332Y0389271D01*
X0310729Y0387668D01*
X0308634Y0386800D01*
X0304811Y0386800D01*
X0305900Y0384171D01*
X0305900Y0382868D01*
X0306012Y0382756D01*
X0306012Y0382756D01*
X0307756Y0381012D01*
X0308700Y0378733D01*
X0308700Y0343179D01*
X0309621Y0342258D01*
X0310900Y0339171D01*
X0310900Y0335829D01*
X0309621Y0332742D01*
X0308700Y0331821D01*
X0308700Y0316267D01*
X0307756Y0313988D01*
X0306012Y0312244D01*
X0281012Y0287244D01*
X0278733Y0286300D01*
X0271072Y0286300D01*
X0271844Y0284438D01*
X0271844Y0280877D01*
X0270481Y0277588D01*
X0267963Y0275070D01*
X0264674Y0273707D01*
X0261113Y0273707D01*
X0257824Y0275070D01*
X0257436Y0275457D01*
X0237564Y0275457D01*
X0237176Y0275070D01*
X0233887Y0273707D01*
X0230326Y0273707D01*
X0227037Y0275070D01*
X0224519Y0277588D01*
X0223156Y0280877D01*
X0223156Y0282974D01*
X0214700Y0274518D01*
X0214700Y0229543D01*
X0226649Y0229543D01*
X0227037Y0229930D01*
X0230326Y0231293D01*
X0233887Y0231293D01*
X0237176Y0229930D01*
X0239694Y0227412D01*
X0241056Y0224123D01*
X0241056Y0220562D01*
X0239694Y0217273D01*
X0237176Y0214755D01*
X0233887Y0213393D01*
X0230326Y0213393D01*
X0227037Y0214755D01*
X0226649Y0215143D01*
X0214700Y0215143D01*
X0214700Y0149543D01*
X0226649Y0149543D01*
X0227037Y0149930D01*
X0230326Y0151293D01*
X0233887Y0151293D01*
X0237176Y0149930D01*
X0239694Y0147412D01*
X0241056Y0144123D01*
X0241056Y0140562D01*
X0239694Y0137273D01*
X0237176Y0134755D01*
X0233887Y0133393D01*
X0230326Y0133393D01*
X0227037Y0134755D01*
X0226649Y0135143D01*
X0214700Y0135143D01*
X0214700Y0089931D01*
X0233339Y0071293D01*
X0233887Y0071293D01*
X0237176Y0069930D01*
X0239694Y0067412D01*
X0241056Y0064123D01*
X0241056Y0060562D01*
X0239694Y0057273D01*
X0237176Y0054755D01*
X0233887Y0053393D01*
X0230326Y0053393D01*
X0227037Y0054755D01*
X0224519Y0057273D01*
X0223156Y0060562D01*
X0223156Y0061110D01*
X0201396Y0082870D01*
X0200300Y0085517D01*
X0200300Y0278932D01*
X0201396Y0281578D01*
X0203422Y0283604D01*
X0223156Y0303339D01*
X0223156Y0304123D01*
X0224519Y0307412D01*
X0227037Y0309930D01*
X0230326Y0311293D01*
X0233887Y0311293D01*
X0235684Y0310548D01*
X0234932Y0311300D01*
X0225068Y0311300D01*
X0201012Y0287244D01*
X0198733Y0286300D01*
X0191072Y0286300D01*
X0191844Y0284438D01*
X0191844Y0280877D01*
X0190481Y0277588D01*
X0187963Y0275070D01*
X0184674Y0273707D01*
X0181113Y0273707D01*
X0177824Y0275070D01*
X0177436Y0275457D01*
X0157564Y0275457D01*
X0157176Y0275070D01*
X0153887Y0273707D01*
X0150326Y0273707D01*
X0147037Y0275070D01*
X0144519Y0277588D01*
X0143156Y0280877D01*
X0143156Y0282974D01*
X0134700Y0274518D01*
X0134700Y0229543D01*
X0146649Y0229543D01*
X0147037Y0229930D01*
X0150326Y0231293D01*
X0153887Y0231293D01*
X0157176Y0229930D01*
X0159694Y0227412D01*
X0161056Y0224123D01*
X0161056Y0220562D01*
X0159694Y0217273D01*
X0157176Y0214755D01*
X0153887Y0213393D01*
X0150326Y0213393D01*
X0147037Y0214755D01*
X0146649Y0215143D01*
X0134700Y0215143D01*
X0134700Y0149543D01*
X0146649Y0149543D01*
X0147037Y0149930D01*
X0150326Y0151293D01*
X0153887Y0151293D01*
X0157176Y0149930D01*
X0159694Y0147412D01*
X0161056Y0144123D01*
X0161056Y0140562D01*
X0159694Y0137273D01*
X0157176Y0134755D01*
X0153887Y0133393D01*
X0150326Y0133393D01*
X0147037Y0134755D01*
X0146649Y0135143D01*
X0134700Y0135143D01*
X0134700Y0089931D01*
X0153339Y0071293D01*
X0153887Y0071293D01*
X0157176Y0069930D01*
X0159694Y0067412D01*
X0161056Y0064123D01*
X0161056Y0060562D01*
X0159694Y0057273D01*
X0157176Y0054755D01*
X0153887Y0053393D01*
X0150326Y0053393D01*
X0147037Y0054755D01*
X0144519Y0057273D01*
X0143156Y0060562D01*
X0143156Y0061110D01*
X0121396Y0082870D01*
X0120300Y0085517D01*
X0120300Y0278932D01*
X0121396Y0281578D01*
X0143156Y0303339D01*
X0143156Y0304123D01*
X0144519Y0307412D01*
X0147037Y0309930D01*
X0150326Y0311293D01*
X0153887Y0311293D01*
X0155684Y0310548D01*
X0154932Y0311300D01*
X0145068Y0311300D01*
X0121012Y0287244D01*
X0118733Y0286300D01*
X0111072Y0286300D01*
X0111844Y0284438D01*
X0111844Y0280877D01*
X0110481Y0277588D01*
X0107963Y0275070D01*
X0104674Y0273707D01*
X0101113Y0273707D01*
X0097824Y0275070D01*
X0097436Y0275457D01*
X0077563Y0275457D01*
X0077176Y0275070D01*
X0073887Y0273707D01*
X0070326Y0273707D01*
X0067037Y0275070D01*
X0064519Y0277588D01*
X0063156Y0280877D01*
X0063156Y0282974D01*
X0054700Y0274518D01*
X0054700Y0229543D01*
X0066649Y0229543D01*
X0067037Y0229930D01*
X0070326Y0231293D01*
X0073887Y0231293D01*
X0077176Y0229930D01*
X0079694Y0227412D01*
X0081056Y0224123D01*
X0081056Y0220562D01*
X0079694Y0217273D01*
X0077176Y0214755D01*
X0073887Y0213393D01*
X0070326Y0213393D01*
X0067037Y0214755D01*
X0066649Y0215143D01*
X0054700Y0215143D01*
X0054700Y0149543D01*
X0066649Y0149543D01*
X0067037Y0149930D01*
X0070326Y0151293D01*
X0073887Y0151293D01*
X0077176Y0149930D01*
X0079694Y0147412D01*
X0081056Y0144123D01*
X0081056Y0140562D01*
X0079694Y0137273D01*
X0077176Y0134755D01*
X0073887Y0133393D01*
X0070326Y0133393D01*
X0067037Y0134755D01*
X0066649Y0135143D01*
X0054700Y0135143D01*
X0054700Y0089931D01*
X0073339Y0071293D01*
X0073887Y0071293D01*
X0077176Y0069930D01*
X0079694Y0067412D01*
X0081056Y0064123D01*
X0081056Y0060562D01*
X0079694Y0057273D01*
X0077176Y0054755D01*
X0073887Y0053393D01*
X0070326Y0053393D01*
X0067037Y0054755D01*
X0064519Y0057273D01*
X0063156Y0060562D01*
X0063156Y0061110D01*
X0041396Y0082870D01*
X0040300Y0085517D01*
X0040300Y0278932D01*
X0041396Y0281578D01*
X0043422Y0283604D01*
X0063156Y0303339D01*
X0063156Y0304123D01*
X0064519Y0307412D01*
X0067037Y0309930D01*
X0070053Y0311179D01*
X0069932Y0311300D01*
X0065068Y0311300D01*
X0041012Y0287244D01*
X0038733Y0286300D01*
X0031072Y0286300D01*
X0031844Y0284438D01*
X0031844Y0280877D01*
X0030481Y0277588D01*
X0027963Y0275070D01*
X0024674Y0273707D01*
X0021113Y0273707D01*
X0017824Y0275070D01*
X0015306Y0277588D01*
X0013944Y0280877D01*
X0013944Y0284438D01*
X0014715Y0286300D01*
X0011267Y0286300D01*
X0009500Y0287032D01*
X0009500Y0286384D02*
X0011064Y0286384D01*
X0009500Y0283385D02*
X0013944Y0283385D01*
X0014147Y0280387D02*
X0009500Y0280387D01*
X0009500Y0277388D02*
X0015506Y0277388D01*
X0019466Y0274390D02*
X0009500Y0274390D01*
X0009500Y0271391D02*
X0040300Y0271391D01*
X0040300Y0268393D02*
X0009500Y0268393D01*
X0009500Y0265394D02*
X0040300Y0265394D01*
X0040300Y0262396D02*
X0009500Y0262396D01*
X0009500Y0259397D02*
X0040300Y0259397D01*
X0040300Y0256399D02*
X0009500Y0256399D01*
X0009500Y0253400D02*
X0040300Y0253400D01*
X0040300Y0250402D02*
X0009500Y0250402D01*
X0009500Y0247403D02*
X0040300Y0247403D01*
X0040300Y0244405D02*
X0009500Y0244405D01*
X0009500Y0241406D02*
X0040300Y0241406D01*
X0040300Y0238408D02*
X0009500Y0238408D01*
X0009500Y0235409D02*
X0040300Y0235409D01*
X0040300Y0232411D02*
X0009500Y0232411D01*
X0009500Y0229412D02*
X0017306Y0229412D01*
X0017824Y0229930D02*
X0015306Y0227412D01*
X0013944Y0224123D01*
X0013944Y0220562D01*
X0015306Y0217273D01*
X0017824Y0214755D01*
X0021113Y0213393D01*
X0024674Y0213393D01*
X0027963Y0214755D01*
X0030481Y0217273D01*
X0031844Y0220562D01*
X0031844Y0224123D01*
X0030481Y0227412D01*
X0027963Y0229930D01*
X0024674Y0231293D01*
X0021113Y0231293D01*
X0017824Y0229930D01*
X0014893Y0226414D02*
X0009500Y0226414D01*
X0009500Y0223415D02*
X0013944Y0223415D01*
X0014004Y0220417D02*
X0009500Y0220417D01*
X0009500Y0217418D02*
X0015246Y0217418D01*
X0018634Y0214420D02*
X0009500Y0214420D01*
X0009500Y0211421D02*
X0020663Y0211421D01*
X0021113Y0211607D02*
X0017824Y0210245D01*
X0015306Y0207727D01*
X0013944Y0204438D01*
X0013944Y0200877D01*
X0015306Y0197588D01*
X0017824Y0195070D01*
X0021113Y0193707D01*
X0024674Y0193707D01*
X0027963Y0195070D01*
X0030481Y0197588D01*
X0031844Y0200877D01*
X0031844Y0204438D01*
X0030481Y0207727D01*
X0027963Y0210245D01*
X0024674Y0211607D01*
X0021113Y0211607D01*
X0025124Y0211421D02*
X0040300Y0211421D01*
X0040300Y0208423D02*
X0029786Y0208423D01*
X0031435Y0205424D02*
X0040300Y0205424D01*
X0040300Y0202426D02*
X0031844Y0202426D01*
X0031243Y0199427D02*
X0040300Y0199427D01*
X0040300Y0196429D02*
X0029322Y0196429D01*
X0040300Y0193430D02*
X0009500Y0193430D01*
X0009500Y0190432D02*
X0040300Y0190432D01*
X0040300Y0187433D02*
X0009500Y0187433D01*
X0009500Y0184434D02*
X0040300Y0184434D01*
X0040300Y0181436D02*
X0009500Y0181436D01*
X0009500Y0178437D02*
X0040300Y0178437D01*
X0040300Y0175439D02*
X0009500Y0175439D01*
X0009500Y0172440D02*
X0040300Y0172440D01*
X0040300Y0169442D02*
X0009500Y0169442D01*
X0009500Y0166443D02*
X0040300Y0166443D01*
X0040300Y0163445D02*
X0009500Y0163445D01*
X0009500Y0160446D02*
X0040300Y0160446D01*
X0040300Y0157448D02*
X0009500Y0157448D01*
X0009500Y0154449D02*
X0040300Y0154449D01*
X0040300Y0151451D02*
X0009500Y0151451D01*
X0009500Y0148452D02*
X0016346Y0148452D01*
X0015306Y0147412D02*
X0013944Y0144123D01*
X0013944Y0140562D01*
X0015306Y0137273D01*
X0017824Y0134755D01*
X0021113Y0133393D01*
X0024674Y0133393D01*
X0027963Y0134755D01*
X0030481Y0137273D01*
X0031844Y0140562D01*
X0031844Y0144123D01*
X0030481Y0147412D01*
X0027963Y0149930D01*
X0024674Y0151293D01*
X0021113Y0151293D01*
X0017824Y0149930D01*
X0015306Y0147412D01*
X0014495Y0145454D02*
X0009500Y0145454D01*
X0009500Y0142455D02*
X0013944Y0142455D01*
X0014402Y0139457D02*
X0009500Y0139457D01*
X0009500Y0136458D02*
X0016121Y0136458D01*
X0020951Y0133460D02*
X0009500Y0133460D01*
X0009500Y0130461D02*
X0018346Y0130461D01*
X0017824Y0130245D02*
X0021113Y0131607D01*
X0024674Y0131607D01*
X0027963Y0130245D01*
X0030481Y0127727D01*
X0031844Y0124438D01*
X0031844Y0120877D01*
X0030481Y0117588D01*
X0027963Y0115070D01*
X0024674Y0113707D01*
X0021113Y0113707D01*
X0017824Y0115070D01*
X0015306Y0117588D01*
X0013944Y0120877D01*
X0013944Y0124438D01*
X0015306Y0127727D01*
X0017824Y0130245D01*
X0015197Y0127463D02*
X0009500Y0127463D01*
X0009500Y0124464D02*
X0013955Y0124464D01*
X0013944Y0121466D02*
X0009500Y0121466D01*
X0009500Y0118467D02*
X0014942Y0118467D01*
X0017425Y0115469D02*
X0009500Y0115469D01*
X0009500Y0112470D02*
X0040300Y0112470D01*
X0040300Y0109472D02*
X0009500Y0109472D01*
X0009500Y0106473D02*
X0040300Y0106473D01*
X0040300Y0103475D02*
X0009500Y0103475D01*
X0009500Y0100476D02*
X0040300Y0100476D01*
X0040300Y0097478D02*
X0009500Y0097478D01*
X0009500Y0094479D02*
X0040300Y0094479D01*
X0040300Y0091481D02*
X0009500Y0091481D01*
X0009500Y0088482D02*
X0040300Y0088482D01*
X0040314Y0085484D02*
X0009500Y0085484D01*
X0009500Y0082485D02*
X0041781Y0082485D01*
X0044780Y0079487D02*
X0009500Y0079487D01*
X0009500Y0076488D02*
X0047778Y0076488D01*
X0050777Y0073490D02*
X0009500Y0073490D01*
X0009500Y0070491D02*
X0019179Y0070491D01*
X0017824Y0069930D02*
X0021113Y0071293D01*
X0024674Y0071293D01*
X0027963Y0069930D01*
X0030481Y0067412D01*
X0031844Y0064123D01*
X0031844Y0060562D01*
X0030481Y0057273D01*
X0027963Y0054755D01*
X0024674Y0053393D01*
X0021113Y0053393D01*
X0017824Y0054755D01*
X0015306Y0057273D01*
X0013944Y0060562D01*
X0013944Y0064123D01*
X0015306Y0067412D01*
X0017824Y0069930D01*
X0015387Y0067493D02*
X0009500Y0067493D01*
X0009500Y0064494D02*
X0014097Y0064494D01*
X0013944Y0061496D02*
X0009500Y0061496D01*
X0009500Y0058497D02*
X0014799Y0058497D01*
X0017080Y0055499D02*
X0009500Y0055499D01*
X0009500Y0052500D02*
X0313732Y0052500D01*
X0306293Y0049501D02*
X0268707Y0049501D01*
X0267963Y0050245D02*
X0264674Y0051607D01*
X0261113Y0051607D01*
X0257824Y0050245D01*
X0257436Y0049857D01*
X0237564Y0049857D01*
X0237176Y0050245D01*
X0233887Y0051607D01*
X0230326Y0051607D01*
X0227037Y0050245D01*
X0224519Y0047727D01*
X0223156Y0044438D01*
X0223156Y0040877D01*
X0224519Y0037588D01*
X0227037Y0035070D01*
X0230326Y0033707D01*
X0233887Y0033707D01*
X0237176Y0035070D01*
X0237564Y0035457D01*
X0257436Y0035457D01*
X0257824Y0035070D01*
X0261113Y0033707D01*
X0264674Y0033707D01*
X0267963Y0035070D01*
X0270481Y0037588D01*
X0271844Y0040877D01*
X0271844Y0044438D01*
X0270481Y0047727D01*
X0267963Y0050245D01*
X0267963Y0054755D02*
X0270481Y0057273D01*
X0271844Y0060562D01*
X0271844Y0064123D01*
X0270481Y0067412D01*
X0267963Y0069930D01*
X0264674Y0071293D01*
X0261113Y0071293D01*
X0257824Y0069930D01*
X0255306Y0067412D01*
X0253944Y0064123D01*
X0253944Y0060562D01*
X0255306Y0057273D01*
X0257824Y0054755D01*
X0261113Y0053393D01*
X0264674Y0053393D01*
X0267963Y0054755D01*
X0268707Y0055499D02*
X0306293Y0055499D01*
X0304012Y0058497D02*
X0270988Y0058497D01*
X0271844Y0061496D02*
X0302771Y0061496D01*
X0299772Y0064494D02*
X0271690Y0064494D01*
X0270401Y0067493D02*
X0296774Y0067493D01*
X0293775Y0070491D02*
X0266609Y0070491D01*
X0259179Y0070491D02*
X0235821Y0070491D01*
X0239613Y0067493D02*
X0255387Y0067493D01*
X0254097Y0064494D02*
X0240903Y0064494D01*
X0241056Y0061496D02*
X0253944Y0061496D01*
X0254799Y0058497D02*
X0240201Y0058497D01*
X0237920Y0055499D02*
X0257080Y0055499D01*
X0270988Y0046503D02*
X0304012Y0046503D01*
X0303156Y0043504D02*
X0271844Y0043504D01*
X0271690Y0040506D02*
X0303310Y0040506D01*
X0304599Y0037507D02*
X0270401Y0037507D01*
X0266609Y0034509D02*
X0308391Y0034509D01*
X0315821Y0034509D02*
X0355500Y0034509D01*
X0355500Y0037507D02*
X0319613Y0037507D01*
X0320903Y0040506D02*
X0355500Y0040506D01*
X0355500Y0043504D02*
X0322273Y0043504D01*
X0325271Y0046503D02*
X0355500Y0046503D01*
X0355500Y0049501D02*
X0328270Y0049501D01*
X0331268Y0052500D02*
X0355500Y0052500D01*
X0355500Y0055499D02*
X0334267Y0055499D01*
X0337265Y0058497D02*
X0355500Y0058497D01*
X0355500Y0061496D02*
X0340264Y0061496D01*
X0343262Y0064494D02*
X0355500Y0064494D01*
X0355500Y0067493D02*
X0346261Y0067493D01*
X0349259Y0070491D02*
X0355500Y0070491D01*
X0355500Y0073490D02*
X0352258Y0073490D01*
X0353700Y0076488D02*
X0355500Y0076488D01*
X0355500Y0079487D02*
X0353700Y0079487D01*
X0353700Y0082485D02*
X0355500Y0082485D01*
X0355500Y0085484D02*
X0353700Y0085484D01*
X0353700Y0088482D02*
X0355500Y0088482D01*
X0355500Y0091481D02*
X0353700Y0091481D01*
X0353700Y0094479D02*
X0355500Y0094479D01*
X0355500Y0097478D02*
X0353700Y0097478D01*
X0353700Y0100476D02*
X0355500Y0100476D01*
X0355500Y0103475D02*
X0353700Y0103475D01*
X0353700Y0106473D02*
X0355500Y0106473D01*
X0355500Y0109472D02*
X0353700Y0109472D01*
X0353700Y0112470D02*
X0355500Y0112470D01*
X0355500Y0115469D02*
X0353700Y0115469D01*
X0353700Y0118467D02*
X0355500Y0118467D01*
X0355500Y0121466D02*
X0353700Y0121466D01*
X0353700Y0124464D02*
X0355500Y0124464D01*
X0355500Y0127463D02*
X0353700Y0127463D01*
X0353700Y0130461D02*
X0355500Y0130461D01*
X0355500Y0133460D02*
X0353700Y0133460D01*
X0353700Y0136458D02*
X0355500Y0136458D01*
X0355500Y0139457D02*
X0353700Y0139457D01*
X0353700Y0142455D02*
X0355500Y0142455D01*
X0355500Y0145454D02*
X0353700Y0145454D01*
X0353700Y0148452D02*
X0355500Y0148452D01*
X0355500Y0151451D02*
X0353700Y0151451D01*
X0353700Y0154449D02*
X0355500Y0154449D01*
X0355500Y0157448D02*
X0353700Y0157448D01*
X0353700Y0160446D02*
X0355500Y0160446D01*
X0355500Y0163445D02*
X0353700Y0163445D01*
X0353700Y0166443D02*
X0355500Y0166443D01*
X0355500Y0169442D02*
X0353700Y0169442D01*
X0353700Y0172440D02*
X0355500Y0172440D01*
X0355500Y0175439D02*
X0353700Y0175439D01*
X0353700Y0178437D02*
X0355500Y0178437D01*
X0355500Y0181436D02*
X0353700Y0181436D01*
X0353700Y0184434D02*
X0355500Y0184434D01*
X0355500Y0187433D02*
X0353700Y0187433D01*
X0353700Y0190432D02*
X0355500Y0190432D01*
X0355500Y0193430D02*
X0353700Y0193430D01*
X0353700Y0196429D02*
X0355500Y0196429D01*
X0355500Y0199427D02*
X0353700Y0199427D01*
X0353700Y0202426D02*
X0355500Y0202426D01*
X0355500Y0205424D02*
X0353700Y0205424D01*
X0353700Y0208423D02*
X0355500Y0208423D01*
X0355500Y0211421D02*
X0353700Y0211421D01*
X0353700Y0214420D02*
X0355500Y0214420D01*
X0355500Y0217418D02*
X0353700Y0217418D01*
X0353700Y0220417D02*
X0355500Y0220417D01*
X0355500Y0223415D02*
X0353700Y0223415D01*
X0353700Y0226414D02*
X0355500Y0226414D01*
X0355500Y0229412D02*
X0353700Y0229412D01*
X0353700Y0232411D02*
X0355500Y0232411D01*
X0355500Y0235409D02*
X0353700Y0235409D01*
X0353700Y0238408D02*
X0355500Y0238408D01*
X0355500Y0241406D02*
X0353700Y0241406D01*
X0353700Y0244405D02*
X0355500Y0244405D01*
X0355500Y0247403D02*
X0353700Y0247403D01*
X0353700Y0250402D02*
X0355500Y0250402D01*
X0355500Y0253400D02*
X0353700Y0253400D01*
X0353700Y0256399D02*
X0355500Y0256399D01*
X0355500Y0259397D02*
X0353700Y0259397D01*
X0353700Y0262396D02*
X0355500Y0262396D01*
X0355500Y0265394D02*
X0353700Y0265394D01*
X0353700Y0268393D02*
X0355500Y0268393D01*
X0355500Y0271391D02*
X0353700Y0271391D01*
X0353700Y0274390D02*
X0355500Y0274390D01*
X0355500Y0277388D02*
X0353700Y0277388D01*
X0353700Y0280387D02*
X0355500Y0280387D01*
X0355500Y0283385D02*
X0353700Y0283385D01*
X0353700Y0286384D02*
X0355500Y0286384D01*
X0355500Y0289382D02*
X0353700Y0289382D01*
X0353700Y0292381D02*
X0355500Y0292381D01*
X0355500Y0295379D02*
X0353700Y0295379D01*
X0353700Y0298378D02*
X0355500Y0298378D01*
X0355500Y0301376D02*
X0353700Y0301376D01*
X0353700Y0304375D02*
X0355500Y0304375D01*
X0355500Y0307373D02*
X0353700Y0307373D01*
X0353700Y0310372D02*
X0355500Y0310372D01*
X0355500Y0313370D02*
X0353700Y0313370D01*
X0353700Y0316369D02*
X0355500Y0316369D01*
X0355500Y0319368D02*
X0353700Y0319368D01*
X0353700Y0322366D02*
X0355500Y0322366D01*
X0355500Y0325365D02*
X0353700Y0325365D01*
X0353700Y0328363D02*
X0355500Y0328363D01*
X0355500Y0331362D02*
X0353700Y0331362D01*
X0353700Y0334360D02*
X0355500Y0334360D01*
X0355500Y0337359D02*
X0353700Y0337359D01*
X0353700Y0340357D02*
X0355500Y0340357D01*
X0355500Y0343356D02*
X0353700Y0343356D01*
X0353700Y0346354D02*
X0355500Y0346354D01*
X0355500Y0349353D02*
X0353700Y0349353D01*
X0353700Y0352351D02*
X0355500Y0352351D01*
X0355500Y0355350D02*
X0353700Y0355350D01*
X0353700Y0358348D02*
X0355500Y0358348D01*
X0355500Y0361347D02*
X0353700Y0361347D01*
X0353700Y0364345D02*
X0355500Y0364345D01*
X0355500Y0367344D02*
X0353700Y0367344D01*
X0353700Y0370342D02*
X0355500Y0370342D01*
X0355500Y0373341D02*
X0353700Y0373341D01*
X0353700Y0376339D02*
X0355500Y0376339D01*
X0355500Y0379338D02*
X0353700Y0379338D01*
X0353700Y0382336D02*
X0355500Y0382336D01*
X0355500Y0385335D02*
X0353700Y0385335D01*
X0353700Y0388333D02*
X0355500Y0388333D01*
X0355500Y0391332D02*
X0353700Y0391332D01*
X0353700Y0394330D02*
X0355500Y0394330D01*
X0355500Y0397329D02*
X0353700Y0397329D01*
X0353700Y0400327D02*
X0355500Y0400327D01*
X0355500Y0403326D02*
X0353700Y0403326D01*
X0353700Y0406324D02*
X0355500Y0406324D01*
X0355500Y0409323D02*
X0353700Y0409323D01*
X0353700Y0412321D02*
X0355500Y0412321D01*
X0355500Y0415320D02*
X0353700Y0415320D01*
X0353700Y0418318D02*
X0355500Y0418318D01*
X0355500Y0421317D02*
X0353700Y0421317D01*
X0353700Y0424315D02*
X0355500Y0424315D01*
X0355500Y0427314D02*
X0353700Y0427314D01*
X0353700Y0430312D02*
X0355500Y0430312D01*
X0355500Y0433311D02*
X0353700Y0433311D01*
X0352459Y0436309D02*
X0355500Y0436309D01*
X0355500Y0439308D02*
X0349460Y0439308D01*
X0346462Y0442306D02*
X0355500Y0442306D01*
X0355500Y0445305D02*
X0343463Y0445305D01*
X0337500Y0442500D02*
X0347500Y0432500D01*
X0347500Y0077500D01*
X0312657Y0042657D01*
X0312106Y0042657D01*
X0320535Y0059303D02*
X0321056Y0060562D01*
X0321056Y0064123D01*
X0319694Y0067412D01*
X0317176Y0069930D01*
X0313887Y0071293D01*
X0313339Y0071293D01*
X0294700Y0089931D01*
X0294700Y0135143D01*
X0306649Y0135143D01*
X0307037Y0134755D01*
X0310326Y0133393D01*
X0313887Y0133393D01*
X0315146Y0133914D01*
X0312839Y0131607D01*
X0310326Y0131607D01*
X0307037Y0130245D01*
X0304519Y0127727D01*
X0303156Y0124438D01*
X0303156Y0120877D01*
X0304519Y0117588D01*
X0307037Y0115070D01*
X0310326Y0113707D01*
X0313887Y0113707D01*
X0317176Y0115070D01*
X0319694Y0117588D01*
X0321056Y0120877D01*
X0321056Y0122288D01*
X0341300Y0142532D01*
X0341300Y0080068D01*
X0320535Y0059303D01*
X0321056Y0061496D02*
X0322727Y0061496D01*
X0320903Y0064494D02*
X0325726Y0064494D01*
X0328724Y0067493D02*
X0319613Y0067493D01*
X0315821Y0070491D02*
X0331723Y0070491D01*
X0334721Y0073490D02*
X0311142Y0073490D01*
X0308143Y0076488D02*
X0337720Y0076488D01*
X0340719Y0079487D02*
X0305145Y0079487D01*
X0302146Y0082485D02*
X0341300Y0082485D01*
X0341300Y0085484D02*
X0299148Y0085484D01*
X0296149Y0088482D02*
X0341300Y0088482D01*
X0341300Y0091481D02*
X0294700Y0091481D01*
X0294700Y0094479D02*
X0341300Y0094479D01*
X0341300Y0097478D02*
X0294700Y0097478D01*
X0294700Y0100476D02*
X0341300Y0100476D01*
X0341300Y0103475D02*
X0294700Y0103475D01*
X0294700Y0106473D02*
X0341300Y0106473D01*
X0341300Y0109472D02*
X0294700Y0109472D01*
X0294700Y0112470D02*
X0341300Y0112470D01*
X0341300Y0115469D02*
X0317575Y0115469D01*
X0320058Y0118467D02*
X0341300Y0118467D01*
X0341300Y0121466D02*
X0321056Y0121466D01*
X0323232Y0124464D02*
X0341300Y0124464D01*
X0341300Y0127463D02*
X0326231Y0127463D01*
X0329229Y0130461D02*
X0341300Y0130461D01*
X0341300Y0133460D02*
X0332228Y0133460D01*
X0335226Y0136458D02*
X0341300Y0136458D01*
X0341300Y0139457D02*
X0338225Y0139457D01*
X0341223Y0142455D02*
X0341300Y0142455D01*
X0342500Y0152500D02*
X0342500Y0427500D01*
X0332500Y0437500D01*
X0237500Y0437500D01*
X0212500Y0412500D01*
X0222500Y0412500D02*
X0242500Y0432500D01*
X0327500Y0432500D01*
X0337500Y0422500D01*
X0337500Y0227500D01*
X0312657Y0202657D01*
X0312106Y0202657D01*
X0305678Y0196429D02*
X0294700Y0196429D01*
X0294700Y0199427D02*
X0303757Y0199427D01*
X0303156Y0200877D02*
X0304519Y0197588D01*
X0307037Y0195070D01*
X0310326Y0193707D01*
X0313887Y0193707D01*
X0317176Y0195070D01*
X0319694Y0197588D01*
X0321056Y0200877D01*
X0321056Y0202288D01*
X0336300Y0217532D01*
X0336300Y0155068D01*
X0320535Y0139303D01*
X0321056Y0140562D01*
X0321056Y0144123D01*
X0319694Y0147412D01*
X0317176Y0149930D01*
X0313887Y0151293D01*
X0310326Y0151293D01*
X0307037Y0149930D01*
X0306649Y0149543D01*
X0294700Y0149543D01*
X0294700Y0215143D01*
X0306649Y0215143D01*
X0307037Y0214755D01*
X0310326Y0213393D01*
X0313887Y0213393D01*
X0315146Y0213914D01*
X0312839Y0211607D01*
X0310326Y0211607D01*
X0307037Y0210245D01*
X0304519Y0207727D01*
X0303156Y0204438D01*
X0303156Y0200877D01*
X0303156Y0202426D02*
X0294700Y0202426D01*
X0294700Y0205424D02*
X0303565Y0205424D01*
X0305214Y0208423D02*
X0294700Y0208423D01*
X0294700Y0211421D02*
X0309876Y0211421D01*
X0307846Y0214420D02*
X0294700Y0214420D01*
X0294700Y0229543D02*
X0294700Y0274518D01*
X0303156Y0282974D01*
X0303156Y0280877D01*
X0304519Y0277588D01*
X0307037Y0275070D01*
X0310326Y0273707D01*
X0313887Y0273707D01*
X0317176Y0275070D01*
X0319694Y0277588D01*
X0321056Y0280877D01*
X0321056Y0282288D01*
X0331300Y0292532D01*
X0331300Y0230068D01*
X0320535Y0219303D01*
X0321056Y0220562D01*
X0321056Y0224123D01*
X0319694Y0227412D01*
X0317176Y0229930D01*
X0313887Y0231293D01*
X0310326Y0231293D01*
X0307037Y0229930D01*
X0306649Y0229543D01*
X0294700Y0229543D01*
X0294700Y0232411D02*
X0331300Y0232411D01*
X0331300Y0235409D02*
X0294700Y0235409D01*
X0294700Y0238408D02*
X0331300Y0238408D01*
X0331300Y0241406D02*
X0294700Y0241406D01*
X0294700Y0244405D02*
X0331300Y0244405D01*
X0331300Y0247403D02*
X0294700Y0247403D01*
X0294700Y0250402D02*
X0331300Y0250402D01*
X0331300Y0253400D02*
X0294700Y0253400D01*
X0294700Y0256399D02*
X0331300Y0256399D01*
X0331300Y0259397D02*
X0294700Y0259397D01*
X0294700Y0262396D02*
X0331300Y0262396D01*
X0331300Y0265394D02*
X0294700Y0265394D01*
X0294700Y0268393D02*
X0331300Y0268393D01*
X0331300Y0271391D02*
X0294700Y0271391D01*
X0294700Y0274390D02*
X0308679Y0274390D01*
X0304718Y0277388D02*
X0297571Y0277388D01*
X0300569Y0280387D02*
X0303359Y0280387D01*
X0312106Y0282657D02*
X0312657Y0282657D01*
X0332500Y0302500D01*
X0332500Y0417500D01*
X0322500Y0427500D01*
X0247500Y0427500D01*
X0232500Y0412500D01*
X0247995Y0418318D02*
X0275345Y0418318D01*
X0271552Y0415320D02*
X0249991Y0415320D01*
X0250500Y0412321D02*
X0253553Y0412321D01*
X0250555Y0409323D02*
X0249843Y0409323D01*
X0252500Y0402500D02*
X0257500Y0407500D01*
X0272500Y0407500D01*
X0273283Y0408283D01*
X0277500Y0412500D01*
X0297500Y0412500D01*
X0303561Y0418318D02*
X0322913Y0418318D01*
X0325912Y0415320D02*
X0305424Y0415320D01*
X0310740Y0412321D02*
X0326300Y0412321D01*
X0326300Y0409323D02*
X0312915Y0409323D01*
X0313200Y0406324D02*
X0326300Y0406324D01*
X0326300Y0403326D02*
X0313200Y0403326D01*
X0313200Y0400327D02*
X0326300Y0400327D01*
X0326300Y0397329D02*
X0313200Y0397329D01*
X0313200Y0394330D02*
X0326300Y0394330D01*
X0326300Y0391332D02*
X0313186Y0391332D01*
X0311394Y0388333D02*
X0326300Y0388333D01*
X0326300Y0385335D02*
X0305418Y0385335D01*
X0306432Y0382336D02*
X0326300Y0382336D01*
X0326300Y0379338D02*
X0308450Y0379338D01*
X0308700Y0376339D02*
X0326300Y0376339D01*
X0326300Y0373341D02*
X0308700Y0373341D01*
X0308700Y0370342D02*
X0326300Y0370342D01*
X0326300Y0367344D02*
X0308700Y0367344D01*
X0308700Y0364345D02*
X0326300Y0364345D01*
X0326300Y0361347D02*
X0308700Y0361347D01*
X0308700Y0358348D02*
X0326300Y0358348D01*
X0326300Y0355350D02*
X0308700Y0355350D01*
X0308700Y0352351D02*
X0326300Y0352351D01*
X0326300Y0349353D02*
X0308700Y0349353D01*
X0308700Y0346354D02*
X0326300Y0346354D01*
X0326300Y0343356D02*
X0308700Y0343356D01*
X0310409Y0340357D02*
X0326300Y0340357D01*
X0326300Y0337359D02*
X0310900Y0337359D01*
X0310291Y0334360D02*
X0326300Y0334360D01*
X0326300Y0331362D02*
X0308700Y0331362D01*
X0308700Y0328363D02*
X0326300Y0328363D01*
X0326300Y0325365D02*
X0308700Y0325365D01*
X0308700Y0322366D02*
X0326300Y0322366D01*
X0326300Y0319368D02*
X0308700Y0319368D01*
X0308700Y0316369D02*
X0326300Y0316369D01*
X0326300Y0313370D02*
X0307139Y0313370D01*
X0308104Y0310372D02*
X0304140Y0310372D01*
X0304503Y0307373D02*
X0301142Y0307373D01*
X0303261Y0304375D02*
X0298143Y0304375D01*
X0295145Y0301376D02*
X0301194Y0301376D01*
X0298196Y0298378D02*
X0292146Y0298378D01*
X0289148Y0295379D02*
X0295197Y0295379D01*
X0292199Y0292381D02*
X0286149Y0292381D01*
X0283151Y0289382D02*
X0289200Y0289382D01*
X0286202Y0286384D02*
X0278936Y0286384D01*
X0283203Y0283385D02*
X0271844Y0283385D01*
X0271641Y0280387D02*
X0280903Y0280387D01*
X0280300Y0277388D02*
X0270282Y0277388D01*
X0266321Y0274390D02*
X0280300Y0274390D01*
X0280300Y0271391D02*
X0214700Y0271391D01*
X0214700Y0268393D02*
X0280300Y0268393D01*
X0280300Y0265394D02*
X0214700Y0265394D01*
X0214700Y0262396D02*
X0280300Y0262396D01*
X0280300Y0259397D02*
X0214700Y0259397D01*
X0214700Y0256399D02*
X0280300Y0256399D01*
X0280300Y0253400D02*
X0214700Y0253400D01*
X0214700Y0250402D02*
X0280300Y0250402D01*
X0280300Y0247403D02*
X0214700Y0247403D01*
X0214700Y0244405D02*
X0280300Y0244405D01*
X0280300Y0241406D02*
X0214700Y0241406D01*
X0214700Y0238408D02*
X0280300Y0238408D01*
X0280300Y0235409D02*
X0214700Y0235409D01*
X0214700Y0232411D02*
X0280300Y0232411D01*
X0280300Y0229412D02*
X0268481Y0229412D01*
X0267963Y0229930D02*
X0264674Y0231293D01*
X0261113Y0231293D01*
X0257824Y0229930D01*
X0255306Y0227412D01*
X0253944Y0224123D01*
X0253944Y0220562D01*
X0255306Y0217273D01*
X0257824Y0214755D01*
X0261113Y0213393D01*
X0264674Y0213393D01*
X0267963Y0214755D01*
X0270481Y0217273D01*
X0271844Y0220562D01*
X0271844Y0224123D01*
X0270481Y0227412D01*
X0267963Y0229930D01*
X0270895Y0226414D02*
X0280300Y0226414D01*
X0280300Y0223415D02*
X0271844Y0223415D01*
X0271783Y0220417D02*
X0280300Y0220417D01*
X0280300Y0217418D02*
X0270541Y0217418D01*
X0267154Y0214420D02*
X0280300Y0214420D01*
X0280300Y0211421D02*
X0265124Y0211421D01*
X0264674Y0211607D02*
X0261113Y0211607D01*
X0257824Y0210245D01*
X0257436Y0209857D01*
X0237564Y0209857D01*
X0237176Y0210245D01*
X0233887Y0211607D01*
X0230326Y0211607D01*
X0227037Y0210245D01*
X0224519Y0207727D01*
X0223156Y0204438D01*
X0223156Y0200877D01*
X0224519Y0197588D01*
X0227037Y0195070D01*
X0230326Y0193707D01*
X0233887Y0193707D01*
X0237176Y0195070D01*
X0237564Y0195457D01*
X0257436Y0195457D01*
X0257824Y0195070D01*
X0261113Y0193707D01*
X0264674Y0193707D01*
X0267963Y0195070D01*
X0270481Y0197588D01*
X0271844Y0200877D01*
X0271844Y0204438D01*
X0270481Y0207727D01*
X0267963Y0210245D01*
X0264674Y0211607D01*
X0260663Y0211421D02*
X0234337Y0211421D01*
X0236366Y0214420D02*
X0258634Y0214420D01*
X0255246Y0217418D02*
X0239754Y0217418D01*
X0240996Y0220417D02*
X0254004Y0220417D01*
X0253944Y0223415D02*
X0241056Y0223415D01*
X0240107Y0226414D02*
X0254893Y0226414D01*
X0257306Y0229412D02*
X0237694Y0229412D01*
X0227846Y0214420D02*
X0214700Y0214420D01*
X0214700Y0211421D02*
X0229876Y0211421D01*
X0225214Y0208423D02*
X0214700Y0208423D01*
X0214700Y0205424D02*
X0223565Y0205424D01*
X0223156Y0202426D02*
X0214700Y0202426D01*
X0214700Y0199427D02*
X0223757Y0199427D01*
X0225678Y0196429D02*
X0214700Y0196429D01*
X0214700Y0193430D02*
X0280300Y0193430D01*
X0280300Y0190432D02*
X0214700Y0190432D01*
X0214700Y0187433D02*
X0280300Y0187433D01*
X0280300Y0184434D02*
X0214700Y0184434D01*
X0214700Y0181436D02*
X0280300Y0181436D01*
X0280300Y0178437D02*
X0214700Y0178437D01*
X0214700Y0175439D02*
X0280300Y0175439D01*
X0280300Y0172440D02*
X0214700Y0172440D01*
X0214700Y0169442D02*
X0280300Y0169442D01*
X0280300Y0166443D02*
X0214700Y0166443D01*
X0214700Y0163445D02*
X0280300Y0163445D01*
X0280300Y0160446D02*
X0214700Y0160446D01*
X0214700Y0157448D02*
X0280300Y0157448D01*
X0280300Y0154449D02*
X0214700Y0154449D01*
X0214700Y0151451D02*
X0280300Y0151451D01*
X0280300Y0148452D02*
X0269441Y0148452D01*
X0270481Y0147412D02*
X0267963Y0149930D01*
X0264674Y0151293D01*
X0261113Y0151293D01*
X0257824Y0149930D01*
X0255306Y0147412D01*
X0253944Y0144123D01*
X0253944Y0140562D01*
X0255306Y0137273D01*
X0257824Y0134755D01*
X0261113Y0133393D01*
X0264674Y0133393D01*
X0267963Y0134755D01*
X0270481Y0137273D01*
X0271844Y0140562D01*
X0271844Y0144123D01*
X0270481Y0147412D01*
X0271292Y0145454D02*
X0280300Y0145454D01*
X0280300Y0142455D02*
X0271844Y0142455D01*
X0271386Y0139457D02*
X0280300Y0139457D01*
X0280300Y0136458D02*
X0269667Y0136458D01*
X0264836Y0133460D02*
X0280300Y0133460D01*
X0280300Y0130461D02*
X0267441Y0130461D01*
X0267963Y0130245D02*
X0264674Y0131607D01*
X0261113Y0131607D01*
X0257824Y0130245D01*
X0257436Y0129857D01*
X0237563Y0129857D01*
X0237176Y0130245D01*
X0233887Y0131607D01*
X0230326Y0131607D01*
X0227037Y0130245D01*
X0224519Y0127727D01*
X0223156Y0124438D01*
X0223156Y0120877D01*
X0224519Y0117588D01*
X0227037Y0115070D01*
X0230326Y0113707D01*
X0233887Y0113707D01*
X0237176Y0115070D01*
X0237563Y0115457D01*
X0257436Y0115457D01*
X0257824Y0115070D01*
X0261113Y0113707D01*
X0264674Y0113707D01*
X0267963Y0115070D01*
X0270481Y0117588D01*
X0271844Y0120877D01*
X0271844Y0124438D01*
X0270481Y0127727D01*
X0267963Y0130245D01*
X0270591Y0127463D02*
X0280300Y0127463D01*
X0280300Y0124464D02*
X0271833Y0124464D01*
X0271844Y0121466D02*
X0280300Y0121466D01*
X0280300Y0118467D02*
X0270845Y0118467D01*
X0268362Y0115469D02*
X0280300Y0115469D01*
X0280300Y0112470D02*
X0214700Y0112470D01*
X0214700Y0109472D02*
X0280300Y0109472D01*
X0280300Y0106473D02*
X0214700Y0106473D01*
X0214700Y0103475D02*
X0280300Y0103475D01*
X0280300Y0100476D02*
X0214700Y0100476D01*
X0214700Y0097478D02*
X0280300Y0097478D01*
X0280300Y0094479D02*
X0214700Y0094479D01*
X0214700Y0091481D02*
X0280300Y0091481D01*
X0280300Y0088482D02*
X0216149Y0088482D01*
X0219148Y0085484D02*
X0280314Y0085484D01*
X0281781Y0082485D02*
X0222146Y0082485D01*
X0225145Y0079487D02*
X0284780Y0079487D01*
X0287778Y0076488D02*
X0228143Y0076488D01*
X0231142Y0073490D02*
X0290777Y0073490D01*
X0294700Y0115469D02*
X0306638Y0115469D01*
X0304155Y0118467D02*
X0294700Y0118467D01*
X0294700Y0121466D02*
X0303156Y0121466D01*
X0303167Y0124464D02*
X0294700Y0124464D01*
X0294700Y0127463D02*
X0304409Y0127463D01*
X0307559Y0130461D02*
X0294700Y0130461D01*
X0294700Y0133460D02*
X0310164Y0133460D01*
X0314049Y0133460D02*
X0314692Y0133460D01*
X0320598Y0139457D02*
X0320689Y0139457D01*
X0321056Y0142455D02*
X0323687Y0142455D01*
X0326686Y0145454D02*
X0320505Y0145454D01*
X0318654Y0148452D02*
X0329684Y0148452D01*
X0332683Y0151451D02*
X0294700Y0151451D01*
X0294700Y0154449D02*
X0335681Y0154449D01*
X0336300Y0157448D02*
X0294700Y0157448D01*
X0294700Y0160446D02*
X0336300Y0160446D01*
X0336300Y0163445D02*
X0294700Y0163445D01*
X0294700Y0166443D02*
X0336300Y0166443D01*
X0336300Y0169442D02*
X0294700Y0169442D01*
X0294700Y0172440D02*
X0336300Y0172440D01*
X0336300Y0175439D02*
X0294700Y0175439D01*
X0294700Y0178437D02*
X0336300Y0178437D01*
X0336300Y0181436D02*
X0294700Y0181436D01*
X0294700Y0184434D02*
X0336300Y0184434D01*
X0336300Y0187433D02*
X0294700Y0187433D01*
X0294700Y0190432D02*
X0336300Y0190432D01*
X0336300Y0193430D02*
X0294700Y0193430D01*
X0280300Y0196429D02*
X0269322Y0196429D01*
X0271243Y0199427D02*
X0280300Y0199427D01*
X0280300Y0202426D02*
X0271844Y0202426D01*
X0271435Y0205424D02*
X0280300Y0205424D01*
X0280300Y0208423D02*
X0269786Y0208423D01*
X0256346Y0148452D02*
X0238654Y0148452D01*
X0240505Y0145454D02*
X0254495Y0145454D01*
X0253944Y0142455D02*
X0241056Y0142455D01*
X0240598Y0139457D02*
X0254402Y0139457D01*
X0256121Y0136458D02*
X0238879Y0136458D01*
X0234049Y0133460D02*
X0260951Y0133460D01*
X0258346Y0130461D02*
X0236654Y0130461D01*
X0230164Y0133460D02*
X0214700Y0133460D01*
X0214700Y0130461D02*
X0227559Y0130461D01*
X0224409Y0127463D02*
X0214700Y0127463D01*
X0214700Y0124464D02*
X0223167Y0124464D01*
X0223156Y0121466D02*
X0214700Y0121466D01*
X0214700Y0118467D02*
X0224155Y0118467D01*
X0226638Y0115469D02*
X0214700Y0115469D01*
X0200300Y0115469D02*
X0188362Y0115469D01*
X0187963Y0115070D02*
X0190481Y0117588D01*
X0191844Y0120877D01*
X0191844Y0124438D01*
X0190481Y0127727D01*
X0187963Y0130245D01*
X0184674Y0131607D01*
X0181113Y0131607D01*
X0177824Y0130245D01*
X0177436Y0129857D01*
X0157563Y0129857D01*
X0157176Y0130245D01*
X0153887Y0131607D01*
X0150326Y0131607D01*
X0147037Y0130245D01*
X0144519Y0127727D01*
X0143156Y0124438D01*
X0143156Y0120877D01*
X0144519Y0117588D01*
X0147037Y0115070D01*
X0150326Y0113707D01*
X0153887Y0113707D01*
X0157176Y0115070D01*
X0157563Y0115457D01*
X0177436Y0115457D01*
X0177824Y0115070D01*
X0181113Y0113707D01*
X0184674Y0113707D01*
X0187963Y0115070D01*
X0190845Y0118467D02*
X0200300Y0118467D01*
X0200300Y0121466D02*
X0191844Y0121466D01*
X0191833Y0124464D02*
X0200300Y0124464D01*
X0200300Y0127463D02*
X0190591Y0127463D01*
X0187441Y0130461D02*
X0200300Y0130461D01*
X0200300Y0133460D02*
X0184836Y0133460D01*
X0184674Y0133393D02*
X0187963Y0134755D01*
X0190481Y0137273D01*
X0191844Y0140562D01*
X0191844Y0144123D01*
X0190481Y0147412D01*
X0187963Y0149930D01*
X0184674Y0151293D01*
X0181113Y0151293D01*
X0177824Y0149930D01*
X0175306Y0147412D01*
X0173944Y0144123D01*
X0173944Y0140562D01*
X0175306Y0137273D01*
X0177824Y0134755D01*
X0181113Y0133393D01*
X0184674Y0133393D01*
X0180951Y0133460D02*
X0154049Y0133460D01*
X0150164Y0133460D02*
X0134700Y0133460D01*
X0134700Y0130461D02*
X0147559Y0130461D01*
X0144409Y0127463D02*
X0134700Y0127463D01*
X0134700Y0124464D02*
X0143167Y0124464D01*
X0143156Y0121466D02*
X0134700Y0121466D01*
X0134700Y0118467D02*
X0144155Y0118467D01*
X0146638Y0115469D02*
X0134700Y0115469D01*
X0134700Y0112470D02*
X0200300Y0112470D01*
X0200300Y0109472D02*
X0134700Y0109472D01*
X0134700Y0106473D02*
X0200300Y0106473D01*
X0200300Y0103475D02*
X0134700Y0103475D01*
X0134700Y0100476D02*
X0200300Y0100476D01*
X0200300Y0097478D02*
X0134700Y0097478D01*
X0134700Y0094479D02*
X0200300Y0094479D01*
X0200300Y0091481D02*
X0134700Y0091481D01*
X0136149Y0088482D02*
X0200300Y0088482D01*
X0200314Y0085484D02*
X0139148Y0085484D01*
X0142146Y0082485D02*
X0201781Y0082485D01*
X0204780Y0079487D02*
X0145145Y0079487D01*
X0148143Y0076488D02*
X0207778Y0076488D01*
X0210777Y0073490D02*
X0151142Y0073490D01*
X0155821Y0070491D02*
X0179179Y0070491D01*
X0177824Y0069930D02*
X0181113Y0071293D01*
X0184674Y0071293D01*
X0187963Y0069930D01*
X0190481Y0067412D01*
X0191844Y0064123D01*
X0191844Y0060562D01*
X0190481Y0057273D01*
X0187963Y0054755D01*
X0184674Y0053393D01*
X0181113Y0053393D01*
X0177824Y0054755D01*
X0175306Y0057273D01*
X0173944Y0060562D01*
X0173944Y0064123D01*
X0175306Y0067412D01*
X0177824Y0069930D01*
X0175387Y0067493D02*
X0159613Y0067493D01*
X0160903Y0064494D02*
X0174097Y0064494D01*
X0173944Y0061496D02*
X0161056Y0061496D01*
X0160201Y0058497D02*
X0174799Y0058497D01*
X0177080Y0055499D02*
X0157920Y0055499D01*
X0157176Y0050245D02*
X0153887Y0051607D01*
X0150326Y0051607D01*
X0147037Y0050245D01*
X0144519Y0047727D01*
X0143156Y0044438D01*
X0143156Y0040877D01*
X0144519Y0037588D01*
X0147037Y0035070D01*
X0150326Y0033707D01*
X0153887Y0033707D01*
X0157176Y0035070D01*
X0157564Y0035457D01*
X0177436Y0035457D01*
X0177824Y0035070D01*
X0181113Y0033707D01*
X0184674Y0033707D01*
X0187963Y0035070D01*
X0190481Y0037588D01*
X0191844Y0040877D01*
X0191844Y0044438D01*
X0190481Y0047727D01*
X0187963Y0050245D01*
X0184674Y0051607D01*
X0181113Y0051607D01*
X0177824Y0050245D01*
X0177436Y0049857D01*
X0157564Y0049857D01*
X0157176Y0050245D01*
X0146293Y0049501D02*
X0108707Y0049501D01*
X0107963Y0050245D02*
X0104674Y0051607D01*
X0101113Y0051607D01*
X0097824Y0050245D01*
X0097436Y0049857D01*
X0077564Y0049857D01*
X0077176Y0050245D01*
X0073887Y0051607D01*
X0070326Y0051607D01*
X0067037Y0050245D01*
X0064519Y0047727D01*
X0063156Y0044438D01*
X0063156Y0040877D01*
X0064519Y0037588D01*
X0067037Y0035070D01*
X0070326Y0033707D01*
X0073887Y0033707D01*
X0077176Y0035070D01*
X0077564Y0035457D01*
X0097436Y0035457D01*
X0097824Y0035070D01*
X0101113Y0033707D01*
X0104674Y0033707D01*
X0107963Y0035070D01*
X0110481Y0037588D01*
X0111844Y0040877D01*
X0111844Y0044438D01*
X0110481Y0047727D01*
X0107963Y0050245D01*
X0107963Y0054755D02*
X0110481Y0057273D01*
X0111844Y0060562D01*
X0111844Y0064123D01*
X0110481Y0067412D01*
X0107963Y0069930D01*
X0104674Y0071293D01*
X0101113Y0071293D01*
X0097824Y0069930D01*
X0095306Y0067412D01*
X0093944Y0064123D01*
X0093944Y0060562D01*
X0095306Y0057273D01*
X0097824Y0054755D01*
X0101113Y0053393D01*
X0104674Y0053393D01*
X0107963Y0054755D01*
X0108707Y0055499D02*
X0146293Y0055499D01*
X0144012Y0058497D02*
X0110988Y0058497D01*
X0111844Y0061496D02*
X0142771Y0061496D01*
X0139772Y0064494D02*
X0111690Y0064494D01*
X0110401Y0067493D02*
X0136774Y0067493D01*
X0133775Y0070491D02*
X0106609Y0070491D01*
X0099179Y0070491D02*
X0075821Y0070491D01*
X0079613Y0067493D02*
X0095387Y0067493D01*
X0094097Y0064494D02*
X0080903Y0064494D01*
X0081056Y0061496D02*
X0093944Y0061496D01*
X0094799Y0058497D02*
X0080201Y0058497D01*
X0077920Y0055499D02*
X0097080Y0055499D01*
X0110988Y0046503D02*
X0144012Y0046503D01*
X0143156Y0043504D02*
X0111844Y0043504D01*
X0111690Y0040506D02*
X0143310Y0040506D01*
X0144599Y0037507D02*
X0110401Y0037507D01*
X0106609Y0034509D02*
X0148391Y0034509D01*
X0155821Y0034509D02*
X0179179Y0034509D01*
X0186609Y0034509D02*
X0228391Y0034509D01*
X0224599Y0037507D02*
X0190401Y0037507D01*
X0191690Y0040506D02*
X0223310Y0040506D01*
X0223156Y0043504D02*
X0191844Y0043504D01*
X0190988Y0046503D02*
X0224012Y0046503D01*
X0226293Y0049501D02*
X0188707Y0049501D01*
X0188707Y0055499D02*
X0226293Y0055499D01*
X0224012Y0058497D02*
X0190988Y0058497D01*
X0191844Y0061496D02*
X0222771Y0061496D01*
X0219772Y0064494D02*
X0191690Y0064494D01*
X0190401Y0067493D02*
X0216774Y0067493D01*
X0213775Y0070491D02*
X0186609Y0070491D01*
X0178346Y0130461D02*
X0156654Y0130461D01*
X0158879Y0136458D02*
X0176121Y0136458D01*
X0174402Y0139457D02*
X0160598Y0139457D01*
X0161056Y0142455D02*
X0173944Y0142455D01*
X0174495Y0145454D02*
X0160505Y0145454D01*
X0158654Y0148452D02*
X0176346Y0148452D01*
X0189441Y0148452D02*
X0200300Y0148452D01*
X0200300Y0145454D02*
X0191292Y0145454D01*
X0191844Y0142455D02*
X0200300Y0142455D01*
X0200300Y0139457D02*
X0191386Y0139457D01*
X0189667Y0136458D02*
X0200300Y0136458D01*
X0200300Y0151451D02*
X0134700Y0151451D01*
X0134700Y0154449D02*
X0200300Y0154449D01*
X0200300Y0157448D02*
X0134700Y0157448D01*
X0134700Y0160446D02*
X0200300Y0160446D01*
X0200300Y0163445D02*
X0134700Y0163445D01*
X0134700Y0166443D02*
X0200300Y0166443D01*
X0200300Y0169442D02*
X0134700Y0169442D01*
X0134700Y0172440D02*
X0200300Y0172440D01*
X0200300Y0175439D02*
X0134700Y0175439D01*
X0134700Y0178437D02*
X0200300Y0178437D01*
X0200300Y0181436D02*
X0134700Y0181436D01*
X0134700Y0184434D02*
X0200300Y0184434D01*
X0200300Y0187433D02*
X0134700Y0187433D01*
X0134700Y0190432D02*
X0200300Y0190432D01*
X0200300Y0193430D02*
X0134700Y0193430D01*
X0134700Y0196429D02*
X0145678Y0196429D01*
X0144519Y0197588D02*
X0147037Y0195070D01*
X0150326Y0193707D01*
X0153887Y0193707D01*
X0157176Y0195070D01*
X0157564Y0195457D01*
X0177436Y0195457D01*
X0177824Y0195070D01*
X0181113Y0193707D01*
X0184674Y0193707D01*
X0187963Y0195070D01*
X0190481Y0197588D01*
X0191844Y0200877D01*
X0191844Y0204438D01*
X0190481Y0207727D01*
X0187963Y0210245D01*
X0184674Y0211607D01*
X0181113Y0211607D01*
X0177824Y0210245D01*
X0177436Y0209857D01*
X0157564Y0209857D01*
X0157176Y0210245D01*
X0153887Y0211607D01*
X0150326Y0211607D01*
X0147037Y0210245D01*
X0144519Y0207727D01*
X0143156Y0204438D01*
X0143156Y0200877D01*
X0144519Y0197588D01*
X0143757Y0199427D02*
X0134700Y0199427D01*
X0134700Y0202426D02*
X0143156Y0202426D01*
X0143565Y0205424D02*
X0134700Y0205424D01*
X0134700Y0208423D02*
X0145214Y0208423D01*
X0149876Y0211421D02*
X0134700Y0211421D01*
X0134700Y0214420D02*
X0147846Y0214420D01*
X0154337Y0211421D02*
X0180663Y0211421D01*
X0181113Y0213393D02*
X0184674Y0213393D01*
X0187963Y0214755D01*
X0190481Y0217273D01*
X0191844Y0220562D01*
X0191844Y0224123D01*
X0190481Y0227412D01*
X0187963Y0229930D01*
X0184674Y0231293D01*
X0181113Y0231293D01*
X0177824Y0229930D01*
X0175306Y0227412D01*
X0173944Y0224123D01*
X0173944Y0220562D01*
X0175306Y0217273D01*
X0177824Y0214755D01*
X0181113Y0213393D01*
X0178634Y0214420D02*
X0156366Y0214420D01*
X0159754Y0217418D02*
X0175246Y0217418D01*
X0174004Y0220417D02*
X0160996Y0220417D01*
X0161056Y0223415D02*
X0173944Y0223415D01*
X0174893Y0226414D02*
X0160107Y0226414D01*
X0157694Y0229412D02*
X0177306Y0229412D01*
X0188481Y0229412D02*
X0200300Y0229412D01*
X0200300Y0226414D02*
X0190895Y0226414D01*
X0191844Y0223415D02*
X0200300Y0223415D01*
X0200300Y0220417D02*
X0191783Y0220417D01*
X0190541Y0217418D02*
X0200300Y0217418D01*
X0200300Y0214420D02*
X0187154Y0214420D01*
X0185124Y0211421D02*
X0200300Y0211421D01*
X0200300Y0208423D02*
X0189786Y0208423D01*
X0191435Y0205424D02*
X0200300Y0205424D01*
X0200300Y0202426D02*
X0191844Y0202426D01*
X0191243Y0199427D02*
X0200300Y0199427D01*
X0200300Y0196429D02*
X0189322Y0196429D01*
X0200300Y0232411D02*
X0134700Y0232411D01*
X0134700Y0235409D02*
X0200300Y0235409D01*
X0200300Y0238408D02*
X0134700Y0238408D01*
X0134700Y0241406D02*
X0200300Y0241406D01*
X0200300Y0244405D02*
X0134700Y0244405D01*
X0134700Y0247403D02*
X0200300Y0247403D01*
X0200300Y0250402D02*
X0134700Y0250402D01*
X0134700Y0253400D02*
X0200300Y0253400D01*
X0200300Y0256399D02*
X0134700Y0256399D01*
X0134700Y0259397D02*
X0200300Y0259397D01*
X0200300Y0262396D02*
X0134700Y0262396D01*
X0134700Y0265394D02*
X0200300Y0265394D01*
X0200300Y0268393D02*
X0134700Y0268393D01*
X0134700Y0271391D02*
X0200300Y0271391D01*
X0200300Y0274390D02*
X0186321Y0274390D01*
X0190282Y0277388D02*
X0200300Y0277388D01*
X0200903Y0280387D02*
X0191641Y0280387D01*
X0191844Y0283385D02*
X0203203Y0283385D01*
X0206202Y0286384D02*
X0198936Y0286384D01*
X0203151Y0289382D02*
X0209200Y0289382D01*
X0212199Y0292381D02*
X0206149Y0292381D01*
X0209148Y0295379D02*
X0215197Y0295379D01*
X0218196Y0298378D02*
X0212146Y0298378D01*
X0215145Y0301376D02*
X0221194Y0301376D01*
X0223261Y0304375D02*
X0218143Y0304375D01*
X0221142Y0307373D02*
X0224503Y0307373D01*
X0224140Y0310372D02*
X0228104Y0310372D01*
X0222500Y0317500D02*
X0237500Y0317500D01*
X0247500Y0307500D01*
X0247500Y0292500D01*
X0277500Y0292500D01*
X0302500Y0317500D01*
X0302500Y0337500D01*
X0302500Y0377500D01*
X0297500Y0382500D01*
X0277500Y0382500D01*
X0273116Y0386884D01*
X0268732Y0382500D01*
X0242500Y0382500D01*
X0247614Y0376300D02*
X0269965Y0376300D01*
X0272244Y0377244D01*
X0273116Y0378116D01*
X0273988Y0377244D01*
X0276267Y0376300D01*
X0291821Y0376300D01*
X0292742Y0375379D01*
X0295829Y0374100D01*
X0296300Y0374100D01*
X0296300Y0343179D01*
X0295379Y0342258D01*
X0294100Y0339171D01*
X0294100Y0335829D01*
X0295379Y0332742D01*
X0296300Y0331821D01*
X0296300Y0320068D01*
X0274932Y0298700D01*
X0271072Y0298700D01*
X0271844Y0300562D01*
X0271844Y0304123D01*
X0270481Y0307412D01*
X0269700Y0308193D01*
X0269700Y0324518D01*
X0274361Y0329179D01*
X0277258Y0330379D01*
X0279621Y0332742D01*
X0280900Y0335829D01*
X0280900Y0339171D01*
X0279621Y0342258D01*
X0277258Y0344621D01*
X0274171Y0345900D01*
X0270829Y0345900D01*
X0267742Y0344621D01*
X0266821Y0343700D01*
X0265068Y0343700D01*
X0238700Y0370068D01*
X0238700Y0375415D01*
X0240909Y0374500D01*
X0244091Y0374500D01*
X0247032Y0375718D01*
X0247614Y0376300D01*
X0238700Y0373341D02*
X0296300Y0373341D01*
X0296300Y0370342D02*
X0238700Y0370342D01*
X0241424Y0367344D02*
X0296300Y0367344D01*
X0296300Y0364345D02*
X0244423Y0364345D01*
X0247421Y0361347D02*
X0296300Y0361347D01*
X0296300Y0358348D02*
X0250420Y0358348D01*
X0253418Y0355350D02*
X0296300Y0355350D01*
X0296300Y0352351D02*
X0256417Y0352351D01*
X0259415Y0349353D02*
X0296300Y0349353D01*
X0296300Y0346354D02*
X0262414Y0346354D01*
X0262500Y0337500D02*
X0272500Y0337500D01*
X0280291Y0334360D02*
X0294709Y0334360D01*
X0294100Y0337359D02*
X0280900Y0337359D01*
X0280409Y0340357D02*
X0294591Y0340357D01*
X0296300Y0343356D02*
X0278524Y0343356D01*
X0278241Y0331362D02*
X0296300Y0331362D01*
X0296300Y0328363D02*
X0273545Y0328363D01*
X0270547Y0325365D02*
X0296300Y0325365D01*
X0296300Y0322366D02*
X0269700Y0322366D01*
X0269700Y0319368D02*
X0295599Y0319368D01*
X0292601Y0316369D02*
X0269700Y0316369D01*
X0269700Y0313370D02*
X0289602Y0313370D01*
X0286604Y0310372D02*
X0269700Y0310372D01*
X0270497Y0307373D02*
X0283605Y0307373D01*
X0280607Y0304375D02*
X0271739Y0304375D01*
X0271844Y0301376D02*
X0277608Y0301376D01*
X0259466Y0274390D02*
X0235534Y0274390D01*
X0228679Y0274390D02*
X0214700Y0274390D01*
X0217571Y0277388D02*
X0224718Y0277388D01*
X0223359Y0280387D02*
X0220569Y0280387D01*
X0231790Y0291607D02*
X0233575Y0293393D01*
X0233887Y0293393D01*
X0237176Y0294755D01*
X0239694Y0297273D01*
X0241056Y0300562D01*
X0241056Y0304123D01*
X0240312Y0305920D01*
X0241300Y0304932D01*
X0241300Y0291267D01*
X0241884Y0289857D01*
X0237564Y0289857D01*
X0237176Y0290245D01*
X0233887Y0291607D01*
X0231790Y0291607D01*
X0232563Y0292381D02*
X0241300Y0292381D01*
X0241300Y0295379D02*
X0237800Y0295379D01*
X0240152Y0298378D02*
X0241300Y0298378D01*
X0241300Y0301376D02*
X0241056Y0301376D01*
X0240952Y0304375D02*
X0241300Y0304375D01*
X0250398Y0313370D02*
X0255300Y0313370D01*
X0255300Y0310372D02*
X0253021Y0310372D01*
X0252756Y0311012D02*
X0251012Y0312756D01*
X0241012Y0322756D01*
X0238733Y0323700D01*
X0228700Y0323700D01*
X0228700Y0331821D01*
X0229621Y0332742D01*
X0230900Y0335829D01*
X0230900Y0339171D01*
X0229621Y0342258D01*
X0227258Y0344621D01*
X0224171Y0345900D01*
X0220829Y0345900D01*
X0217742Y0344621D01*
X0215379Y0342258D01*
X0214100Y0339171D01*
X0214100Y0335829D01*
X0215379Y0332742D01*
X0216300Y0331821D01*
X0216300Y0320068D01*
X0194932Y0298700D01*
X0191072Y0298700D01*
X0191844Y0300562D01*
X0191844Y0304123D01*
X0190481Y0307412D01*
X0189700Y0308193D01*
X0189700Y0324518D01*
X0194361Y0329179D01*
X0197258Y0330379D01*
X0199621Y0332742D01*
X0200900Y0335829D01*
X0200900Y0337132D01*
X0227500Y0363732D01*
X0257244Y0333988D01*
X0258025Y0333207D01*
X0256396Y0331578D01*
X0255300Y0328932D01*
X0255300Y0307397D01*
X0253944Y0304123D01*
X0253944Y0300562D01*
X0254715Y0298700D01*
X0253700Y0298700D01*
X0253700Y0308733D01*
X0252756Y0311012D01*
X0253700Y0307373D02*
X0255290Y0307373D01*
X0254048Y0304375D02*
X0253700Y0304375D01*
X0253700Y0301376D02*
X0253944Y0301376D01*
X0255300Y0316369D02*
X0247399Y0316369D01*
X0244401Y0319368D02*
X0255300Y0319368D01*
X0255300Y0322366D02*
X0241402Y0322366D01*
X0228700Y0325365D02*
X0255300Y0325365D01*
X0255300Y0328363D02*
X0228700Y0328363D01*
X0228700Y0331362D02*
X0256306Y0331362D01*
X0256872Y0334360D02*
X0230291Y0334360D01*
X0230900Y0337359D02*
X0253873Y0337359D01*
X0250875Y0340357D02*
X0230409Y0340357D01*
X0228524Y0343356D02*
X0247876Y0343356D01*
X0244878Y0346354D02*
X0210122Y0346354D01*
X0207124Y0343356D02*
X0216476Y0343356D01*
X0214591Y0340357D02*
X0204125Y0340357D01*
X0201127Y0337359D02*
X0214100Y0337359D01*
X0214709Y0334360D02*
X0200291Y0334360D01*
X0198241Y0331362D02*
X0216300Y0331362D01*
X0216300Y0328363D02*
X0193545Y0328363D01*
X0190547Y0325365D02*
X0216300Y0325365D01*
X0216300Y0322366D02*
X0189700Y0322366D01*
X0189700Y0319368D02*
X0215599Y0319368D01*
X0212601Y0316369D02*
X0189700Y0316369D01*
X0189700Y0313370D02*
X0209602Y0313370D01*
X0206604Y0310372D02*
X0189700Y0310372D01*
X0190497Y0307373D02*
X0203605Y0307373D01*
X0200607Y0304375D02*
X0191739Y0304375D01*
X0191844Y0301376D02*
X0197608Y0301376D01*
X0197500Y0292500D02*
X0222500Y0317500D01*
X0222500Y0337500D01*
X0213121Y0349353D02*
X0241879Y0349353D01*
X0238881Y0352351D02*
X0216119Y0352351D01*
X0219118Y0355350D02*
X0235882Y0355350D01*
X0232884Y0358348D02*
X0222116Y0358348D01*
X0225115Y0361347D02*
X0229885Y0361347D01*
X0232500Y0367500D02*
X0262500Y0337500D01*
X0270060Y0376339D02*
X0276172Y0376339D01*
X0273116Y0386884D02*
X0272500Y0387500D01*
X0278524Y0391800D02*
X0279800Y0390524D01*
X0279800Y0388968D01*
X0280068Y0388700D01*
X0289982Y0388700D01*
X0289100Y0390829D01*
X0289100Y0391800D01*
X0278524Y0391800D01*
X0278992Y0391332D02*
X0289100Y0391332D01*
X0252500Y0402500D02*
X0157500Y0402500D01*
X0152500Y0407500D01*
X0152500Y0412500D01*
X0147005Y0418318D02*
X0135450Y0418318D01*
X0132756Y0421012D02*
X0132756Y0421012D01*
X0131012Y0422756D01*
X0128733Y0423700D01*
X0077468Y0423700D01*
X0080068Y0426300D01*
X0149932Y0426300D01*
X0156300Y0419932D01*
X0156300Y0419585D01*
X0154091Y0420500D01*
X0150909Y0420500D01*
X0147968Y0419282D01*
X0145718Y0417032D01*
X0144500Y0414091D01*
X0144500Y0410909D01*
X0145660Y0408108D01*
X0132756Y0421012D01*
X0132451Y0421317D02*
X0154915Y0421317D01*
X0151916Y0424315D02*
X0078084Y0424315D01*
X0077500Y0417500D02*
X0127500Y0417500D01*
X0152500Y0392500D01*
X0152500Y0382500D01*
X0146300Y0389547D02*
X0145216Y0388462D01*
X0144500Y0386735D01*
X0144500Y0378265D01*
X0145216Y0376538D01*
X0146538Y0375216D01*
X0148265Y0374500D01*
X0152300Y0374500D01*
X0152300Y0373700D01*
X0103700Y0373700D01*
X0103700Y0386821D01*
X0104621Y0387742D01*
X0105900Y0390829D01*
X0105900Y0394171D01*
X0104621Y0397258D01*
X0104379Y0397500D01*
X0104621Y0397742D01*
X0105900Y0400829D01*
X0105900Y0404171D01*
X0104621Y0407258D01*
X0102258Y0409621D01*
X0099171Y0410900D01*
X0095829Y0410900D01*
X0092742Y0409621D01*
X0092500Y0409379D01*
X0092258Y0409621D01*
X0089171Y0410900D01*
X0085829Y0410900D01*
X0083700Y0410018D01*
X0083700Y0411300D01*
X0124932Y0411300D01*
X0146300Y0389932D01*
X0146300Y0389547D01*
X0145162Y0388333D02*
X0104866Y0388333D01*
X0105900Y0391332D02*
X0144900Y0391332D01*
X0141902Y0394330D02*
X0105834Y0394330D01*
X0104551Y0397329D02*
X0138903Y0397329D01*
X0135905Y0400327D02*
X0105692Y0400327D01*
X0105900Y0403326D02*
X0132906Y0403326D01*
X0129908Y0406324D02*
X0105008Y0406324D01*
X0102557Y0409323D02*
X0126909Y0409323D01*
X0138448Y0415320D02*
X0145009Y0415320D01*
X0144500Y0412321D02*
X0141447Y0412321D01*
X0144445Y0409323D02*
X0145157Y0409323D01*
X0162500Y0412500D02*
X0162500Y0422500D01*
X0152500Y0432500D01*
X0077500Y0432500D01*
X0067500Y0422500D01*
X0067500Y0402500D01*
X0067500Y0392500D02*
X0057500Y0392500D01*
X0057500Y0377500D01*
X0012500Y0332500D01*
X0012500Y0292500D01*
X0037500Y0292500D01*
X0062500Y0317500D01*
X0072500Y0317500D01*
X0087500Y0302500D01*
X0087500Y0292500D01*
X0117500Y0292500D01*
X0142500Y0317500D01*
X0157500Y0317500D01*
X0172500Y0302500D01*
X0172500Y0292500D01*
X0197500Y0292500D01*
X0179466Y0274390D02*
X0155534Y0274390D01*
X0148679Y0274390D02*
X0134700Y0274390D01*
X0137571Y0277388D02*
X0144718Y0277388D01*
X0143359Y0280387D02*
X0140569Y0280387D01*
X0129200Y0289382D02*
X0123151Y0289382D01*
X0126149Y0292381D02*
X0132199Y0292381D01*
X0135197Y0295379D02*
X0129148Y0295379D01*
X0132146Y0298378D02*
X0138196Y0298378D01*
X0141194Y0301376D02*
X0135145Y0301376D01*
X0138143Y0304375D02*
X0143261Y0304375D01*
X0144503Y0307373D02*
X0141142Y0307373D01*
X0144140Y0310372D02*
X0148104Y0310372D01*
X0142500Y0317500D02*
X0142500Y0337500D01*
X0148700Y0331821D02*
X0149621Y0332742D01*
X0150900Y0335829D01*
X0150900Y0339171D01*
X0150018Y0341300D01*
X0183733Y0341300D01*
X0185241Y0341924D01*
X0184179Y0339361D01*
X0178422Y0333604D01*
X0176396Y0331578D01*
X0175300Y0328932D01*
X0175300Y0308468D01*
X0161012Y0322756D01*
X0158733Y0323700D01*
X0156267Y0323700D01*
X0148700Y0323700D01*
X0148700Y0331821D01*
X0148700Y0331362D02*
X0176306Y0331362D01*
X0175300Y0328363D02*
X0148700Y0328363D01*
X0148700Y0325365D02*
X0175300Y0325365D01*
X0175300Y0322366D02*
X0161402Y0322366D01*
X0164401Y0319368D02*
X0175300Y0319368D01*
X0175300Y0316369D02*
X0167399Y0316369D01*
X0170398Y0313370D02*
X0175300Y0313370D01*
X0175300Y0310372D02*
X0173396Y0310372D01*
X0164855Y0301376D02*
X0161056Y0301376D01*
X0161056Y0300562D02*
X0161056Y0304123D01*
X0160312Y0305920D01*
X0166300Y0299932D01*
X0166300Y0291267D01*
X0166884Y0289857D01*
X0157564Y0289857D01*
X0157176Y0290245D01*
X0153887Y0291607D01*
X0151790Y0291607D01*
X0153575Y0293393D01*
X0153887Y0293393D01*
X0157176Y0294755D01*
X0159694Y0297273D01*
X0161056Y0300562D01*
X0160152Y0298378D02*
X0166300Y0298378D01*
X0166300Y0295379D02*
X0157800Y0295379D01*
X0152563Y0292381D02*
X0166300Y0292381D01*
X0161857Y0304375D02*
X0160952Y0304375D01*
X0136300Y0320068D02*
X0114932Y0298700D01*
X0111072Y0298700D01*
X0111844Y0300562D01*
X0111844Y0304123D01*
X0110481Y0307412D01*
X0109700Y0308193D01*
X0109700Y0324518D01*
X0114361Y0329179D01*
X0117258Y0330379D01*
X0119621Y0332742D01*
X0120900Y0335829D01*
X0120900Y0337132D01*
X0125068Y0341300D01*
X0134982Y0341300D01*
X0134100Y0339171D01*
X0134100Y0335829D01*
X0135379Y0332742D01*
X0136300Y0331821D01*
X0136300Y0320068D01*
X0135599Y0319368D02*
X0109700Y0319368D01*
X0109700Y0322366D02*
X0136300Y0322366D01*
X0136300Y0325365D02*
X0110547Y0325365D01*
X0113545Y0328363D02*
X0136300Y0328363D01*
X0136300Y0331362D02*
X0118241Y0331362D01*
X0120291Y0334360D02*
X0134709Y0334360D01*
X0134100Y0337359D02*
X0121127Y0337359D01*
X0124125Y0340357D02*
X0134591Y0340357D01*
X0122500Y0347500D02*
X0112500Y0337500D01*
X0106476Y0343356D02*
X0068524Y0343356D01*
X0069621Y0342258D02*
X0067258Y0344621D01*
X0064171Y0345900D01*
X0060829Y0345900D01*
X0057742Y0344621D01*
X0055379Y0342258D01*
X0054100Y0339171D01*
X0054100Y0335829D01*
X0055379Y0332742D01*
X0056300Y0331821D01*
X0056300Y0320068D01*
X0034932Y0298700D01*
X0031072Y0298700D01*
X0031844Y0300562D01*
X0031844Y0304123D01*
X0030481Y0307412D01*
X0029700Y0308193D01*
X0029700Y0324518D01*
X0034361Y0329179D01*
X0037258Y0330379D01*
X0039621Y0332742D01*
X0040900Y0335829D01*
X0040900Y0337132D01*
X0055068Y0351300D01*
X0117532Y0351300D01*
X0112132Y0345900D01*
X0110829Y0345900D01*
X0107742Y0344621D01*
X0105379Y0342258D01*
X0104179Y0339361D01*
X0098422Y0333604D01*
X0096396Y0331578D01*
X0095300Y0328932D01*
X0095300Y0307397D01*
X0093944Y0304123D01*
X0093944Y0300562D01*
X0094715Y0298700D01*
X0093700Y0298700D01*
X0093700Y0303733D01*
X0092756Y0306012D01*
X0091012Y0307756D01*
X0076012Y0322756D01*
X0073733Y0323700D01*
X0068700Y0323700D01*
X0068700Y0331821D01*
X0069621Y0332742D01*
X0070900Y0335829D01*
X0070900Y0339171D01*
X0069621Y0342258D01*
X0070409Y0340357D02*
X0104591Y0340357D01*
X0102176Y0337359D02*
X0070900Y0337359D01*
X0070291Y0334360D02*
X0099178Y0334360D01*
X0096306Y0331362D02*
X0068700Y0331362D01*
X0068700Y0328363D02*
X0095300Y0328363D01*
X0095300Y0325365D02*
X0068700Y0325365D01*
X0076402Y0322366D02*
X0095300Y0322366D01*
X0095300Y0319368D02*
X0079401Y0319368D01*
X0082399Y0316369D02*
X0095300Y0316369D01*
X0095300Y0313370D02*
X0085398Y0313370D01*
X0088396Y0310372D02*
X0095300Y0310372D01*
X0095290Y0307373D02*
X0091395Y0307373D01*
X0093434Y0304375D02*
X0094048Y0304375D01*
X0093944Y0301376D02*
X0093700Y0301376D01*
X0081300Y0299932D02*
X0081300Y0291267D01*
X0081884Y0289857D01*
X0077563Y0289857D01*
X0077176Y0290245D01*
X0073887Y0291607D01*
X0071790Y0291607D01*
X0073575Y0293393D01*
X0073887Y0293393D01*
X0077176Y0294755D01*
X0079694Y0297273D01*
X0080943Y0300289D01*
X0081300Y0299932D01*
X0081300Y0298378D02*
X0080152Y0298378D01*
X0081300Y0295379D02*
X0077800Y0295379D01*
X0081300Y0292381D02*
X0072563Y0292381D01*
X0063261Y0304375D02*
X0058143Y0304375D01*
X0055145Y0301376D02*
X0061194Y0301376D01*
X0058196Y0298378D02*
X0052146Y0298378D01*
X0049148Y0295379D02*
X0055197Y0295379D01*
X0052199Y0292381D02*
X0046149Y0292381D01*
X0043151Y0289382D02*
X0049200Y0289382D01*
X0046202Y0286384D02*
X0038936Y0286384D01*
X0043203Y0283385D02*
X0031844Y0283385D01*
X0031641Y0280387D02*
X0040903Y0280387D01*
X0040300Y0277388D02*
X0030282Y0277388D01*
X0026321Y0274390D02*
X0040300Y0274390D01*
X0054700Y0274390D02*
X0068679Y0274390D01*
X0064718Y0277388D02*
X0057571Y0277388D01*
X0060569Y0280387D02*
X0063359Y0280387D01*
X0054700Y0271391D02*
X0120300Y0271391D01*
X0120300Y0268393D02*
X0054700Y0268393D01*
X0054700Y0265394D02*
X0120300Y0265394D01*
X0120300Y0262396D02*
X0054700Y0262396D01*
X0054700Y0259397D02*
X0120300Y0259397D01*
X0120300Y0256399D02*
X0054700Y0256399D01*
X0054700Y0253400D02*
X0120300Y0253400D01*
X0120300Y0250402D02*
X0054700Y0250402D01*
X0054700Y0247403D02*
X0120300Y0247403D01*
X0120300Y0244405D02*
X0054700Y0244405D01*
X0054700Y0241406D02*
X0120300Y0241406D01*
X0120300Y0238408D02*
X0054700Y0238408D01*
X0054700Y0235409D02*
X0120300Y0235409D01*
X0120300Y0232411D02*
X0054700Y0232411D01*
X0040300Y0229412D02*
X0028481Y0229412D01*
X0030895Y0226414D02*
X0040300Y0226414D01*
X0040300Y0223415D02*
X0031844Y0223415D01*
X0031783Y0220417D02*
X0040300Y0220417D01*
X0040300Y0217418D02*
X0030541Y0217418D01*
X0027154Y0214420D02*
X0040300Y0214420D01*
X0054700Y0214420D02*
X0067846Y0214420D01*
X0069876Y0211421D02*
X0054700Y0211421D01*
X0054700Y0208423D02*
X0065214Y0208423D01*
X0064519Y0207727D02*
X0063156Y0204438D01*
X0063156Y0200877D01*
X0064519Y0197588D01*
X0067037Y0195070D01*
X0070326Y0193707D01*
X0073887Y0193707D01*
X0077176Y0195070D01*
X0077563Y0195457D01*
X0097436Y0195457D01*
X0097824Y0195070D01*
X0101113Y0193707D01*
X0104674Y0193707D01*
X0107963Y0195070D01*
X0110481Y0197588D01*
X0111844Y0200877D01*
X0111844Y0204438D01*
X0110481Y0207727D01*
X0107963Y0210245D01*
X0104674Y0211607D01*
X0101113Y0211607D01*
X0097824Y0210245D01*
X0097436Y0209857D01*
X0077563Y0209857D01*
X0077176Y0210245D01*
X0073887Y0211607D01*
X0070326Y0211607D01*
X0067037Y0210245D01*
X0064519Y0207727D01*
X0063565Y0205424D02*
X0054700Y0205424D01*
X0054700Y0202426D02*
X0063156Y0202426D01*
X0063757Y0199427D02*
X0054700Y0199427D01*
X0054700Y0196429D02*
X0065678Y0196429D01*
X0054700Y0193430D02*
X0120300Y0193430D01*
X0120300Y0190432D02*
X0054700Y0190432D01*
X0054700Y0187433D02*
X0120300Y0187433D01*
X0120300Y0184434D02*
X0054700Y0184434D01*
X0054700Y0181436D02*
X0120300Y0181436D01*
X0120300Y0178437D02*
X0054700Y0178437D01*
X0054700Y0175439D02*
X0120300Y0175439D01*
X0120300Y0172440D02*
X0054700Y0172440D01*
X0054700Y0169442D02*
X0120300Y0169442D01*
X0120300Y0166443D02*
X0054700Y0166443D01*
X0054700Y0163445D02*
X0120300Y0163445D01*
X0120300Y0160446D02*
X0054700Y0160446D01*
X0054700Y0157448D02*
X0120300Y0157448D01*
X0120300Y0154449D02*
X0054700Y0154449D01*
X0054700Y0151451D02*
X0120300Y0151451D01*
X0120300Y0148452D02*
X0109441Y0148452D01*
X0110481Y0147412D02*
X0107963Y0149930D01*
X0104674Y0151293D01*
X0101113Y0151293D01*
X0097824Y0149930D01*
X0095306Y0147412D01*
X0093944Y0144123D01*
X0093944Y0140562D01*
X0095306Y0137273D01*
X0097824Y0134755D01*
X0101113Y0133393D01*
X0104674Y0133393D01*
X0107963Y0134755D01*
X0110481Y0137273D01*
X0111844Y0140562D01*
X0111844Y0144123D01*
X0110481Y0147412D01*
X0111292Y0145454D02*
X0120300Y0145454D01*
X0120300Y0142455D02*
X0111844Y0142455D01*
X0111386Y0139457D02*
X0120300Y0139457D01*
X0120300Y0136458D02*
X0109667Y0136458D01*
X0107441Y0130461D02*
X0120300Y0130461D01*
X0120300Y0127463D02*
X0110591Y0127463D01*
X0110481Y0127727D02*
X0107963Y0130245D01*
X0104674Y0131607D01*
X0101113Y0131607D01*
X0097824Y0130245D01*
X0097436Y0129857D01*
X0077563Y0129857D01*
X0077176Y0130245D01*
X0073887Y0131607D01*
X0070326Y0131607D01*
X0067037Y0130245D01*
X0064519Y0127727D01*
X0063156Y0124438D01*
X0063156Y0120877D01*
X0064519Y0117588D01*
X0067037Y0115070D01*
X0070326Y0113707D01*
X0073887Y0113707D01*
X0077176Y0115070D01*
X0077563Y0115457D01*
X0097436Y0115457D01*
X0097824Y0115070D01*
X0101113Y0113707D01*
X0104674Y0113707D01*
X0107963Y0115070D01*
X0110481Y0117588D01*
X0111844Y0120877D01*
X0111844Y0124438D01*
X0110481Y0127727D01*
X0111833Y0124464D02*
X0120300Y0124464D01*
X0120300Y0121466D02*
X0111844Y0121466D01*
X0110845Y0118467D02*
X0120300Y0118467D01*
X0120300Y0115469D02*
X0108362Y0115469D01*
X0120300Y0112470D02*
X0054700Y0112470D01*
X0054700Y0109472D02*
X0120300Y0109472D01*
X0120300Y0106473D02*
X0054700Y0106473D01*
X0054700Y0103475D02*
X0120300Y0103475D01*
X0120300Y0100476D02*
X0054700Y0100476D01*
X0054700Y0097478D02*
X0120300Y0097478D01*
X0120300Y0094479D02*
X0054700Y0094479D01*
X0054700Y0091481D02*
X0120300Y0091481D01*
X0120300Y0088482D02*
X0056149Y0088482D01*
X0059148Y0085484D02*
X0120314Y0085484D01*
X0121781Y0082485D02*
X0062146Y0082485D01*
X0065145Y0079487D02*
X0124780Y0079487D01*
X0127778Y0076488D02*
X0068143Y0076488D01*
X0071142Y0073490D02*
X0130777Y0073490D01*
X0099179Y0034509D02*
X0075821Y0034509D01*
X0068391Y0034509D02*
X0026609Y0034509D01*
X0027963Y0035070D02*
X0030481Y0037588D01*
X0031844Y0040877D01*
X0031844Y0044438D01*
X0030481Y0047727D01*
X0027963Y0050245D01*
X0024674Y0051607D01*
X0021113Y0051607D01*
X0017824Y0050245D01*
X0015306Y0047727D01*
X0013944Y0044438D01*
X0013944Y0040877D01*
X0015306Y0037588D01*
X0017824Y0035070D01*
X0021113Y0033707D01*
X0024674Y0033707D01*
X0027963Y0035070D01*
X0030401Y0037507D02*
X0064599Y0037507D01*
X0063310Y0040506D02*
X0031690Y0040506D01*
X0031844Y0043504D02*
X0063156Y0043504D01*
X0064012Y0046503D02*
X0030988Y0046503D01*
X0028707Y0049501D02*
X0066293Y0049501D01*
X0066293Y0055499D02*
X0028707Y0055499D01*
X0030988Y0058497D02*
X0064012Y0058497D01*
X0062771Y0061496D02*
X0031844Y0061496D01*
X0031690Y0064494D02*
X0059772Y0064494D01*
X0056774Y0067493D02*
X0030401Y0067493D01*
X0026609Y0070491D02*
X0053775Y0070491D01*
X0019179Y0034509D02*
X0009500Y0034509D01*
X0009500Y0037507D02*
X0015387Y0037507D01*
X0014097Y0040506D02*
X0009500Y0040506D01*
X0009500Y0043504D02*
X0013944Y0043504D01*
X0014799Y0046503D02*
X0009500Y0046503D01*
X0009500Y0049501D02*
X0017080Y0049501D01*
X0009500Y0031510D02*
X0355500Y0031510D01*
X0355500Y0028512D02*
X0009500Y0028512D01*
X0009500Y0025513D02*
X0355500Y0025513D01*
X0355500Y0022515D02*
X0009500Y0022515D01*
X0009500Y0019516D02*
X0355500Y0019516D01*
X0355500Y0016518D02*
X0009500Y0016518D01*
X0009500Y0013519D02*
X0355500Y0013519D01*
X0355500Y0010521D02*
X0009500Y0010521D01*
X0028362Y0115469D02*
X0040300Y0115469D01*
X0040300Y0118467D02*
X0030845Y0118467D01*
X0031844Y0121466D02*
X0040300Y0121466D01*
X0040300Y0124464D02*
X0031833Y0124464D01*
X0030591Y0127463D02*
X0040300Y0127463D01*
X0040300Y0130461D02*
X0027441Y0130461D01*
X0024836Y0133460D02*
X0040300Y0133460D01*
X0040300Y0136458D02*
X0029667Y0136458D01*
X0031386Y0139457D02*
X0040300Y0139457D01*
X0040300Y0142455D02*
X0031844Y0142455D01*
X0031292Y0145454D02*
X0040300Y0145454D01*
X0040300Y0148452D02*
X0029441Y0148452D01*
X0054700Y0133460D02*
X0070164Y0133460D01*
X0074049Y0133460D02*
X0100951Y0133460D01*
X0104836Y0133460D02*
X0120300Y0133460D01*
X0098346Y0130461D02*
X0076654Y0130461D01*
X0078879Y0136458D02*
X0096121Y0136458D01*
X0094402Y0139457D02*
X0080598Y0139457D01*
X0081056Y0142455D02*
X0093944Y0142455D01*
X0094495Y0145454D02*
X0080505Y0145454D01*
X0078654Y0148452D02*
X0096346Y0148452D01*
X0067559Y0130461D02*
X0054700Y0130461D01*
X0054700Y0127463D02*
X0064409Y0127463D01*
X0063167Y0124464D02*
X0054700Y0124464D01*
X0054700Y0121466D02*
X0063156Y0121466D01*
X0064155Y0118467D02*
X0054700Y0118467D01*
X0054700Y0115469D02*
X0066638Y0115469D01*
X0109322Y0196429D02*
X0120300Y0196429D01*
X0120300Y0199427D02*
X0111243Y0199427D01*
X0111844Y0202426D02*
X0120300Y0202426D01*
X0120300Y0205424D02*
X0111435Y0205424D01*
X0109786Y0208423D02*
X0120300Y0208423D01*
X0120300Y0211421D02*
X0105124Y0211421D01*
X0104674Y0213393D02*
X0107963Y0214755D01*
X0110481Y0217273D01*
X0111844Y0220562D01*
X0111844Y0224123D01*
X0110481Y0227412D01*
X0107963Y0229930D01*
X0104674Y0231293D01*
X0101113Y0231293D01*
X0097824Y0229930D01*
X0095306Y0227412D01*
X0093944Y0224123D01*
X0093944Y0220562D01*
X0095306Y0217273D01*
X0097824Y0214755D01*
X0101113Y0213393D01*
X0104674Y0213393D01*
X0107154Y0214420D02*
X0120300Y0214420D01*
X0120300Y0217418D02*
X0110541Y0217418D01*
X0111783Y0220417D02*
X0120300Y0220417D01*
X0120300Y0223415D02*
X0111844Y0223415D01*
X0110895Y0226414D02*
X0120300Y0226414D01*
X0120300Y0229412D02*
X0108481Y0229412D01*
X0097306Y0229412D02*
X0077694Y0229412D01*
X0080107Y0226414D02*
X0094893Y0226414D01*
X0093944Y0223415D02*
X0081056Y0223415D01*
X0080996Y0220417D02*
X0094004Y0220417D01*
X0095246Y0217418D02*
X0079754Y0217418D01*
X0076366Y0214420D02*
X0098634Y0214420D01*
X0100663Y0211421D02*
X0074337Y0211421D01*
X0075534Y0274390D02*
X0099466Y0274390D01*
X0106321Y0274390D02*
X0120300Y0274390D01*
X0120300Y0277388D02*
X0110282Y0277388D01*
X0111641Y0280387D02*
X0120903Y0280387D01*
X0123203Y0283385D02*
X0111844Y0283385D01*
X0118936Y0286384D02*
X0126202Y0286384D01*
X0117608Y0301376D02*
X0111844Y0301376D01*
X0111739Y0304375D02*
X0120607Y0304375D01*
X0123605Y0307373D02*
X0110497Y0307373D01*
X0109700Y0310372D02*
X0126604Y0310372D01*
X0129602Y0313370D02*
X0109700Y0313370D01*
X0109700Y0316369D02*
X0132601Y0316369D01*
X0150291Y0334360D02*
X0179178Y0334360D01*
X0182176Y0337359D02*
X0150900Y0337359D01*
X0150409Y0340357D02*
X0184591Y0340357D01*
X0188847Y0345079D02*
X0216300Y0372532D01*
X0216300Y0370068D01*
X0192132Y0345900D01*
X0190829Y0345900D01*
X0188847Y0345079D01*
X0190122Y0346354D02*
X0192586Y0346354D01*
X0193121Y0349353D02*
X0195585Y0349353D01*
X0196119Y0352351D02*
X0198583Y0352351D01*
X0199118Y0355350D02*
X0201582Y0355350D01*
X0202116Y0358348D02*
X0204580Y0358348D01*
X0205115Y0361347D02*
X0207579Y0361347D01*
X0208113Y0364345D02*
X0210577Y0364345D01*
X0211112Y0367344D02*
X0213576Y0367344D01*
X0214110Y0370342D02*
X0216300Y0370342D01*
X0222500Y0367500D02*
X0192500Y0337500D01*
X0182500Y0347500D02*
X0212500Y0377500D01*
X0212500Y0382500D01*
X0222500Y0382500D02*
X0222500Y0367500D01*
X0232500Y0367500D02*
X0232500Y0382500D01*
X0202500Y0382500D02*
X0202500Y0377500D01*
X0182500Y0357500D01*
X0052500Y0357500D01*
X0032500Y0337500D01*
X0038241Y0331362D02*
X0056300Y0331362D01*
X0056300Y0328363D02*
X0033545Y0328363D01*
X0030547Y0325365D02*
X0056300Y0325365D01*
X0056300Y0322366D02*
X0029700Y0322366D01*
X0029700Y0319368D02*
X0055599Y0319368D01*
X0052601Y0316369D02*
X0029700Y0316369D01*
X0029700Y0313370D02*
X0049602Y0313370D01*
X0046604Y0310372D02*
X0029700Y0310372D01*
X0030497Y0307373D02*
X0043605Y0307373D01*
X0040607Y0304375D02*
X0031739Y0304375D01*
X0031844Y0301376D02*
X0037608Y0301376D01*
X0061142Y0307373D02*
X0064503Y0307373D01*
X0064140Y0310372D02*
X0068104Y0310372D01*
X0062500Y0317500D02*
X0062500Y0337500D01*
X0056476Y0343356D02*
X0047124Y0343356D01*
X0050122Y0346354D02*
X0112586Y0346354D01*
X0115585Y0349353D02*
X0053121Y0349353D01*
X0054591Y0340357D02*
X0044125Y0340357D01*
X0041127Y0337359D02*
X0054100Y0337359D01*
X0054709Y0334360D02*
X0040291Y0334360D01*
X0023583Y0352351D02*
X0009500Y0352351D01*
X0009500Y0349353D02*
X0020585Y0349353D01*
X0017586Y0346354D02*
X0009500Y0346354D01*
X0009500Y0343356D02*
X0014587Y0343356D01*
X0011589Y0340357D02*
X0009500Y0340357D01*
X0009500Y0338268D02*
X0009500Y0445500D01*
X0061732Y0445500D01*
X0043988Y0427756D01*
X0042244Y0426012D01*
X0041300Y0423733D01*
X0041300Y0396267D01*
X0042244Y0393988D01*
X0043988Y0392244D01*
X0046267Y0391300D01*
X0048733Y0391300D01*
X0049100Y0391452D01*
X0049100Y0390829D01*
X0050379Y0387742D01*
X0051300Y0386821D01*
X0051300Y0380068D01*
X0009500Y0338268D01*
X0009500Y0355350D02*
X0026582Y0355350D01*
X0029580Y0358348D02*
X0009500Y0358348D01*
X0009500Y0361347D02*
X0032579Y0361347D01*
X0035577Y0364345D02*
X0009500Y0364345D01*
X0009500Y0367344D02*
X0038576Y0367344D01*
X0041574Y0370342D02*
X0009500Y0370342D01*
X0009500Y0373341D02*
X0044573Y0373341D01*
X0047571Y0376339D02*
X0009500Y0376339D01*
X0009500Y0379338D02*
X0050570Y0379338D01*
X0051300Y0382336D02*
X0009500Y0382336D01*
X0009500Y0385335D02*
X0051300Y0385335D01*
X0050134Y0388333D02*
X0009500Y0388333D01*
X0009500Y0391332D02*
X0046190Y0391332D01*
X0048810Y0391332D02*
X0049100Y0391332D01*
X0047500Y0397500D02*
X0047500Y0422500D01*
X0067500Y0442500D01*
X0162500Y0442500D01*
X0182500Y0422500D01*
X0182500Y0412500D01*
X0188700Y0419585D02*
X0188700Y0423733D01*
X0187756Y0426012D01*
X0168268Y0445500D01*
X0226732Y0445500D01*
X0201732Y0420500D01*
X0200909Y0420500D01*
X0197968Y0419282D01*
X0197500Y0418814D01*
X0197032Y0419282D01*
X0194091Y0420500D01*
X0190909Y0420500D01*
X0188700Y0419585D01*
X0188700Y0421317D02*
X0202549Y0421317D01*
X0205547Y0424315D02*
X0188459Y0424315D01*
X0186454Y0427314D02*
X0208546Y0427314D01*
X0211544Y0430312D02*
X0183456Y0430312D01*
X0180457Y0433311D02*
X0214543Y0433311D01*
X0217541Y0436309D02*
X0177459Y0436309D01*
X0174460Y0439308D02*
X0220540Y0439308D01*
X0223538Y0442306D02*
X0171462Y0442306D01*
X0168463Y0445305D02*
X0226537Y0445305D01*
X0232500Y0442500D02*
X0202500Y0412500D01*
X0172500Y0412500D02*
X0172500Y0422500D01*
X0157500Y0437500D01*
X0072500Y0437500D01*
X0057500Y0422500D01*
X0057500Y0402500D01*
X0067500Y0392500D02*
X0077500Y0392500D01*
X0087500Y0392500D01*
X0091300Y0384982D02*
X0089171Y0384100D01*
X0085829Y0384100D01*
X0082742Y0385379D01*
X0082500Y0385621D01*
X0082258Y0385379D01*
X0079171Y0384100D01*
X0075829Y0384100D01*
X0072742Y0385379D01*
X0072500Y0385621D01*
X0072258Y0385379D01*
X0069171Y0384100D01*
X0065829Y0384100D01*
X0063700Y0384982D01*
X0063700Y0378733D01*
X0063700Y0376267D01*
X0062756Y0373988D01*
X0052468Y0363700D01*
X0092532Y0363700D01*
X0092244Y0363988D01*
X0091300Y0366267D01*
X0091300Y0384982D01*
X0091300Y0382336D02*
X0063700Y0382336D01*
X0063700Y0379338D02*
X0091300Y0379338D01*
X0091300Y0376339D02*
X0063700Y0376339D01*
X0062109Y0373341D02*
X0091300Y0373341D01*
X0091300Y0370342D02*
X0059110Y0370342D01*
X0056112Y0367344D02*
X0091300Y0367344D01*
X0092096Y0364345D02*
X0053113Y0364345D01*
X0072152Y0385335D02*
X0072848Y0385335D01*
X0082152Y0385335D02*
X0082848Y0385335D01*
X0097500Y0392500D02*
X0097500Y0367500D01*
X0157500Y0367500D01*
X0163700Y0367344D02*
X0183576Y0367344D01*
X0186574Y0370342D02*
X0163034Y0370342D01*
X0162756Y0371012D02*
X0162700Y0371068D01*
X0162700Y0374500D01*
X0164091Y0374500D01*
X0167032Y0375718D01*
X0167500Y0376186D01*
X0167968Y0375718D01*
X0170909Y0374500D01*
X0174091Y0374500D01*
X0177032Y0375718D01*
X0177500Y0376186D01*
X0177968Y0375718D01*
X0180909Y0374500D01*
X0184091Y0374500D01*
X0187032Y0375718D01*
X0187500Y0376186D01*
X0187968Y0375718D01*
X0190784Y0374552D01*
X0179932Y0363700D01*
X0162468Y0363700D01*
X0162756Y0363988D01*
X0163700Y0366267D01*
X0163700Y0368733D01*
X0162756Y0371012D01*
X0162700Y0373341D02*
X0189573Y0373341D01*
X0180577Y0364345D02*
X0162904Y0364345D01*
X0145414Y0376339D02*
X0103700Y0376339D01*
X0103700Y0379338D02*
X0144500Y0379338D01*
X0144500Y0382336D02*
X0103700Y0382336D01*
X0103700Y0385335D02*
X0144500Y0385335D01*
X0122500Y0347500D02*
X0182500Y0347500D01*
X0232500Y0442500D02*
X0337500Y0442500D01*
X0326300Y0310372D02*
X0316109Y0310372D01*
X0319710Y0307373D02*
X0326300Y0307373D01*
X0325607Y0304375D02*
X0320952Y0304375D01*
X0321056Y0301376D02*
X0322608Y0301376D01*
X0315146Y0293914D02*
X0312839Y0291607D01*
X0311790Y0291607D01*
X0313575Y0293393D01*
X0313887Y0293393D01*
X0315146Y0293914D01*
X0313613Y0292381D02*
X0312563Y0292381D01*
X0322153Y0283385D02*
X0331300Y0283385D01*
X0331300Y0280387D02*
X0320853Y0280387D01*
X0319494Y0277388D02*
X0331300Y0277388D01*
X0331300Y0274390D02*
X0315534Y0274390D01*
X0325152Y0286384D02*
X0331300Y0286384D01*
X0331300Y0289382D02*
X0328150Y0289382D01*
X0331149Y0292381D02*
X0331300Y0292381D01*
X0330644Y0229412D02*
X0317694Y0229412D01*
X0320107Y0226414D02*
X0327646Y0226414D01*
X0324647Y0223415D02*
X0321056Y0223415D01*
X0320996Y0220417D02*
X0321649Y0220417D01*
X0330189Y0211421D02*
X0336300Y0211421D01*
X0336300Y0208423D02*
X0327191Y0208423D01*
X0324192Y0205424D02*
X0336300Y0205424D01*
X0336300Y0202426D02*
X0321194Y0202426D01*
X0320456Y0199427D02*
X0336300Y0199427D01*
X0336300Y0196429D02*
X0318535Y0196429D01*
X0333188Y0214420D02*
X0336300Y0214420D01*
X0336300Y0217418D02*
X0336186Y0217418D01*
X0342500Y0152500D02*
X0312657Y0122657D01*
X0312106Y0122657D01*
X0259179Y0034509D02*
X0235821Y0034509D01*
X0016465Y0196429D02*
X0009500Y0196429D01*
X0009500Y0199427D02*
X0014544Y0199427D01*
X0013944Y0202426D02*
X0009500Y0202426D01*
X0009500Y0205424D02*
X0014352Y0205424D01*
X0016002Y0208423D02*
X0009500Y0208423D01*
X0009500Y0394330D02*
X0042102Y0394330D01*
X0041300Y0397329D02*
X0009500Y0397329D01*
X0009500Y0400327D02*
X0041300Y0400327D01*
X0041300Y0403326D02*
X0009500Y0403326D01*
X0009500Y0406324D02*
X0041300Y0406324D01*
X0041300Y0409323D02*
X0009500Y0409323D01*
X0009500Y0412321D02*
X0041300Y0412321D01*
X0041300Y0415320D02*
X0009500Y0415320D01*
X0009500Y0418318D02*
X0041300Y0418318D01*
X0041300Y0421317D02*
X0009500Y0421317D01*
X0009500Y0424315D02*
X0041541Y0424315D01*
X0043546Y0427314D02*
X0009500Y0427314D01*
X0009500Y0430312D02*
X0046544Y0430312D01*
X0049543Y0433311D02*
X0009500Y0433311D01*
X0009500Y0436309D02*
X0052541Y0436309D01*
X0055540Y0439308D02*
X0009500Y0439308D01*
X0009500Y0442306D02*
X0058538Y0442306D01*
X0061537Y0445305D02*
X0009500Y0445305D01*
X0077500Y0417500D02*
X0077500Y0402500D01*
D16*
X0092500Y0397500D02*
X0097500Y0402500D01*
X0092500Y0397500D02*
X0047500Y0397500D01*
X0157500Y0402500D02*
X0157500Y0367500D01*
X0287500Y0407500D02*
X0287530Y0407500D01*
X0307500Y0407500D01*
D17*
X0272500Y0337500D02*
X0262500Y0327500D01*
X0262500Y0302736D01*
X0262894Y0302343D01*
X0262894Y0282657D02*
X0232106Y0282657D01*
X0232106Y0302106D02*
X0207500Y0277500D01*
X0207500Y0222500D01*
X0207657Y0222343D01*
X0232106Y0222343D01*
X0232106Y0202657D02*
X0262894Y0202657D01*
X0287500Y0220104D02*
X0289738Y0222343D01*
X0312106Y0222343D01*
X0287500Y0220104D02*
X0287500Y0277500D01*
X0312106Y0302106D01*
X0312106Y0302343D01*
X0287500Y0220104D02*
X0287500Y0142500D01*
X0287657Y0142343D01*
X0312106Y0142343D01*
X0287500Y0142500D02*
X0287500Y0086949D01*
X0312106Y0062343D01*
X0262894Y0042657D02*
X0232106Y0042657D01*
X0232106Y0062343D02*
X0207500Y0086949D01*
X0207500Y0142500D01*
X0207657Y0142343D01*
X0232106Y0142343D01*
X0232106Y0122657D02*
X0262894Y0122657D01*
X0207500Y0142500D02*
X0207500Y0222500D01*
X0182894Y0202657D02*
X0152106Y0202657D01*
X0152106Y0222343D02*
X0127657Y0222343D01*
X0127500Y0222500D01*
X0127500Y0141479D01*
X0128363Y0142343D01*
X0152106Y0142343D01*
X0152106Y0122657D02*
X0182894Y0122657D01*
X0127500Y0086949D02*
X0152106Y0062343D01*
X0152106Y0042657D02*
X0182894Y0042657D01*
X0127500Y0086949D02*
X0127500Y0141479D01*
X0102894Y0122657D02*
X0072106Y0122657D01*
X0072106Y0142343D02*
X0048110Y0142343D01*
X0047500Y0142953D01*
X0047500Y0086949D01*
X0072106Y0062343D01*
X0072106Y0042657D02*
X0102894Y0042657D01*
X0047500Y0142953D02*
X0047500Y0222500D01*
X0047657Y0222343D01*
X0072106Y0222343D01*
X0072106Y0202657D02*
X0102894Y0202657D01*
X0127500Y0222500D02*
X0127500Y0277500D01*
X0152106Y0302106D01*
X0152106Y0302343D01*
X0152106Y0282657D02*
X0182894Y0282657D01*
X0182894Y0302343D02*
X0182500Y0302736D01*
X0182500Y0327500D01*
X0192500Y0337500D01*
X0232106Y0302343D02*
X0232106Y0302106D01*
X0112500Y0337500D02*
X0102500Y0327500D01*
X0102500Y0302736D01*
X0102894Y0302343D01*
X0102894Y0282657D02*
X0072106Y0282657D01*
X0072106Y0302106D02*
X0047500Y0277500D01*
X0047500Y0222500D01*
X0072106Y0302106D02*
X0072106Y0302343D01*
X0032500Y0337500D02*
X0022500Y0327500D01*
X0022500Y0302736D01*
X0022894Y0302343D01*
D18*
X0102894Y0142343D02*
X0103500Y0142500D01*
X0162500Y0382500D02*
X0162500Y0392500D01*
X0167500Y0397500D01*
X0262500Y0397500D01*
X0266900Y0401900D01*
X0281930Y0401900D01*
X0287530Y0407500D01*
X0297500Y0402500D02*
X0292500Y0397500D01*
X0272500Y0397500D01*
X0267500Y0392500D01*
X0172500Y0392500D01*
X0172500Y0382500D01*
X0297500Y0392500D02*
X0307500Y0392500D01*
X0307500Y0407500D01*
M02*
