G75*
%MOIN*%
%OFA0B0*%
%FSLAX25Y25*%
%IPPOS*%
%LPD*%
%AMOC8*
5,1,8,0,0,1.08239X$1,22.5*
%
%ADD10R,0.06600X0.06600*%
%ADD11C,0.06600*%
%ADD12C,0.07400*%
%ADD13C,0.08500*%
%ADD14OC8,0.05200*%
D10*
X0152500Y0382500D03*
D11*
X0162500Y0382500D03*
X0172500Y0382500D03*
X0182500Y0382500D03*
X0192500Y0382500D03*
X0202500Y0382500D03*
X0212500Y0382500D03*
X0222500Y0382500D03*
X0232500Y0382500D03*
X0242500Y0382500D03*
X0242500Y0412500D03*
X0232500Y0412500D03*
X0222500Y0412500D03*
X0212500Y0412500D03*
X0202500Y0412500D03*
X0192500Y0412500D03*
X0182500Y0412500D03*
X0172500Y0412500D03*
X0162500Y0412500D03*
X0152500Y0412500D03*
D12*
X0097500Y0402500D03*
X0097500Y0392500D03*
X0087500Y0392500D03*
X0087500Y0402500D03*
X0077500Y0402500D03*
X0077500Y0392500D03*
X0067500Y0392500D03*
X0067500Y0402500D03*
X0057500Y0402500D03*
X0057500Y0392500D03*
X0062500Y0337500D03*
X0032500Y0337500D03*
X0112500Y0337500D03*
X0142500Y0337500D03*
X0192500Y0337500D03*
X0222500Y0337500D03*
X0272500Y0337500D03*
X0302500Y0337500D03*
X0297500Y0382500D03*
X0297500Y0392500D03*
X0297500Y0402500D03*
X0297500Y0412500D03*
D13*
X0022894Y0042657D03*
X0022894Y0062343D03*
X0072106Y0062343D03*
X0072106Y0042657D03*
X0102894Y0042657D03*
X0102894Y0062343D03*
X0152106Y0062343D03*
X0152106Y0042657D03*
X0182894Y0042657D03*
X0182894Y0062343D03*
X0232106Y0062343D03*
X0232106Y0042657D03*
X0262894Y0042657D03*
X0262894Y0062343D03*
X0312106Y0062343D03*
X0312106Y0042657D03*
X0312106Y0122657D03*
X0312106Y0142343D03*
X0262894Y0142343D03*
X0262894Y0122657D03*
X0232106Y0122657D03*
X0232106Y0142343D03*
X0182894Y0142343D03*
X0182894Y0122657D03*
X0152106Y0122657D03*
X0152106Y0142343D03*
X0102894Y0142343D03*
X0102894Y0122657D03*
X0072106Y0122657D03*
X0072106Y0142343D03*
X0022894Y0142343D03*
X0022894Y0122657D03*
X0022894Y0202657D03*
X0022894Y0222343D03*
X0072106Y0222343D03*
X0072106Y0202657D03*
X0102894Y0202657D03*
X0102894Y0222343D03*
X0152106Y0222343D03*
X0152106Y0202657D03*
X0182894Y0202657D03*
X0182894Y0222343D03*
X0232106Y0222343D03*
X0232106Y0202657D03*
X0262894Y0202657D03*
X0262894Y0222343D03*
X0312106Y0222343D03*
X0312106Y0202657D03*
X0312106Y0282657D03*
X0312106Y0302343D03*
X0262894Y0302343D03*
X0262894Y0282657D03*
X0232106Y0282657D03*
X0232106Y0302343D03*
X0182894Y0302343D03*
X0182894Y0282657D03*
X0152106Y0282657D03*
X0152106Y0302343D03*
X0102894Y0302343D03*
X0102894Y0282657D03*
X0072106Y0282657D03*
X0072106Y0302343D03*
X0022894Y0302343D03*
X0022894Y0282657D03*
D14*
X0272500Y0387500D03*
X0272500Y0407500D03*
M02*
